M48
;Layer_Color=9474304
;FILE_FORMAT=4:3
METRIC,LZ
;TYPE=PLATED
T1F00S00C0.450
%
T01
X0003Y0003
Y001
Y0017
Y0024
X0010029Y0024759
X0013615Y0027186
X0017121Y0024
X00185Y0021986
X0020599Y0024325
X00198Y0025154
X0020403Y0026771
X0024165Y0022964
X002676Y0021745
X0024Y0017
X0020582Y0018042
X0017Y0017
Y001
X00198Y0011966
X0024038Y0011946
X00255Y0013491
X0024Y0003
X0021264
X0017
X001
Y001
X00115Y0014232
X001Y0017
X00275Y0019024
X0031Y0017
X0034597Y0018042
X0038Y0017
X0041271Y001474
X0045Y0017
X004649Y0013491
X0045Y001
X0052
X00535Y001474
X0052Y0017
Y0024
X0042172
Y002617
X0041271Y002109
X0038Y0024
X0033857
Y0022315
X0030623Y002369
X00275Y002603
X0034587Y0027186
X0033857Y001347
X0035352
X0030996Y0011946
X002824Y0014232
X0038Y001
Y0003
X0031
X0045
X0052
Y0031
Y0038
X0045
Y0045
X0052
Y0052
X0045
X0038
X0033857Y0049792
X0031Y0052
X0030996Y0046998
X0031Y0038
X0034611Y0036305
X0033846Y0033215
X0035352Y003314
X0035337Y0029337
X0038Y0031
X0042172Y003346
X0045Y003026
X0038Y0038
X00395Y0041664
X0035314
X0038Y0045
X00275Y0034485
X002824Y0030996
Y0028146
X00275Y00275
X0021281Y0029413
X0021145Y0031013
X0019641Y0029313
X0017Y0031
X0013615Y0032624
X0009956Y0030306
X0003Y0031
Y0038
Y0045
X00045Y0049792
X0003Y0052
X001
X0017
Y0045
Y0038
X0020462
X0024
X0019663Y0034485
X001Y0038
Y0045
X0023991Y0047001
X0024Y0052
X00268Y0052011
M30
