%TF.GenerationSoftware,Altium Limited,Altium Designer,21.6.1 (37)*%
G04 Layer_Physical_Order=1*
G04 Layer_Color=255*
%FSLAX43Y43*%
%MOMM*%
%TF.SameCoordinates,0B018110-BEA4-4537-A367-E08E1C829F5E*%
%TF.FilePolarity,Positive*%
%TF.FileFunction,Copper,L1,Top,Signal*%
%TF.Part,Single*%
G01*
G75*
%TA.AperFunction,SMDPad,CuDef*%
%ADD10R,1.500X2.600*%
%TA.AperFunction,Conductor*%
%ADD11C,0.508*%
%ADD12C,0.381*%
%TA.AperFunction,ViaPad*%
%ADD13C,0.800*%
D10*
X32500Y10000D02*
D03*
X29500D02*
D03*
X1500Y52000D02*
D03*
X4500D02*
D03*
X11500D02*
D03*
X8500D02*
D03*
X15500D02*
D03*
X18500D02*
D03*
X25500D02*
D03*
X22500D02*
D03*
X29500D02*
D03*
X32500D02*
D03*
X39500D02*
D03*
X36500D02*
D03*
X43500D02*
D03*
X46500D02*
D03*
X53500D02*
D03*
X50500D02*
D03*
X1500Y45000D02*
D03*
X4500D02*
D03*
X11500D02*
D03*
X8500D02*
D03*
X15500D02*
D03*
X18500D02*
D03*
X25500D02*
D03*
X22500D02*
D03*
X29500D02*
D03*
X32500D02*
D03*
X39500D02*
D03*
X36500D02*
D03*
X43500D02*
D03*
X46500D02*
D03*
X53500D02*
D03*
X50500D02*
D03*
X1500Y38000D02*
D03*
X4500D02*
D03*
X11500D02*
D03*
X8500D02*
D03*
X15500D02*
D03*
X18500D02*
D03*
X25500D02*
D03*
X22500D02*
D03*
X29500D02*
D03*
X32500D02*
D03*
X39500D02*
D03*
X36500D02*
D03*
X43500D02*
D03*
X46500D02*
D03*
X53500D02*
D03*
X50500D02*
D03*
X1500Y31000D02*
D03*
X4500D02*
D03*
X11500D02*
D03*
X8500D02*
D03*
X15500D02*
D03*
X18500D02*
D03*
X25500D02*
D03*
X22500D02*
D03*
X29500D02*
D03*
X32500D02*
D03*
X39500D02*
D03*
X36500D02*
D03*
X43500D02*
D03*
X46500D02*
D03*
X53500D02*
D03*
X50500D02*
D03*
X1500Y24000D02*
D03*
X4500D02*
D03*
X11500D02*
D03*
X8500D02*
D03*
X15500D02*
D03*
X18500D02*
D03*
X25500D02*
D03*
X22500D02*
D03*
X29500D02*
D03*
X32500D02*
D03*
X39500D02*
D03*
X36500D02*
D03*
X43500D02*
D03*
X46500D02*
D03*
X53500D02*
D03*
X50500D02*
D03*
X1500Y17000D02*
D03*
X4500D02*
D03*
X11500D02*
D03*
X8500D02*
D03*
X15530Y17021D02*
D03*
X18530D02*
D03*
X25500Y17000D02*
D03*
X22500D02*
D03*
X29500D02*
D03*
X32500D02*
D03*
X39500D02*
D03*
X36500D02*
D03*
X43500D02*
D03*
X46500D02*
D03*
X53500D02*
D03*
X50500D02*
D03*
X1500Y10000D02*
D03*
X4500D02*
D03*
X11500D02*
D03*
X8500D02*
D03*
X15500D02*
D03*
X18500D02*
D03*
X25500D02*
D03*
X22500D02*
D03*
X39500D02*
D03*
X36500D02*
D03*
X43500D02*
D03*
X46500D02*
D03*
X53500D02*
D03*
X50500D02*
D03*
X1500Y3000D02*
D03*
X4500D02*
D03*
X11500D02*
D03*
X8500D02*
D03*
X15500D02*
D03*
X18500D02*
D03*
X25500D02*
D03*
X22500D02*
D03*
X29500D02*
D03*
X32500D02*
D03*
X39500D02*
D03*
X36500D02*
D03*
X43500D02*
D03*
X46500D02*
D03*
X53500D02*
D03*
X50500D02*
D03*
D11*
X18500Y10000D02*
Y21986D01*
Y24000D01*
X15500D02*
X17121D01*
X21145Y31013D02*
X22487D01*
X22500Y31000D01*
X53500Y14740D02*
Y17000D01*
Y10000D02*
Y14740D01*
X29500Y24000D02*
X29810Y23690D01*
X30623D01*
X36500Y24000D02*
X38000D01*
X32500Y17000D02*
Y24000D01*
Y10000D02*
Y17000D01*
X25500D02*
Y24000D01*
Y38000D01*
Y13491D02*
Y17000D01*
X42172Y24000D02*
X43500D01*
X46500Y10000D02*
Y17000D01*
X36500D02*
X38000D01*
X36500Y38000D02*
X38000D01*
X36500Y45000D02*
X38000D01*
X36500Y52000D02*
X38000D01*
X46500Y38000D02*
Y45000D01*
Y52000D01*
X39500Y41664D02*
Y45000D01*
Y38000D02*
Y41664D01*
X25500Y10000D02*
Y13491D01*
X24109Y23020D02*
X24165Y22964D01*
X24109Y23020D02*
Y23659D01*
X23768Y24000D02*
X24109Y23659D01*
X20591Y18051D02*
Y24316D01*
X20599Y24325D01*
X20582Y18042D02*
X20591Y18051D01*
X11500Y14232D02*
Y17000D01*
Y10000D02*
Y14232D01*
X28240Y30996D02*
X29496D01*
X29500Y31000D01*
X43500Y38000D02*
X45000D01*
X32500D02*
Y45000D01*
Y31000D02*
Y38000D01*
Y24000D02*
Y31000D01*
X29500Y38000D02*
X31000D01*
X30996Y45298D02*
Y46998D01*
X4500Y49792D02*
Y52000D01*
Y45000D02*
Y49792D01*
X15500Y31000D02*
X17000D01*
X4500Y24000D02*
Y31000D01*
Y17000D02*
Y24000D01*
X29500Y17000D02*
X31000D01*
X22500D02*
X24000D01*
X25500Y38000D02*
Y45000D01*
X50500Y24000D02*
X52000D01*
X36500Y31000D02*
X38000D01*
X23630Y44966D02*
X23991Y45327D01*
Y47001D01*
X22534Y44966D02*
X23630D01*
X22500Y45000D02*
X22534Y44966D01*
X29500Y45000D02*
X30698D01*
X30996Y45298D01*
X24033Y10298D02*
Y11961D01*
X30996Y10298D02*
Y11946D01*
X29500Y10000D02*
X30698D01*
X30996Y10298D01*
X22500Y10000D02*
X23735D01*
X24033Y10298D01*
Y11961D02*
X24038Y11966D01*
X8996Y30306D02*
X9956D01*
X4500Y31000D02*
Y38000D01*
Y45000D01*
Y10000D02*
Y17000D01*
Y3000D02*
Y10000D01*
X46500Y24000D02*
Y31000D01*
X25500Y45000D02*
Y52000D01*
X46500Y17000D02*
Y24000D01*
X53500Y38000D02*
Y45000D01*
X46500Y31000D02*
Y38000D01*
X53500Y45000D02*
Y52000D01*
X39500Y3000D02*
Y10000D01*
X11500Y3000D02*
Y10000D01*
X43500Y30756D02*
X43996Y30260D01*
X8500Y3000D02*
X10000D01*
X1500Y10000D02*
X3000D01*
X50500D02*
X52000D01*
X43500D02*
X45000D01*
X8500Y24000D02*
Y24263D01*
X1500Y45000D02*
X3000D01*
X15551Y17000D02*
X17000D01*
X15500Y45000D02*
X17000D01*
X8500Y30802D02*
X8996Y30306D01*
X22500Y38000D02*
X24000D01*
X8500Y45000D02*
X10000D01*
X53500Y17000D02*
Y24000D01*
X25500Y3000D02*
Y10000D01*
X18500Y3000D02*
Y10000D01*
X46500Y3000D02*
Y10000D01*
X11500Y24000D02*
Y31000D01*
X53500Y3000D02*
Y10000D01*
X11500Y31000D02*
Y38000D01*
Y17000D02*
Y24000D01*
X32500Y3000D02*
Y10000D01*
X15500Y3000D02*
X17000D01*
X22500D02*
X24000D01*
X8996Y24759D02*
X10029D01*
X8500Y24263D02*
X8996Y24759D01*
X43500Y30756D02*
Y31000D01*
X8500Y30802D02*
Y31000D01*
X39500Y17000D02*
Y24000D01*
X32500Y45000D02*
Y52000D01*
X11500Y45000D02*
Y52000D01*
X18500Y24000D02*
Y31000D01*
X11500Y38000D02*
Y45000D01*
X18500Y38000D02*
Y45000D01*
Y52000D01*
X39500Y10000D02*
Y17000D01*
X18500Y31000D02*
Y38000D01*
X1500Y3000D02*
X3000D01*
X43996Y30260D02*
X45000D01*
X8500Y17000D02*
X10000D01*
X36500Y10000D02*
X38000D01*
X50500Y17000D02*
X52000D01*
X1500D02*
X3000D01*
X1500Y24000D02*
X3000D01*
X8500Y10000D02*
X10000D01*
X15530Y17021D02*
X15551Y17000D01*
X8500Y38000D02*
X10000D01*
X50500Y31000D02*
X52000D01*
X43500Y45000D02*
X45000D01*
X50500Y38000D02*
X52000D01*
X15500D02*
X17000D01*
X1500D02*
X3000D01*
X15500Y10000D02*
X17000D01*
X43500Y17000D02*
X45000D01*
X1500Y31000D02*
X3000D01*
X50500Y45000D02*
X52000D01*
X53500Y24000D02*
Y31000D01*
X39500Y45000D02*
Y52000D01*
X53500Y31000D02*
Y38000D01*
X39500Y24000D02*
Y31000D01*
Y38000D01*
X22500Y24000D02*
X23768D01*
X8500Y52000D02*
X10000D01*
X22500D02*
X24000D01*
X15500D02*
X17000D01*
X29500D02*
X31000D01*
X50500D02*
X52000D01*
X43500D02*
X45000D01*
X1500D02*
X3000D01*
X29500Y3000D02*
X31000D01*
X50500D02*
X52000D01*
X36500D02*
X38000D01*
X43500D02*
X45000D01*
D12*
X27500Y19024D02*
Y26030D01*
X28240Y14232D02*
Y28146D01*
X20403Y26771D02*
Y37941D01*
X20462Y38000D01*
X19663Y29335D02*
Y34485D01*
X19641Y29313D02*
X19663Y29335D01*
X21281Y29413D02*
X21344Y29350D01*
Y3080D02*
Y29350D01*
X21264Y3000D02*
X21344Y3080D01*
X41271Y14740D02*
Y21090D01*
X33856Y16796D02*
Y19928D01*
X33857Y19929D01*
Y13470D02*
Y16795D01*
X34597Y18042D02*
X34597Y18043D01*
X33856Y16796D02*
X33857Y16795D01*
X34597Y18043D02*
Y27175D01*
X35337Y13485D02*
Y29337D01*
X33857Y19929D02*
Y22315D01*
X26760Y21745D02*
Y51970D01*
X42172Y26170D02*
Y33460D01*
X32500Y24000D02*
X33857D01*
X34587Y27186D02*
Y36281D01*
Y27186D02*
X34597Y27175D01*
X33852Y49787D02*
X33857Y49792D01*
X33852Y33220D02*
Y49787D01*
X33846Y33215D02*
X33852Y33220D01*
X35352Y33140D02*
Y41626D01*
X35314Y41664D02*
X35352Y41626D01*
X19800Y11966D02*
Y25154D01*
X27500Y27500D02*
Y34485D01*
X26760Y51970D02*
X26800Y52011D01*
X13615Y27186D02*
Y32624D01*
D13*
X18500Y21986D02*
D03*
X17121Y24000D02*
D03*
X27500Y19024D02*
D03*
X17000Y31000D02*
D03*
X20462Y38000D02*
D03*
X19641Y29313D02*
D03*
X21281Y29413D02*
D03*
X21145Y31013D02*
D03*
X19663Y34485D02*
D03*
X20403Y26771D02*
D03*
X53500Y14740D02*
D03*
X41271D02*
D03*
Y21090D02*
D03*
X30623Y23690D02*
D03*
X34597Y18042D02*
D03*
X38000Y24000D02*
D03*
X33857Y22315D02*
D03*
X26760Y21745D02*
D03*
X42172Y26170D02*
D03*
Y24000D02*
D03*
X35337Y29337D02*
D03*
X33857Y24000D02*
D03*
X34587Y27186D02*
D03*
X46490Y13491D02*
D03*
X38000Y17000D02*
D03*
X35352Y13470D02*
D03*
X33846Y33215D02*
D03*
X35352Y33140D02*
D03*
X38000Y38000D02*
D03*
Y45000D02*
D03*
Y52000D02*
D03*
X39500Y41664D02*
D03*
X35314D02*
D03*
X34611Y36305D02*
D03*
X25500Y13491D02*
D03*
X33857Y13470D02*
D03*
X24165Y22964D02*
D03*
X20599Y24325D02*
D03*
X19800Y25154D02*
D03*
X11500Y14232D02*
D03*
X28240D02*
D03*
Y28146D02*
D03*
Y30996D02*
D03*
X27500Y34485D02*
D03*
X45000Y38000D02*
D03*
X42172Y33460D02*
D03*
X31000Y38000D02*
D03*
X30996Y46998D02*
D03*
X4500Y49792D02*
D03*
X33857D02*
D03*
X21264Y3000D02*
D03*
X27500Y27500D02*
D03*
X19800Y11966D02*
D03*
X27500Y26030D02*
D03*
X3000Y31000D02*
D03*
X13615Y27186D02*
D03*
X26800Y52011D02*
D03*
X31000Y17000D02*
D03*
X20582Y18042D02*
D03*
X24000Y17000D02*
D03*
X13615Y32624D02*
D03*
X52000Y24000D02*
D03*
X38000Y31000D02*
D03*
X23991Y47001D02*
D03*
X24038Y11946D02*
D03*
X30996D02*
D03*
X9956Y30306D02*
D03*
X10029Y24759D02*
D03*
X45000Y30260D02*
D03*
X3000Y52000D02*
D03*
Y45000D02*
D03*
Y38000D02*
D03*
Y24000D02*
D03*
Y17000D02*
D03*
Y10000D02*
D03*
X52000D02*
D03*
X38000D02*
D03*
X17000D02*
D03*
X10000D02*
D03*
X45000D02*
D03*
X52000Y3000D02*
D03*
X38000D02*
D03*
X31000D02*
D03*
X24000D02*
D03*
X17000D02*
D03*
X10000D02*
D03*
X3000D02*
D03*
X45000D02*
D03*
X52000Y17000D02*
D03*
X17000D02*
D03*
X10000D02*
D03*
X45000D02*
D03*
X52000Y31000D02*
D03*
Y38000D02*
D03*
X24000D02*
D03*
X17000D02*
D03*
X10000D02*
D03*
X45000Y45000D02*
D03*
X10000D02*
D03*
X17000D02*
D03*
X52000D02*
D03*
Y52000D02*
D03*
X45000D02*
D03*
X31000D02*
D03*
X24000D02*
D03*
X17000D02*
D03*
X10000D02*
D03*
%TF.MD5,e8fec883908b512573798d2a57597b3e*%
M02*
