%TF.GenerationSoftware,Altium Limited,Altium Designer,21.6.1 (37)*%
G04 Layer_Color=32896*
%FSLAX43Y43*%
%MOMM*%
%TF.SameCoordinates,0B018110-BEA4-4537-A367-E08E1C829F5E*%
%TF.FilePolarity,Positive*%
%TF.FileFunction,Legend,Bot*%
%TF.Part,Single*%
G01*
G75*
%TA.AperFunction,NonConductor*%
%ADD22C,0.200*%
%ADD23C,0.250*%
%ADD24C,0.500*%
%ADD25C,0.254*%
%ADD26C,0.152*%
D22*
X21920Y46450D02*
Y54864D01*
X33080Y46450D02*
Y54864D01*
X21920Y46450D02*
X33080D01*
X21920Y54864D02*
X33080D01*
X136Y21920D02*
Y33080D01*
X8550Y21920D02*
Y33080D01*
X136D02*
X8550D01*
X136Y21920D02*
X8550D01*
X24621Y19800D02*
X30379D01*
Y35200D01*
X24621D02*
X30379D01*
X24621Y19800D02*
Y35200D01*
X24010Y-40D02*
Y425D01*
X23370Y-40D02*
Y425D01*
Y-40D02*
X24010D01*
X26550D02*
Y425D01*
X25910Y-40D02*
Y425D01*
Y-40D02*
X26550D01*
X29090D02*
Y425D01*
X28450Y-40D02*
Y425D01*
Y-40D02*
X29090D01*
X31630D02*
Y425D01*
X30990Y-40D02*
Y425D01*
Y-40D02*
X31630D01*
X32730Y425D02*
Y4575D01*
X22270Y425D02*
X32730D01*
X22270D02*
Y4575D01*
X32730D01*
X50425Y22270D02*
Y32730D01*
Y22270D02*
X54575D01*
Y32730D01*
X50425D02*
X54575D01*
X55040Y30990D02*
Y31630D01*
X54575Y30990D02*
X55040D01*
X54575Y31630D02*
X55040D01*
Y28450D02*
Y29090D01*
X54575Y28450D02*
X55040D01*
X54575Y29090D02*
X55040D01*
Y23370D02*
Y24010D01*
X54575Y23370D02*
X55040D01*
Y25910D02*
Y26550D01*
X54575Y25910D02*
X55040D01*
X54575Y26550D02*
X55040D01*
X54575Y24010D02*
X55040D01*
D23*
X21448Y20515D02*
G03*
X21448Y20515I-125J0D01*
G01*
D24*
X25621Y20550D02*
G03*
X25621Y20550I-250J0D01*
G01*
D25*
X44704Y21336D02*
X49121D01*
X54195Y53771D02*
X54872D01*
X54195Y54448D01*
Y54618D01*
X54364Y54787D01*
X54703D01*
X54872Y54618D01*
X53856Y53771D02*
X53518D01*
X53687D01*
Y54787D01*
X53856Y54618D01*
X52333Y53771D02*
X53010D01*
X52333Y54448D01*
Y54618D01*
X52502Y54787D01*
X52841D01*
X53010Y54618D01*
X51317Y54787D02*
X51656Y54618D01*
X51994Y54279D01*
Y53941D01*
X51825Y53771D01*
X51486D01*
X51317Y53941D01*
Y54110D01*
X51486Y54279D01*
X51994D01*
X50979Y53602D02*
X50301D01*
X49963Y53771D02*
X49624D01*
X49794D01*
Y54787D01*
X49963Y54618D01*
X21770Y8262D02*
X20754Y6738D01*
Y8262D02*
X21770Y6738D01*
X19484D02*
Y8262D01*
X20246Y7500D01*
X19230D01*
X48006Y20828D02*
X46990Y19304D01*
Y20828D02*
X48006Y19304D01*
X46482Y20574D02*
X46228Y20828D01*
X45720D01*
X45466Y20574D01*
Y20320D01*
X45720Y20066D01*
X45974D01*
X45720D01*
X45466Y19812D01*
Y19558D01*
X45720Y19304D01*
X46228D01*
X46482Y19558D01*
X13470Y35262D02*
X12454Y33738D01*
Y35262D02*
X13470Y33738D01*
X10930D02*
X11946D01*
X10930Y34754D01*
Y35008D01*
X11184Y35262D01*
X11692D01*
X11946Y35008D01*
X36516Y43562D02*
X35500Y42038D01*
Y43562D02*
X36516Y42038D01*
X34992D02*
X34484D01*
X34738D01*
Y43562D01*
X34992Y43308D01*
X28202Y37600D02*
Y36330D01*
X27948Y36076D01*
X27440D01*
X27186Y36330D01*
Y37600D01*
X26678Y36076D02*
X26170D01*
X26424D01*
Y37600D01*
X26678Y37346D01*
X38501Y30424D02*
Y31948D01*
X37739D01*
X37486Y31694D01*
Y31186D01*
X37739Y30932D01*
X38501D01*
X37993D02*
X37486Y30424D01*
X36978D02*
X36470D01*
X36724D01*
Y31948D01*
X36978Y31694D01*
X27500Y16010D02*
X27754Y16264D01*
X28262D01*
X28516Y16010D01*
Y14994D01*
X28262Y14740D01*
X27754D01*
X27500Y14994D01*
X26992Y14740D02*
X26484D01*
X26738D01*
Y16264D01*
X26992Y16010D01*
D26*
X32170Y40554D02*
X32339Y40384D01*
X32678D01*
X32847Y40554D01*
Y40723D01*
X32678Y40892D01*
X32847Y41061D01*
Y41231D01*
X32678Y41400D01*
X32339D01*
X32170Y41231D01*
Y41061D01*
X32339Y40892D01*
X32170Y40723D01*
Y40554D01*
X32339Y40892D02*
X32678D01*
X32170Y43484D02*
X32847D01*
Y43654D01*
X32170Y44331D01*
Y44500D01*
X22807Y41400D02*
X22130D01*
X22807Y40723D01*
Y40554D01*
X22638Y40384D01*
X22299D01*
X22130Y40554D01*
X22430Y44500D02*
X22769D01*
X22599D01*
Y43484D01*
X22430Y43654D01*
X10500Y22430D02*
Y22769D01*
Y22599D01*
X11516D01*
X11346Y22430D01*
X13600Y22807D02*
Y22130D01*
X14277Y22807D01*
X14446D01*
X14616Y22638D01*
Y22299D01*
X14446Y22130D01*
X11516Y32170D02*
Y32847D01*
X11346D01*
X10669Y32170D01*
X10500D01*
X14446D02*
X14616Y32339D01*
Y32678D01*
X14446Y32847D01*
X14277D01*
X14108Y32678D01*
X13939Y32847D01*
X13769D01*
X13600Y32678D01*
Y32339D01*
X13769Y32170D01*
X13939D01*
X14108Y32339D01*
X14277Y32170D01*
X14446D01*
X14108Y32339D02*
Y32678D01*
X21953Y9500D02*
X22630D01*
X21953Y10177D01*
Y10346D01*
X22122Y10516D01*
X22461D01*
X22630Y10346D01*
Y5800D02*
X22291D01*
X22461D01*
Y6816D01*
X22630Y6646D01*
X32970Y10346D02*
X32801Y10516D01*
X32462D01*
X32293Y10346D01*
Y10177D01*
X32462Y10008D01*
X32293Y9839D01*
Y9669D01*
X32462Y9500D01*
X32801D01*
X32970Y9669D01*
Y9839D01*
X32801Y10008D01*
X32970Y10177D01*
Y10346D01*
X32801Y10008D02*
X32462D01*
X32970Y6816D02*
X32293D01*
Y6646D01*
X32970Y5969D01*
Y5800D01*
X45500Y21953D02*
Y22630D01*
X44823Y21953D01*
X44654D01*
X44484Y22122D01*
Y22461D01*
X44654Y22630D01*
X49200D02*
Y22291D01*
Y22461D01*
X48184D01*
X48354Y22630D01*
X44654Y32970D02*
X44484Y32801D01*
Y32462D01*
X44654Y32293D01*
X44823D01*
X44992Y32462D01*
X45161Y32293D01*
X45331D01*
X45500Y32462D01*
Y32801D01*
X45331Y32970D01*
X45161D01*
X44992Y32801D01*
X44823Y32970D01*
X44654D01*
X44992Y32801D02*
Y32462D01*
X48184Y32970D02*
Y32293D01*
X48354D01*
X49031Y32970D01*
X49200D01*
%TF.MD5,ffe382e04db2841ba1287cd5fc725b17*%
M02*
