%TF.GenerationSoftware,Altium Limited,Altium Designer,22.2.1 (43)*%
G04 Layer_Color=255*
%FSLAX43Y43*%
%MOMM*%
%TF.SameCoordinates,12936C2D-F9F3-4D5E-B855-D0F9E265F173*%
%TF.FilePolarity,Positive*%
%TF.FileFunction,Pads,Top*%
%TF.Part,Single*%
G01*
G75*
%TA.AperFunction,SMDPad,CuDef*%
%ADD10R,1.500X2.600*%
D10*
X33000Y10000D02*
D03*
X30000D02*
D03*
X2000Y52000D02*
D03*
X5000D02*
D03*
X12000D02*
D03*
X9000D02*
D03*
X16000D02*
D03*
X19000D02*
D03*
X26000D02*
D03*
X23000D02*
D03*
X30000D02*
D03*
X33000D02*
D03*
X40000D02*
D03*
X37000D02*
D03*
X44000D02*
D03*
X47000D02*
D03*
X54000D02*
D03*
X51000D02*
D03*
X2000Y45000D02*
D03*
X5000D02*
D03*
X12000D02*
D03*
X9000D02*
D03*
X16000D02*
D03*
X19000D02*
D03*
X26000D02*
D03*
X23000D02*
D03*
X30000D02*
D03*
X33000D02*
D03*
X40000D02*
D03*
X37000D02*
D03*
X44000D02*
D03*
X47000D02*
D03*
X54000D02*
D03*
X51000D02*
D03*
X2000Y38000D02*
D03*
X5000D02*
D03*
X12000D02*
D03*
X9000D02*
D03*
X16000D02*
D03*
X19000D02*
D03*
X26000D02*
D03*
X23000D02*
D03*
X30000D02*
D03*
X33000D02*
D03*
X40000D02*
D03*
X37000D02*
D03*
X44000D02*
D03*
X47000D02*
D03*
X54000D02*
D03*
X51000D02*
D03*
X2000Y31000D02*
D03*
X5000D02*
D03*
X12000D02*
D03*
X9000D02*
D03*
X16000D02*
D03*
X19000D02*
D03*
X26000D02*
D03*
X23000D02*
D03*
X30000D02*
D03*
X33000D02*
D03*
X40000D02*
D03*
X37000D02*
D03*
X44000D02*
D03*
X47000D02*
D03*
X54000D02*
D03*
X51000D02*
D03*
X2000Y24000D02*
D03*
X5000D02*
D03*
X12000D02*
D03*
X9000D02*
D03*
X16000D02*
D03*
X19000D02*
D03*
X26000D02*
D03*
X23000D02*
D03*
X30000D02*
D03*
X33000D02*
D03*
X40000D02*
D03*
X37000D02*
D03*
X44000D02*
D03*
X47000D02*
D03*
X54000D02*
D03*
X51000D02*
D03*
X2000Y17000D02*
D03*
X5000D02*
D03*
X12000D02*
D03*
X9000D02*
D03*
X16030Y17021D02*
D03*
X19030D02*
D03*
X26000Y17000D02*
D03*
X23000D02*
D03*
X30000D02*
D03*
X33000D02*
D03*
X40000D02*
D03*
X37000D02*
D03*
X44000D02*
D03*
X47000D02*
D03*
X54000D02*
D03*
X51000D02*
D03*
X2000Y10000D02*
D03*
X5000D02*
D03*
X12000D02*
D03*
X9000D02*
D03*
X16000D02*
D03*
X19000D02*
D03*
X26000D02*
D03*
X23000D02*
D03*
X40000D02*
D03*
X37000D02*
D03*
X44000D02*
D03*
X47000D02*
D03*
X54000D02*
D03*
X51000D02*
D03*
X2000Y3000D02*
D03*
X5000D02*
D03*
X12000D02*
D03*
X9000D02*
D03*
X16000D02*
D03*
X19000D02*
D03*
X26000D02*
D03*
X23000D02*
D03*
X30000D02*
D03*
X33000D02*
D03*
X40000D02*
D03*
X37000D02*
D03*
X44000D02*
D03*
X47000D02*
D03*
X54000D02*
D03*
X51000D02*
D03*
%TF.MD5,0ac6bd413e0346d39ff73c7a540e9637*%
M02*
