%TF.GenerationSoftware,Altium Limited,Altium Designer,22.2.1 (43)*%
G04 Layer_Physical_Order=1*
G04 Layer_Color=255*
%FSLAX43Y43*%
%MOMM*%
%TF.SameCoordinates,12936C2D-F9F3-4D5E-B855-D0F9E265F173*%
%TF.FilePolarity,Positive*%
%TF.FileFunction,Copper,L1,Top,Signal*%
%TF.Part,Single*%
G01*
G75*
%TA.AperFunction,SMDPad,CuDef*%
%ADD10R,1.500X2.600*%
%TA.AperFunction,Conductor*%
%ADD11C,0.508*%
%ADD12C,0.381*%
%TA.AperFunction,ViaPad*%
%ADD13C,0.800*%
D10*
X33000Y10000D02*
D03*
X30000D02*
D03*
X2000Y52000D02*
D03*
X5000D02*
D03*
X12000D02*
D03*
X9000D02*
D03*
X16000D02*
D03*
X19000D02*
D03*
X26000D02*
D03*
X23000D02*
D03*
X30000D02*
D03*
X33000D02*
D03*
X40000D02*
D03*
X37000D02*
D03*
X44000D02*
D03*
X47000D02*
D03*
X54000D02*
D03*
X51000D02*
D03*
X2000Y45000D02*
D03*
X5000D02*
D03*
X12000D02*
D03*
X9000D02*
D03*
X16000D02*
D03*
X19000D02*
D03*
X26000D02*
D03*
X23000D02*
D03*
X30000D02*
D03*
X33000D02*
D03*
X40000D02*
D03*
X37000D02*
D03*
X44000D02*
D03*
X47000D02*
D03*
X54000D02*
D03*
X51000D02*
D03*
X2000Y38000D02*
D03*
X5000D02*
D03*
X12000D02*
D03*
X9000D02*
D03*
X16000D02*
D03*
X19000D02*
D03*
X26000D02*
D03*
X23000D02*
D03*
X30000D02*
D03*
X33000D02*
D03*
X40000D02*
D03*
X37000D02*
D03*
X44000D02*
D03*
X47000D02*
D03*
X54000D02*
D03*
X51000D02*
D03*
X2000Y31000D02*
D03*
X5000D02*
D03*
X12000D02*
D03*
X9000D02*
D03*
X16000D02*
D03*
X19000D02*
D03*
X26000D02*
D03*
X23000D02*
D03*
X30000D02*
D03*
X33000D02*
D03*
X40000D02*
D03*
X37000D02*
D03*
X44000D02*
D03*
X47000D02*
D03*
X54000D02*
D03*
X51000D02*
D03*
X2000Y24000D02*
D03*
X5000D02*
D03*
X12000D02*
D03*
X9000D02*
D03*
X16000D02*
D03*
X19000D02*
D03*
X26000D02*
D03*
X23000D02*
D03*
X30000D02*
D03*
X33000D02*
D03*
X40000D02*
D03*
X37000D02*
D03*
X44000D02*
D03*
X47000D02*
D03*
X54000D02*
D03*
X51000D02*
D03*
X2000Y17000D02*
D03*
X5000D02*
D03*
X12000D02*
D03*
X9000D02*
D03*
X16030Y17021D02*
D03*
X19030D02*
D03*
X26000Y17000D02*
D03*
X23000D02*
D03*
X30000D02*
D03*
X33000D02*
D03*
X40000D02*
D03*
X37000D02*
D03*
X44000D02*
D03*
X47000D02*
D03*
X54000D02*
D03*
X51000D02*
D03*
X2000Y10000D02*
D03*
X5000D02*
D03*
X12000D02*
D03*
X9000D02*
D03*
X16000D02*
D03*
X19000D02*
D03*
X26000D02*
D03*
X23000D02*
D03*
X40000D02*
D03*
X37000D02*
D03*
X44000D02*
D03*
X47000D02*
D03*
X54000D02*
D03*
X51000D02*
D03*
X2000Y3000D02*
D03*
X5000D02*
D03*
X12000D02*
D03*
X9000D02*
D03*
X16000D02*
D03*
X19000D02*
D03*
X26000D02*
D03*
X23000D02*
D03*
X30000D02*
D03*
X33000D02*
D03*
X40000D02*
D03*
X37000D02*
D03*
X44000D02*
D03*
X47000D02*
D03*
X54000D02*
D03*
X51000D02*
D03*
D11*
X19000Y10000D02*
Y21986D01*
Y24000D01*
X16000D02*
X17621D01*
X21645Y31013D02*
X22987D01*
X23000Y31000D01*
X54000Y14740D02*
Y17000D01*
Y10000D02*
Y14740D01*
X30000Y24000D02*
X30310Y23690D01*
X31123D01*
X37000Y24000D02*
X38500D01*
X33000Y17000D02*
Y24000D01*
Y10000D02*
Y17000D01*
X26000D02*
Y24000D01*
Y38000D01*
Y13491D02*
Y17000D01*
X42672Y24000D02*
X44000D01*
X47000Y10000D02*
Y17000D01*
X37000D02*
X38500D01*
X37000Y38000D02*
X38500D01*
X37000Y45000D02*
X38500D01*
X37000Y52000D02*
X38500D01*
X47000Y38000D02*
Y45000D01*
Y52000D01*
X40000Y41664D02*
Y45000D01*
Y38000D02*
Y41664D01*
X26000Y10000D02*
Y13491D01*
X24609Y23020D02*
X24665Y22964D01*
X24609Y23020D02*
Y23659D01*
X24268Y24000D02*
X24609Y23659D01*
X21091Y18051D02*
Y24316D01*
X21099Y24325D01*
X21082Y18042D02*
X21091Y18051D01*
X12000Y14232D02*
Y17000D01*
Y10000D02*
Y14232D01*
X28740Y30996D02*
X29996D01*
X30000Y31000D01*
X44000Y38000D02*
X45500D01*
X33000D02*
Y45000D01*
Y31000D02*
Y38000D01*
Y24000D02*
Y31000D01*
X30000Y38000D02*
X31500D01*
X31496Y45298D02*
Y46998D01*
X5000Y49792D02*
Y52000D01*
Y45000D02*
Y49792D01*
X16000Y31000D02*
X17500D01*
X5000Y24000D02*
Y31000D01*
Y17000D02*
Y24000D01*
X30000Y17000D02*
X31500D01*
X23000D02*
X24500D01*
X26000Y38000D02*
Y45000D01*
X51000Y24000D02*
X52500D01*
X37000Y31000D02*
X38500D01*
X24130Y44966D02*
X24491Y45327D01*
Y47001D01*
X23034Y44966D02*
X24130D01*
X23000Y45000D02*
X23034Y44966D01*
X30000Y45000D02*
X31198D01*
X31496Y45298D01*
X24533Y10298D02*
Y11961D01*
X31496Y10298D02*
Y11946D01*
X30000Y10000D02*
X31198D01*
X31496Y10298D01*
X23000Y10000D02*
X24235D01*
X24533Y10298D01*
Y11961D02*
X24538Y11966D01*
X9496Y30306D02*
X10456D01*
X5000Y31000D02*
Y38000D01*
Y45000D01*
Y10000D02*
Y17000D01*
Y3000D02*
Y10000D01*
X47000Y24000D02*
Y31000D01*
X26000Y45000D02*
Y52000D01*
X47000Y17000D02*
Y24000D01*
X54000Y38000D02*
Y45000D01*
X47000Y31000D02*
Y38000D01*
X54000Y45000D02*
Y52000D01*
X40000Y3000D02*
Y10000D01*
X12000Y3000D02*
Y10000D01*
X44000Y30756D02*
X44496Y30260D01*
X9000Y3000D02*
X10500D01*
X2000Y10000D02*
X3500D01*
X51000D02*
X52500D01*
X44000D02*
X45500D01*
X9000Y24000D02*
Y24263D01*
X2000Y45000D02*
X3500D01*
X16051Y17000D02*
X17500D01*
X16000Y45000D02*
X17500D01*
X9000Y30802D02*
X9496Y30306D01*
X23000Y38000D02*
X24500D01*
X9000Y45000D02*
X10500D01*
X54000Y17000D02*
Y24000D01*
X26000Y3000D02*
Y10000D01*
X19000Y3000D02*
Y10000D01*
X47000Y3000D02*
Y10000D01*
X12000Y24000D02*
Y31000D01*
X54000Y3000D02*
Y10000D01*
X12000Y31000D02*
Y38000D01*
Y17000D02*
Y24000D01*
X33000Y3000D02*
Y10000D01*
X16000Y3000D02*
X17500D01*
X23000D02*
X24500D01*
X9496Y24759D02*
X10529D01*
X9000Y24263D02*
X9496Y24759D01*
X44000Y30756D02*
Y31000D01*
X9000Y30802D02*
Y31000D01*
X40000Y17000D02*
Y24000D01*
X33000Y45000D02*
Y52000D01*
X12000Y45000D02*
Y52000D01*
X19000Y24000D02*
Y31000D01*
X12000Y38000D02*
Y45000D01*
X19000Y38000D02*
Y45000D01*
Y52000D01*
X40000Y10000D02*
Y17000D01*
X19000Y31000D02*
Y38000D01*
X2000Y3000D02*
X3500D01*
X44496Y30260D02*
X45500D01*
X9000Y17000D02*
X10500D01*
X37000Y10000D02*
X38500D01*
X51000Y17000D02*
X52500D01*
X2000D02*
X3500D01*
X2000Y24000D02*
X3500D01*
X9000Y10000D02*
X10500D01*
X16030Y17021D02*
X16051Y17000D01*
X9000Y38000D02*
X10500D01*
X51000Y31000D02*
X52500D01*
X44000Y45000D02*
X45500D01*
X51000Y38000D02*
X52500D01*
X16000D02*
X17500D01*
X2000D02*
X3500D01*
X16000Y10000D02*
X17500D01*
X44000Y17000D02*
X45500D01*
X2000Y31000D02*
X3500D01*
X51000Y45000D02*
X52500D01*
X54000Y24000D02*
Y31000D01*
X40000Y45000D02*
Y52000D01*
X54000Y31000D02*
Y38000D01*
X40000Y24000D02*
Y31000D01*
Y38000D01*
X23000Y24000D02*
X24268D01*
X9000Y52000D02*
X10500D01*
X23000D02*
X24500D01*
X16000D02*
X17500D01*
X30000D02*
X31500D01*
X51000D02*
X52500D01*
X44000D02*
X45500D01*
X2000D02*
X3500D01*
X30000Y3000D02*
X31500D01*
X51000D02*
X52500D01*
X37000D02*
X38500D01*
X44000D02*
X45500D01*
D12*
X28000Y19024D02*
Y26030D01*
X28740Y14232D02*
Y28146D01*
X20903Y26771D02*
Y37941D01*
X20962Y38000D01*
X20163Y29335D02*
Y34485D01*
X20141Y29313D02*
X20163Y29335D01*
X21781Y29413D02*
X21844Y29350D01*
Y3080D02*
Y29350D01*
X21764Y3000D02*
X21844Y3080D01*
X41771Y14740D02*
Y21090D01*
X34356Y16796D02*
Y19928D01*
X34357Y19929D01*
Y13470D02*
Y16795D01*
X35097Y18042D02*
X35097Y18043D01*
X34356Y16796D02*
X34357Y16795D01*
X35097Y18043D02*
Y27175D01*
X35837Y13485D02*
Y29337D01*
X34357Y19929D02*
Y22315D01*
X27260Y21745D02*
Y51970D01*
X42672Y26170D02*
Y33460D01*
X33000Y24000D02*
X34357D01*
X35087Y27186D02*
Y36281D01*
Y27186D02*
X35097Y27175D01*
X34352Y49787D02*
X34357Y49792D01*
X34352Y33220D02*
Y49787D01*
X34346Y33215D02*
X34352Y33220D01*
X35852Y33140D02*
Y41626D01*
X35814Y41664D02*
X35852Y41626D01*
X20300Y11966D02*
Y25154D01*
X28000Y27500D02*
Y34485D01*
X27260Y51970D02*
X27300Y52011D01*
X14115Y27186D02*
Y32624D01*
D13*
X19000Y21986D02*
D03*
X17621Y24000D02*
D03*
X28000Y19024D02*
D03*
X17500Y31000D02*
D03*
X20962Y38000D02*
D03*
X20141Y29313D02*
D03*
X21781Y29413D02*
D03*
X21645Y31013D02*
D03*
X20163Y34485D02*
D03*
X20903Y26771D02*
D03*
X54000Y14740D02*
D03*
X41771D02*
D03*
Y21090D02*
D03*
X31123Y23690D02*
D03*
X35097Y18042D02*
D03*
X38500Y24000D02*
D03*
X34357Y22315D02*
D03*
X27260Y21745D02*
D03*
X42672Y26170D02*
D03*
Y24000D02*
D03*
X35837Y29337D02*
D03*
X34357Y24000D02*
D03*
X46990Y13491D02*
D03*
X38500Y17000D02*
D03*
X35852Y13470D02*
D03*
X34346Y33215D02*
D03*
X35852Y33140D02*
D03*
X38500Y38000D02*
D03*
Y45000D02*
D03*
Y52000D02*
D03*
X40000Y41664D02*
D03*
X35814D02*
D03*
X35111Y36305D02*
D03*
X26000Y13491D02*
D03*
X34357Y13470D02*
D03*
X24665Y22964D02*
D03*
X21099Y24325D02*
D03*
X20300Y25154D02*
D03*
X12000Y14232D02*
D03*
X28740D02*
D03*
Y28146D02*
D03*
Y30996D02*
D03*
X28000Y34485D02*
D03*
X45500Y38000D02*
D03*
X42672Y33460D02*
D03*
X31500Y38000D02*
D03*
X31496Y46998D02*
D03*
X5000Y49792D02*
D03*
X34357D02*
D03*
X21764Y3000D02*
D03*
X28000Y27500D02*
D03*
X20300Y11966D02*
D03*
X28000Y26030D02*
D03*
X3500Y31000D02*
D03*
X14115Y27186D02*
D03*
X27300Y52011D02*
D03*
X31500Y17000D02*
D03*
X21082Y18042D02*
D03*
X24500Y17000D02*
D03*
X14115Y32624D02*
D03*
X52500Y24000D02*
D03*
X38500Y31000D02*
D03*
X24491Y47001D02*
D03*
X24538Y11946D02*
D03*
X31496D02*
D03*
X10456Y30306D02*
D03*
X10529Y24759D02*
D03*
X45500Y30260D02*
D03*
X3500Y52000D02*
D03*
Y45000D02*
D03*
Y38000D02*
D03*
Y24000D02*
D03*
Y17000D02*
D03*
Y10000D02*
D03*
X52500D02*
D03*
X38500D02*
D03*
X17500D02*
D03*
X10500D02*
D03*
X45500D02*
D03*
X52500Y3000D02*
D03*
X38500D02*
D03*
X31500D02*
D03*
X24500D02*
D03*
X17500D02*
D03*
X10500D02*
D03*
X3500D02*
D03*
X45500D02*
D03*
X52500Y17000D02*
D03*
X17500D02*
D03*
X10500D02*
D03*
X45500D02*
D03*
X52500Y31000D02*
D03*
Y38000D02*
D03*
X24500D02*
D03*
X17500D02*
D03*
X10500D02*
D03*
X45500Y45000D02*
D03*
X10500D02*
D03*
X17500D02*
D03*
X52500D02*
D03*
Y52000D02*
D03*
X45500D02*
D03*
X31500D02*
D03*
X24500D02*
D03*
X17500D02*
D03*
X10500D02*
D03*
%TF.MD5,934943da3c2927f39caeb6b373eccb6d*%
M02*
