%TF.GenerationSoftware,Altium Limited,Altium Designer,22.2.1 (43)*%
G04 Layer_Physical_Order=2*
G04 Layer_Color=16711680*
%FSLAX43Y43*%
%MOMM*%
%TF.SameCoordinates,12936C2D-F9F3-4D5E-B855-D0F9E265F173*%
%TF.FilePolarity,Positive*%
%TF.FileFunction,Copper,L2,Bot,Signal*%
%TF.Part,Single*%
G01*
G75*
%TA.AperFunction,Conductor*%
%ADD11C,0.508*%
%ADD12C,0.381*%
%TA.AperFunction,ViaPad*%
%ADD13C,0.800*%
%TA.AperFunction,SMDPad,CuDef*%
%ADD14R,0.800X2.500*%
%ADD15R,2.500X0.800*%
%ADD16R,2.500X1.000*%
%ADD17R,1.000X2.500*%
G04:AMPARAMS|DCode=18|XSize=2.298mm|YSize=0.567mm|CornerRadius=0.283mm|HoleSize=0mm|Usage=FLASHONLY|Rotation=0.000|XOffset=0mm|YOffset=0mm|HoleType=Round|Shape=RoundedRectangle|*
%AMROUNDEDRECTD18*
21,1,2.298,0.000,0,0,0.0*
21,1,1.731,0.567,0,0,0.0*
1,1,0.567,0.865,0.000*
1,1,0.567,-0.865,0.000*
1,1,0.567,-0.865,0.000*
1,1,0.567,0.865,0.000*
%
%ADD18ROUNDEDRECTD18*%
%ADD19R,2.298X0.567*%
%ADD20R,1.300X1.450*%
%ADD21R,1.450X1.350*%
D11*
X38000Y26500D02*
X41462D01*
X34468D02*
X38000D01*
X34103Y26865D02*
X34468Y26500D01*
X41462D02*
X42096Y27134D01*
X17926Y19828D02*
X28899D01*
X14790Y22964D02*
X17926Y19828D01*
X14790Y22964D02*
Y23690D01*
X14796D01*
X14942Y23544D01*
X3302Y32774D02*
X10379D01*
X10960Y31310D02*
Y32193D01*
X10379Y32774D02*
X10960Y32193D01*
X2540Y32012D02*
X3302Y32774D01*
X15290Y26230D02*
X17976D01*
X14390D02*
X15290D01*
X43266Y24594D02*
X51827D01*
X42672Y24000D02*
X43266Y24594D01*
X46080Y23690D02*
X46093Y23677D01*
X34764Y18846D02*
X42213D01*
X46093Y22726D02*
Y23677D01*
X42213Y18846D02*
X46093Y22726D01*
X48763Y26476D02*
X49034D01*
X48105Y27134D02*
X48763Y26476D01*
X42096Y27134D02*
X48105D01*
X49034Y26476D02*
X49280Y26230D01*
X52384D01*
X49780Y32476D02*
X50078Y32774D01*
X52832D01*
X49780Y31310D02*
Y32476D01*
X17621Y22194D02*
Y24000D01*
Y22194D02*
X18633Y21182D01*
X20104D01*
X12604Y25025D02*
X16927D01*
X17565Y24079D02*
Y24387D01*
X16927Y25025D02*
X17565Y24387D01*
X28899Y19828D02*
X30088Y18639D01*
X20104Y21182D02*
X21977Y23055D01*
X2540Y30408D02*
Y32012D01*
X6718Y26230D02*
X11260D01*
X2540Y30408D02*
X6718Y26230D01*
X16727Y30306D02*
X17421Y31000D01*
X10456Y30306D02*
X16727D01*
X17421Y31000D02*
X17500D01*
X18989D02*
X19610Y31621D01*
X21038D02*
X21645Y31013D01*
X19610Y31621D02*
X21038D01*
X17500Y31000D02*
X18989D01*
X10529Y24759D02*
X12339D01*
X7439D02*
X10529D01*
X12339D02*
X12604Y25025D01*
X10500Y38000D02*
X31500D01*
X21716Y28145D02*
X23462D01*
X20945Y28917D02*
Y30296D01*
Y28917D02*
X21716Y28145D01*
X20945Y30296D02*
X21645Y30997D01*
Y31013D01*
X35058Y20070D02*
X41889D01*
X42672Y20854D01*
Y24000D01*
X30444Y23011D02*
X31123Y23690D01*
X30444Y20010D02*
Y23011D01*
X30488Y24325D02*
X31123Y23690D01*
X25806Y23020D02*
X27111Y24325D01*
X30488D01*
X34285Y19297D02*
X35058Y20070D01*
X38500Y24000D02*
X42672D01*
X34557Y18639D02*
X34764Y18846D01*
X30088Y18639D02*
X34557D01*
X31158Y19297D02*
X34285D01*
X30444Y20010D02*
X31158Y19297D01*
X24694Y23020D02*
X25806D01*
X32528Y26865D02*
X34103D01*
X34833Y28135D02*
X34966Y28002D01*
X32528Y28135D02*
X34833D01*
X34966Y28002D02*
X37502D01*
X37950Y28450D02*
X38000D01*
X37502Y28002D02*
X37950Y28450D01*
X38500Y17000D02*
X45500D01*
X31421D02*
X38500D01*
X29669Y15248D02*
X31421Y17000D01*
X37338Y30488D02*
Y33635D01*
Y30488D02*
X37676Y30150D01*
X40724D01*
X36488Y34485D02*
X37338Y33635D01*
X36502Y46998D02*
X38500Y45000D01*
X32528Y34485D02*
X36488D01*
X38492Y31008D02*
Y33827D01*
X30773Y35172D02*
X37147D01*
X38492Y33827D01*
Y31008D02*
X38500Y31000D01*
X24506Y23044D02*
X24586Y22964D01*
X23483Y23044D02*
X24506D01*
X24586Y22964D02*
X24665D01*
X23475Y23052D02*
X23483Y23044D01*
X21977Y23055D02*
X23472D01*
X19881Y24325D02*
X21099D01*
X17976Y26230D02*
X19881Y24325D01*
X21099D02*
X23472D01*
X26331Y15248D02*
X29669D01*
X24579Y17000D02*
X26331Y15248D01*
X28740Y31035D02*
Y33140D01*
X30773Y35172D01*
X25879Y28135D02*
X28740Y30996D01*
X23472Y28135D02*
X25879D01*
X38500Y38000D02*
X45500D01*
X52500D01*
X31500D02*
X38500D01*
X40724Y30150D02*
X42104Y28770D01*
X46080D01*
X31494Y47000D02*
X31496Y46998D01*
X24493Y47000D02*
X31494D01*
X22587Y47001D02*
X24491D01*
X31496Y46998D02*
X36502D01*
X24491Y47001D02*
X24493Y47000D01*
X21764Y3000D02*
X24500D01*
X17500D02*
X21764D01*
X20300Y11966D02*
X24538D01*
X19466D02*
X20300D01*
X3500Y31000D02*
X8124D01*
X23462Y28145D02*
X23472Y28135D01*
X24500Y52000D02*
X31500D01*
X52384Y26230D02*
X53594Y27440D01*
X17500Y17000D02*
X24579D01*
X8818Y30306D02*
X10456D01*
X52421Y24000D02*
X52500D01*
X51827Y24594D02*
X52421Y24000D01*
X8124Y31000D02*
X8818Y30306D01*
X20586Y45000D02*
X22587Y47001D01*
X24538Y11946D02*
X31496D01*
X36554D01*
X38500Y10000D01*
X17500D02*
X19466Y11966D01*
X10500Y10000D02*
X17500D01*
X52832Y32774D02*
X53594Y32012D01*
Y27440D02*
Y32012D01*
X38500Y45000D02*
X45500D01*
X10500D02*
X17500D01*
X20586D01*
X45635Y30260D02*
X51760D01*
X44170D02*
X45500D01*
X51760D02*
X52500Y31000D01*
X38500D02*
X43430D01*
X3500Y45000D02*
X10500D01*
X3500Y38000D02*
X10500D01*
X6680Y24000D02*
X7439Y24759D01*
X3500Y24000D02*
X6680D01*
X45500Y45000D02*
X52500D01*
X43430Y31000D02*
X44170Y30260D01*
X31500Y52000D02*
X38500D01*
X45500D01*
X17500D02*
X24500D01*
X10500D02*
X17500D01*
X3500D02*
X10500D01*
X45500D02*
X52500D01*
X38500Y10000D02*
X45500D01*
X52500D01*
X45500Y3000D02*
X52500D01*
X38500D02*
X45500D01*
X31500D02*
X38500D01*
X24500D02*
X31500D01*
X10500D02*
X17500D01*
X3500D02*
X10500D01*
X3500Y10000D02*
X10500D01*
X45500Y17000D02*
X52500D01*
X10500D02*
X17500D01*
X3500D02*
X10500D01*
D12*
X13362Y24431D02*
X16401D01*
X16881Y21928D02*
Y23951D01*
X16401Y24431D02*
X16881Y23951D01*
X11260Y23690D02*
X12621D01*
X13362Y24431D01*
X11810Y26230D02*
X12019Y26440D01*
Y26460D02*
X13508Y27948D01*
X11260Y26230D02*
X11810D01*
X13508Y27948D02*
X18449D01*
X12019Y26440D02*
Y26460D01*
X12558Y28770D02*
X13500Y29711D01*
X16556D01*
X10960Y28770D02*
X12558D01*
X14195Y32544D02*
X14400D01*
X14790Y31310D02*
Y32154D01*
X14400Y32544D02*
X14790Y32154D01*
X14115Y32624D02*
X14195Y32544D01*
X45550Y26200D02*
X45580Y26230D01*
X42702Y26200D02*
X45550D01*
X51409Y23690D02*
X51967Y23133D01*
X52820D01*
X53241Y23553D01*
X49280Y23690D02*
X51409D01*
X48168Y27930D02*
X48699Y28461D01*
X48971D01*
X42104Y27930D02*
X48168D01*
X48971Y28461D02*
X49280Y28770D01*
X44814Y33460D02*
X46080Y32194D01*
Y31310D02*
Y32194D01*
X15290Y28770D02*
X19293D01*
X14390D02*
X15290D01*
X20044Y21963D02*
X21782Y23701D01*
X19000Y21986D02*
X19023Y21963D01*
X20044D01*
X16881Y21928D02*
X18313Y20496D01*
X28046Y18978D02*
X28602D01*
X28000Y19024D02*
X28046Y18978D01*
X28825Y17500D02*
Y18755D01*
X28602Y18978D02*
X28825Y18755D01*
X21773Y20515D02*
X23472D01*
X21753Y20496D02*
X21773Y20515D01*
X18313Y20496D02*
X21753D01*
X17493Y33536D02*
X18405Y32624D01*
X1946Y32258D02*
X3223Y33536D01*
X17493D01*
X16556Y29711D02*
X16954Y29313D01*
X20141D01*
X23468Y29409D02*
X23472Y29405D01*
X21785Y29409D02*
X23468D01*
X21781Y29413D02*
X21785Y29409D01*
X20552Y27511D02*
X26964D01*
X19293Y28770D02*
X20552Y27511D01*
X20163Y34485D02*
X23472D01*
X20903Y26771D02*
X20962Y26829D01*
X23436D01*
X26964Y27511D02*
X29896Y30443D01*
X23436Y26829D02*
X23472Y26865D01*
X41771Y14740D02*
X54000D01*
X35852Y13470D02*
X46968D01*
X46990Y13491D01*
X31454Y23019D02*
X32492D01*
X32528Y23055D01*
X31039Y22604D02*
X31454Y23019D01*
X31039Y20257D02*
Y22604D01*
Y20257D02*
X31404Y19891D01*
X25920Y25025D02*
X30480D01*
X24596Y23701D02*
X25920Y25025D01*
X30480D02*
X31050Y25595D01*
X31301Y18042D02*
X35097D01*
X37013Y23611D02*
X38137Y24734D01*
Y24740D01*
X33871Y20479D02*
X37003Y23611D01*
X37013D01*
X34038Y19891D02*
X35237Y21090D01*
X41771D01*
X32528Y20515D02*
X32564Y20479D01*
X33871D01*
X38137Y24740D02*
X40543D01*
X31404Y19891D02*
X34038D01*
X33834Y21792D02*
X34357Y22315D01*
X32528Y21785D02*
X32535Y21792D01*
X33834D01*
X29269Y16010D02*
X31301Y18042D01*
X27239Y21765D02*
X27260Y21745D01*
X23492Y21765D02*
X27239D01*
X23472Y21785D02*
X23492Y21765D01*
X40543Y24740D02*
X40991Y25188D01*
X53241Y23553D02*
Y24740D01*
X40991Y25188D02*
X52792D01*
X53241Y24740D01*
X42672Y26170D02*
X42702Y26200D01*
X40568Y29465D02*
X42104Y27930D01*
X35050Y28759D02*
X35213Y28596D01*
X32528Y29405D02*
X32562Y29371D01*
X36144Y28596D02*
X37013Y29465D01*
X29564Y26919D02*
X31404Y28759D01*
X34244Y24000D02*
X34357D01*
X35213Y28596D02*
X36144D01*
X32562Y29371D02*
X35803D01*
X35837Y29337D01*
X31404Y28759D02*
X35050D01*
X32528Y24325D02*
X32564Y24289D01*
X33954D02*
X34244Y24000D01*
X32564Y24289D02*
X33954D01*
X32528Y33215D02*
X34346D01*
X37013Y29465D02*
X40568D01*
X34657Y31945D02*
X35852Y33140D01*
X32528Y31945D02*
X34657D01*
X35814Y41664D02*
X40000D01*
X35087Y36330D02*
X35111Y36305D01*
X35136Y36330D02*
X39802D01*
X30920D02*
X35087D01*
X35111Y36305D02*
X35136Y36330D01*
X26000Y13491D02*
X26021Y13470D01*
X34357D01*
X31050Y25595D02*
X32528D01*
X21782Y23701D02*
X24596D01*
X28000Y26030D02*
X29832D01*
X30667Y26865D01*
X24785Y26030D02*
X28000D01*
X30667Y26865D02*
X32528D01*
X21323Y25154D02*
X21764Y25595D01*
X20300Y25154D02*
X21323D01*
X21764Y25595D02*
X23472D01*
X18449Y27948D02*
X20367Y26030D01*
X21347D01*
X21536Y26219D01*
X28740Y28146D02*
X31242Y30648D01*
X32501D01*
X32528Y30675D01*
X12000Y14232D02*
X28740D01*
X29896Y30443D02*
Y33329D01*
X25265Y30675D02*
X28819Y34229D01*
X23472Y30675D02*
X25265D01*
X28819Y34229D02*
Y34229D01*
X30920Y36330D01*
X23472Y34485D02*
X28000D01*
X29896Y33329D02*
X31052Y34485D01*
X39802Y36330D02*
X42672Y33460D01*
X5000Y49792D02*
X34357D01*
X28694Y26919D02*
X29564D01*
X28113Y27500D02*
X28694Y26919D01*
X28000Y27500D02*
X28113D01*
X21536Y26219D02*
X24596D01*
X24785Y26030D01*
X18405Y32624D02*
X21332D01*
X22011Y31945D01*
X21372Y33215D02*
X23472D01*
X21348Y33239D02*
X21372Y33215D01*
X20199Y33239D02*
X21348D01*
X22011Y31945D02*
X23472D01*
X1946Y18555D02*
X3500Y17000D01*
X17984Y35454D02*
X20199Y33239D01*
X1946Y18555D02*
Y32258D01*
X14115Y26440D02*
Y27186D01*
X14324Y26230D02*
X14390D01*
X14115Y26440D02*
X14324Y26230D01*
X2286Y37092D02*
X3924Y35454D01*
X2286Y40140D02*
X3500Y41354D01*
X2286Y37092D02*
Y40140D01*
X3924Y35454D02*
X17984D01*
X3500Y41354D02*
Y45000D01*
X27580Y16010D02*
X29269D01*
X27183Y16407D02*
X27580Y16010D01*
X27183Y16407D02*
Y17492D01*
X27175Y17500D02*
X27183Y17492D01*
X31052Y34485D02*
X32528D01*
X25738Y17500D02*
X27175D01*
X21082Y18042D02*
X25196D01*
X25738Y17500D01*
X42672Y33460D02*
X44814D01*
D13*
X19000Y21986D02*
D03*
X17621Y24000D02*
D03*
X28000Y19024D02*
D03*
X17500Y31000D02*
D03*
X20962Y38000D02*
D03*
X20141Y29313D02*
D03*
X21781Y29413D02*
D03*
X21645Y31013D02*
D03*
X20163Y34485D02*
D03*
X20903Y26771D02*
D03*
X54000Y14740D02*
D03*
X41771D02*
D03*
Y21090D02*
D03*
X31123Y23690D02*
D03*
X35097Y18042D02*
D03*
X38500Y24000D02*
D03*
X34357Y22315D02*
D03*
X27260Y21745D02*
D03*
X42672Y26170D02*
D03*
Y24000D02*
D03*
X35837Y29337D02*
D03*
X34357Y24000D02*
D03*
X46990Y13491D02*
D03*
X38500Y17000D02*
D03*
X35852Y13470D02*
D03*
X34346Y33215D02*
D03*
X35852Y33140D02*
D03*
X38500Y38000D02*
D03*
Y45000D02*
D03*
Y52000D02*
D03*
X40000Y41664D02*
D03*
X35814D02*
D03*
X35111Y36305D02*
D03*
X26000Y13491D02*
D03*
X34357Y13470D02*
D03*
X24665Y22964D02*
D03*
X21099Y24325D02*
D03*
X20300Y25154D02*
D03*
X12000Y14232D02*
D03*
X28740D02*
D03*
Y28146D02*
D03*
Y30996D02*
D03*
X28000Y34485D02*
D03*
X45500Y38000D02*
D03*
X42672Y33460D02*
D03*
X31500Y38000D02*
D03*
X31496Y46998D02*
D03*
X5000Y49792D02*
D03*
X34357D02*
D03*
X21764Y3000D02*
D03*
X28000Y27500D02*
D03*
X20300Y11966D02*
D03*
X28000Y26030D02*
D03*
X3500Y31000D02*
D03*
X14115Y27186D02*
D03*
X27300Y52011D02*
D03*
X31500Y17000D02*
D03*
X21082Y18042D02*
D03*
X24500Y17000D02*
D03*
X14115Y32624D02*
D03*
X52500Y24000D02*
D03*
X38500Y31000D02*
D03*
X24491Y47001D02*
D03*
X24538Y11946D02*
D03*
X31496D02*
D03*
X10456Y30306D02*
D03*
X10529Y24759D02*
D03*
X45500Y30260D02*
D03*
X3500Y52000D02*
D03*
Y45000D02*
D03*
Y38000D02*
D03*
Y24000D02*
D03*
Y17000D02*
D03*
Y10000D02*
D03*
X52500D02*
D03*
X38500D02*
D03*
X17500D02*
D03*
X10500D02*
D03*
X45500D02*
D03*
X52500Y3000D02*
D03*
X38500D02*
D03*
X31500D02*
D03*
X24500D02*
D03*
X17500D02*
D03*
X10500D02*
D03*
X3500D02*
D03*
X45500D02*
D03*
X52500Y17000D02*
D03*
X17500D02*
D03*
X10500D02*
D03*
X45500D02*
D03*
X52500Y31000D02*
D03*
Y38000D02*
D03*
X24500D02*
D03*
X17500D02*
D03*
X10500D02*
D03*
X45500Y45000D02*
D03*
X10500D02*
D03*
X17500D02*
D03*
X52500D02*
D03*
Y52000D02*
D03*
X45500D02*
D03*
X31500D02*
D03*
X24500D02*
D03*
X17500D02*
D03*
X10500D02*
D03*
D14*
X24190Y44040D02*
D03*
X26730D02*
D03*
X24190Y40210D02*
D03*
X26730D02*
D03*
X29270Y44040D02*
D03*
X31810D02*
D03*
X29270Y40210D02*
D03*
X31810D02*
D03*
D15*
X14790Y31310D02*
D03*
Y28770D02*
D03*
X10960Y31310D02*
D03*
Y28770D02*
D03*
X14790Y26230D02*
D03*
Y23690D02*
D03*
X10960Y26230D02*
D03*
Y23690D02*
D03*
D16*
X46080Y31310D02*
D03*
Y28770D02*
D03*
X49780Y31310D02*
D03*
Y28770D02*
D03*
Y23690D02*
D03*
X46080D02*
D03*
X49780Y26230D02*
D03*
X46080D02*
D03*
D17*
X26730Y9920D02*
D03*
Y6220D02*
D03*
X24190Y9920D02*
D03*
Y6220D02*
D03*
X29270D02*
D03*
X31810D02*
D03*
X29270Y9920D02*
D03*
X31810D02*
D03*
D18*
X32528Y20515D02*
D03*
Y21785D02*
D03*
Y23055D02*
D03*
Y24325D02*
D03*
Y25595D02*
D03*
Y26865D02*
D03*
Y28135D02*
D03*
Y29405D02*
D03*
Y30675D02*
D03*
Y31945D02*
D03*
Y33215D02*
D03*
Y34485D02*
D03*
X23472D02*
D03*
Y33215D02*
D03*
Y31945D02*
D03*
Y30675D02*
D03*
Y29405D02*
D03*
Y28135D02*
D03*
Y26865D02*
D03*
Y25595D02*
D03*
Y24325D02*
D03*
Y23055D02*
D03*
Y21785D02*
D03*
D19*
Y20515D02*
D03*
D20*
X28825Y17500D02*
D03*
X27175D02*
D03*
D21*
X38000Y26500D02*
D03*
Y28450D02*
D03*
%TF.MD5,b34c6df8bb43b5dd8269f5328ac11edd*%
M02*
