%TF.GenerationSoftware,Altium Limited,Altium Designer,22.2.1 (43)*%
G04 Layer_Color=16711935*
%FSLAX43Y43*%
%MOMM*%
%TF.SameCoordinates,12936C2D-F9F3-4D5E-B855-D0F9E265F173*%
%TF.FilePolarity,Negative*%
%TF.FileFunction,Soldermask,Bot*%
%TF.Part,Single*%
G01*
G75*
%TA.AperFunction,ViaPad*%
%ADD13C,0.800*%
%TA.AperFunction,SMDPad,CuDef*%
%ADD14R,0.800X2.500*%
%ADD15R,2.500X0.800*%
%ADD16R,2.500X1.000*%
%ADD17R,1.000X2.500*%
G04:AMPARAMS|DCode=18|XSize=2.298mm|YSize=0.567mm|CornerRadius=0.283mm|HoleSize=0mm|Usage=FLASHONLY|Rotation=0.000|XOffset=0mm|YOffset=0mm|HoleType=Round|Shape=RoundedRectangle|*
%AMROUNDEDRECTD18*
21,1,2.298,0.000,0,0,0.0*
21,1,1.731,0.567,0,0,0.0*
1,1,0.567,0.865,0.000*
1,1,0.567,-0.865,0.000*
1,1,0.567,-0.865,0.000*
1,1,0.567,0.865,0.000*
%
%ADD18ROUNDEDRECTD18*%
%ADD19R,2.298X0.567*%
%ADD20R,1.300X1.450*%
%ADD21R,1.450X1.350*%
D13*
X19000Y21986D02*
D03*
X17621Y24000D02*
D03*
X28000Y19024D02*
D03*
X17500Y31000D02*
D03*
X20962Y38000D02*
D03*
X20141Y29313D02*
D03*
X21781Y29413D02*
D03*
X21645Y31013D02*
D03*
X20163Y34485D02*
D03*
X20903Y26771D02*
D03*
X54000Y14740D02*
D03*
X41771D02*
D03*
Y21090D02*
D03*
X31123Y23690D02*
D03*
X35097Y18042D02*
D03*
X38500Y24000D02*
D03*
X34357Y22315D02*
D03*
X27260Y21745D02*
D03*
X42672Y26170D02*
D03*
Y24000D02*
D03*
X35837Y29337D02*
D03*
X34357Y24000D02*
D03*
X46990Y13491D02*
D03*
X38500Y17000D02*
D03*
X35852Y13470D02*
D03*
X34346Y33215D02*
D03*
X35852Y33140D02*
D03*
X38500Y38000D02*
D03*
Y45000D02*
D03*
Y52000D02*
D03*
X40000Y41664D02*
D03*
X35814D02*
D03*
X35111Y36305D02*
D03*
X26000Y13491D02*
D03*
X34357Y13470D02*
D03*
X24665Y22964D02*
D03*
X21099Y24325D02*
D03*
X20300Y25154D02*
D03*
X12000Y14232D02*
D03*
X28740D02*
D03*
Y28146D02*
D03*
Y30996D02*
D03*
X28000Y34485D02*
D03*
X45500Y38000D02*
D03*
X42672Y33460D02*
D03*
X31500Y38000D02*
D03*
X31496Y46998D02*
D03*
X5000Y49792D02*
D03*
X34357D02*
D03*
X21764Y3000D02*
D03*
X28000Y27500D02*
D03*
X20300Y11966D02*
D03*
X28000Y26030D02*
D03*
X3500Y31000D02*
D03*
X14115Y27186D02*
D03*
X27300Y52011D02*
D03*
X31500Y17000D02*
D03*
X21082Y18042D02*
D03*
X24500Y17000D02*
D03*
X14115Y32624D02*
D03*
X52500Y24000D02*
D03*
X38500Y31000D02*
D03*
X24491Y47001D02*
D03*
X24538Y11946D02*
D03*
X31496D02*
D03*
X10456Y30306D02*
D03*
X10529Y24759D02*
D03*
X45500Y30260D02*
D03*
X3500Y52000D02*
D03*
Y45000D02*
D03*
Y38000D02*
D03*
Y24000D02*
D03*
Y17000D02*
D03*
Y10000D02*
D03*
X52500D02*
D03*
X38500D02*
D03*
X17500D02*
D03*
X10500D02*
D03*
X45500D02*
D03*
X52500Y3000D02*
D03*
X38500D02*
D03*
X31500D02*
D03*
X24500D02*
D03*
X17500D02*
D03*
X10500D02*
D03*
X3500D02*
D03*
X45500D02*
D03*
X52500Y17000D02*
D03*
X17500D02*
D03*
X10500D02*
D03*
X45500D02*
D03*
X52500Y31000D02*
D03*
Y38000D02*
D03*
X24500D02*
D03*
X17500D02*
D03*
X10500D02*
D03*
X45500Y45000D02*
D03*
X10500D02*
D03*
X17500D02*
D03*
X52500D02*
D03*
Y52000D02*
D03*
X45500D02*
D03*
X31500D02*
D03*
X24500D02*
D03*
X17500D02*
D03*
X10500D02*
D03*
D14*
X24190Y44040D02*
D03*
X26730D02*
D03*
X24190Y40210D02*
D03*
X26730D02*
D03*
X29270Y44040D02*
D03*
X31810D02*
D03*
X29270Y40210D02*
D03*
X31810D02*
D03*
D15*
X14790Y31310D02*
D03*
Y28770D02*
D03*
X10960Y31310D02*
D03*
Y28770D02*
D03*
X14790Y26230D02*
D03*
Y23690D02*
D03*
X10960Y26230D02*
D03*
Y23690D02*
D03*
D16*
X46080Y31310D02*
D03*
Y28770D02*
D03*
X49780Y31310D02*
D03*
Y28770D02*
D03*
Y23690D02*
D03*
X46080D02*
D03*
X49780Y26230D02*
D03*
X46080D02*
D03*
D17*
X26730Y9920D02*
D03*
Y6220D02*
D03*
X24190Y9920D02*
D03*
Y6220D02*
D03*
X29270D02*
D03*
X31810D02*
D03*
X29270Y9920D02*
D03*
X31810D02*
D03*
D18*
X32528Y20515D02*
D03*
Y21785D02*
D03*
Y23055D02*
D03*
Y24325D02*
D03*
Y25595D02*
D03*
Y26865D02*
D03*
Y28135D02*
D03*
Y29405D02*
D03*
Y30675D02*
D03*
Y31945D02*
D03*
Y33215D02*
D03*
Y34485D02*
D03*
X23472D02*
D03*
Y33215D02*
D03*
Y31945D02*
D03*
Y30675D02*
D03*
Y29405D02*
D03*
Y28135D02*
D03*
Y26865D02*
D03*
Y25595D02*
D03*
Y24325D02*
D03*
Y23055D02*
D03*
Y21785D02*
D03*
D19*
Y20515D02*
D03*
D20*
X28825Y17500D02*
D03*
X27175D02*
D03*
D21*
X38000Y26500D02*
D03*
Y28450D02*
D03*
%TF.MD5,5ecb56395b7f6e7e76a3e0a79b68236f*%
M02*
