%TF.GenerationSoftware,Altium Limited,Altium Designer,22.2.1 (43)*%
G04 Layer_Color=65535*
%FSLAX43Y43*%
%MOMM*%
%TF.SameCoordinates,12936C2D-F9F3-4D5E-B855-D0F9E265F173*%
%TF.FilePolarity,Positive*%
%TF.FileFunction,Legend,Top*%
%TF.Part,Single*%
G01*
G75*
%TA.AperFunction,NonConductor*%
%ADD22C,0.200*%
D22*
X29060Y11778D02*
G03*
X29060Y11778I-100J0D01*
G01*
X1060Y53778D02*
G03*
X1060Y53778I-100J0D01*
G01*
X8060D02*
G03*
X8060Y53778I-100J0D01*
G01*
X15060D02*
G03*
X15060Y53778I-100J0D01*
G01*
X22060D02*
G03*
X22060Y53778I-100J0D01*
G01*
X29060D02*
G03*
X29060Y53778I-100J0D01*
G01*
X36060D02*
G03*
X36060Y53778I-100J0D01*
G01*
X43060D02*
G03*
X43060Y53778I-100J0D01*
G01*
X50060D02*
G03*
X50060Y53778I-100J0D01*
G01*
X1060Y46778D02*
G03*
X1060Y46778I-100J0D01*
G01*
X8060D02*
G03*
X8060Y46778I-100J0D01*
G01*
X15060D02*
G03*
X15060Y46778I-100J0D01*
G01*
X22060D02*
G03*
X22060Y46778I-100J0D01*
G01*
X29060D02*
G03*
X29060Y46778I-100J0D01*
G01*
X36060D02*
G03*
X36060Y46778I-100J0D01*
G01*
X43060D02*
G03*
X43060Y46778I-100J0D01*
G01*
X50060D02*
G03*
X50060Y46778I-100J0D01*
G01*
X1060Y39778D02*
G03*
X1060Y39778I-100J0D01*
G01*
X8060D02*
G03*
X8060Y39778I-100J0D01*
G01*
X15060D02*
G03*
X15060Y39778I-100J0D01*
G01*
X22060D02*
G03*
X22060Y39778I-100J0D01*
G01*
X29060D02*
G03*
X29060Y39778I-100J0D01*
G01*
X36060D02*
G03*
X36060Y39778I-100J0D01*
G01*
X43060D02*
G03*
X43060Y39778I-100J0D01*
G01*
X50060D02*
G03*
X50060Y39778I-100J0D01*
G01*
X1060Y32778D02*
G03*
X1060Y32778I-100J0D01*
G01*
X8060D02*
G03*
X8060Y32778I-100J0D01*
G01*
X15060D02*
G03*
X15060Y32778I-100J0D01*
G01*
X22060D02*
G03*
X22060Y32778I-100J0D01*
G01*
X29060D02*
G03*
X29060Y32778I-100J0D01*
G01*
X36060D02*
G03*
X36060Y32778I-100J0D01*
G01*
X43060D02*
G03*
X43060Y32778I-100J0D01*
G01*
X50060D02*
G03*
X50060Y32778I-100J0D01*
G01*
X1060Y25778D02*
G03*
X1060Y25778I-100J0D01*
G01*
X8060D02*
G03*
X8060Y25778I-100J0D01*
G01*
X15060D02*
G03*
X15060Y25778I-100J0D01*
G01*
X22060D02*
G03*
X22060Y25778I-100J0D01*
G01*
X29060D02*
G03*
X29060Y25778I-100J0D01*
G01*
X36060D02*
G03*
X36060Y25778I-100J0D01*
G01*
X43060D02*
G03*
X43060Y25778I-100J0D01*
G01*
X50060D02*
G03*
X50060Y25778I-100J0D01*
G01*
X1060Y18778D02*
G03*
X1060Y18778I-100J0D01*
G01*
X8060D02*
G03*
X8060Y18778I-100J0D01*
G01*
X15090Y18799D02*
G03*
X15090Y18799I-100J0D01*
G01*
X22060Y18778D02*
G03*
X22060Y18778I-100J0D01*
G01*
X29060D02*
G03*
X29060Y18778I-100J0D01*
G01*
X36060D02*
G03*
X36060Y18778I-100J0D01*
G01*
X43060D02*
G03*
X43060Y18778I-100J0D01*
G01*
X50060D02*
G03*
X50060Y18778I-100J0D01*
G01*
X1060Y11778D02*
G03*
X1060Y11778I-100J0D01*
G01*
X8060D02*
G03*
X8060Y11778I-100J0D01*
G01*
X15060D02*
G03*
X15060Y11778I-100J0D01*
G01*
X22060D02*
G03*
X22060Y11778I-100J0D01*
G01*
X36060D02*
G03*
X36060Y11778I-100J0D01*
G01*
X43060D02*
G03*
X43060Y11778I-100J0D01*
G01*
X50060D02*
G03*
X50060Y11778I-100J0D01*
G01*
X1060Y4778D02*
G03*
X1060Y4778I-100J0D01*
G01*
X8060D02*
G03*
X8060Y4778I-100J0D01*
G01*
X15060D02*
G03*
X15060Y4778I-100J0D01*
G01*
X22060D02*
G03*
X22060Y4778I-100J0D01*
G01*
X29060D02*
G03*
X29060Y4778I-100J0D01*
G01*
X36060D02*
G03*
X36060Y4778I-100J0D01*
G01*
X43060D02*
G03*
X43060Y4778I-100J0D01*
G01*
X50060D02*
G03*
X50060Y4778I-100J0D01*
G01*
%TF.MD5,926cd1ff52a9a9ad3ee971110a1e16f9*%
M02*
