M48
;Layer_Color=9474304
;FILE_FORMAT=4:3
METRIC,LZ
;TYPE=PLATED
T1F00S00C0.450
%
T01
X00035Y0003
Y001
Y0017
Y0024
X0010529Y0024759
X0014115Y0027186
X0017621Y0024
X0019Y0021986
X0021099Y0024325
X00203Y0025154
X0020903Y0026771
X0024665Y0022964
X002726Y0021745
X00245Y0017
X0021082Y0018042
X00175Y0017
Y001
X00203Y0011966
X0024538Y0011946
X0026Y0013491
X00245Y0003
X0021764
X00175
X00105
Y001
X0012Y0014232
X00105Y0017
X0028Y0019024
X00315Y0017
X0035097Y0018042
X00385Y0017
X0041771Y001474
X00455Y0017
X004699Y0013491
X00455Y001
X00525
X0054Y001474
X00525Y0017
Y0024
X0042672
Y002617
X0041771Y002109
X00385Y0024
X0034357
Y0022315
X0031123Y002369
X0028Y002603
X002874Y0014232
X0031496Y0011946
X0034357Y001347
X0035852
X00385Y001
Y0003
X00315
X00455
X00525
Y0031
Y0038
X00455
Y0045
X00525
Y0052
X00455
X00385
X0034357Y0049792
X00315Y0052
X0031496Y0046998
X00315Y0038
X0035111Y0036305
X0034346Y0033215
X0035852Y003314
X0035837Y0029337
X00385Y0031
X0042672Y003346
X00455Y003026
X00385Y0038
X004Y0041664
X0035814
X00385Y0045
X0028Y0034485
X002874Y0030996
Y0028146
X0028Y00275
X0021781Y0029413
X0021645Y0031013
X0020141Y0029313
X00175Y0031
X0014115Y0032624
X0010456Y0030306
X00035Y0031
Y0038
Y0045
X0005Y0049792
X00035Y0052
X00105
X00175
Y0045
Y0038
X0020962
X00245
X0020163Y0034485
X00105Y0038
Y0045
X0024491Y0047001
X00245Y0052
X00273Y0052011
M30
