%TF.GenerationSoftware,Altium Limited,Altium Designer,22.2.1 (43)*%
G04 Layer_Color=8388736*
%FSLAX43Y43*%
%MOMM*%
%TF.SameCoordinates,12936C2D-F9F3-4D5E-B855-D0F9E265F173*%
%TF.FilePolarity,Negative*%
%TF.FileFunction,Soldermask,Top*%
%TF.Part,Single*%
G01*
G75*
%TA.AperFunction,SMDPad,CuDef*%
%ADD10R,1.500X2.600*%
%TA.AperFunction,ViaPad*%
%ADD13C,0.800*%
D10*
X33000Y10000D02*
D03*
X30000D02*
D03*
X2000Y52000D02*
D03*
X5000D02*
D03*
X12000D02*
D03*
X9000D02*
D03*
X16000D02*
D03*
X19000D02*
D03*
X26000D02*
D03*
X23000D02*
D03*
X30000D02*
D03*
X33000D02*
D03*
X40000D02*
D03*
X37000D02*
D03*
X44000D02*
D03*
X47000D02*
D03*
X54000D02*
D03*
X51000D02*
D03*
X2000Y45000D02*
D03*
X5000D02*
D03*
X12000D02*
D03*
X9000D02*
D03*
X16000D02*
D03*
X19000D02*
D03*
X26000D02*
D03*
X23000D02*
D03*
X30000D02*
D03*
X33000D02*
D03*
X40000D02*
D03*
X37000D02*
D03*
X44000D02*
D03*
X47000D02*
D03*
X54000D02*
D03*
X51000D02*
D03*
X2000Y38000D02*
D03*
X5000D02*
D03*
X12000D02*
D03*
X9000D02*
D03*
X16000D02*
D03*
X19000D02*
D03*
X26000D02*
D03*
X23000D02*
D03*
X30000D02*
D03*
X33000D02*
D03*
X40000D02*
D03*
X37000D02*
D03*
X44000D02*
D03*
X47000D02*
D03*
X54000D02*
D03*
X51000D02*
D03*
X2000Y31000D02*
D03*
X5000D02*
D03*
X12000D02*
D03*
X9000D02*
D03*
X16000D02*
D03*
X19000D02*
D03*
X26000D02*
D03*
X23000D02*
D03*
X30000D02*
D03*
X33000D02*
D03*
X40000D02*
D03*
X37000D02*
D03*
X44000D02*
D03*
X47000D02*
D03*
X54000D02*
D03*
X51000D02*
D03*
X2000Y24000D02*
D03*
X5000D02*
D03*
X12000D02*
D03*
X9000D02*
D03*
X16000D02*
D03*
X19000D02*
D03*
X26000D02*
D03*
X23000D02*
D03*
X30000D02*
D03*
X33000D02*
D03*
X40000D02*
D03*
X37000D02*
D03*
X44000D02*
D03*
X47000D02*
D03*
X54000D02*
D03*
X51000D02*
D03*
X2000Y17000D02*
D03*
X5000D02*
D03*
X12000D02*
D03*
X9000D02*
D03*
X16030Y17021D02*
D03*
X19030D02*
D03*
X26000Y17000D02*
D03*
X23000D02*
D03*
X30000D02*
D03*
X33000D02*
D03*
X40000D02*
D03*
X37000D02*
D03*
X44000D02*
D03*
X47000D02*
D03*
X54000D02*
D03*
X51000D02*
D03*
X2000Y10000D02*
D03*
X5000D02*
D03*
X12000D02*
D03*
X9000D02*
D03*
X16000D02*
D03*
X19000D02*
D03*
X26000D02*
D03*
X23000D02*
D03*
X40000D02*
D03*
X37000D02*
D03*
X44000D02*
D03*
X47000D02*
D03*
X54000D02*
D03*
X51000D02*
D03*
X2000Y3000D02*
D03*
X5000D02*
D03*
X12000D02*
D03*
X9000D02*
D03*
X16000D02*
D03*
X19000D02*
D03*
X26000D02*
D03*
X23000D02*
D03*
X30000D02*
D03*
X33000D02*
D03*
X40000D02*
D03*
X37000D02*
D03*
X44000D02*
D03*
X47000D02*
D03*
X54000D02*
D03*
X51000D02*
D03*
D13*
X19000Y21986D02*
D03*
X17621Y24000D02*
D03*
X28000Y19024D02*
D03*
X17500Y31000D02*
D03*
X20962Y38000D02*
D03*
X20141Y29313D02*
D03*
X21781Y29413D02*
D03*
X21645Y31013D02*
D03*
X20163Y34485D02*
D03*
X20903Y26771D02*
D03*
X54000Y14740D02*
D03*
X41771D02*
D03*
Y21090D02*
D03*
X31123Y23690D02*
D03*
X35097Y18042D02*
D03*
X38500Y24000D02*
D03*
X34357Y22315D02*
D03*
X27260Y21745D02*
D03*
X42672Y26170D02*
D03*
Y24000D02*
D03*
X35837Y29337D02*
D03*
X34357Y24000D02*
D03*
X46990Y13491D02*
D03*
X38500Y17000D02*
D03*
X35852Y13470D02*
D03*
X34346Y33215D02*
D03*
X35852Y33140D02*
D03*
X38500Y38000D02*
D03*
Y45000D02*
D03*
Y52000D02*
D03*
X40000Y41664D02*
D03*
X35814D02*
D03*
X35111Y36305D02*
D03*
X26000Y13491D02*
D03*
X34357Y13470D02*
D03*
X24665Y22964D02*
D03*
X21099Y24325D02*
D03*
X20300Y25154D02*
D03*
X12000Y14232D02*
D03*
X28740D02*
D03*
Y28146D02*
D03*
Y30996D02*
D03*
X28000Y34485D02*
D03*
X45500Y38000D02*
D03*
X42672Y33460D02*
D03*
X31500Y38000D02*
D03*
X31496Y46998D02*
D03*
X5000Y49792D02*
D03*
X34357D02*
D03*
X21764Y3000D02*
D03*
X28000Y27500D02*
D03*
X20300Y11966D02*
D03*
X28000Y26030D02*
D03*
X3500Y31000D02*
D03*
X14115Y27186D02*
D03*
X27300Y52011D02*
D03*
X31500Y17000D02*
D03*
X21082Y18042D02*
D03*
X24500Y17000D02*
D03*
X14115Y32624D02*
D03*
X52500Y24000D02*
D03*
X38500Y31000D02*
D03*
X24491Y47001D02*
D03*
X24538Y11946D02*
D03*
X31496D02*
D03*
X10456Y30306D02*
D03*
X10529Y24759D02*
D03*
X45500Y30260D02*
D03*
X3500Y52000D02*
D03*
Y45000D02*
D03*
Y38000D02*
D03*
Y24000D02*
D03*
Y17000D02*
D03*
Y10000D02*
D03*
X52500D02*
D03*
X38500D02*
D03*
X17500D02*
D03*
X10500D02*
D03*
X45500D02*
D03*
X52500Y3000D02*
D03*
X38500D02*
D03*
X31500D02*
D03*
X24500D02*
D03*
X17500D02*
D03*
X10500D02*
D03*
X3500D02*
D03*
X45500D02*
D03*
X52500Y17000D02*
D03*
X17500D02*
D03*
X10500D02*
D03*
X45500D02*
D03*
X52500Y31000D02*
D03*
Y38000D02*
D03*
X24500D02*
D03*
X17500D02*
D03*
X10500D02*
D03*
X45500Y45000D02*
D03*
X10500D02*
D03*
X17500D02*
D03*
X52500D02*
D03*
Y52000D02*
D03*
X45500D02*
D03*
X31500D02*
D03*
X24500D02*
D03*
X17500D02*
D03*
X10500D02*
D03*
%TF.MD5,786b68ad7f4594431352b767fd6a0e13*%
M02*
