%TF.GenerationSoftware,Altium Limited,Altium Designer,22.2.1 (43)*%
G04 Layer_Color=255*
%FSLAX43Y43*%
%MOMM*%
%TF.SameCoordinates,22783662-0E91-4B75-9AE6-36AB56575A38*%
%TF.FilePolarity,Positive*%
%TF.FileFunction,Pads,Bot*%
%TF.Part,Single*%
G01*
G75*
%TA.AperFunction,SMDPad,CuDef*%
%ADD10R,3.100X3.100*%
%ADD11R,1.450X1.300*%
%ADD15R,1.450X1.350*%
%ADD17R,1.300X1.450*%
%ADD18R,1.350X1.450*%
%TA.AperFunction,ComponentPad*%
%ADD21O,1.800X1.150*%
%ADD22C,0.800*%
%ADD23O,2.000X1.400*%
%ADD24C,1.650*%
G04:AMPARAMS|DCode=25|XSize=1.65mm|YSize=1.65mm|CornerRadius=0.413mm|HoleSize=0mm|Usage=FLASHONLY|Rotation=0.000|XOffset=0mm|YOffset=0mm|HoleType=Round|Shape=RoundedRectangle|*
%AMROUNDEDRECTD25*
21,1,1.650,0.825,0,0,0.0*
21,1,0.825,1.650,0,0,0.0*
1,1,0.825,0.413,-0.413*
1,1,0.825,-0.413,-0.413*
1,1,0.825,-0.413,0.413*
1,1,0.825,0.413,0.413*
%
%ADD25ROUNDEDRECTD25*%
%ADD26R,1.600X1.600*%
%ADD27C,1.600*%
G04:AMPARAMS|DCode=28|XSize=1.6mm|YSize=1.6mm|CornerRadius=0.4mm|HoleSize=0mm|Usage=FLASHONLY|Rotation=180.000|XOffset=0mm|YOffset=0mm|HoleType=Round|Shape=RoundedRectangle|*
%AMROUNDEDRECTD28*
21,1,1.600,0.800,0,0,180.0*
21,1,0.800,1.600,0,0,180.0*
1,1,0.800,-0.400,0.400*
1,1,0.800,0.400,0.400*
1,1,0.800,0.400,-0.400*
1,1,0.800,-0.400,-0.400*
%
%ADD28ROUNDEDRECTD28*%
%TA.AperFunction,SMDPad,CuDef*%
%ADD31R,2.500X1.000*%
%ADD32R,1.300X0.450*%
%ADD33R,1.050X0.600*%
%ADD34O,1.400X0.450*%
%ADD35R,1.100X1.200*%
%ADD36O,0.450X2.000*%
D10*
X33020Y5842D02*
D03*
D11*
X36068Y23242D02*
D03*
Y24892D02*
D03*
X30480Y23242D02*
D03*
Y24892D02*
D03*
D15*
X24130Y23835D02*
D03*
Y21885D02*
D03*
X18730Y21885D02*
D03*
Y23835D02*
D03*
D17*
X4980Y27432D02*
D03*
X6630D02*
D03*
X23750Y7620D02*
D03*
X25400D02*
D03*
X11875D02*
D03*
X13525D02*
D03*
D18*
X3810D02*
D03*
X5760D02*
D03*
X10025Y13500D02*
D03*
X11975D02*
D03*
X17725Y7700D02*
D03*
X19675D02*
D03*
X10017Y16573D02*
D03*
X11967D02*
D03*
D21*
X2700Y18875D02*
D03*
Y11125D02*
D03*
D22*
X5400Y17500D02*
D03*
Y12500D02*
D03*
D23*
X6500Y18725D02*
D03*
Y11275D02*
D03*
D24*
X17460Y4290D02*
D03*
Y1750D02*
D03*
X14920Y4290D02*
D03*
X20000Y1750D02*
D03*
Y4290D02*
D03*
X22540Y1750D02*
D03*
X25080D02*
D03*
X22540Y4290D02*
D03*
X25080D02*
D03*
D25*
X14920Y1750D02*
D03*
D26*
X31750D02*
D03*
Y28250D02*
D03*
D27*
X34290Y1750D02*
D03*
Y28250D02*
D03*
X18730D02*
D03*
X23810D02*
D03*
X21270D02*
D03*
X16190D02*
D03*
X13650D02*
D03*
D28*
X26350D02*
D03*
D31*
X29580Y18810D02*
D03*
Y16270D02*
D03*
X33280Y18810D02*
D03*
Y16270D02*
D03*
Y11190D02*
D03*
X29580D02*
D03*
X33280Y13730D02*
D03*
X29580D02*
D03*
D32*
X6500Y16300D02*
D03*
Y15650D02*
D03*
Y14350D02*
D03*
Y15000D02*
D03*
Y13700D02*
D03*
D33*
X8770Y3455D02*
D03*
X6470Y4405D02*
D03*
Y2505D02*
D03*
D34*
X35970Y4217D02*
D03*
Y3567D02*
D03*
Y5517D02*
D03*
Y4867D02*
D03*
Y6167D02*
D03*
Y6817D02*
D03*
Y7467D02*
D03*
Y8117D02*
D03*
X30070Y4217D02*
D03*
Y3567D02*
D03*
Y4867D02*
D03*
Y5517D02*
D03*
Y6167D02*
D03*
Y6817D02*
D03*
Y7467D02*
D03*
Y8117D02*
D03*
D35*
X3530Y22860D02*
D03*
X6630D02*
D03*
X14250D02*
D03*
X11150D02*
D03*
D36*
X24225Y11550D02*
D03*
X23575D02*
D03*
X22925D02*
D03*
X22275D02*
D03*
X21625D02*
D03*
X20975D02*
D03*
X20325D02*
D03*
X19675D02*
D03*
X19025D02*
D03*
X18375D02*
D03*
X17725D02*
D03*
X17075D02*
D03*
X16425D02*
D03*
X15775D02*
D03*
X24225Y18450D02*
D03*
X23575D02*
D03*
X22925D02*
D03*
X22275D02*
D03*
X21625D02*
D03*
X20975D02*
D03*
X20325D02*
D03*
X19675D02*
D03*
X19025D02*
D03*
X18375D02*
D03*
X17725D02*
D03*
X17075D02*
D03*
X16425D02*
D03*
X15775D02*
D03*
%TF.MD5,d544114a48466a7eefbeb4e8d50bd1a8*%
M02*
