%TF.GenerationSoftware,Altium Limited,Altium Designer,22.2.1 (43)*%
G04 Layer_Color=65535*
%FSLAX43Y43*%
%MOMM*%
%TF.SameCoordinates,22783662-0E91-4B75-9AE6-36AB56575A38*%
%TF.FilePolarity,Positive*%
%TF.FileFunction,Legend,Top*%
%TF.Part,Single*%
G01*
G75*
%TA.AperFunction,NonConductor*%
%ADD38C,0.250*%
%ADD39C,0.600*%
%ADD40C,0.200*%
%ADD41C,0.100*%
%ADD42C,0.254*%
%ADD43C,0.152*%
D38*
X18675Y20000D02*
G03*
X18675Y20000I-125J0D01*
G01*
D39*
X21300Y19250D02*
G03*
X21300Y19250I-300J0D01*
G01*
D40*
X13500Y405D02*
Y5635D01*
Y405D02*
X26500D01*
X13500Y5635D02*
X26500D01*
Y405D02*
Y5635D01*
X15029Y12244D02*
Y17857D01*
X9441Y12244D02*
X15029D01*
X9455Y17857D02*
X15029D01*
X9441Y17844D02*
X9455Y17857D01*
X9441Y12244D02*
Y17844D01*
X30330Y405D02*
X35710D01*
X30330D02*
Y3095D01*
X35710D01*
Y405D02*
Y3095D01*
Y26905D02*
Y29595D01*
X30330D02*
X35710D01*
X30330Y26905D02*
Y29595D01*
Y26905D02*
X35710D01*
X12230Y29595D02*
X27770D01*
Y26905D02*
Y29595D01*
X12230Y26905D02*
X27770D01*
X12230D02*
Y29595D01*
X20000Y9750D02*
Y20250D01*
X24000Y9750D02*
Y20250D01*
X20000D02*
X24000D01*
X20000Y9750D02*
X24000D01*
X3660Y3040D02*
X3960D01*
X3660Y2040D02*
Y3040D01*
Y2040D02*
X3960D01*
X8740Y3040D02*
X9040D01*
X8740Y2040D02*
Y3040D01*
Y2040D02*
X9040D01*
D41*
X33550Y9300D02*
Y20700D01*
X38450Y9300D02*
Y20700D01*
D42*
X1185Y28363D02*
X508D01*
X1185Y29040D01*
Y29210D01*
X1016Y29379D01*
X677D01*
X508Y29210D01*
X1524Y28363D02*
X1862D01*
X1693D01*
Y29379D01*
X1524Y29210D01*
X3047Y28363D02*
X2370D01*
X3047Y29040D01*
Y29210D01*
X2878Y29379D01*
X2539D01*
X2370Y29210D01*
X4063Y29379D02*
X3724Y29210D01*
X3386Y28871D01*
Y28533D01*
X3555Y28363D01*
X3894D01*
X4063Y28533D01*
Y28702D01*
X3894Y28871D01*
X3386D01*
X4401Y28194D02*
X5079D01*
X5417Y29210D02*
X5586Y29379D01*
X5925D01*
X6094Y29210D01*
Y28533D01*
X5925Y28363D01*
X5586D01*
X5417Y28533D01*
Y29210D01*
X6433Y28194D02*
X7110D01*
X7448Y28363D02*
Y29040D01*
X7787Y29379D01*
X8126Y29040D01*
Y28363D01*
Y28871D01*
X7448D01*
X8464Y28194D02*
X9141D01*
X9480Y28363D02*
Y29379D01*
X9988D01*
X10157Y29210D01*
Y28871D01*
X9988Y28702D01*
X9480D01*
X9818D02*
X10157Y28363D01*
X11173Y29210D02*
X11003Y29379D01*
X10665D01*
X10495Y29210D01*
Y28533D01*
X10665Y28363D01*
X11003D01*
X11173Y28533D01*
X19842Y22098D02*
Y21251D01*
X20011Y21082D01*
X20350D01*
X20519Y21251D01*
Y22098D01*
X20857Y21929D02*
X21027Y22098D01*
X21365D01*
X21535Y21929D01*
Y21759D01*
X21365Y21590D01*
X21196D01*
X21365D01*
X21535Y21421D01*
Y21251D01*
X21365Y21082D01*
X21027D01*
X20857Y21251D01*
X36492Y2286D02*
X37169Y1270D01*
Y2286D02*
X36492Y1270D01*
X38184D02*
X37507D01*
X38184Y1947D01*
Y2117D01*
X38015Y2286D01*
X37677D01*
X37507Y2117D01*
X36407Y28758D02*
X37084Y27742D01*
Y28758D02*
X36407Y27742D01*
X37423D02*
X37761D01*
X37592D01*
Y28758D01*
X37423Y28589D01*
X32873Y22352D02*
Y22183D01*
X33211Y21844D01*
X33550Y22183D01*
Y22352D01*
X33211Y21844D02*
Y21336D01*
X33889D02*
X34227D01*
X34058D01*
Y22352D01*
X33889Y22183D01*
X10076Y27686D02*
X10753Y26670D01*
Y27686D02*
X10076Y26670D01*
X11599D02*
Y27686D01*
X11091Y27178D01*
X11768D01*
X24808Y7366D02*
X25485Y6350D01*
Y7366D02*
X24808Y6350D01*
X25823Y7197D02*
X25993Y7366D01*
X26331D01*
X26500Y7197D01*
Y7027D01*
X26331Y6858D01*
X26162D01*
X26331D01*
X26500Y6689D01*
Y6519D01*
X26331Y6350D01*
X25993D01*
X25823Y6519D01*
X8044Y15329D02*
X7874Y15498D01*
X7536D01*
X7366Y15329D01*
Y15160D01*
X7536Y14991D01*
X7874D01*
X8044Y14821D01*
Y14652D01*
X7874Y14483D01*
X7536D01*
X7366Y14652D01*
X8382Y14483D02*
X8721D01*
X8551D01*
Y15498D01*
X8382Y15329D01*
X2540Y8573D02*
Y9589D01*
X3048D01*
X3218Y9420D01*
Y9081D01*
X3048Y8912D01*
X2540D01*
X2879D02*
X3218Y8573D01*
X3556D02*
X3895D01*
X3725D01*
Y9589D01*
X3556Y9420D01*
X4402D02*
X4572Y9589D01*
X4910D01*
X5080Y9420D01*
Y8743D01*
X4910Y8573D01*
X4572D01*
X4402Y8743D01*
Y9420D01*
X8044Y8573D02*
Y9589D01*
X8551D01*
X8721Y9420D01*
Y9081D01*
X8551Y8912D01*
X8044D01*
X8382D02*
X8721Y8573D01*
X9059Y8743D02*
X9229Y8573D01*
X9567D01*
X9736Y8743D01*
Y9420D01*
X9567Y9589D01*
X9229D01*
X9059Y9420D01*
Y9250D01*
X9229Y9081D01*
X9736D01*
X16614Y24320D02*
Y25336D01*
X17121D01*
X17291Y25166D01*
Y24828D01*
X17121Y24659D01*
X16614D01*
X16952D02*
X17291Y24320D01*
X17629Y25166D02*
X17799Y25336D01*
X18137D01*
X18306Y25166D01*
Y24997D01*
X18137Y24828D01*
X18306Y24659D01*
Y24489D01*
X18137Y24320D01*
X17799D01*
X17629Y24489D01*
Y24659D01*
X17799Y24828D01*
X17629Y24997D01*
Y25166D01*
X17799Y24828D02*
X18137D01*
X10584Y23368D02*
Y24384D01*
X11091D01*
X11261Y24215D01*
Y23876D01*
X11091Y23707D01*
X10584D01*
X10922D02*
X11261Y23368D01*
X12276Y24384D02*
X11938Y24215D01*
X11599Y23876D01*
Y23537D01*
X11769Y23368D01*
X12107D01*
X12276Y23537D01*
Y23707D01*
X12107Y23876D01*
X11599D01*
X2964Y1524D02*
Y508D01*
X3471D01*
X3641Y677D01*
Y1355D01*
X3471Y1524D01*
X2964D01*
X3979Y1355D02*
X4149Y1524D01*
X4487D01*
X4656Y1355D01*
Y1185D01*
X4487Y1016D01*
X4318D01*
X4487D01*
X4656Y847D01*
Y677D01*
X4487Y508D01*
X4149D01*
X3979Y677D01*
X8044Y1524D02*
Y508D01*
X8551D01*
X8721Y677D01*
Y1355D01*
X8551Y1524D01*
X8044D01*
X9736Y508D02*
X9059D01*
X9736Y1185D01*
Y1355D01*
X9567Y1524D01*
X9229D01*
X9059Y1355D01*
X18458Y7959D02*
X18288Y8128D01*
X17950D01*
X17780Y7959D01*
Y7281D01*
X17950Y7112D01*
X18288D01*
X18458Y7281D01*
X18796Y7112D02*
X19135D01*
X18965D01*
Y8128D01*
X18796Y7959D01*
X19642D02*
X19812Y8128D01*
X20150D01*
X20320Y7959D01*
Y7281D01*
X20150Y7112D01*
X19812D01*
X19642Y7281D01*
Y7959D01*
X24469Y25166D02*
X24299Y25336D01*
X23961D01*
X23792Y25166D01*
Y24489D01*
X23961Y24320D01*
X24299D01*
X24469Y24489D01*
X24807D02*
X24977Y24320D01*
X25315D01*
X25484Y24489D01*
Y25166D01*
X25315Y25336D01*
X24977D01*
X24807Y25166D01*
Y24997D01*
X24977Y24828D01*
X25484D01*
X30382Y12190D02*
X30213Y12360D01*
X29874D01*
X29705Y12190D01*
Y11513D01*
X29874Y11344D01*
X30213D01*
X30382Y11513D01*
X30720Y12190D02*
X30890Y12360D01*
X31228D01*
X31398Y12190D01*
Y12021D01*
X31228Y11852D01*
X31398Y11683D01*
Y11513D01*
X31228Y11344D01*
X30890D01*
X30720Y11513D01*
Y11683D01*
X30890Y11852D01*
X30720Y12021D01*
Y12190D01*
X30890Y11852D02*
X31228D01*
X30382Y23582D02*
X30213Y23752D01*
X29874D01*
X29705Y23582D01*
Y22905D01*
X29874Y22736D01*
X30213D01*
X30382Y22905D01*
X30720Y23752D02*
X31398D01*
Y23582D01*
X30720Y22905D01*
Y22736D01*
X6331Y24215D02*
X6161Y24384D01*
X5823D01*
X5654Y24215D01*
Y23537D01*
X5823Y23368D01*
X6161D01*
X6331Y23537D01*
X7346Y24384D02*
X7008Y24215D01*
X6669Y23876D01*
Y23537D01*
X6839Y23368D01*
X7177D01*
X7346Y23537D01*
Y23707D01*
X7177Y23876D01*
X6669D01*
X30382Y17839D02*
X30213Y18008D01*
X29874D01*
X29705Y17839D01*
Y17161D01*
X29874Y16992D01*
X30213D01*
X30382Y17161D01*
X31398Y18008D02*
X30720D01*
Y17500D01*
X31059Y17669D01*
X31228D01*
X31398Y17500D01*
Y17161D01*
X31228Y16992D01*
X30890D01*
X30720Y17161D01*
D43*
X27178Y3920D02*
X27517D01*
X27347D01*
Y4936D01*
X27178Y4766D01*
X28024D02*
X28194Y4936D01*
X28532D01*
X28702Y4766D01*
Y4089D01*
X28532Y3920D01*
X28194D01*
X28024Y4089D01*
Y4766D01*
X27178Y1389D02*
X27347Y1220D01*
X27686D01*
X27855Y1389D01*
Y2066D01*
X27686Y2236D01*
X27347D01*
X27178Y2066D01*
Y1897D01*
X27347Y1728D01*
X27855D01*
X12490Y1220D02*
X12829D01*
X12659D01*
Y2236D01*
X12490Y2066D01*
X12907Y3920D02*
X12230D01*
X12907Y4597D01*
Y4766D01*
X12738Y4936D01*
X12399D01*
X12230Y4766D01*
X26162Y25400D02*
X26501D01*
X26331D01*
Y26416D01*
X26162Y26246D01*
X13885Y26416D02*
X13547Y26246D01*
X13208Y25908D01*
Y25569D01*
X13377Y25400D01*
X13716D01*
X13885Y25569D01*
Y25739D01*
X13716Y25908D01*
X13208D01*
%TF.MD5,a08871186d55eb5ecc4905a7f4817135*%
M02*
