%TF.GenerationSoftware,Altium Limited,Altium Designer,22.2.1 (43)*%
G04 Layer_Color=255*
%FSLAX43Y43*%
%MOMM*%
%TF.SameCoordinates,22783662-0E91-4B75-9AE6-36AB56575A38*%
%TF.FilePolarity,Positive*%
%TF.FileFunction,Pads,Top*%
%TF.Part,Single*%
G01*
G75*
%TA.AperFunction,SMDPad,CuDef*%
%ADD10R,3.100X3.100*%
%ADD11R,1.450X1.300*%
%ADD12R,2.000X5.500*%
%ADD13R,1.300X1.500*%
%ADD14O,2.100X0.450*%
%ADD15R,1.450X1.350*%
%ADD16R,1.100X1.200*%
%ADD17R,1.300X1.450*%
%ADD18R,1.350X1.450*%
%TA.AperFunction,ComponentPad*%
%ADD21O,1.800X1.150*%
%ADD22C,0.800*%
%ADD23O,2.000X1.400*%
%ADD24C,1.650*%
G04:AMPARAMS|DCode=25|XSize=1.65mm|YSize=1.65mm|CornerRadius=0.413mm|HoleSize=0mm|Usage=FLASHONLY|Rotation=0.000|XOffset=0mm|YOffset=0mm|HoleType=Round|Shape=RoundedRectangle|*
%AMROUNDEDRECTD25*
21,1,1.650,0.825,0,0,0.0*
21,1,0.825,1.650,0,0,0.0*
1,1,0.825,0.413,-0.413*
1,1,0.825,-0.413,-0.413*
1,1,0.825,-0.413,0.413*
1,1,0.825,0.413,0.413*
%
%ADD25ROUNDEDRECTD25*%
%ADD26R,1.600X1.600*%
%ADD27C,1.600*%
G04:AMPARAMS|DCode=28|XSize=1.6mm|YSize=1.6mm|CornerRadius=0.4mm|HoleSize=0mm|Usage=FLASHONLY|Rotation=180.000|XOffset=0mm|YOffset=0mm|HoleType=Round|Shape=RoundedRectangle|*
%AMROUNDEDRECTD28*
21,1,1.600,0.800,0,0,180.0*
21,1,0.800,1.600,0,0,180.0*
1,1,0.800,-0.400,0.400*
1,1,0.800,0.400,0.400*
1,1,0.800,0.400,-0.400*
1,1,0.800,-0.400,-0.400*
%
%ADD28ROUNDEDRECTD28*%
D10*
X33020Y5842D02*
D03*
D11*
X30480Y10250D02*
D03*
Y8600D02*
D03*
Y19750D02*
D03*
Y21400D02*
D03*
X3810Y23090D02*
D03*
Y24740D02*
D03*
X30480Y15825D02*
D03*
Y14175D02*
D03*
D12*
X36000Y10250D02*
D03*
Y19750D02*
D03*
D13*
X14496Y19000D02*
D03*
Y11050D02*
D03*
X10000Y19000D02*
D03*
Y11050D02*
D03*
D14*
X18550Y19225D02*
D03*
Y18575D02*
D03*
Y17925D02*
D03*
Y17275D02*
D03*
Y16625D02*
D03*
Y15975D02*
D03*
Y15325D02*
D03*
Y14675D02*
D03*
Y14025D02*
D03*
Y13375D02*
D03*
Y12725D02*
D03*
Y12075D02*
D03*
Y11425D02*
D03*
Y10775D02*
D03*
X25450Y19225D02*
D03*
Y18575D02*
D03*
Y17925D02*
D03*
Y17275D02*
D03*
Y16625D02*
D03*
Y15975D02*
D03*
Y15325D02*
D03*
Y14675D02*
D03*
Y14025D02*
D03*
Y13375D02*
D03*
Y12725D02*
D03*
Y12075D02*
D03*
Y11425D02*
D03*
Y10775D02*
D03*
D15*
X8890Y7325D02*
D03*
Y5375D02*
D03*
X3810Y7325D02*
D03*
Y5375D02*
D03*
X8890Y24890D02*
D03*
Y22940D02*
D03*
D16*
X4860Y2540D02*
D03*
X2760D02*
D03*
X9940D02*
D03*
X7840D02*
D03*
D17*
X23800Y22940D02*
D03*
X25450D02*
D03*
X16510Y7620D02*
D03*
X14860D02*
D03*
D18*
X18550Y22940D02*
D03*
X16600D02*
D03*
D21*
X2700Y18875D02*
D03*
Y11125D02*
D03*
D22*
X5400Y17500D02*
D03*
Y12500D02*
D03*
D23*
X6500Y18725D02*
D03*
Y11275D02*
D03*
D24*
X17460Y4290D02*
D03*
Y1750D02*
D03*
X14920Y4290D02*
D03*
X20000Y1750D02*
D03*
Y4290D02*
D03*
X22540Y1750D02*
D03*
X25080D02*
D03*
X22540Y4290D02*
D03*
X25080D02*
D03*
D25*
X14920Y1750D02*
D03*
D26*
X31750D02*
D03*
Y28250D02*
D03*
D27*
X34290Y1750D02*
D03*
Y28250D02*
D03*
X18730D02*
D03*
X23810D02*
D03*
X21270D02*
D03*
X16190D02*
D03*
X13650D02*
D03*
D28*
X26350D02*
D03*
%TF.MD5,f0310d1c14c8a82afe2155ed85eeae76*%
M02*
