M48
;Layer_Color=9474304
;FILE_FORMAT=4:3
METRIC,LZ
;TYPE=PLATED
T1F00S00C0.350
T2F00S00C0.450
T5F00S00C1.100
;TYPE=NON_PLATED
T6F00S00C0.800
%
T01
X003202Y0004842
X003302
X003402
Y0005842
Y0006842
X003302
Y0005842
X003202
Y0006842
T02
X0001182Y000762
X0007332Y0007942
X0010442Y0007535
X0012192Y0004989
X0015798Y0006153
X0020325Y0005626
X0020688Y0008859
X0021421Y0009654
X0018742Y0009081
X0012765Y0010467
Y0011852
X0011579
X0008636Y0010962
X0015385Y0013263
X001369Y0016252
X001492Y00175
X0016425Y002
X0017224Y0020824
X0012765Y002
X0011579Y0020824
X0012192Y0026162
X001873
X0022499Y002293
X002254Y0020828
X0023575Y0020066
X0027489
Y0021336
X0027489Y0017965
Y001665
Y0015335
Y001402
X0022096Y0013962
X0020956Y0016736
X000381Y0026162
X0033358Y0023244
X0032221Y0014991
X0035384Y0014991
T05
X001492Y000175
X001746
Y000429
X001492
X002
Y000175
X002254
X002508
Y000429
X002254
X003175Y000175
X003429
Y002825
X003175
X002635
X002381
X002127
X001873
X001619
X001365
T06
X00054Y00125
Y00175
M30
