%TF.GenerationSoftware,Altium Limited,Altium Designer,22.2.1 (43)*%
G04 Layer_Physical_Order=1*
G04 Layer_Color=255*
%FSLAX43Y43*%
%MOMM*%
%TF.SameCoordinates,22783662-0E91-4B75-9AE6-36AB56575A38*%
%TF.FilePolarity,Positive*%
%TF.FileFunction,Copper,L1,Top,Signal*%
%TF.Part,Single*%
G01*
G75*
%TA.AperFunction,SMDPad,CuDef*%
%ADD10R,3.100X3.100*%
%ADD11R,1.450X1.300*%
%ADD12R,2.000X5.500*%
%ADD13R,1.300X1.500*%
%ADD14O,2.100X0.450*%
%ADD15R,1.450X1.350*%
%ADD16R,1.100X1.200*%
%ADD17R,1.300X1.450*%
%ADD18R,1.350X1.450*%
%TA.AperFunction,Conductor*%
%ADD19C,0.381*%
%ADD20C,0.254*%
%TA.AperFunction,ComponentPad*%
%ADD21O,1.800X1.150*%
%ADD22C,0.800*%
%ADD23O,2.000X1.400*%
%ADD24C,1.650*%
G04:AMPARAMS|DCode=25|XSize=1.65mm|YSize=1.65mm|CornerRadius=0.413mm|HoleSize=0mm|Usage=FLASHONLY|Rotation=0.000|XOffset=0mm|YOffset=0mm|HoleType=Round|Shape=RoundedRectangle|*
%AMROUNDEDRECTD25*
21,1,1.650,0.825,0,0,0.0*
21,1,0.825,1.650,0,0,0.0*
1,1,0.825,0.413,-0.413*
1,1,0.825,-0.413,-0.413*
1,1,0.825,-0.413,0.413*
1,1,0.825,0.413,0.413*
%
%ADD25ROUNDEDRECTD25*%
%ADD26R,1.600X1.600*%
%ADD27C,1.600*%
G04:AMPARAMS|DCode=28|XSize=1.6mm|YSize=1.6mm|CornerRadius=0.4mm|HoleSize=0mm|Usage=FLASHONLY|Rotation=180.000|XOffset=0mm|YOffset=0mm|HoleType=Round|Shape=RoundedRectangle|*
%AMROUNDEDRECTD28*
21,1,1.600,0.800,0,0,180.0*
21,1,0.800,1.600,0,0,180.0*
1,1,0.800,-0.400,0.400*
1,1,0.800,0.400,0.400*
1,1,0.800,0.400,-0.400*
1,1,0.800,-0.400,-0.400*
%
%ADD28ROUNDEDRECTD28*%
%TA.AperFunction,ViaPad*%
%ADD29C,0.750*%
%ADD30C,0.800*%
G36*
X25498Y28966D02*
X25469Y28928D01*
X25413Y28794D01*
X25394Y28650D01*
Y27850D01*
X25402Y27793D01*
X20896Y23288D01*
X19376D01*
Y23816D01*
X17724D01*
Y22064D01*
X18202D01*
Y19608D01*
X17725D01*
X17656Y19595D01*
X17506Y19697D01*
Y20350D01*
X17562Y20383D01*
X17665Y20486D01*
X17737Y20611D01*
X17775Y20751D01*
Y20896D01*
X17737Y21037D01*
X17665Y21162D01*
X17562Y21265D01*
X17437Y21337D01*
X17297Y21375D01*
X17152D01*
X17011Y21337D01*
X16886Y21265D01*
X16783Y21162D01*
X16711Y21037D01*
X16673Y20896D01*
Y20751D01*
X16702Y20645D01*
X16691Y20623D01*
X16639Y20563D01*
X16586Y20527D01*
X16498Y20551D01*
X16352D01*
X16212Y20513D01*
X16087Y20441D01*
X16082Y20436D01*
X15932Y20498D01*
Y22064D01*
X17426D01*
Y23816D01*
X17088D01*
X17026Y23966D01*
X18671Y25611D01*
X18803D01*
X18943Y25649D01*
X19068Y25721D01*
X19171Y25824D01*
X19243Y25949D01*
X19281Y26089D01*
Y26235D01*
X19243Y26375D01*
X19171Y26500D01*
X19068Y26603D01*
X18943Y26675D01*
X18803Y26713D01*
X18657D01*
X18517Y26675D01*
X18392Y26603D01*
X18289Y26500D01*
X18217Y26375D01*
X18179Y26235D01*
Y26103D01*
X16354Y24278D01*
X16279Y24165D01*
X16252Y24032D01*
Y23816D01*
X15932D01*
Y24961D01*
X18345Y27374D01*
X18363Y27364D01*
X18605Y27299D01*
X18855D01*
X19097Y27364D01*
X19314Y27489D01*
X19491Y27666D01*
X19616Y27883D01*
X19681Y28125D01*
Y28375D01*
X19616Y28617D01*
X19491Y28834D01*
X19358Y28966D01*
X19421Y29116D01*
X20510D01*
X20572Y28966D01*
X20470Y28864D01*
X20338Y28636D01*
X20270Y28382D01*
Y28350D01*
X22270D01*
Y28382D01*
X22202Y28636D01*
X22070Y28864D01*
X21968Y28966D01*
X22030Y29116D01*
X22452D01*
X22934Y28635D01*
X22924Y28617D01*
X22859Y28375D01*
Y28125D01*
X22924Y27883D01*
X23049Y27666D01*
X23226Y27489D01*
X23443Y27364D01*
X23685Y27299D01*
X23935D01*
X24177Y27364D01*
X24394Y27489D01*
X24571Y27666D01*
X24696Y27883D01*
X24761Y28125D01*
Y28375D01*
X24696Y28617D01*
X24686Y28635D01*
X25168Y29116D01*
X25424D01*
X25498Y28966D01*
D02*
G37*
G36*
X18102D02*
X17969Y28834D01*
X17844Y28617D01*
X17779Y28375D01*
Y28125D01*
X17844Y27883D01*
X17854Y27865D01*
X15339Y25350D01*
X15263Y25237D01*
X15237Y25104D01*
Y19950D01*
X14596D01*
Y19000D01*
X14396D01*
Y19950D01*
X13853D01*
Y25421D01*
X15805Y27374D01*
X15823Y27364D01*
X16065Y27299D01*
X16315D01*
X16557Y27364D01*
X16774Y27489D01*
X16951Y27666D01*
X17076Y27883D01*
X17141Y28125D01*
Y28375D01*
X17076Y28617D01*
X16951Y28834D01*
X16818Y28966D01*
X16881Y29116D01*
X18039D01*
X18102Y28966D01*
D02*
G37*
G36*
X28100Y28050D02*
Y24315D01*
X27073Y23288D01*
X26251D01*
Y23816D01*
X24650D01*
Y23865D01*
X23900D01*
Y22940D01*
Y22015D01*
X24650D01*
Y22064D01*
X25102D01*
Y19608D01*
X24625D01*
X24478Y19579D01*
X24443Y19556D01*
X24329Y19533D01*
X24216Y19458D01*
X23073Y18315D01*
X23038Y18261D01*
X22888Y18307D01*
Y18887D01*
X23516Y19515D01*
X23648D01*
X23788Y19553D01*
X23913Y19625D01*
X24016Y19728D01*
X24088Y19853D01*
X24126Y19993D01*
Y20139D01*
X24088Y20279D01*
X24016Y20404D01*
X23913Y20507D01*
X23788Y20579D01*
X23648Y20617D01*
X23502D01*
X23362Y20579D01*
X23237Y20507D01*
X23134Y20404D01*
X23062Y20279D01*
X23024Y20139D01*
Y20007D01*
X22294Y19277D01*
X22219Y19164D01*
X22192Y19031D01*
X22044Y19035D01*
Y19840D01*
X22481Y20277D01*
X22613D01*
X22753Y20315D01*
X22878Y20387D01*
X22981Y20490D01*
X23053Y20615D01*
X23091Y20755D01*
Y20901D01*
X23053Y21041D01*
X22981Y21166D01*
X22878Y21269D01*
X22753Y21341D01*
X22613Y21379D01*
X22467D01*
X22327Y21341D01*
X22202Y21269D01*
X22099Y21166D01*
X22027Y21041D01*
X21989Y20901D01*
Y20769D01*
X21451Y20230D01*
X21375Y20117D01*
X21349Y19984D01*
Y17319D01*
X21199Y17232D01*
X21169Y17250D01*
X21028Y17287D01*
X20883D01*
X20743Y17250D01*
X20618Y17177D01*
X20515Y17074D01*
X20443Y16949D01*
X20405Y16809D01*
Y16677D01*
X20051Y16323D01*
X19806D01*
X19725Y16473D01*
X19729Y16478D01*
X19758Y16625D01*
X19729Y16772D01*
X19646Y16896D01*
Y17004D01*
X19729Y17128D01*
X19758Y17275D01*
X19729Y17422D01*
X19646Y17546D01*
Y17654D01*
X19729Y17778D01*
X19758Y17925D01*
X19729Y18072D01*
X19646Y18196D01*
Y18304D01*
X19729Y18428D01*
X19758Y18575D01*
X19729Y18722D01*
X19680Y18796D01*
X19658Y18900D01*
X19680Y19004D01*
X19729Y19078D01*
X19758Y19225D01*
X19729Y19372D01*
X19646Y19496D01*
X19522Y19579D01*
X19375Y19608D01*
X18898D01*
Y22064D01*
X19376D01*
Y22592D01*
X21040D01*
X21173Y22619D01*
X21286Y22694D01*
X21805Y23213D01*
X21930Y23127D01*
X21904Y23030D01*
X22399D01*
Y23524D01*
X22302Y23498D01*
X22215Y23624D01*
X25893Y27302D01*
X25950Y27294D01*
X26750D01*
X26894Y27313D01*
X27028Y27369D01*
X27143Y27457D01*
X27231Y27572D01*
X27287Y27706D01*
X27306Y27850D01*
Y28633D01*
X27345Y28663D01*
X27450Y28700D01*
X28100Y28050D01*
D02*
G37*
G36*
X10308Y29595D02*
X8644Y27932D01*
X8569Y27819D01*
X8542Y27686D01*
Y25716D01*
X8014D01*
Y24064D01*
X9377D01*
X9434Y23925D01*
X9274Y23766D01*
X8014D01*
Y23288D01*
X4686D01*
Y23890D01*
X4735D01*
Y24640D01*
X2885D01*
Y23890D01*
X2934D01*
Y23404D01*
X2483D01*
X2350Y23378D01*
X2237Y23302D01*
X936Y22002D01*
X861Y21889D01*
X834Y21756D01*
Y8052D01*
X741Y7958D01*
X668Y7833D01*
X631Y7693D01*
Y7547D01*
X668Y7407D01*
X741Y7282D01*
X844Y7179D01*
X969Y7107D01*
X1109Y7069D01*
X1254D01*
X1395Y7107D01*
X1520Y7179D01*
X1623Y7282D01*
X1695Y7407D01*
X1733Y7547D01*
Y7693D01*
X1695Y7833D01*
X1623Y7958D01*
X1529Y8052D01*
Y10877D01*
X1679Y10907D01*
X1741Y10759D01*
X1857Y10607D01*
X2009Y10491D01*
X2185Y10418D01*
X2375Y10393D01*
X3025D01*
X3215Y10418D01*
X3391Y10491D01*
X3543Y10607D01*
X3659Y10759D01*
X3732Y10935D01*
X3757Y11125D01*
X3732Y11315D01*
X3659Y11491D01*
X3543Y11643D01*
X3391Y11759D01*
X3215Y11832D01*
X3025Y11857D01*
X2375D01*
X2185Y11832D01*
X2009Y11759D01*
X1857Y11643D01*
X1741Y11491D01*
X1679Y11343D01*
X1529Y11373D01*
Y18627D01*
X1679Y18657D01*
X1741Y18509D01*
X1857Y18357D01*
X2009Y18241D01*
X2185Y18168D01*
X2375Y18143D01*
X3025D01*
X3215Y18168D01*
X3391Y18241D01*
X3543Y18357D01*
X3659Y18509D01*
X3732Y18685D01*
X3757Y18875D01*
X3732Y19065D01*
X3659Y19241D01*
X3543Y19393D01*
X3391Y19509D01*
X3215Y19582D01*
X3025Y19607D01*
X2375D01*
X2185Y19582D01*
X2009Y19509D01*
X1857Y19393D01*
X1741Y19241D01*
X1679Y19093D01*
X1529Y19123D01*
Y21612D01*
X2627Y22709D01*
X2934D01*
Y22289D01*
X4686D01*
Y22592D01*
X8014D01*
Y22114D01*
X9766D01*
Y23274D01*
X12106Y25615D01*
X12119Y25611D01*
X12265D01*
X12405Y25649D01*
X12530Y25721D01*
X12633Y25824D01*
X12705Y25949D01*
X12743Y26089D01*
Y26235D01*
X12705Y26375D01*
X12633Y26500D01*
X12530Y26603D01*
X12405Y26675D01*
X12265Y26713D01*
X12119D01*
X11979Y26675D01*
X11854Y26603D01*
X11751Y26500D01*
X11679Y26375D01*
X11641Y26235D01*
Y26132D01*
X9905Y24396D01*
X9766Y24453D01*
Y25716D01*
X9238D01*
Y27542D01*
X10812Y29116D01*
X12959D01*
X13022Y28966D01*
X12889Y28834D01*
X12764Y28617D01*
X12699Y28375D01*
Y28125D01*
X12764Y27883D01*
X12889Y27666D01*
X13066Y27489D01*
X13283Y27364D01*
X13525Y27299D01*
X13775D01*
X14017Y27364D01*
X14234Y27489D01*
X14411Y27666D01*
X14536Y27883D01*
X14601Y28125D01*
Y28375D01*
X14536Y28617D01*
X14411Y28834D01*
X14278Y28966D01*
X14341Y29116D01*
X15499D01*
X15562Y28966D01*
X15429Y28834D01*
X15304Y28617D01*
X15239Y28375D01*
Y28125D01*
X15304Y27883D01*
X15314Y27865D01*
X13260Y25811D01*
X13184Y25698D01*
X13158Y25565D01*
Y20583D01*
X13008Y20496D01*
X12977Y20513D01*
X12837Y20551D01*
X12692D01*
X12552Y20513D01*
X12426Y20441D01*
X12324Y20338D01*
X12251Y20213D01*
X12214Y20073D01*
Y19927D01*
X12251Y19787D01*
X12324Y19662D01*
X12426Y19559D01*
X12482Y19527D01*
Y12325D01*
X12426Y12293D01*
X12324Y12190D01*
X12251Y12064D01*
X12250Y12058D01*
X12094D01*
X12093Y12064D01*
X12020Y12190D01*
X11917Y12293D01*
X11862Y12325D01*
Y20351D01*
X11917Y20383D01*
X12020Y20486D01*
X12093Y20611D01*
X12130Y20751D01*
Y20896D01*
X12093Y21037D01*
X12020Y21162D01*
X11917Y21265D01*
X11792Y21337D01*
X11652Y21375D01*
X11507D01*
X11366Y21337D01*
X11241Y21265D01*
X11138Y21162D01*
X11066Y21037D01*
X11028Y20896D01*
Y20751D01*
X11066Y20611D01*
X11138Y20486D01*
X11241Y20383D01*
X11296Y20351D01*
Y12325D01*
X11241Y12293D01*
X11138Y12190D01*
X11066Y12064D01*
X11028Y11924D01*
Y11779D01*
X11066Y11639D01*
X11138Y11513D01*
X11241Y11411D01*
X11366Y11338D01*
X11507Y11301D01*
X11652D01*
X11792Y11338D01*
X11917Y11411D01*
X12020Y11513D01*
X12093Y11639D01*
X12094Y11646D01*
X12250D01*
X12251Y11639D01*
X12324Y11513D01*
X12426Y11411D01*
X12552Y11338D01*
X12692Y11301D01*
X12837D01*
X12977Y11338D01*
X13103Y11411D01*
X13206Y11513D01*
X13278Y11639D01*
X13316Y11779D01*
Y11924D01*
X13278Y12064D01*
X13206Y12190D01*
X13103Y12293D01*
X13048Y12325D01*
Y15866D01*
X13198Y15906D01*
X13210Y15884D01*
X13322Y15772D01*
X13459Y15693D01*
X13590Y15658D01*
Y16252D01*
X13790D01*
Y15658D01*
X13922Y15693D01*
X14059Y15772D01*
X14170Y15884D01*
X14249Y16021D01*
X14290Y16173D01*
Y16190D01*
X14316Y16219D01*
X14440Y16294D01*
X14523Y16277D01*
X14523Y16277D01*
X17294D01*
X17375Y16127D01*
X17371Y16122D01*
X17342Y15975D01*
X17371Y15828D01*
X17388Y15803D01*
X17319Y15636D01*
X17300Y15633D01*
X17188Y15558D01*
X17188Y15558D01*
X15444Y13814D01*
X15312D01*
X15172Y13777D01*
X15047Y13704D01*
X14944Y13602D01*
X14872Y13476D01*
X14834Y13336D01*
Y13191D01*
X14872Y13051D01*
X14944Y12925D01*
X15047Y12822D01*
X15172Y12750D01*
X15312Y12712D01*
X15458D01*
X15598Y12750D01*
X15723Y12822D01*
X15826Y12925D01*
X15898Y13051D01*
X15936Y13191D01*
Y13323D01*
X17164Y14550D01*
X17323Y14510D01*
X17329Y14503D01*
X17380Y14427D01*
X17454Y14296D01*
X17371Y14172D01*
X17342Y14025D01*
X17371Y13878D01*
X17454Y13754D01*
Y13646D01*
X17371Y13522D01*
X17342Y13375D01*
X17371Y13228D01*
X17454Y13104D01*
Y12996D01*
X17371Y12872D01*
X17342Y12725D01*
X17371Y12578D01*
X17375Y12573D01*
X17294Y12423D01*
X16225D01*
X16092Y12396D01*
X15979Y12321D01*
X15756Y12098D01*
X15681Y11985D01*
X15654Y11852D01*
Y10327D01*
X15496Y10168D01*
X15346Y10230D01*
Y10950D01*
X13646D01*
Y10100D01*
X13935D01*
X13998Y9950D01*
X13476Y9429D01*
X7019D01*
X6886Y9402D01*
X6773Y9327D01*
X6773Y9327D01*
X5634Y8187D01*
X5559Y8075D01*
X5532Y7942D01*
Y4754D01*
X4630Y3851D01*
X4554Y3739D01*
X4528Y3605D01*
Y3291D01*
X4159D01*
Y1789D01*
X5561D01*
Y3291D01*
X5223D01*
Y3462D01*
X6125Y4364D01*
X6201Y4477D01*
X6227Y4610D01*
Y7798D01*
X6730Y8300D01*
X6850Y8208D01*
X6819Y8154D01*
X6781Y8014D01*
Y7869D01*
X6805Y7779D01*
X6508Y7482D01*
X6447Y7390D01*
X6425Y7282D01*
X6425Y7282D01*
Y1478D01*
X6425Y1478D01*
X6447Y1370D01*
X6508Y1278D01*
X7381Y405D01*
X7319Y255D01*
X255D01*
Y29745D01*
X10245D01*
X10308Y29595D01*
D02*
G37*
G36*
X39745Y255D02*
X21657D01*
X21595Y405D01*
X22079Y889D01*
X22163Y841D01*
X22412Y774D01*
X22668D01*
X22917Y841D01*
X23139Y969D01*
X23321Y1151D01*
X23449Y1373D01*
X23516Y1622D01*
Y1878D01*
X23449Y2127D01*
X23321Y2349D01*
X23139Y2531D01*
X22917Y2659D01*
X22668Y2726D01*
X22412D01*
X22163Y2659D01*
X21941Y2531D01*
X21759Y2349D01*
X21631Y2127D01*
X21564Y1878D01*
Y1622D01*
X21631Y1373D01*
X21679Y1289D01*
X21192Y802D01*
X20609D01*
X20569Y952D01*
X20599Y969D01*
X20781Y1151D01*
X20909Y1373D01*
X20976Y1622D01*
Y1878D01*
X20909Y2127D01*
X20781Y2349D01*
X20599Y2531D01*
X20377Y2659D01*
X20128Y2726D01*
X19872D01*
X19623Y2659D01*
X19401Y2531D01*
X19219Y2349D01*
X19091Y2127D01*
X19024Y1878D01*
Y1622D01*
X19091Y1373D01*
X19219Y1151D01*
X19401Y969D01*
X19431Y952D01*
X19391Y802D01*
X18069D01*
X18029Y952D01*
X18059Y969D01*
X18241Y1151D01*
X18369Y1373D01*
X18436Y1622D01*
Y1878D01*
X18369Y2127D01*
X18321Y2211D01*
X18930Y2820D01*
X18930Y2820D01*
X18991Y2912D01*
X19013Y3020D01*
X19013Y3020D01*
Y3748D01*
X19163Y3788D01*
X19219Y3691D01*
X19401Y3509D01*
X19623Y3381D01*
X19872Y3314D01*
X20128D01*
X20377Y3381D01*
X20599Y3509D01*
X20781Y3691D01*
X20909Y3913D01*
X20976Y4162D01*
Y4418D01*
X20909Y4667D01*
X20781Y4889D01*
X20660Y5010D01*
X20663Y5176D01*
X20676Y5198D01*
X20766Y5288D01*
X20838Y5413D01*
X20876Y5554D01*
Y5686D01*
X24800Y9610D01*
X26607D01*
X26740Y9637D01*
X26853Y9712D01*
X27355Y10214D01*
X27431Y10327D01*
X27457Y10460D01*
X27457Y10460D01*
Y11700D01*
X27431Y11833D01*
X27355Y11946D01*
X26993Y12308D01*
X26881Y12383D01*
X26748Y12409D01*
X26697D01*
X26617Y12559D01*
X26629Y12578D01*
X26658Y12725D01*
X26629Y12872D01*
X26546Y12996D01*
X26620Y13126D01*
X26805Y13153D01*
X27209Y12749D01*
X27322Y12674D01*
X27455Y12647D01*
X29300D01*
X29433Y12674D01*
X29546Y12749D01*
X30171Y13374D01*
X31356D01*
Y14975D01*
X31405D01*
Y15725D01*
X29555D01*
Y14975D01*
X29604D01*
Y13791D01*
X29156Y13343D01*
X27714D01*
X27710Y13353D01*
X27702Y13507D01*
X27828Y13579D01*
X27930Y13682D01*
X28003Y13807D01*
X28040Y13947D01*
Y14093D01*
X28003Y14233D01*
X27930Y14358D01*
X27828Y14461D01*
X27702Y14533D01*
X27696Y14535D01*
X27607Y14660D01*
X27647Y14807D01*
X27702Y14822D01*
X27828Y14894D01*
X27930Y14997D01*
X28003Y15122D01*
X28040Y15262D01*
Y15408D01*
X28003Y15548D01*
X27930Y15673D01*
X27828Y15776D01*
X27702Y15848D01*
X27681Y15854D01*
X27590Y15972D01*
X27635Y16119D01*
X27702Y16137D01*
X27828Y16209D01*
X27930Y16312D01*
X28003Y16437D01*
X28040Y16577D01*
Y16723D01*
X28003Y16863D01*
X27930Y16988D01*
X27828Y17091D01*
X27702Y17163D01*
X27562Y17201D01*
X27440D01*
X27382Y17270D01*
X27400Y17343D01*
X27402Y17348D01*
X27455Y17414D01*
X27562D01*
X27702Y17452D01*
X27828Y17524D01*
X27930Y17627D01*
X28003Y17753D01*
X28040Y17893D01*
Y18038D01*
X28003Y18178D01*
X27930Y18304D01*
X27828Y18406D01*
X27702Y18479D01*
X27562Y18516D01*
X27417D01*
X27277Y18479D01*
X27151Y18406D01*
X27049Y18304D01*
X27038Y18286D01*
X26760D01*
X26681Y18436D01*
X26688Y18475D01*
X25450D01*
Y18675D01*
X26688D01*
X26675Y18741D01*
X26620Y18823D01*
X26546Y18954D01*
X26629Y19078D01*
X26658Y19225D01*
X26629Y19372D01*
X26546Y19496D01*
X26422Y19579D01*
X26275Y19608D01*
X25798D01*
Y22064D01*
X26251D01*
Y22592D01*
X27217D01*
X27350Y22619D01*
X27463Y22694D01*
X28694Y23925D01*
X28694Y23925D01*
X28769Y24038D01*
X28796Y24171D01*
X28796Y24171D01*
Y28194D01*
X28796Y28194D01*
X28769Y28327D01*
X28694Y28440D01*
X27538Y29595D01*
X27601Y29745D01*
X39745D01*
Y255D01*
D02*
G37*
G36*
X14766Y9258D02*
X14614Y9106D01*
X14539Y8993D01*
X14512Y8860D01*
Y8496D01*
X14059D01*
Y6744D01*
X14374D01*
X14436Y6594D01*
X13179Y5336D01*
X12624D01*
X12530Y5430D01*
X12405Y5502D01*
X12265Y5540D01*
X12119D01*
X11979Y5502D01*
X11854Y5430D01*
X11751Y5327D01*
X11725Y5282D01*
X11030D01*
X11030Y5282D01*
X10897Y5255D01*
X10784Y5180D01*
X9694Y4090D01*
X9619Y3977D01*
X9592Y3844D01*
Y3291D01*
X9239D01*
Y1789D01*
X10641D01*
Y3291D01*
X10288D01*
Y3700D01*
X11174Y4586D01*
X11815D01*
X11854Y4548D01*
X11979Y4475D01*
X12119Y4438D01*
X12265D01*
X12405Y4475D01*
X12530Y4548D01*
X12624Y4641D01*
X13323D01*
X13456Y4668D01*
X13568Y4743D01*
X15048Y6222D01*
X15198Y6160D01*
Y6074D01*
X15239Y5922D01*
X15318Y5785D01*
X15430Y5673D01*
X15566Y5594D01*
X15623Y5579D01*
X15668Y5412D01*
X15398Y5141D01*
X15297Y5199D01*
X15048Y5266D01*
X14792D01*
X14543Y5199D01*
X14321Y5071D01*
X14139Y4889D01*
X14011Y4667D01*
X13944Y4418D01*
Y4162D01*
X14011Y3913D01*
X14139Y3691D01*
X14321Y3509D01*
X14543Y3381D01*
X14792Y3314D01*
X15048D01*
X15297Y3381D01*
X15519Y3509D01*
X15701Y3691D01*
X15757Y3788D01*
X15907Y3748D01*
Y3137D01*
X15481Y2711D01*
X15480Y2711D01*
X15333Y2731D01*
X14507D01*
X14360Y2711D01*
X14223Y2655D01*
X14106Y2564D01*
X14015Y2447D01*
X13959Y2310D01*
X13939Y2162D01*
Y1337D01*
X13959Y1190D01*
X14015Y1053D01*
X14093Y952D01*
X14079Y886D01*
X14034Y802D01*
X7785D01*
X6991Y1595D01*
Y1784D01*
X7139Y1789D01*
X7141Y1789D01*
X8541D01*
Y3291D01*
X8188D01*
Y4231D01*
X8505Y4549D01*
X9766D01*
Y6201D01*
X8014D01*
Y5041D01*
X7594Y4621D01*
X7519Y4508D01*
X7492Y4375D01*
Y3291D01*
X7141D01*
X7139Y3291D01*
X6991Y3296D01*
Y7164D01*
X7226Y7400D01*
X7260Y7391D01*
X7405D01*
X7545Y7428D01*
X7671Y7501D01*
X7773Y7603D01*
X7815Y7676D01*
X7965Y7636D01*
Y7425D01*
X8790D01*
Y8200D01*
X7985D01*
X7965Y8200D01*
X7817Y8204D01*
X7773Y8280D01*
X7671Y8383D01*
X7545Y8455D01*
X7405Y8493D01*
X7260D01*
X7120Y8455D01*
X7066Y8424D01*
X6973Y8544D01*
X7163Y8734D01*
X13620D01*
X13753Y8760D01*
X13866Y8835D01*
X14438Y9408D01*
X14704D01*
X14766Y9258D01*
D02*
G37*
%LPC*%
G36*
X22270Y28150D02*
X21370D01*
Y27250D01*
X21402D01*
X21656Y27318D01*
X21884Y27450D01*
X22070Y27636D01*
X22202Y27864D01*
X22270Y28118D01*
Y28150D01*
D02*
G37*
G36*
X21170D02*
X20270D01*
Y28118D01*
X20338Y27864D01*
X20470Y27636D01*
X20656Y27450D01*
X20884Y27318D01*
X21138Y27250D01*
X21170D01*
Y28150D01*
D02*
G37*
G36*
X23700Y23865D02*
X22950D01*
Y23529D01*
X22800Y23448D01*
X22730Y23489D01*
X22599Y23524D01*
Y22930D01*
Y22335D01*
X22730Y22371D01*
X22800Y22411D01*
X22950Y22330D01*
Y22015D01*
X23700D01*
Y22940D01*
Y23865D01*
D02*
G37*
G36*
X22399Y22830D02*
X21904D01*
X21940Y22698D01*
X22018Y22561D01*
X22130Y22450D01*
X22267Y22371D01*
X22399Y22335D01*
Y22830D01*
D02*
G37*
G36*
X3910Y26756D02*
Y26262D01*
X4404D01*
X4369Y26394D01*
X4290Y26530D01*
X4178Y26642D01*
X4042Y26721D01*
X3910Y26756D01*
D02*
G37*
G36*
X3710D02*
X3578Y26721D01*
X3442Y26642D01*
X3330Y26530D01*
X3251Y26394D01*
X3216Y26262D01*
X3710D01*
Y26756D01*
D02*
G37*
G36*
X4404Y26062D02*
X3216D01*
X3251Y25930D01*
X3330Y25794D01*
X3383Y25740D01*
X3321Y25590D01*
X2885D01*
Y24840D01*
X4735D01*
Y25590D01*
X4299D01*
X4237Y25740D01*
X4290Y25794D01*
X4369Y25930D01*
X4404Y26062D01*
D02*
G37*
G36*
X6800Y19633D02*
X6600D01*
Y18825D01*
X7695D01*
X7677Y18960D01*
X7586Y19179D01*
X7442Y19367D01*
X7254Y19511D01*
X7035Y19602D01*
X6800Y19633D01*
D02*
G37*
G36*
X6400D02*
X6200D01*
X5965Y19602D01*
X5746Y19511D01*
X5558Y19367D01*
X5414Y19179D01*
X5323Y18960D01*
X5305Y18825D01*
X6400D01*
Y19633D01*
D02*
G37*
G36*
X7695Y18625D02*
X6600D01*
Y17817D01*
X6800D01*
X7035Y17848D01*
X7254Y17939D01*
X7442Y18083D01*
X7586Y18271D01*
X7677Y18490D01*
X7695Y18625D01*
D02*
G37*
G36*
X6400D02*
X5305D01*
X5323Y18490D01*
X5414Y18271D01*
X5468Y18201D01*
X5394Y18051D01*
X5327D01*
X5187Y18013D01*
X5062Y17941D01*
X4959Y17838D01*
X4887Y17713D01*
X4849Y17573D01*
Y17427D01*
X4887Y17287D01*
X4959Y17162D01*
X5062Y17059D01*
X5187Y16987D01*
X5327Y16949D01*
X5473D01*
X5613Y16987D01*
X5738Y17059D01*
X5841Y17162D01*
X5913Y17287D01*
X5951Y17427D01*
Y17573D01*
X5913Y17713D01*
X5923Y17737D01*
X6012Y17842D01*
X6200Y17817D01*
X6400D01*
Y18625D01*
D02*
G37*
G36*
X6800Y12183D02*
X6600D01*
Y11375D01*
X7695D01*
X7677Y11510D01*
X7586Y11729D01*
X7442Y11917D01*
X7254Y12061D01*
X7035Y12152D01*
X6800Y12183D01*
D02*
G37*
G36*
X5473Y13051D02*
X5327D01*
X5187Y13013D01*
X5062Y12941D01*
X4959Y12838D01*
X4887Y12713D01*
X4849Y12573D01*
Y12427D01*
X4887Y12287D01*
X4959Y12162D01*
X5062Y12059D01*
X5187Y11987D01*
X5327Y11949D01*
X5394D01*
X5468Y11799D01*
X5414Y11729D01*
X5323Y11510D01*
X5305Y11375D01*
X6400D01*
Y12183D01*
X6200D01*
X6012Y12158D01*
X5923Y12263D01*
X5913Y12287D01*
X5951Y12427D01*
Y12573D01*
X5913Y12713D01*
X5841Y12838D01*
X5738Y12941D01*
X5613Y13013D01*
X5473Y13051D01*
D02*
G37*
G36*
X10801Y19901D02*
X9199D01*
Y18099D01*
X9652D01*
Y11951D01*
X9199D01*
Y11355D01*
X9049Y11329D01*
X8974Y11403D01*
X8849Y11476D01*
X8709Y11513D01*
X8563D01*
X8423Y11476D01*
X8298Y11403D01*
X8195Y11301D01*
X8123Y11175D01*
X8085Y11035D01*
Y10890D01*
X8123Y10750D01*
X8195Y10624D01*
X8298Y10521D01*
X8423Y10449D01*
X8563Y10411D01*
X8709D01*
X8849Y10449D01*
X8974Y10521D01*
X9049Y10596D01*
X9199Y10570D01*
Y10149D01*
X10801D01*
Y11951D01*
X10348D01*
Y18099D01*
X10801D01*
Y19901D01*
D02*
G37*
G36*
X15346Y12000D02*
X14596D01*
Y11150D01*
X15346D01*
Y12000D01*
D02*
G37*
G36*
X14396D02*
X13646D01*
Y11150D01*
X14396D01*
Y12000D01*
D02*
G37*
G36*
X12865Y11061D02*
Y10567D01*
X13359D01*
X13324Y10698D01*
X13245Y10835D01*
X13133Y10947D01*
X12996Y11026D01*
X12865Y11061D01*
D02*
G37*
G36*
X12665D02*
X12533Y11026D01*
X12396Y10947D01*
X12285Y10835D01*
X12206Y10698D01*
X12170Y10567D01*
X12665D01*
Y11061D01*
D02*
G37*
G36*
X7695Y11175D02*
X6600D01*
Y10367D01*
X6800D01*
X7035Y10398D01*
X7254Y10489D01*
X7442Y10633D01*
X7586Y10821D01*
X7677Y11040D01*
X7695Y11175D01*
D02*
G37*
G36*
X6400D02*
X5305D01*
X5323Y11040D01*
X5414Y10821D01*
X5558Y10633D01*
X5746Y10489D01*
X5965Y10398D01*
X6200Y10367D01*
X6400D01*
Y11175D01*
D02*
G37*
G36*
X13359Y10367D02*
X12865D01*
Y9872D01*
X12996Y9908D01*
X13133Y9987D01*
X13245Y10098D01*
X13324Y10235D01*
X13359Y10367D01*
D02*
G37*
G36*
X12665D02*
X12170D01*
X12206Y10235D01*
X12285Y10098D01*
X12396Y9987D01*
X12533Y9908D01*
X12665Y9872D01*
Y10367D01*
D02*
G37*
G36*
X4735Y8200D02*
X3910D01*
Y7425D01*
X4735D01*
Y8200D01*
D02*
G37*
G36*
X3710D02*
X2885D01*
Y7425D01*
X3710D01*
Y8200D01*
D02*
G37*
G36*
X4735Y7225D02*
X3910D01*
Y6450D01*
X4735D01*
Y7225D01*
D02*
G37*
G36*
X3710D02*
X2885D01*
Y6450D01*
X3710D01*
Y7225D01*
D02*
G37*
G36*
X4686Y6201D02*
X2934D01*
Y5041D01*
X2514Y4621D01*
X2439Y4508D01*
X2412Y4375D01*
Y3291D01*
X2059D01*
Y1789D01*
X3461D01*
Y3291D01*
X3108D01*
Y4231D01*
X3425Y4549D01*
X4686D01*
Y6201D01*
D02*
G37*
G36*
X34415Y29201D02*
X34165D01*
X33923Y29136D01*
X33706Y29011D01*
X33529Y28834D01*
X33404Y28617D01*
X33339Y28375D01*
Y28125D01*
X33404Y27883D01*
X33529Y27666D01*
X33706Y27489D01*
X33923Y27364D01*
X34165Y27299D01*
X34415D01*
X34657Y27364D01*
X34874Y27489D01*
X35051Y27666D01*
X35176Y27883D01*
X35241Y28125D01*
Y28375D01*
X35176Y28617D01*
X35051Y28834D01*
X34874Y29011D01*
X34657Y29136D01*
X34415Y29201D01*
D02*
G37*
G36*
X32701D02*
X30799D01*
Y27299D01*
X32701D01*
Y29201D01*
D02*
G37*
G36*
X33458Y23838D02*
Y23344D01*
X33953D01*
X33917Y23475D01*
X33838Y23612D01*
X33727Y23724D01*
X33590Y23803D01*
X33458Y23838D01*
D02*
G37*
G36*
X33258D02*
X33127Y23803D01*
X32990Y23724D01*
X32878Y23612D01*
X32799Y23475D01*
X32764Y23344D01*
X33258D01*
Y23838D01*
D02*
G37*
G36*
X33953Y23144D02*
X33458D01*
Y22649D01*
X33590Y22685D01*
X33727Y22764D01*
X33838Y22875D01*
X33917Y23012D01*
X33953Y23144D01*
D02*
G37*
G36*
X33258D02*
X32764D01*
X32799Y23012D01*
X32878Y22875D01*
X32990Y22764D01*
X33127Y22685D01*
X33258Y22649D01*
Y23144D01*
D02*
G37*
G36*
X31405Y22250D02*
X30580D01*
Y21500D01*
X31405D01*
Y22250D01*
D02*
G37*
G36*
X30380D02*
X29555D01*
Y21500D01*
X30380D01*
Y22250D01*
D02*
G37*
G36*
X37151Y22651D02*
X34849D01*
Y20098D01*
X31356D01*
Y20550D01*
X31405D01*
Y21300D01*
X29555D01*
Y20550D01*
X29604D01*
Y20098D01*
X29219D01*
X28040Y21277D01*
Y21409D01*
X28003Y21549D01*
X27930Y21674D01*
X27828Y21777D01*
X27702Y21849D01*
X27562Y21887D01*
X27417D01*
X27277Y21849D01*
X27151Y21777D01*
X27049Y21674D01*
X26976Y21549D01*
X26938Y21409D01*
Y21263D01*
X26976Y21123D01*
X27049Y20998D01*
X27151Y20895D01*
X27277Y20823D01*
X27417Y20785D01*
X27428Y20767D01*
X27426Y20734D01*
X27357Y20601D01*
X27277Y20579D01*
X27151Y20507D01*
X27049Y20404D01*
X26976Y20279D01*
X26938Y20139D01*
Y19993D01*
X26976Y19853D01*
X27049Y19728D01*
X27151Y19625D01*
X27277Y19553D01*
X27417Y19515D01*
X27549D01*
X29111Y17953D01*
X29224Y17878D01*
X29357Y17851D01*
X32590D01*
X33011Y17431D01*
Y14384D01*
X30234Y11607D01*
X30159Y11495D01*
X30132Y11362D01*
Y11051D01*
X29604D01*
Y9450D01*
X29555D01*
Y8700D01*
X30480D01*
X31405D01*
Y9450D01*
X31356D01*
Y9902D01*
X34849D01*
Y7709D01*
X34770Y7592D01*
X34699Y7592D01*
X33120D01*
Y5942D01*
X34770D01*
Y7232D01*
X34849Y7349D01*
X34920Y7349D01*
X37151D01*
Y13151D01*
X34849D01*
Y10598D01*
X31356D01*
Y11051D01*
X30828D01*
Y11218D01*
X33604Y13994D01*
X33604Y13994D01*
X33679Y14107D01*
X33706Y14240D01*
Y17575D01*
X33679Y17708D01*
X33604Y17821D01*
X32980Y18444D01*
X32867Y18520D01*
X32734Y18546D01*
X29501D01*
X28102Y19945D01*
X28112Y20010D01*
X28271Y20063D01*
X28830Y19504D01*
X28830Y19504D01*
X28942Y19429D01*
X29075Y19402D01*
X29075Y19402D01*
X29604D01*
Y18949D01*
X31356D01*
Y19402D01*
X34849D01*
Y16849D01*
X37151D01*
Y22651D01*
D02*
G37*
G36*
X31405Y16675D02*
X30580D01*
Y15925D01*
X31405D01*
Y16675D01*
D02*
G37*
G36*
X30380D02*
X29555D01*
Y15925D01*
X30380D01*
Y16675D01*
D02*
G37*
G36*
X32320Y15585D02*
Y15090D01*
X32815D01*
X32780Y15222D01*
X32701Y15359D01*
X32589Y15471D01*
X32452Y15550D01*
X32320Y15585D01*
D02*
G37*
G36*
X32120D02*
X31989Y15550D01*
X31852Y15471D01*
X31740Y15359D01*
X31661Y15222D01*
X31626Y15090D01*
X32120D01*
Y15585D01*
D02*
G37*
G36*
X35484Y15585D02*
Y15090D01*
X35979D01*
X35944Y15222D01*
X35865Y15359D01*
X35753Y15471D01*
X35616Y15550D01*
X35484Y15585D01*
D02*
G37*
G36*
X35284D02*
X35153Y15550D01*
X35016Y15471D01*
X34904Y15359D01*
X34825Y15222D01*
X34790Y15090D01*
X35284D01*
Y15585D01*
D02*
G37*
G36*
X32815Y14891D02*
X32320D01*
Y14396D01*
X32452Y14431D01*
X32589Y14510D01*
X32701Y14622D01*
X32780Y14759D01*
X32815Y14891D01*
D02*
G37*
G36*
X32120D02*
X31626D01*
X31661Y14759D01*
X31740Y14622D01*
X31852Y14510D01*
X31989Y14431D01*
X32120Y14396D01*
Y14891D01*
D02*
G37*
G36*
X35979Y14891D02*
X35484D01*
Y14396D01*
X35616Y14431D01*
X35753Y14510D01*
X35865Y14622D01*
X35944Y14759D01*
X35979Y14891D01*
D02*
G37*
G36*
X35284D02*
X34790D01*
X34825Y14759D01*
X34904Y14622D01*
X35016Y14510D01*
X35153Y14431D01*
X35284Y14396D01*
Y14891D01*
D02*
G37*
G36*
X31405Y8500D02*
X30580D01*
Y7750D01*
X31405D01*
Y8500D01*
D02*
G37*
G36*
X30380D02*
X29555D01*
Y7750D01*
X30380D01*
Y8500D01*
D02*
G37*
G36*
X32920Y7592D02*
X31270D01*
Y5942D01*
X32920D01*
Y7592D01*
D02*
G37*
G36*
X25215Y5315D02*
X25180D01*
Y4390D01*
X26105D01*
Y4425D01*
X26035Y4686D01*
X25900Y4919D01*
X25709Y5110D01*
X25476Y5245D01*
X25215Y5315D01*
D02*
G37*
G36*
X24980D02*
X24945D01*
X24684Y5245D01*
X24451Y5110D01*
X24260Y4919D01*
X24125Y4686D01*
X24055Y4425D01*
Y4390D01*
X24980D01*
Y5315D01*
D02*
G37*
G36*
X34770Y5742D02*
X33120D01*
Y4092D01*
X34770D01*
Y5742D01*
D02*
G37*
G36*
X32920D02*
X31270D01*
Y4092D01*
X32920D01*
Y5742D01*
D02*
G37*
G36*
X22668Y5266D02*
X22412D01*
X22163Y5199D01*
X21941Y5071D01*
X21759Y4889D01*
X21631Y4667D01*
X21564Y4418D01*
Y4162D01*
X21631Y3913D01*
X21759Y3691D01*
X21941Y3509D01*
X22163Y3381D01*
X22412Y3314D01*
X22668D01*
X22917Y3381D01*
X23139Y3509D01*
X23321Y3691D01*
X23449Y3913D01*
X23516Y4162D01*
Y4418D01*
X23449Y4667D01*
X23321Y4889D01*
X23139Y5071D01*
X22917Y5199D01*
X22668Y5266D01*
D02*
G37*
G36*
X26105Y4190D02*
X25180D01*
Y3265D01*
X25215D01*
X25476Y3335D01*
X25709Y3470D01*
X25900Y3661D01*
X26035Y3894D01*
X26105Y4155D01*
Y4190D01*
D02*
G37*
G36*
X24980D02*
X24055D01*
Y4155D01*
X24125Y3894D01*
X24260Y3661D01*
X24451Y3470D01*
X24684Y3335D01*
X24945Y3265D01*
X24980D01*
Y4190D01*
D02*
G37*
G36*
X34415Y2701D02*
X34165D01*
X33923Y2636D01*
X33706Y2511D01*
X33529Y2334D01*
X33404Y2117D01*
X33339Y1875D01*
Y1625D01*
X33404Y1383D01*
X33529Y1166D01*
X33706Y989D01*
X33923Y864D01*
X34165Y799D01*
X34415D01*
X34657Y864D01*
X34874Y989D01*
X35051Y1166D01*
X35176Y1383D01*
X35241Y1625D01*
Y1875D01*
X35176Y2117D01*
X35051Y2334D01*
X34874Y2511D01*
X34657Y2636D01*
X34415Y2701D01*
D02*
G37*
G36*
X32701D02*
X30799D01*
Y799D01*
X32701D01*
Y2701D01*
D02*
G37*
G36*
X25208Y2726D02*
X24952D01*
X24703Y2659D01*
X24481Y2531D01*
X24299Y2349D01*
X24171Y2127D01*
X24104Y1878D01*
Y1622D01*
X24171Y1373D01*
X24299Y1151D01*
X24481Y969D01*
X24703Y841D01*
X24952Y774D01*
X25208D01*
X25457Y841D01*
X25679Y969D01*
X25861Y1151D01*
X25989Y1373D01*
X26056Y1622D01*
Y1878D01*
X25989Y2127D01*
X25861Y2349D01*
X25679Y2531D01*
X25457Y2659D01*
X25208Y2726D01*
D02*
G37*
G36*
X10542Y8129D02*
Y7635D01*
X11037D01*
X11002Y7767D01*
X10923Y7903D01*
X10811Y8015D01*
X10674Y8094D01*
X10542Y8129D01*
D02*
G37*
G36*
X11037Y7435D02*
X10542D01*
Y6941D01*
X10674Y6976D01*
X10811Y7055D01*
X10923Y7167D01*
X11002Y7303D01*
X11037Y7435D01*
D02*
G37*
G36*
X8990Y8200D02*
Y7325D01*
Y6450D01*
X9815D01*
Y7122D01*
X9952Y7164D01*
X9965Y7164D01*
X10074Y7055D01*
X10211Y6976D01*
X10342Y6941D01*
Y7535D01*
Y8129D01*
X10211Y8094D01*
X10074Y8015D01*
X9965Y7906D01*
X9952Y7906D01*
X9815Y7948D01*
Y8200D01*
X8990D01*
D02*
G37*
G36*
X8790Y7225D02*
X7965D01*
Y6450D01*
X8790D01*
Y7225D01*
D02*
G37*
%LPD*%
D10*
X33020Y5842D02*
D03*
D11*
X30480Y10250D02*
D03*
Y8600D02*
D03*
Y19750D02*
D03*
Y21400D02*
D03*
X3810Y23090D02*
D03*
Y24740D02*
D03*
X30480Y15825D02*
D03*
Y14175D02*
D03*
D12*
X36000Y10250D02*
D03*
Y19750D02*
D03*
D13*
X14496Y19000D02*
D03*
Y11050D02*
D03*
X10000Y19000D02*
D03*
Y11050D02*
D03*
D14*
X18550Y19225D02*
D03*
Y18575D02*
D03*
Y17925D02*
D03*
Y17275D02*
D03*
Y16625D02*
D03*
Y15975D02*
D03*
Y15325D02*
D03*
Y14675D02*
D03*
Y14025D02*
D03*
Y13375D02*
D03*
Y12725D02*
D03*
Y12075D02*
D03*
Y11425D02*
D03*
Y10775D02*
D03*
X25450Y19225D02*
D03*
Y18575D02*
D03*
Y17925D02*
D03*
Y17275D02*
D03*
Y16625D02*
D03*
Y15975D02*
D03*
Y15325D02*
D03*
Y14675D02*
D03*
Y14025D02*
D03*
Y13375D02*
D03*
Y12725D02*
D03*
Y12075D02*
D03*
Y11425D02*
D03*
Y10775D02*
D03*
D15*
X8890Y7325D02*
D03*
Y5375D02*
D03*
X3810Y7325D02*
D03*
Y5375D02*
D03*
X8890Y24890D02*
D03*
Y22940D02*
D03*
D16*
X4860Y2540D02*
D03*
X2760D02*
D03*
X9940D02*
D03*
X7840D02*
D03*
D17*
X23800Y22940D02*
D03*
X25450D02*
D03*
X16510Y7620D02*
D03*
X14860D02*
D03*
D18*
X18550Y22940D02*
D03*
X16600D02*
D03*
D19*
X1182Y21756D02*
X2483Y23057D01*
X1182Y7620D02*
Y21756D01*
X2483Y23057D02*
X3777D01*
X3810Y23090D01*
X24656Y9958D02*
X26607D01*
X27109Y10460D02*
Y11700D01*
X26607Y9958D02*
X27109Y10460D01*
X26748Y12062D02*
X27109Y11700D01*
X25463Y12062D02*
X26748D01*
X20325Y5626D02*
X24656Y9958D01*
X27409Y14196D02*
X27489Y14116D01*
X27409Y14196D02*
Y14340D01*
X30480Y10250D02*
Y11362D01*
X33358Y14240D01*
Y17575D01*
X26438Y14012D02*
X27455Y12995D01*
X29300D01*
X30480Y14175D01*
X14860Y6526D02*
Y8860D01*
X13323Y4989D02*
X14860Y6526D01*
Y8860D02*
X15144Y9144D01*
X32734Y18199D02*
X33358Y17575D01*
X29357Y18199D02*
X32734D01*
X7019Y9081D02*
X13620D01*
X14294Y9755D02*
X15574D01*
X13620Y9081D02*
X14294Y9755D01*
X15574D02*
X16002Y10183D01*
X5880Y7942D02*
X7019Y9081D01*
X15144Y9144D02*
X15879D01*
X16735Y10000D01*
X5880Y4610D02*
Y7942D01*
X22596Y29464D02*
X23810Y28250D01*
X10668Y29464D02*
X22596D01*
X25024D02*
X27178D01*
X28448Y28194D01*
X23810Y28250D02*
X25024Y29464D01*
X14523Y16625D02*
X18550D01*
X13505Y17643D02*
X14523Y16625D01*
X13505Y17643D02*
Y25565D01*
X16190Y28250D01*
X9940Y2540D02*
Y3844D01*
X11030Y4934D01*
X12137D01*
X12192Y4989D02*
X13323D01*
X12137Y4934D02*
X12192Y4989D01*
X7840Y4375D02*
X8840Y5375D01*
X7840Y2540D02*
Y4375D01*
X15385Y13263D02*
X17433Y15312D01*
X16225Y12075D02*
X18550D01*
X16002Y10183D02*
Y11852D01*
X16225Y12075D01*
X18537Y15312D02*
X18550Y15325D01*
X17433Y15312D02*
X18537D01*
X19538Y14038D02*
X21696Y16197D01*
X18550Y15975D02*
X20195D01*
X21696Y19984D02*
X22540Y20828D01*
X20195Y15975D02*
X20956Y16736D01*
X21696Y16197D02*
Y19984D01*
X25450Y17925D02*
X25463Y17938D01*
X27462D02*
X27489Y17965D01*
X25463Y17938D02*
X27462D01*
X25450Y12075D02*
X25463Y12062D01*
X4876Y3605D02*
X5880Y4610D01*
X4876Y2555D02*
Y3605D01*
X21501Y10511D02*
X23715Y12725D01*
X21421Y9654D02*
X21501Y9735D01*
Y10511D01*
X8636Y10962D02*
X9912D01*
X10000Y11050D01*
X15585Y18214D02*
Y25104D01*
Y18214D02*
X16510Y17288D01*
X15585Y25104D02*
X18730Y28250D01*
X22540Y15640D02*
Y19031D01*
X23319Y18069D02*
X24462Y19212D01*
X23319Y15185D02*
Y18069D01*
X22540Y19031D02*
X23575Y20066D01*
X23715Y12725D02*
X25450D01*
X22096Y13962D02*
X23319Y15185D01*
X18550Y13375D02*
X20275D01*
X22540Y15640D01*
X24462Y19212D02*
X25437D01*
X30555Y10250D02*
X36000D01*
X27489Y20066D02*
X29357Y18199D01*
X27489Y21336D02*
X29075Y19750D01*
X30480D01*
X18550Y14025D02*
X18563Y14038D01*
X19538D01*
X25437Y19212D02*
X25450Y19225D01*
X16735Y10000D02*
Y10795D01*
X17352Y11412D02*
X18537D01*
X16735Y10795D02*
X17352Y11412D01*
X18537D02*
X18550Y11425D01*
X12162Y26162D02*
X12192D01*
X8940Y22940D02*
X12162Y26162D01*
X8890Y22940D02*
X8940D01*
X16600D02*
Y24032D01*
X18730Y26162D01*
X10000Y11050D02*
Y19000D01*
X2760Y4375D02*
X3760Y5375D01*
X3810D01*
X2760Y2540D02*
Y4375D01*
X8840Y5375D02*
X8890D01*
X4860Y2540D02*
X4876Y2555D01*
X25463Y14012D02*
X26438D01*
X25450Y14025D02*
X25463Y14012D01*
X26438Y15312D02*
X27409Y14340D01*
X26438Y16612D02*
X27409Y15640D01*
Y15430D02*
Y15640D01*
Y15430D02*
X27489Y15350D01*
X25450Y15325D02*
X25463Y15312D01*
X26438D01*
X26853Y17262D02*
X27489Y16625D01*
X25463Y17262D02*
X26853D01*
X25450Y16625D02*
X25463Y16612D01*
X26438D01*
X27217Y22940D02*
X28448Y24171D01*
Y28194D01*
X25450Y17275D02*
X25463Y17262D01*
X30643Y19750D02*
X36000D01*
X16510Y17288D02*
X18537D01*
X18550Y17275D01*
Y19225D02*
Y22940D01*
X21040D01*
X8890Y24890D02*
Y27686D01*
X3960Y22940D02*
X8890D01*
X3810Y23090D02*
X3960Y22940D01*
X21040D02*
X26350Y28250D01*
X8890Y27686D02*
X10668Y29464D01*
X25450Y22940D02*
X27217D01*
X25450Y19225D02*
Y22940D01*
D20*
X31011Y4842D02*
X32020D01*
X30459Y4290D02*
X31011Y4842D01*
X25080Y4290D02*
X30459D01*
X34020Y5842D02*
Y5916D01*
X31011Y5842D02*
X32020D01*
X30480Y6373D02*
X31011Y5842D01*
X34020D02*
X38043D01*
X38597Y6396D02*
Y14991D01*
X38043Y5842D02*
X38597Y6396D01*
X31386Y15825D02*
X32221Y14991D01*
X30480Y15825D02*
X31386D01*
X33358Y23244D02*
X37462D01*
X31292D02*
X33358D01*
X30480Y22431D02*
X31292Y23244D01*
X37462D02*
X38597Y22109D01*
X30480Y21400D02*
Y22431D01*
X38597Y14991D02*
Y22109D01*
X26512Y13277D02*
X27261Y12528D01*
X26328Y13375D02*
X26426Y13277D01*
X26512D01*
X25450Y13375D02*
X26328D01*
X29211Y8600D02*
X30480D01*
X28956Y8855D02*
X29211Y8600D01*
X28956Y8855D02*
Y11046D01*
X27475Y12528D02*
X28956Y11046D01*
X27261Y12528D02*
X27475D01*
X15798Y6153D02*
X16425Y6780D01*
X15233Y5588D02*
X15798Y6153D01*
X17437Y6780D02*
Y10434D01*
X16190Y4668D02*
X17955Y6433D01*
X16190Y3020D02*
Y4668D01*
X17955Y6433D02*
Y6433D01*
X14947Y4290D02*
X17437Y6780D01*
X14920Y4290D02*
X14947D01*
X35384Y14991D02*
X38597D01*
X12053Y9755D02*
X12765Y10467D01*
X8320Y9755D02*
X12053D01*
X6800Y11275D02*
X8320Y9755D01*
X12765Y10467D02*
X13348Y11050D01*
X6500Y11275D02*
X6800D01*
X13348Y11050D02*
X14496D01*
X6708Y7282D02*
X7332Y7906D01*
Y7942D01*
X6708Y1478D02*
Y7282D01*
X8890Y7325D02*
X9100Y7535D01*
X10442D01*
X12765Y11852D02*
Y20000D01*
X11579Y11852D02*
Y20824D01*
X22499Y22930D02*
X23790D01*
X23800Y22940D01*
X3810Y24740D02*
Y26162D01*
X447Y24032D02*
X1155Y24740D01*
X447Y7106D02*
Y24032D01*
X773Y6780D02*
X1785D01*
X447Y7106D02*
X773Y6780D01*
X13690Y12838D02*
X14496Y12033D01*
X13690Y12838D02*
Y16252D01*
X14909Y17500D02*
X14920D01*
X16735Y13952D02*
X17420Y14637D01*
X14496Y17913D02*
X14909Y17500D01*
X14496Y17913D02*
Y19000D01*
X1155Y24740D02*
X3810D01*
X1785Y6780D02*
X2329Y7325D01*
X3810D01*
X8940Y1877D02*
Y3597D01*
X9339Y1478D02*
X11210D01*
X8940Y1877D02*
X9339Y1478D01*
X9892Y4549D02*
Y6373D01*
X8940Y3597D02*
X9892Y4549D01*
X11863Y2792D02*
X14660Y5588D01*
X11863Y2132D02*
Y2792D01*
X14660Y5588D02*
X15233D01*
X16425Y6780D02*
Y7535D01*
X16510Y7620D01*
X11210Y1478D02*
X11863Y2132D01*
X8940Y7325D02*
X9892Y6373D01*
X8890Y7325D02*
X8940D01*
X21309Y519D02*
X22540Y1750D01*
X7667Y519D02*
X21309D01*
X6708Y1478D02*
X7667Y519D01*
X15879Y12500D02*
X16735Y13356D01*
Y13952D01*
X14496Y12033D02*
X14963Y12500D01*
X15879D01*
X14496Y11050D02*
Y12033D01*
X17420Y14637D02*
X18513D01*
X18550Y14675D01*
X26878Y18575D02*
X27178Y18875D01*
X25450Y18575D02*
X26878D01*
X27178Y18875D02*
X27768D01*
X29609Y17034D01*
X30480Y15825D02*
Y16885D01*
X29609Y17034D02*
X30331D01*
X30480Y16885D01*
Y6373D02*
Y8600D01*
X5010Y11275D02*
X6500D01*
X3810Y10075D02*
X5010Y11275D01*
X3810Y7325D02*
Y10075D01*
X6500Y11275D02*
Y18725D01*
X17460Y4290D02*
X22098Y8928D01*
X18730Y4989D02*
X22596Y8855D01*
Y9840D01*
X22098Y8928D02*
Y10395D01*
X17957Y6436D02*
Y9602D01*
X18730Y3020D02*
Y4989D01*
X17460Y1750D02*
X18730Y3020D01*
X17955Y6433D02*
X17957Y6436D01*
X17223Y20823D02*
X17224Y20824D01*
X17223Y19017D02*
Y20823D01*
X16425Y19165D02*
Y20000D01*
Y19165D02*
X17517Y18073D01*
X17524D01*
X17672Y17925D01*
X18550D01*
X17517Y18723D02*
X17524D01*
X17672Y18575D01*
X17223Y19017D02*
X17517Y18723D01*
X17672Y18575D02*
X18550D01*
X25448Y15973D02*
X25450Y15975D01*
X23787Y14468D02*
Y15482D01*
X24278Y15973D01*
X25448D01*
X19312Y9186D02*
X20281Y10155D01*
X18847Y9186D02*
X19312D01*
X20281Y10155D02*
Y10962D01*
X18550Y12725D02*
X19728D01*
X19877Y10567D02*
Y12576D01*
X19728Y12725D02*
X19877Y12576D01*
X20685Y8862D02*
X20688Y8859D01*
X20685Y8862D02*
Y10795D01*
X22098Y10395D02*
X23128Y11425D01*
X20281Y10962D02*
X23787Y14468D01*
X24417Y14527D02*
X24424D01*
X24572Y14675D01*
X20685Y10795D02*
X24417Y14527D01*
X24572Y14675D02*
X25450D01*
X18742Y9081D02*
X18847Y9186D01*
X17957Y9602D02*
X18243Y9887D01*
X19197D02*
X19877Y10567D01*
X18243Y9887D02*
X19197D01*
X17778Y10775D02*
X18550D01*
X17437Y10434D02*
X17778Y10775D01*
X23531D02*
X25450D01*
X22596Y9840D02*
X23531Y10775D01*
X23128Y11425D02*
X25450D01*
X14920Y1750D02*
X16190Y3020D01*
D21*
X2700Y18875D02*
D03*
Y11125D02*
D03*
D22*
X5400Y17500D02*
D03*
Y12500D02*
D03*
D23*
X6500Y18725D02*
D03*
Y11275D02*
D03*
D24*
X17460Y4290D02*
D03*
Y1750D02*
D03*
X14920Y4290D02*
D03*
X20000Y1750D02*
D03*
Y4290D02*
D03*
X22540Y1750D02*
D03*
X25080D02*
D03*
X22540Y4290D02*
D03*
X25080D02*
D03*
D25*
X14920Y1750D02*
D03*
D26*
X31750D02*
D03*
Y28250D02*
D03*
D27*
X34290Y1750D02*
D03*
Y28250D02*
D03*
X18730D02*
D03*
X23810D02*
D03*
X21270D02*
D03*
X16190D02*
D03*
X13650D02*
D03*
D28*
X26350D02*
D03*
D29*
X34020Y4842D02*
D03*
X33020D02*
D03*
X32020D02*
D03*
X34020Y5842D02*
D03*
Y6842D02*
D03*
X33020Y5842D02*
D03*
Y6842D02*
D03*
X32020Y5842D02*
D03*
Y6842D02*
D03*
D30*
X33358Y23244D02*
D03*
X27489Y14020D02*
D03*
X15798Y6153D02*
D03*
X35384Y14991D02*
D03*
X32221Y14991D02*
D03*
X12765Y10467D02*
D03*
X7332Y7942D02*
D03*
X10442Y7535D02*
D03*
X12765Y11852D02*
D03*
X11579D02*
D03*
X22499Y22930D02*
D03*
X3810Y26162D02*
D03*
X1182Y7620D02*
D03*
X13690Y16252D02*
D03*
X14920Y17500D02*
D03*
X12765Y20000D02*
D03*
X12192Y4989D02*
D03*
X15385Y13263D02*
D03*
X20956Y16736D02*
D03*
X27489Y17965D02*
D03*
X20325Y5626D02*
D03*
X21421Y9654D02*
D03*
X11579Y20824D02*
D03*
X8636Y10962D02*
D03*
X16425Y20000D02*
D03*
X17224Y20824D02*
D03*
X20688Y8859D02*
D03*
X18742Y9081D02*
D03*
X22096Y13962D02*
D03*
X27489Y20066D02*
D03*
Y21336D02*
D03*
X23575Y20066D02*
D03*
X22540Y20828D02*
D03*
X12192Y26162D02*
D03*
X18730D02*
D03*
X27489Y15335D02*
D03*
Y16650D02*
D03*
%TF.MD5,48019025779db0d0aa6e20a670e8f632*%
M02*
