%TF.GenerationSoftware,Altium Limited,Altium Designer,22.2.1 (43)*%
G04 Layer_Physical_Order=2*
G04 Layer_Color=16711680*
%FSLAX43Y43*%
%MOMM*%
%TF.SameCoordinates,22783662-0E91-4B75-9AE6-36AB56575A38*%
%TF.FilePolarity,Positive*%
%TF.FileFunction,Copper,L2,Bot,Signal*%
%TF.Part,Single*%
G01*
G75*
%TA.AperFunction,SMDPad,CuDef*%
%ADD10R,3.100X3.100*%
%ADD11R,1.450X1.300*%
%ADD15R,1.450X1.350*%
%ADD17R,1.300X1.450*%
%ADD18R,1.350X1.450*%
%TA.AperFunction,Conductor*%
%ADD19C,0.381*%
%ADD20C,0.254*%
%TA.AperFunction,ComponentPad*%
%ADD21O,1.800X1.150*%
%ADD22C,0.800*%
%ADD23O,2.000X1.400*%
%ADD24C,1.650*%
G04:AMPARAMS|DCode=25|XSize=1.65mm|YSize=1.65mm|CornerRadius=0.413mm|HoleSize=0mm|Usage=FLASHONLY|Rotation=0.000|XOffset=0mm|YOffset=0mm|HoleType=Round|Shape=RoundedRectangle|*
%AMROUNDEDRECTD25*
21,1,1.650,0.825,0,0,0.0*
21,1,0.825,1.650,0,0,0.0*
1,1,0.825,0.413,-0.413*
1,1,0.825,-0.413,-0.413*
1,1,0.825,-0.413,0.413*
1,1,0.825,0.413,0.413*
%
%ADD25ROUNDEDRECTD25*%
%ADD26R,1.600X1.600*%
%ADD27C,1.600*%
G04:AMPARAMS|DCode=28|XSize=1.6mm|YSize=1.6mm|CornerRadius=0.4mm|HoleSize=0mm|Usage=FLASHONLY|Rotation=180.000|XOffset=0mm|YOffset=0mm|HoleType=Round|Shape=RoundedRectangle|*
%AMROUNDEDRECTD28*
21,1,1.600,0.800,0,0,180.0*
21,1,0.800,1.600,0,0,180.0*
1,1,0.800,-0.400,0.400*
1,1,0.800,0.400,0.400*
1,1,0.800,0.400,-0.400*
1,1,0.800,-0.400,-0.400*
%
%ADD28ROUNDEDRECTD28*%
%TA.AperFunction,ViaPad*%
%ADD29C,0.750*%
%ADD30C,0.800*%
%TA.AperFunction,SMDPad,CuDef*%
%ADD31R,2.500X1.000*%
%ADD32R,1.300X0.450*%
%ADD33R,1.050X0.600*%
%ADD34O,1.400X0.450*%
%ADD35R,1.100X1.200*%
%ADD36O,0.450X2.000*%
%TA.AperFunction,Conductor*%
%ADD37C,0.508*%
G36*
X39745Y255D02*
X33574D01*
X33517Y393D01*
X33973Y850D01*
X34165Y799D01*
X34415D01*
X34657Y864D01*
X34874Y989D01*
X35051Y1166D01*
X35176Y1383D01*
X35241Y1625D01*
Y1875D01*
X35176Y2117D01*
X35051Y2334D01*
X34874Y2511D01*
X34657Y2636D01*
X34415Y2701D01*
X34165D01*
X33923Y2636D01*
X33706Y2511D01*
X33529Y2334D01*
X33404Y2117D01*
X33339Y1875D01*
Y1625D01*
X33390Y1433D01*
X32915Y958D01*
X32701D01*
Y2701D01*
X30799D01*
Y2162D01*
X30171D01*
X28933Y3400D01*
Y4834D01*
X29059Y4952D01*
X29162Y4867D01*
X29195Y4701D01*
X29289Y4561D01*
Y4523D01*
X29195Y4383D01*
X29182Y4317D01*
X30070D01*
X30958D01*
X30945Y4383D01*
X30851Y4523D01*
Y4561D01*
X30945Y4701D01*
X30958Y4767D01*
X30070D01*
Y4967D01*
X30958D01*
X30945Y5033D01*
X30890Y5115D01*
X30816Y5246D01*
X30899Y5370D01*
X30928Y5517D01*
X30899Y5664D01*
X30816Y5788D01*
Y5896D01*
X30899Y6020D01*
X30928Y6167D01*
X30899Y6314D01*
X30816Y6438D01*
Y6546D01*
X30899Y6670D01*
X30928Y6817D01*
X30899Y6964D01*
X30816Y7088D01*
Y7196D01*
X30899Y7320D01*
X30928Y7467D01*
X30899Y7614D01*
X30816Y7738D01*
Y7846D01*
X30899Y7970D01*
X30928Y8117D01*
X30899Y8264D01*
X30816Y8388D01*
X30692Y8471D01*
X30545Y8500D01*
X29595D01*
X29448Y8471D01*
X29324Y8388D01*
X29241Y8264D01*
X29212Y8117D01*
X29229Y8029D01*
X29135Y7879D01*
X26201D01*
Y8496D01*
X24600D01*
Y8545D01*
X23850D01*
Y7620D01*
Y6695D01*
X24600D01*
Y6744D01*
X26201D01*
Y7055D01*
X29135D01*
X29229Y6905D01*
X29212Y6817D01*
X29241Y6670D01*
X29324Y6546D01*
Y6438D01*
X29241Y6314D01*
X29212Y6167D01*
X29233Y6058D01*
X29149Y5908D01*
X28889D01*
X28731Y5877D01*
X28597Y5788D01*
X28229Y5419D01*
X28140Y5285D01*
X28108Y5128D01*
Y3230D01*
X28140Y3072D01*
X28229Y2938D01*
X29708Y1458D01*
X29842Y1369D01*
X30000Y1338D01*
X30799D01*
Y958D01*
X26455D01*
X26000Y1413D01*
X26056Y1622D01*
Y1878D01*
X25989Y2127D01*
X25861Y2349D01*
X25679Y2531D01*
X25457Y2659D01*
X25208Y2726D01*
X24952D01*
X24703Y2659D01*
X24677Y2644D01*
X24158Y3164D01*
Y3551D01*
X24308Y3613D01*
X24451Y3470D01*
X24684Y3335D01*
X24945Y3265D01*
X24980D01*
Y4290D01*
Y5315D01*
X24945D01*
X24684Y5245D01*
X24451Y5110D01*
X24308Y4967D01*
X24158Y5029D01*
Y5170D01*
X24158Y5170D01*
X24131Y5303D01*
X24056Y5416D01*
X24056Y5416D01*
X22944Y6528D01*
Y6695D01*
X23650D01*
Y7620D01*
Y8545D01*
X23052D01*
X22990Y8695D01*
X23821Y9526D01*
X23821Y9526D01*
X23896Y9638D01*
X23923Y9771D01*
X23923Y9771D01*
Y10344D01*
X24073Y10425D01*
X24078Y10421D01*
X24225Y10392D01*
X24372Y10421D01*
X24496Y10504D01*
X24579Y10628D01*
X24608Y10775D01*
Y12325D01*
X24579Y12472D01*
X24573Y12482D01*
Y14496D01*
X24546Y14629D01*
X24471Y14742D01*
X24272Y14940D01*
X24258Y15035D01*
X24272Y15129D01*
X24471Y15328D01*
X24546Y15440D01*
X24573Y15573D01*
Y17518D01*
X24579Y17528D01*
X24608Y17675D01*
Y19225D01*
X24579Y19372D01*
X24496Y19496D01*
X24474Y19691D01*
X24496Y19718D01*
X27058D01*
X27177Y19599D01*
X27380Y19515D01*
X27599D01*
X27802Y19599D01*
X27957Y19754D01*
X28040Y19956D01*
Y20176D01*
X27957Y20378D01*
X27802Y20533D01*
X27599Y20617D01*
X27380D01*
X27177Y20533D01*
X27058Y20414D01*
X25663D01*
X25618Y20564D01*
X25646Y20582D01*
X26052Y20988D01*
X27058D01*
X27177Y20869D01*
X27380Y20785D01*
X27599D01*
X27802Y20869D01*
X27957Y21024D01*
X28040Y21226D01*
Y21446D01*
X27957Y21648D01*
X27802Y21803D01*
X27599Y21887D01*
X27380D01*
X27177Y21803D01*
X27058Y21684D01*
X25908D01*
X25908Y21684D01*
X25775Y21657D01*
X25662Y21582D01*
X25256Y21176D01*
X25006D01*
Y22711D01*
X23254D01*
Y22233D01*
X22775D01*
X22746Y22383D01*
X22838Y22421D01*
X23007Y22590D01*
X23099Y22810D01*
Y22855D01*
X23205Y22960D01*
X23249Y22960D01*
X24030D01*
Y23735D01*
X23205D01*
Y23184D01*
X23055Y23154D01*
X23007Y23270D01*
X22838Y23438D01*
X22618Y23530D01*
X22599D01*
Y22930D01*
X22499D01*
Y22830D01*
X21899D01*
Y22810D01*
X21990Y22590D01*
X22159Y22421D01*
X22252Y22383D01*
X22222Y22233D01*
X21878D01*
X21871Y22243D01*
X21871Y22243D01*
X20049Y24064D01*
X19936Y24140D01*
X19803Y24166D01*
X19606D01*
Y24502D01*
X23205D01*
Y23935D01*
X24130D01*
X25055D01*
Y24480D01*
X29604D01*
Y24092D01*
X29555D01*
Y23342D01*
X31405D01*
Y24092D01*
X31356D01*
Y24480D01*
X35192D01*
Y24092D01*
X35143D01*
Y23342D01*
X36993D01*
Y24092D01*
X36944D01*
Y25693D01*
X35192D01*
Y25304D01*
X31356D01*
Y25693D01*
X31060D01*
X30998Y25843D01*
X32042Y26886D01*
X32131Y27020D01*
X32162Y27178D01*
Y27299D01*
X32701D01*
Y29201D01*
X30799D01*
Y27299D01*
X31092D01*
X31149Y27160D01*
X30188Y26200D01*
X30099Y26066D01*
X30068Y25908D01*
Y25693D01*
X29604D01*
Y25304D01*
X25133D01*
X25022Y25326D01*
X17530D01*
X17372Y25295D01*
X17238Y25206D01*
X15305Y23272D01*
X14951D01*
Y23611D01*
X13549D01*
Y22268D01*
X11851D01*
Y23611D01*
X10449D01*
Y23272D01*
X7331D01*
Y23611D01*
X7042D01*
Y26556D01*
X7431D01*
Y28308D01*
X5830D01*
Y28357D01*
X5080D01*
Y27432D01*
X4980D01*
D01*
X5080D01*
Y26507D01*
X5830D01*
Y26556D01*
X6218D01*
Y23611D01*
X5929D01*
Y22334D01*
X5884Y22297D01*
X5692D01*
X4838Y23152D01*
X4704Y23241D01*
X4546Y23272D01*
X4231D01*
Y23611D01*
X2829D01*
Y23272D01*
X1905D01*
X1747Y23241D01*
X1613Y23152D01*
X890Y22428D01*
X801Y22295D01*
X770Y22137D01*
Y16203D01*
X801Y16045D01*
X890Y15911D01*
X3372Y13429D01*
X3506Y13340D01*
X3664Y13309D01*
X6395D01*
X6500Y13288D01*
X6658Y13319D01*
X6665Y13324D01*
X7301D01*
Y14012D01*
X8394D01*
X8527Y14038D01*
X8640Y14114D01*
X8898Y14372D01*
X9199D01*
Y12624D01*
X10851D01*
Y14376D01*
X10034D01*
Y14496D01*
X10008Y14629D01*
X9932Y14742D01*
X9732Y14942D01*
X9717Y15028D01*
X9731Y15131D01*
X9928Y15328D01*
X10003Y15440D01*
X10029Y15573D01*
Y15697D01*
X10843D01*
Y17449D01*
X9191D01*
Y15698D01*
X8493D01*
X8360Y15671D01*
X8247Y15596D01*
X8247Y15596D01*
X7989Y15338D01*
X7301D01*
Y15875D01*
X7350D01*
Y16200D01*
X6500D01*
X5650D01*
Y15875D01*
X5699D01*
Y15274D01*
Y14133D01*
X3834D01*
X1594Y16373D01*
Y18471D01*
X1730Y18506D01*
X1744Y18505D01*
X1857Y18357D01*
X2009Y18241D01*
X2185Y18168D01*
X2375Y18143D01*
X3025D01*
X3215Y18168D01*
X3391Y18241D01*
X3543Y18357D01*
X3659Y18509D01*
X3732Y18685D01*
X3757Y18875D01*
X3732Y19065D01*
X3659Y19241D01*
X3543Y19393D01*
X3391Y19509D01*
X3215Y19582D01*
X3025Y19607D01*
X2375D01*
X2185Y19582D01*
X2009Y19509D01*
X1857Y19393D01*
X1744Y19245D01*
X1730Y19244D01*
X1594Y19279D01*
Y21966D01*
X2076Y22448D01*
X2829D01*
Y22109D01*
X4231D01*
Y22434D01*
X4381Y22442D01*
X5229Y21593D01*
X5363Y21504D01*
X5521Y21473D01*
X5767D01*
X5913Y21444D01*
X11244D01*
X11273Y21294D01*
X11267Y21291D01*
X11112Y21136D01*
X11028Y20934D01*
Y20714D01*
X11112Y20512D01*
X11267Y20357D01*
X11469Y20273D01*
X11689D01*
X11891Y20357D01*
X12046Y20512D01*
X12058Y20541D01*
X12315D01*
X12377Y20391D01*
X12298Y20312D01*
X12214Y20110D01*
Y19890D01*
X12298Y19688D01*
X12453Y19533D01*
X12655Y19449D01*
X12874D01*
X13077Y19533D01*
X13232Y19688D01*
X13244Y19717D01*
X15477D01*
X15522Y19567D01*
X15469Y19531D01*
X15375Y19391D01*
X15342Y19225D01*
Y18550D01*
X15775D01*
Y18450D01*
X15875D01*
Y17262D01*
X15941Y17275D01*
X16023Y17330D01*
X16154Y17404D01*
X16278Y17321D01*
X16425Y17292D01*
X16572Y17321D01*
X16696Y17404D01*
X16804D01*
X16928Y17321D01*
X17075Y17292D01*
X17222Y17321D01*
X17227Y17325D01*
X17316Y17294D01*
X17382Y17248D01*
X17404Y17139D01*
X17479Y17026D01*
X18383Y16123D01*
X18495Y16047D01*
X18628Y16021D01*
X20523D01*
X20656Y16047D01*
X20769Y16123D01*
X20836Y16189D01*
X20846Y16185D01*
X21066D01*
X21268Y16269D01*
X21423Y16424D01*
X21507Y16626D01*
Y16846D01*
X21423Y17048D01*
X21268Y17203D01*
X21307Y17349D01*
X21338Y17385D01*
X21369Y17394D01*
X21478Y17321D01*
X21625Y17292D01*
X21772Y17321D01*
X21896Y17404D01*
X22004D01*
X22128Y17321D01*
X22275Y17292D01*
X22422Y17321D01*
X22546Y17404D01*
X22654D01*
X22778Y17321D01*
X22925Y17292D01*
X23072Y17321D01*
X23196Y17404D01*
X23327Y17330D01*
X23409Y17275D01*
X23475Y17262D01*
Y18450D01*
X23675D01*
Y17262D01*
X23727Y17272D01*
X23765Y17267D01*
X23877Y17207D01*
Y15717D01*
X23858Y15698D01*
X18585D01*
X18585Y15698D01*
X14197D01*
X14134Y15848D01*
X14199Y15912D01*
X14290Y16133D01*
Y16152D01*
X13090D01*
Y16133D01*
X13182Y15912D01*
X13246Y15848D01*
X13184Y15698D01*
X12793D01*
Y17449D01*
X11141D01*
Y15697D01*
X11963D01*
Y15577D01*
X11989Y15444D01*
X12065Y15331D01*
X12266Y15129D01*
X12281Y15035D01*
X12266Y14940D01*
X12068Y14742D01*
X11992Y14629D01*
X11966Y14496D01*
Y14376D01*
X11149D01*
Y12624D01*
X12801D01*
Y14372D01*
X14446D01*
X14475Y14331D01*
X14503Y14222D01*
X14004Y13723D01*
X13929Y13610D01*
X13902Y13477D01*
Y12565D01*
X13929Y12432D01*
X14004Y12320D01*
X14956Y11368D01*
X15069Y11293D01*
X15202Y11266D01*
X15392D01*
Y10775D01*
X15421Y10628D01*
X15427Y10618D01*
Y8792D01*
X14603Y7968D01*
X14326D01*
Y8496D01*
X12725D01*
Y8545D01*
X11975D01*
Y7620D01*
Y6695D01*
X12725D01*
Y6744D01*
X13177D01*
Y6466D01*
X12251Y5540D01*
X12082D01*
X11880Y5456D01*
X11725Y5301D01*
X11641Y5098D01*
Y4879D01*
X11725Y4677D01*
X11844Y4557D01*
Y4002D01*
X11645Y3803D01*
X9446D01*
Y3906D01*
X8094D01*
Y3004D01*
X9446D01*
Y3107D01*
X11789D01*
X11922Y3134D01*
X12035Y3209D01*
X12438Y3612D01*
X12513Y3725D01*
X12540Y3858D01*
Y4557D01*
X12659Y4677D01*
X12743Y4879D01*
Y5048D01*
X13027Y5333D01*
X13177Y5270D01*
Y3900D01*
X13204Y3767D01*
X13279Y3654D01*
X14151Y2782D01*
X14159Y2769D01*
X14149Y2601D01*
X14101Y2569D01*
X13977Y2382D01*
X13933Y2162D01*
Y1337D01*
X13977Y1118D01*
X14087Y952D01*
X14063Y868D01*
X14024Y802D01*
X8569D01*
X7903Y1468D01*
Y6590D01*
X12076Y10763D01*
X12203Y10678D01*
X12165Y10586D01*
Y10567D01*
X12665D01*
Y11067D01*
X12645D01*
X12554Y11029D01*
X12469Y11156D01*
X12626Y11313D01*
X12655Y11301D01*
X12874D01*
X13077Y11385D01*
X13232Y11540D01*
X13316Y11742D01*
Y11961D01*
X13232Y12164D01*
X13077Y12319D01*
X12874Y12403D01*
X12655D01*
X12453Y12319D01*
X12298Y12164D01*
X12253Y12056D01*
X12091D01*
X12046Y12164D01*
X11891Y12319D01*
X11689Y12403D01*
X11469D01*
X11267Y12319D01*
X11112Y12164D01*
X11028Y11961D01*
Y11742D01*
X11040Y11713D01*
X9381Y10054D01*
X9106D01*
X9106Y10054D01*
X8997Y10033D01*
X8906Y9971D01*
X8906Y9971D01*
X7427Y8493D01*
X7223D01*
X7020Y8409D01*
X6865Y8254D01*
X6781Y8051D01*
Y7832D01*
X6865Y7629D01*
X7020Y7475D01*
X7223Y7391D01*
X7442D01*
X7644Y7475D01*
X7799Y7629D01*
X7883Y7832D01*
Y8051D01*
X7855Y8120D01*
X9223Y9488D01*
X9499D01*
X9499Y9488D01*
X9607Y9510D01*
X9699Y9571D01*
X11440Y11313D01*
X11469Y11301D01*
X11602D01*
X11664Y11151D01*
X7420Y6907D01*
X7359Y6815D01*
X7337Y6707D01*
X7337Y6707D01*
Y1351D01*
X7337Y1351D01*
X7359Y1243D01*
X7420Y1151D01*
X8166Y405D01*
X8104Y255D01*
X255D01*
Y29745D01*
X39745D01*
Y255D01*
D02*
G37*
G36*
X16850Y8019D02*
Y7800D01*
X17725D01*
Y7700D01*
X17825D01*
Y6775D01*
X18457D01*
X18462Y6752D01*
X18523Y6660D01*
X19017Y6166D01*
X19017Y6166D01*
X19109Y6105D01*
X19217Y6083D01*
X19509D01*
X19530Y6019D01*
X19534Y5933D01*
X19442Y5872D01*
X19442Y5872D01*
X18484Y4914D01*
X18439Y4846D01*
X18293Y4834D01*
X18269Y4841D01*
X18241Y4889D01*
X18059Y5071D01*
X17837Y5199D01*
X17588Y5266D01*
X17332D01*
X17083Y5199D01*
X16861Y5071D01*
X16679Y4889D01*
X16551Y4667D01*
X16484Y4418D01*
Y4162D01*
X16551Y3913D01*
X16679Y3691D01*
X16852Y3518D01*
X16849Y3479D01*
X16806Y3368D01*
X15574D01*
X15531Y3479D01*
X15528Y3518D01*
X15701Y3691D01*
X15829Y3913D01*
X15896Y4162D01*
Y4418D01*
X15829Y4667D01*
X15701Y4889D01*
X15519Y5071D01*
X15297Y5199D01*
X15048Y5266D01*
X14792D01*
X14543Y5199D01*
X14321Y5071D01*
X14139Y4889D01*
X14095Y4812D01*
X13900Y4775D01*
X13873Y4797D01*
Y5238D01*
X15126Y6491D01*
X15253Y6406D01*
X15198Y6273D01*
Y6253D01*
X15698D01*
Y6753D01*
X15679D01*
X15545Y6698D01*
X15460Y6825D01*
X16711Y8076D01*
X16850Y8019D01*
D02*
G37*
%LPC*%
G36*
X21402Y29250D02*
X21370D01*
Y28350D01*
X22270D01*
Y28382D01*
X22202Y28636D01*
X22070Y28864D01*
X21884Y29050D01*
X21656Y29182D01*
X21402Y29250D01*
D02*
G37*
G36*
X21170D02*
X21138D01*
X20884Y29182D01*
X20656Y29050D01*
X20470Y28864D01*
X20338Y28636D01*
X20270Y28382D01*
Y28350D01*
X21170D01*
Y29250D01*
D02*
G37*
G36*
X4880Y28357D02*
X4130D01*
Y27532D01*
X4880D01*
Y28357D01*
D02*
G37*
G36*
X23935Y29201D02*
X23685D01*
X23443Y29136D01*
X23226Y29011D01*
X23049Y28834D01*
X22924Y28617D01*
X22859Y28375D01*
Y28125D01*
X22924Y27883D01*
X23049Y27666D01*
X23226Y27489D01*
X23443Y27364D01*
X23685Y27299D01*
X23935D01*
X24177Y27364D01*
X24394Y27489D01*
X24571Y27666D01*
X24696Y27883D01*
X24761Y28125D01*
Y28375D01*
X24696Y28617D01*
X24571Y28834D01*
X24394Y29011D01*
X24177Y29136D01*
X23935Y29201D01*
D02*
G37*
G36*
X18855D02*
X18605D01*
X18363Y29136D01*
X18146Y29011D01*
X17969Y28834D01*
X17844Y28617D01*
X17779Y28375D01*
Y28125D01*
X17844Y27883D01*
X17969Y27666D01*
X18146Y27489D01*
X18363Y27364D01*
X18605Y27299D01*
X18855D01*
X19097Y27364D01*
X19314Y27489D01*
X19491Y27666D01*
X19616Y27883D01*
X19681Y28125D01*
Y28375D01*
X19616Y28617D01*
X19491Y28834D01*
X19314Y29011D01*
X19097Y29136D01*
X18855Y29201D01*
D02*
G37*
G36*
X16315D02*
X16065D01*
X15823Y29136D01*
X15606Y29011D01*
X15429Y28834D01*
X15304Y28617D01*
X15239Y28375D01*
Y28125D01*
X15304Y27883D01*
X15429Y27666D01*
X15606Y27489D01*
X15823Y27364D01*
X16065Y27299D01*
X16315D01*
X16557Y27364D01*
X16774Y27489D01*
X16951Y27666D01*
X17076Y27883D01*
X17141Y28125D01*
Y28375D01*
X17076Y28617D01*
X16951Y28834D01*
X16774Y29011D01*
X16557Y29136D01*
X16315Y29201D01*
D02*
G37*
G36*
X13775D02*
X13525D01*
X13283Y29136D01*
X13066Y29011D01*
X12889Y28834D01*
X12764Y28617D01*
X12699Y28375D01*
Y28125D01*
X12764Y27883D01*
X12889Y27666D01*
X13066Y27489D01*
X13283Y27364D01*
X13525Y27299D01*
X13775D01*
X14017Y27364D01*
X14234Y27489D01*
X14411Y27666D01*
X14536Y27883D01*
X14601Y28125D01*
Y28375D01*
X14536Y28617D01*
X14411Y28834D01*
X14234Y29011D01*
X14017Y29136D01*
X13775Y29201D01*
D02*
G37*
G36*
X26750Y29212D02*
X25950D01*
X25735Y29169D01*
X25553Y29047D01*
X25431Y28865D01*
X25388Y28650D01*
Y27850D01*
X25431Y27635D01*
X25553Y27453D01*
X25735Y27331D01*
X25950Y27288D01*
X26750D01*
X26965Y27331D01*
X27147Y27453D01*
X27269Y27635D01*
X27312Y27850D01*
Y28650D01*
X27269Y28865D01*
X27147Y29047D01*
X26965Y29169D01*
X26750Y29212D01*
D02*
G37*
G36*
X22270Y28150D02*
X21370D01*
Y27250D01*
X21402D01*
X21656Y27318D01*
X21884Y27450D01*
X22070Y27636D01*
X22202Y27864D01*
X22270Y28118D01*
Y28150D01*
D02*
G37*
G36*
X21170D02*
X20270D01*
Y28118D01*
X20338Y27864D01*
X20470Y27636D01*
X20656Y27450D01*
X20884Y27318D01*
X21138Y27250D01*
X21170D01*
Y28150D01*
D02*
G37*
G36*
X4880Y27332D02*
X4130D01*
Y26814D01*
X4005Y26731D01*
X3929Y26762D01*
X3910D01*
Y26262D01*
X4410D01*
Y26281D01*
X4379Y26357D01*
X4479Y26507D01*
X4880D01*
Y27332D01*
D02*
G37*
G36*
X18840Y26713D02*
X18620D01*
X18418Y26629D01*
X18298Y26510D01*
X12624D01*
X12504Y26629D01*
X12302Y26713D01*
X12082D01*
X11880Y26629D01*
X11725Y26474D01*
X11641Y26272D01*
Y26052D01*
X11725Y25850D01*
X11880Y25695D01*
X12082Y25611D01*
X12302D01*
X12504Y25695D01*
X12624Y25814D01*
X18298D01*
X18418Y25695D01*
X18620Y25611D01*
X18840D01*
X19042Y25695D01*
X19197Y25850D01*
X19281Y26052D01*
Y26272D01*
X19197Y26474D01*
X19042Y26629D01*
X18840Y26713D01*
D02*
G37*
G36*
X3710Y26762D02*
X3691D01*
X3470Y26671D01*
X3301Y26502D01*
X3210Y26281D01*
Y26262D01*
X3710D01*
Y26762D01*
D02*
G37*
G36*
X4410Y26062D02*
X3910D01*
Y25562D01*
X3929D01*
X4150Y25653D01*
X4319Y25822D01*
X4410Y26043D01*
Y26062D01*
D02*
G37*
G36*
X3710D02*
X3210D01*
Y26043D01*
X3301Y25822D01*
X3470Y25653D01*
X3691Y25562D01*
X3710D01*
Y26062D01*
D02*
G37*
G36*
X33478Y23844D02*
X33458D01*
Y23344D01*
X33958D01*
Y23363D01*
X33867Y23584D01*
X33698Y23752D01*
X33478Y23844D01*
D02*
G37*
G36*
X33258D02*
X33239D01*
X33018Y23752D01*
X32850Y23584D01*
X32758Y23363D01*
Y23344D01*
X33258D01*
Y23844D01*
D02*
G37*
G36*
X22399Y23530D02*
X22379D01*
X22159Y23438D01*
X21990Y23270D01*
X21899Y23049D01*
Y23030D01*
X22399D01*
Y23530D01*
D02*
G37*
G36*
X25055Y23735D02*
X24230D01*
Y22960D01*
X25055D01*
Y23735D01*
D02*
G37*
G36*
X33958Y23144D02*
X33458D01*
Y22644D01*
X33478D01*
X33698Y22735D01*
X33867Y22904D01*
X33958Y23124D01*
Y23144D01*
D02*
G37*
G36*
X33258D02*
X32758D01*
Y23124D01*
X32850Y22904D01*
X33018Y22735D01*
X33239Y22644D01*
X33258D01*
Y23144D01*
D02*
G37*
G36*
X36993Y23142D02*
X36168D01*
Y22392D01*
X36993D01*
Y23142D01*
D02*
G37*
G36*
X35968D02*
X35143D01*
Y22392D01*
X35968D01*
Y23142D01*
D02*
G37*
G36*
X31405D02*
X30580D01*
Y22392D01*
X31405D01*
Y23142D01*
D02*
G37*
G36*
X30380D02*
X29555D01*
Y22392D01*
X30380D01*
Y23142D01*
D02*
G37*
G36*
X34415Y29201D02*
X34165D01*
X33923Y29136D01*
X33706Y29011D01*
X33529Y28834D01*
X33404Y28617D01*
X33339Y28375D01*
Y28125D01*
X33404Y27883D01*
X33529Y27666D01*
X33706Y27489D01*
X33923Y27364D01*
X34165Y27299D01*
X34415D01*
X34657Y27364D01*
X34874Y27489D01*
X35051Y27666D01*
X35150Y27838D01*
X35841D01*
X37942Y25737D01*
Y21474D01*
X35690Y19222D01*
X34681D01*
Y19461D01*
X31879D01*
Y18159D01*
X34681D01*
Y18398D01*
X35690D01*
X36585Y17503D01*
Y14924D01*
X35803Y14142D01*
X34681D01*
Y14381D01*
X32672D01*
X32610Y14531D01*
X32729Y14651D01*
X32820Y14871D01*
Y14891D01*
X31621D01*
Y14871D01*
X31712Y14651D01*
X31845Y14517D01*
X31866Y14433D01*
X31837Y14383D01*
X31697Y14365D01*
X31659Y14374D01*
X30787Y15246D01*
X30675Y15321D01*
X30542Y15348D01*
X28096D01*
X28040Y15403D01*
Y15445D01*
X27957Y15647D01*
X27802Y15802D01*
X27793Y15806D01*
X27787Y15809D01*
X27830Y15953D01*
X27859Y15947D01*
X27906Y15937D01*
X28179D01*
Y15619D01*
X30981D01*
Y16921D01*
X28179D01*
Y16817D01*
X28029Y16787D01*
X27957Y16962D01*
X27910Y17008D01*
X27938Y17096D01*
X27978Y17152D01*
X31156D01*
X31879Y16430D01*
Y15661D01*
X31879Y15619D01*
X31859Y15477D01*
X31712Y15330D01*
X31621Y15110D01*
Y15090D01*
X32820D01*
Y15110D01*
X32729Y15330D01*
X32591Y15469D01*
X32630Y15609D01*
X32637Y15619D01*
X34681D01*
Y16921D01*
X32371D01*
X31546Y17746D01*
X31433Y17821D01*
X31300Y17848D01*
X28099D01*
X28040Y17906D01*
Y17992D01*
X28135Y18099D01*
X28162Y18106D01*
X28304Y18110D01*
X29480D01*
Y18710D01*
X28130D01*
Y18251D01*
X28129Y18251D01*
Y18251D01*
X28101Y18245D01*
X27964Y18261D01*
X27957Y18278D01*
X27802Y18433D01*
X27599Y18516D01*
X27380D01*
X27177Y18433D01*
X27022Y18278D01*
X26938Y18075D01*
Y17856D01*
X27022Y17653D01*
X27177Y17498D01*
X27380Y17414D01*
X27494D01*
X27541Y17351D01*
X27465Y17201D01*
X27380D01*
X27177Y17117D01*
X27022Y16962D01*
X26938Y16760D01*
Y16540D01*
X27022Y16338D01*
X27177Y16183D01*
X27380Y16099D01*
X27599D01*
X27600Y16099D01*
X27660Y16039D01*
X27700Y16013D01*
X27725Y15996D01*
X27654Y15864D01*
X27647Y15866D01*
X27599Y15886D01*
X27380D01*
X27177Y15802D01*
X27022Y15647D01*
X26938Y15445D01*
Y15225D01*
X27022Y15023D01*
X27177Y14868D01*
X27380Y14784D01*
X27599D01*
X27654Y14807D01*
X27706Y14754D01*
X27819Y14679D01*
X27952Y14652D01*
X27952Y14652D01*
X30369D01*
X30428Y14578D01*
X30362Y14430D01*
X29680D01*
Y13730D01*
Y13030D01*
X31030D01*
X31105Y12911D01*
X31180Y12798D01*
X31987Y11991D01*
X31925Y11841D01*
X31879D01*
Y10539D01*
X34681D01*
Y11841D01*
X32779D01*
Y12038D01*
X32779Y12038D01*
X32753Y12171D01*
X32677Y12284D01*
X32677Y12284D01*
X32021Y12940D01*
X32078Y13079D01*
X34681D01*
Y13318D01*
X35803D01*
X37074Y12047D01*
Y8275D01*
X36970Y8172D01*
X36808Y8221D01*
X36799Y8264D01*
X36716Y8388D01*
X36592Y8471D01*
X36445Y8500D01*
X35495D01*
X35348Y8471D01*
X35224Y8388D01*
X35141Y8264D01*
X35112Y8117D01*
X35141Y7970D01*
X35224Y7846D01*
Y7738D01*
X35141Y7614D01*
X35112Y7467D01*
X35141Y7320D01*
X35224Y7196D01*
Y7088D01*
X35141Y6964D01*
X35112Y6817D01*
X35141Y6670D01*
X35224Y6546D01*
Y6438D01*
X35141Y6314D01*
X35112Y6167D01*
X35141Y6020D01*
X35224Y5896D01*
Y5788D01*
X35141Y5664D01*
X35112Y5517D01*
X35141Y5370D01*
X35224Y5246D01*
Y5138D01*
X35141Y5014D01*
X35112Y4867D01*
X35141Y4720D01*
X35224Y4596D01*
Y4488D01*
X35141Y4364D01*
X35112Y4217D01*
X35141Y4070D01*
X35224Y3946D01*
Y3838D01*
X35141Y3714D01*
X35112Y3567D01*
X35141Y3420D01*
X35224Y3296D01*
X35348Y3213D01*
X35495Y3184D01*
X36445D01*
X36592Y3213D01*
X36716Y3296D01*
X36799Y3420D01*
X36828Y3567D01*
X36799Y3714D01*
X36797Y3717D01*
X36842Y3826D01*
X36877Y3867D01*
X36997Y3946D01*
X37366Y4315D01*
X37455Y4449D01*
X37486Y4606D01*
Y5128D01*
X37455Y5285D01*
X37366Y5419D01*
X36997Y5788D01*
X36877Y5867D01*
X36842Y5908D01*
X36797Y6017D01*
X36799Y6020D01*
X36828Y6167D01*
X36799Y6314D01*
X36716Y6438D01*
Y6546D01*
X36799Y6670D01*
X36828Y6817D01*
X36807Y6926D01*
X36845Y7018D01*
X36901Y7082D01*
X37028Y7107D01*
X37162Y7196D01*
X37778Y7813D01*
X37867Y7947D01*
X37899Y8104D01*
Y12218D01*
X37867Y12376D01*
X37778Y12509D01*
X36557Y13730D01*
X37289Y14461D01*
X37378Y14595D01*
X37409Y14753D01*
X37409Y14753D01*
Y17674D01*
X37378Y17832D01*
X37289Y17965D01*
X36444Y18810D01*
X38646Y21012D01*
X38735Y21145D01*
X38766Y21303D01*
Y25908D01*
X38735Y26066D01*
X38646Y26200D01*
X36304Y28542D01*
X36170Y28631D01*
X36012Y28662D01*
X35150D01*
X35051Y28834D01*
X34874Y29011D01*
X34657Y29136D01*
X34415Y29201D01*
D02*
G37*
G36*
X31030Y19510D02*
X29680D01*
Y18910D01*
X31030D01*
Y19510D01*
D02*
G37*
G36*
X29480D02*
X28130D01*
Y18910D01*
X29480D01*
Y19510D01*
D02*
G37*
G36*
X6800Y19633D02*
X6600D01*
Y18825D01*
X7695D01*
X7677Y18960D01*
X7586Y19179D01*
X7442Y19367D01*
X7254Y19511D01*
X7035Y19602D01*
X6800Y19633D01*
D02*
G37*
G36*
X6400D02*
X6200D01*
X5965Y19602D01*
X5746Y19511D01*
X5558Y19367D01*
X5414Y19179D01*
X5323Y18960D01*
X5305Y18825D01*
X6400D01*
Y19633D01*
D02*
G37*
G36*
X31030Y18710D02*
X29680D01*
Y18110D01*
X31030D01*
Y18710D01*
D02*
G37*
G36*
X15675Y18350D02*
X15342D01*
Y18123D01*
X15192Y18037D01*
X15039Y18100D01*
X15020D01*
Y17500D01*
Y16900D01*
X15039D01*
X15260Y16991D01*
X15429Y17160D01*
X15460Y17235D01*
X15603Y17279D01*
X15609Y17275D01*
X15675Y17262D01*
Y18350D01*
D02*
G37*
G36*
X7695Y18625D02*
X6600D01*
Y17817D01*
X6800D01*
X7035Y17848D01*
X7254Y17939D01*
X7442Y18083D01*
X7586Y18271D01*
X7677Y18490D01*
X7695Y18625D01*
D02*
G37*
G36*
X6400D02*
X5305D01*
X5323Y18490D01*
X5414Y18271D01*
X5468Y18201D01*
X5394Y18051D01*
X5290D01*
X5088Y17967D01*
X4933Y17812D01*
X4849Y17610D01*
Y17390D01*
X4933Y17188D01*
X5088Y17033D01*
X5290Y16949D01*
X5510D01*
X5712Y17033D01*
X5867Y17188D01*
X5951Y17390D01*
Y17610D01*
X5910Y17710D01*
X5923Y17744D01*
X6017Y17841D01*
X6200Y17817D01*
X6400D01*
Y18625D01*
D02*
G37*
G36*
X14820Y18100D02*
X14801D01*
X14580Y18009D01*
X14411Y17840D01*
X14320Y17619D01*
Y17600D01*
X14820D01*
Y18100D01*
D02*
G37*
G36*
Y17400D02*
X14320D01*
Y17381D01*
X14411Y17160D01*
X14580Y16991D01*
X14801Y16900D01*
X14820D01*
Y17400D01*
D02*
G37*
G36*
X7350Y16725D02*
X6600D01*
Y16400D01*
X7350D01*
Y16725D01*
D02*
G37*
G36*
X6400D02*
X5650D01*
Y16400D01*
X6400D01*
Y16725D01*
D02*
G37*
G36*
X13810Y16852D02*
X13790D01*
Y16352D01*
X14290D01*
Y16372D01*
X14199Y16592D01*
X14030Y16761D01*
X13810Y16852D01*
D02*
G37*
G36*
X13590D02*
X13571D01*
X13351Y16761D01*
X13182Y16592D01*
X13090Y16372D01*
Y16352D01*
X13590D01*
Y16852D01*
D02*
G37*
G36*
X35504Y15590D02*
X35484D01*
Y15090D01*
X35984D01*
Y15110D01*
X35893Y15330D01*
X35724Y15499D01*
X35504Y15590D01*
D02*
G37*
G36*
X35284D02*
X35265D01*
X35045Y15499D01*
X34876Y15330D01*
X34784Y15110D01*
Y15090D01*
X35284D01*
Y15590D01*
D02*
G37*
G36*
X35984Y14891D02*
X35484D01*
Y14391D01*
X35504D01*
X35724Y14482D01*
X35893Y14651D01*
X35984Y14871D01*
Y14891D01*
D02*
G37*
G36*
X35284D02*
X34784D01*
Y14871D01*
X34876Y14651D01*
X35045Y14482D01*
X35265Y14391D01*
X35284D01*
Y14891D01*
D02*
G37*
G36*
X27599Y14571D02*
X27380D01*
X27177Y14487D01*
X27022Y14332D01*
X26938Y14130D01*
Y13910D01*
X27022Y13708D01*
X27177Y13553D01*
X27222Y13534D01*
Y13069D01*
X27249Y12936D01*
X27324Y12823D01*
X28173Y11974D01*
Y11500D01*
X28179Y11469D01*
Y10539D01*
X30981D01*
Y11841D01*
X28868D01*
Y12118D01*
X28842Y12251D01*
X28766Y12363D01*
X28250Y12880D01*
X28312Y13030D01*
X29480D01*
Y13730D01*
Y14430D01*
X28130D01*
Y14305D01*
X27980Y14276D01*
X27957Y14332D01*
X27802Y14487D01*
X27599Y14571D01*
D02*
G37*
G36*
X6800Y12183D02*
X6600D01*
Y11375D01*
X7695D01*
X7677Y11510D01*
X7586Y11729D01*
X7442Y11917D01*
X7254Y12061D01*
X7035Y12152D01*
X6800Y12183D01*
D02*
G37*
G36*
X5510Y13051D02*
X5290D01*
X5088Y12967D01*
X4933Y12812D01*
X4849Y12610D01*
Y12390D01*
X4933Y12188D01*
X5088Y12033D01*
X5290Y11949D01*
X5394D01*
X5468Y11799D01*
X5414Y11729D01*
X5323Y11510D01*
X5305Y11375D01*
X6400D01*
Y12183D01*
X6200D01*
X6017Y12159D01*
X5923Y12256D01*
X5910Y12290D01*
X5951Y12390D01*
Y12610D01*
X5867Y12812D01*
X5712Y12967D01*
X5510Y13051D01*
D02*
G37*
G36*
X12884Y11067D02*
X12865D01*
Y10567D01*
X13365D01*
Y10586D01*
X13273Y10807D01*
X13105Y10975D01*
X12884Y11067D01*
D02*
G37*
G36*
X3025Y11857D02*
X2375D01*
X2185Y11832D01*
X2009Y11759D01*
X1857Y11643D01*
X1741Y11491D01*
X1668Y11315D01*
X1643Y11125D01*
X1668Y10935D01*
X1741Y10759D01*
X1857Y10607D01*
X2009Y10491D01*
X2185Y10418D01*
X2375Y10393D01*
X3025D01*
X3215Y10418D01*
X3391Y10491D01*
X3543Y10607D01*
X3659Y10759D01*
X3732Y10935D01*
X3757Y11125D01*
X3732Y11315D01*
X3659Y11491D01*
X3543Y11643D01*
X3391Y11759D01*
X3215Y11832D01*
X3025Y11857D01*
D02*
G37*
G36*
X7695Y11175D02*
X6600D01*
Y10367D01*
X6800D01*
X7035Y10398D01*
X7254Y10489D01*
X7442Y10633D01*
X7586Y10821D01*
X7677Y11040D01*
X7695Y11175D01*
D02*
G37*
G36*
X6400D02*
X5305D01*
X5323Y11040D01*
X5414Y10821D01*
X5558Y10633D01*
X5746Y10489D01*
X5965Y10398D01*
X6200Y10367D01*
X6400D01*
Y11175D01*
D02*
G37*
G36*
X13365Y10367D02*
X12865D01*
Y9867D01*
X12884D01*
X13105Y9958D01*
X13273Y10127D01*
X13365Y10347D01*
Y10367D01*
D02*
G37*
G36*
X12665D02*
X12165D01*
Y10347D01*
X12256Y10127D01*
X12425Y9958D01*
X12645Y9867D01*
X12665D01*
Y10367D01*
D02*
G37*
G36*
X4636Y8496D02*
X2984D01*
Y7968D01*
X1614D01*
X1494Y8087D01*
X1291Y8171D01*
X1072D01*
X870Y8087D01*
X715Y7932D01*
X631Y7730D01*
Y7510D01*
X715Y7308D01*
X870Y7153D01*
X1072Y7069D01*
X1291D01*
X1494Y7153D01*
X1614Y7272D01*
X2984D01*
Y6744D01*
X3462D01*
Y3455D01*
X3489Y3322D01*
X3564Y3209D01*
X4514Y2259D01*
X4514Y2259D01*
X4627Y2184D01*
X4760Y2157D01*
X5794D01*
Y2054D01*
X7146D01*
Y2956D01*
X5794D01*
Y2853D01*
X4904D01*
X4158Y3599D01*
Y6744D01*
X4636D01*
Y8496D01*
D02*
G37*
G36*
X11775Y8545D02*
X11025D01*
Y8013D01*
X10875Y7951D01*
X10782Y8044D01*
X10562Y8135D01*
X10542D01*
Y7535D01*
Y6935D01*
X10562D01*
X10782Y7026D01*
X10875Y7119D01*
X11025Y7057D01*
Y6695D01*
X11775D01*
Y7620D01*
Y8545D01*
D02*
G37*
G36*
X10342Y8135D02*
X10323D01*
X10103Y8044D01*
X9934Y7875D01*
X9842Y7654D01*
Y7635D01*
X10342D01*
Y8135D01*
D02*
G37*
G36*
Y7435D02*
X9842D01*
Y7416D01*
X9934Y7195D01*
X10103Y7026D01*
X10323Y6935D01*
X10342D01*
Y7435D01*
D02*
G37*
G36*
X8746Y11513D02*
X8526D01*
X8324Y11429D01*
X8169Y11274D01*
X8085Y11072D01*
Y10903D01*
X7182Y10000D01*
X6468D01*
X6335Y9973D01*
X6222Y9898D01*
X5514Y9190D01*
X5439Y9077D01*
X5412Y8944D01*
Y8496D01*
X4934D01*
Y6744D01*
X6586D01*
Y8496D01*
X6108D01*
Y8800D01*
X6612Y9304D01*
X7326D01*
X7459Y9331D01*
X7571Y9406D01*
X8577Y10411D01*
X8746D01*
X8948Y10495D01*
X9103Y10650D01*
X9187Y10853D01*
Y11072D01*
X9103Y11274D01*
X8948Y11429D01*
X8746Y11513D01*
D02*
G37*
G36*
X34770Y7592D02*
X33120D01*
Y5942D01*
X34770D01*
Y7592D01*
D02*
G37*
G36*
X32920D02*
X31270D01*
Y5942D01*
X32920D01*
Y7592D01*
D02*
G37*
G36*
X25215Y5315D02*
X25180D01*
Y4390D01*
X26105D01*
Y4425D01*
X26035Y4686D01*
X25900Y4919D01*
X25709Y5110D01*
X25476Y5245D01*
X25215Y5315D01*
D02*
G37*
G36*
X34770Y5742D02*
X33120D01*
Y4092D01*
X34770D01*
Y5742D01*
D02*
G37*
G36*
X32920D02*
X31270D01*
Y4092D01*
X32920D01*
Y5742D01*
D02*
G37*
G36*
X7146Y4856D02*
X5794D01*
Y3954D01*
X7146D01*
Y4856D01*
D02*
G37*
G36*
X26105Y4190D02*
X25180D01*
Y3265D01*
X25215D01*
X25476Y3335D01*
X25709Y3470D01*
X25900Y3661D01*
X26035Y3894D01*
X26105Y4155D01*
Y4190D01*
D02*
G37*
G36*
X30958Y4117D02*
X30070D01*
X29182D01*
X29195Y4051D01*
X29250Y3969D01*
X29324Y3838D01*
X29241Y3714D01*
X29212Y3567D01*
X29241Y3420D01*
X29324Y3296D01*
X29448Y3213D01*
X29595Y3184D01*
X30545D01*
X30692Y3213D01*
X30816Y3296D01*
X30899Y3420D01*
X30928Y3567D01*
X30899Y3714D01*
X30816Y3838D01*
X30890Y3969D01*
X30945Y4051D01*
X30958Y4117D01*
D02*
G37*
G36*
X17625Y7600D02*
X16850D01*
Y6775D01*
X17625D01*
Y7600D01*
D02*
G37*
G36*
X15917Y6753D02*
X15898D01*
Y6253D01*
X16398D01*
Y6273D01*
X16307Y6493D01*
X16138Y6662D01*
X15917Y6753D01*
D02*
G37*
G36*
X16398Y6053D02*
X15898D01*
Y5553D01*
X15917D01*
X16138Y5645D01*
X16307Y5813D01*
X16398Y6034D01*
Y6053D01*
D02*
G37*
G36*
X15698D02*
X15198D01*
Y6034D01*
X15289Y5813D01*
X15458Y5645D01*
X15679Y5553D01*
X15698D01*
Y6053D01*
D02*
G37*
%LPD*%
D10*
X33020Y5842D02*
D03*
D11*
X36068Y23242D02*
D03*
Y24892D02*
D03*
X30480Y23242D02*
D03*
Y24892D02*
D03*
D15*
X24130Y23835D02*
D03*
Y21885D02*
D03*
X18730Y21885D02*
D03*
Y23835D02*
D03*
D17*
X4980Y27432D02*
D03*
X6630D02*
D03*
X23750Y7620D02*
D03*
X25400D02*
D03*
X11875D02*
D03*
X13525D02*
D03*
D18*
X3810D02*
D03*
X5760D02*
D03*
X10025Y13500D02*
D03*
X11975D02*
D03*
X17725Y7700D02*
D03*
X19675D02*
D03*
X10017Y16573D02*
D03*
X11967D02*
D03*
D19*
X12310Y15577D02*
Y16230D01*
X24002Y15350D02*
X24225Y15573D01*
X12537Y15350D02*
X18585D01*
X12314Y13839D02*
Y14496D01*
X18585Y15350D02*
X24002D01*
X24225Y15573D02*
Y18450D01*
X12310Y15577D02*
X12537Y15350D01*
Y14719D02*
X18323D01*
X12314Y14496D02*
X12537Y14719D01*
X18323Y14719D02*
X24002D01*
X18323Y14719D02*
X18323Y14719D01*
X18585Y15350D02*
X18585Y15350D01*
X24225Y11550D02*
Y14496D01*
X24002Y14719D02*
X24225Y14496D01*
X11967Y16573D02*
X12310Y16230D01*
X31400Y18810D02*
X31411Y18821D01*
X29580Y18810D02*
X31400D01*
X27955Y17500D02*
X31300D01*
X27489Y17965D02*
X27955Y17500D01*
X31300D02*
X32221Y16580D01*
X29580Y18810D02*
Y20403D01*
X27601Y15350D02*
X27952Y15000D01*
X30542D01*
X27489Y15350D02*
X27601D01*
X30542Y15000D02*
X31426Y14116D01*
X27570Y13069D02*
Y14036D01*
X13525Y5382D02*
X18375Y10232D01*
X13525Y3900D02*
Y5382D01*
Y6322D02*
Y7620D01*
X12192Y3858D02*
Y4989D01*
X18375Y10232D02*
Y11550D01*
X12192Y4989D02*
X13525Y6322D01*
Y3900D02*
X14405Y3020D01*
X18140D01*
X18730Y3610D01*
Y4668D01*
X19688Y5626D01*
X20325D01*
X13525Y7620D02*
X14747D01*
X15775Y8649D02*
Y11582D01*
X14747Y7620D02*
X15775Y8649D01*
X1182Y7620D02*
X3810D01*
X14777Y14004D02*
X22054D01*
X14250Y13477D02*
X14777Y14004D01*
X14250Y12565D02*
Y13477D01*
X11975Y13500D02*
X12314Y13839D01*
X11789Y3455D02*
X12192Y3858D01*
X8770Y3455D02*
X11789D01*
X15385Y13263D02*
X18236D01*
X15743Y11614D02*
X15775Y11582D01*
X15202Y11614D02*
X15743D01*
X14250Y12565D02*
X15202Y11614D01*
X22596Y6384D02*
X23810Y5170D01*
X22054Y14004D02*
X22096Y13962D01*
X18236Y13263D02*
X19012Y12488D01*
X22596Y6384D02*
Y8792D01*
X22096Y13962D02*
X23106D01*
X20891Y16736D02*
X20956D01*
X20523Y16369D02*
X20891Y16736D01*
X18628Y16369D02*
X20523D01*
X17725Y17272D02*
X18628Y16369D01*
X23810Y3020D02*
X25080Y1750D01*
X23810Y3020D02*
Y5170D01*
X6468Y9652D02*
X7326D01*
X8636Y10962D01*
X23575Y11550D02*
Y13493D01*
Y9771D02*
Y11550D01*
X20325Y9906D02*
X20577Y9654D01*
X21421D01*
X20325Y9906D02*
Y11550D01*
X5760Y8944D02*
X6468Y9652D01*
X5760Y7620D02*
Y8944D01*
X19675Y7700D02*
Y11550D01*
X23106Y13962D02*
X23575Y13493D01*
X22596Y8792D02*
X23575Y9771D01*
X22540Y20828D02*
X25400D01*
X25908Y21336D02*
X27217D01*
X25400Y20828D02*
X25908Y21336D01*
X23575Y20066D02*
X27489D01*
X21631Y21885D02*
X24130D01*
X21625Y21879D02*
X21631Y21885D01*
X32741Y11190D02*
X33280D01*
X32432Y11500D02*
X32741Y11190D01*
X31426Y13044D02*
Y14116D01*
X32432Y11500D02*
Y12038D01*
X31426Y13044D02*
X32432Y12038D01*
X28521Y11500D02*
X28830Y11190D01*
X28521Y11500D02*
Y12118D01*
X27570Y13069D02*
X28521Y12118D01*
X28830Y11190D02*
X29580D01*
X12192Y26162D02*
X18730D01*
X21625Y21879D02*
Y21997D01*
X19803Y23819D02*
X21625Y21997D01*
X19688Y19942D02*
X21625Y21879D01*
X18746Y23819D02*
X19803D01*
X18730Y23835D02*
X18746Y23819D01*
X19688Y18463D02*
Y19942D01*
X19675Y18450D02*
X19688Y18463D01*
X20312Y18437D02*
X20325Y18450D01*
X20312Y17512D02*
Y18437D01*
X19909Y17110D02*
X20312Y17512D01*
X18791Y17110D02*
X19909D01*
X18388Y17512D02*
Y18437D01*
X18375Y18450D02*
X18388Y18437D01*
Y17512D02*
X18791Y17110D01*
X17725Y17272D02*
Y18450D01*
X19012Y11563D02*
Y12488D01*
Y11563D02*
X19025Y11550D01*
X27489Y16625D02*
X27566D01*
X27906Y16285D01*
X32221Y16580D02*
Y16580D01*
Y16580D02*
X32530Y16270D01*
X33280D01*
X27906Y16285D02*
X29565D01*
X29580Y16270D01*
X3810Y3455D02*
Y7620D01*
Y3455D02*
X4760Y2505D01*
X6470D01*
X9686Y13839D02*
X10025Y13500D01*
X9686Y13839D02*
Y14496D01*
X9463Y14719D02*
X9686Y14496D01*
X8754Y14719D02*
X9463D01*
X8394Y14359D02*
X8754Y14719D01*
X8493Y15350D02*
X9459D01*
X8133Y14991D02*
X8493Y15350D01*
X9459D02*
X9682Y15573D01*
Y16237D01*
X10017Y16573D01*
X6500Y14350D02*
X6510Y14359D01*
X8394D01*
X6500Y15000D02*
X6510Y14991D01*
X8133D01*
D20*
X31995Y4867D02*
X32020Y4842D01*
X30070Y4867D02*
X31995D01*
X30070Y4217D02*
Y4867D01*
X30480Y23242D02*
X36068D01*
X33020Y6842D02*
Y7766D01*
Y6080D02*
Y6842D01*
X17725Y6579D02*
Y7700D01*
X17299Y6153D02*
X17725Y6579D01*
X15798Y6153D02*
X17299D01*
X11875Y9577D02*
X12765Y10467D01*
X11875Y7620D02*
Y9577D01*
X32221Y14991D02*
X35384D01*
X35384Y14991D01*
X9106Y9771D02*
X9499D01*
X7332Y7998D02*
X9106Y9771D01*
X9499D02*
X11579Y11852D01*
X7332Y7942D02*
Y7998D01*
X11790Y7535D02*
X11875Y7620D01*
X10442Y7535D02*
X11790D01*
X7620Y1351D02*
Y6707D01*
X12765Y11852D01*
X22499Y22930D02*
X22504Y22935D01*
Y23521D02*
X22817Y23835D01*
X22504Y22935D02*
Y23521D01*
X22817Y23835D02*
X24130D01*
X27313D01*
X3810Y26162D02*
Y26187D01*
X4980Y27357D01*
Y27432D01*
X33041Y27182D02*
X33710Y26513D01*
X33041Y27182D02*
Y29164D01*
X32727Y29478D02*
X33041Y29164D01*
X22498Y29478D02*
X32727D01*
X21270Y28250D02*
X22498Y29478D01*
X33710Y26513D02*
X36640D01*
X37486Y25666D01*
Y23710D02*
Y25666D01*
X37202Y23426D02*
X37486Y23710D01*
X37053Y23242D02*
X37202Y23391D01*
Y23426D01*
X36068Y23242D02*
X37053D01*
X14920Y17491D02*
Y17500D01*
X13690Y16261D02*
X14920Y17491D01*
X13690Y16252D02*
Y16261D01*
X14920Y17500D02*
Y18155D01*
X15215Y18450D01*
X12765Y20000D02*
X16425D01*
X15215Y18450D02*
X15775D01*
X27906Y23242D02*
X30480D01*
X27313Y23835D02*
X27906Y23242D01*
X4980Y27432D02*
Y28753D01*
X5691Y29463D01*
X20057D01*
X21270Y28250D01*
X22475Y15848D02*
X23575Y16948D01*
X15775Y16468D02*
X16395Y15848D01*
X22475D01*
X15775Y16468D02*
Y18450D01*
X23575Y16948D02*
Y18450D01*
X23750Y6636D02*
X24210Y6176D01*
X24620D01*
X25080Y5716D01*
X23750Y6636D02*
Y7620D01*
X25080Y4290D02*
Y5716D01*
X31426Y9360D02*
X33020Y7766D01*
X30620Y12292D02*
X31426Y11486D01*
Y9360D02*
Y11486D01*
X30067Y12292D02*
X30620D01*
X29580Y12779D02*
X30067Y12292D01*
X30480Y21303D02*
Y23242D01*
X29580Y20403D02*
X30480Y21303D01*
X6500Y16300D02*
Y18725D01*
X7620Y1351D02*
X8452Y520D01*
X20644D01*
X21279Y1155D02*
Y2232D01*
X20644Y520D02*
X21279Y1155D01*
X22316Y3268D02*
Y4066D01*
X21279Y2232D02*
X22316Y3268D01*
Y4066D02*
X22540Y4290D01*
X21438Y3188D02*
Y8104D01*
X20688Y8854D02*
X21438Y8104D01*
X20000Y1750D02*
X21438Y3188D01*
X20688Y8854D02*
Y8859D01*
X20000Y4290D02*
X20101D01*
X21002Y5191D01*
Y6053D01*
X20689Y6366D02*
X21002Y6053D01*
X19217Y6366D02*
X20689D01*
X18723Y6860D02*
X19217Y6366D01*
X11579Y20824D02*
X17224D01*
X18723Y9062D02*
X18742Y9081D01*
X18723Y6860D02*
Y9062D01*
D21*
X2700Y18875D02*
D03*
Y11125D02*
D03*
D22*
X5400Y17500D02*
D03*
Y12500D02*
D03*
D23*
X6500Y18725D02*
D03*
Y11275D02*
D03*
D24*
X17460Y4290D02*
D03*
Y1750D02*
D03*
X14920Y4290D02*
D03*
X20000Y1750D02*
D03*
Y4290D02*
D03*
X22540Y1750D02*
D03*
X25080D02*
D03*
X22540Y4290D02*
D03*
X25080D02*
D03*
D25*
X14920Y1750D02*
D03*
D26*
X31750D02*
D03*
Y28250D02*
D03*
D27*
X34290Y1750D02*
D03*
Y28250D02*
D03*
X18730D02*
D03*
X23810D02*
D03*
X21270D02*
D03*
X16190D02*
D03*
X13650D02*
D03*
D28*
X26350D02*
D03*
D29*
X34020Y4842D02*
D03*
X33020D02*
D03*
X32020D02*
D03*
X34020Y5842D02*
D03*
Y6842D02*
D03*
X33020Y5842D02*
D03*
Y6842D02*
D03*
X32020Y5842D02*
D03*
Y6842D02*
D03*
D30*
X33358Y23244D02*
D03*
X27489Y14020D02*
D03*
X15798Y6153D02*
D03*
X35384Y14991D02*
D03*
X32221Y14991D02*
D03*
X12765Y10467D02*
D03*
X7332Y7942D02*
D03*
X10442Y7535D02*
D03*
X12765Y11852D02*
D03*
X11579D02*
D03*
X22499Y22930D02*
D03*
X3810Y26162D02*
D03*
X1182Y7620D02*
D03*
X13690Y16252D02*
D03*
X14920Y17500D02*
D03*
X12765Y20000D02*
D03*
X12192Y4989D02*
D03*
X15385Y13263D02*
D03*
X20956Y16736D02*
D03*
X27489Y17965D02*
D03*
X20325Y5626D02*
D03*
X21421Y9654D02*
D03*
X11579Y20824D02*
D03*
X8636Y10962D02*
D03*
X16425Y20000D02*
D03*
X17224Y20824D02*
D03*
X20688Y8859D02*
D03*
X18742Y9081D02*
D03*
X22096Y13962D02*
D03*
X27489Y20066D02*
D03*
Y21336D02*
D03*
X23575Y20066D02*
D03*
X22540Y20828D02*
D03*
X12192Y26162D02*
D03*
X18730D02*
D03*
X27489Y15335D02*
D03*
Y16650D02*
D03*
D31*
X29580Y18810D02*
D03*
Y16270D02*
D03*
X33280Y18810D02*
D03*
Y16270D02*
D03*
Y11190D02*
D03*
X29580D02*
D03*
X33280Y13730D02*
D03*
X29580D02*
D03*
D32*
X6500Y16300D02*
D03*
Y15650D02*
D03*
Y14350D02*
D03*
Y15000D02*
D03*
Y13700D02*
D03*
D33*
X8770Y3455D02*
D03*
X6470Y4405D02*
D03*
Y2505D02*
D03*
D34*
X35970Y4217D02*
D03*
Y3567D02*
D03*
Y5517D02*
D03*
Y4867D02*
D03*
Y6167D02*
D03*
Y6817D02*
D03*
Y7467D02*
D03*
Y8117D02*
D03*
X30070Y4217D02*
D03*
Y3567D02*
D03*
Y4867D02*
D03*
Y5517D02*
D03*
Y6167D02*
D03*
Y6817D02*
D03*
Y7467D02*
D03*
Y8117D02*
D03*
D35*
X3530Y22860D02*
D03*
X6630D02*
D03*
X14250D02*
D03*
X11150D02*
D03*
D36*
X24225Y11550D02*
D03*
X23575D02*
D03*
X22925D02*
D03*
X22275D02*
D03*
X21625D02*
D03*
X20975D02*
D03*
X20325D02*
D03*
X19675D02*
D03*
X19025D02*
D03*
X18375D02*
D03*
X17725D02*
D03*
X17075D02*
D03*
X16425D02*
D03*
X15775D02*
D03*
X24225Y18450D02*
D03*
X23575D02*
D03*
X22925D02*
D03*
X22275D02*
D03*
X21625D02*
D03*
X20975D02*
D03*
X20325D02*
D03*
X19675D02*
D03*
X19025D02*
D03*
X18375D02*
D03*
X17725D02*
D03*
X17075D02*
D03*
X16425D02*
D03*
X15775D02*
D03*
D37*
X35974Y13730D02*
X36997Y14753D01*
X35861Y18810D02*
X36997Y17674D01*
Y14753D02*
Y17674D01*
X28521Y5128D02*
X28889Y5496D01*
X28521Y3230D02*
Y5128D01*
Y3230D02*
X30000Y1750D01*
X28889Y5496D02*
X30049D01*
X30000Y1750D02*
X31750D01*
X30049Y5496D02*
X30070Y5517D01*
Y6817D02*
Y7467D01*
Y6167D02*
Y6817D01*
Y5517D02*
Y6167D01*
X25400Y7620D02*
X25553Y7467D01*
X30070D01*
X35970Y4217D02*
X35991Y4238D01*
X36706D01*
X37074Y4606D01*
X36706Y5496D02*
X37074Y5128D01*
Y4606D02*
Y5128D01*
X35991Y5496D02*
X36706D01*
X35970Y5517D02*
X35991Y5496D01*
Y7488D02*
X36870D01*
X37486Y8104D01*
X35970Y7467D02*
X35991Y7488D01*
X35974Y13730D02*
X37486Y12218D01*
Y8104D02*
Y12218D01*
X35970Y6817D02*
Y7467D01*
Y6167D02*
Y6817D01*
Y5517D02*
Y6167D01*
X29588Y13738D02*
Y14406D01*
X29580Y13730D02*
X29588Y13738D01*
X29580Y12779D02*
Y13730D01*
X33280D02*
X35974D01*
X33280Y18810D02*
X35861D01*
X38354Y21303D01*
X1182Y16203D02*
Y22137D01*
X1905Y22860D01*
X1182Y16203D02*
X3664Y13721D01*
X3530Y22860D02*
X4546D01*
X5521Y21885D02*
X5884D01*
X5913Y21856D01*
X14967D01*
X4546Y22860D02*
X5521Y21885D01*
X1905Y22860D02*
X3530D01*
X14996Y21885D02*
X18730D01*
X14967Y21856D02*
X14996Y21885D01*
X30480Y25908D02*
X31750Y27178D01*
X30480Y24892D02*
Y25908D01*
X31750Y27178D02*
Y28250D01*
X34290D02*
X36012D01*
X38354Y25908D01*
X25080Y1750D02*
X26284Y546D01*
X33086D01*
X34290Y1750D01*
X38354Y21303D02*
Y25908D01*
X30480Y24892D02*
X36068D01*
X25044D02*
X30480D01*
X15476Y22860D02*
X17530Y24914D01*
X25022D01*
X25044Y24892D01*
X14250Y22860D02*
X15476D01*
X6630D02*
X11150D01*
X6630D02*
Y27432D01*
X3664Y13721D02*
X6479D01*
X6500Y13700D01*
%TF.MD5,13ccf9646e29412938a235cf6ecf19da*%
M02*
