M48
;Layer_Color=9474304
;FILE_FORMAT=4:3
METRIC,LZ
;TYPE=PLATED
T1F00S00C0.450
%
T01
X00035Y0003
Y001
Y0017
X00105
X0012Y0014232
X00105Y001
X00175
X00203Y0011966
X00175Y0017
Y0003
X00105
X0021764
X00245
X00315
X00385
Y001
X0035852Y001347
X0034357
X0031496Y0011946
X002874Y0014232
X0026Y0013491
X0024538Y0011946
X00245Y0017
X0021082Y0018042
X0028Y0019024
X00315Y0017
X0035097Y0018042
X00385Y0017
X0041771Y001474
X00455Y0017
X004699Y0013491
X00455Y001
X00525
X0054Y001474
X00525Y0017
Y0003
X00455
X00615
Y001
Y0017
X00685
X007Y0014232
X00685Y001
X00755
X00783Y0011966
X0082538Y0011946
X0084Y0013491
X0086741Y0014232
X0089496Y0011946
X0092357Y001347
X0093852
X0093097Y0018042
X00965Y0017
X0099771Y001474
X00965Y001
Y0003
X00895
X00825
X0079764
X00755
X00685
X00755Y0017
X0079082Y0018042
X00825Y0017
X0086Y0019024
X00895Y0017
X01035
X010499Y0013491
X01035Y001
X01105
X0112Y001474
X01105Y0017
X01195
Y001
X01265
X0128Y0014232
X01265Y0017
X01335
X0137082Y0018042
X01363Y0011966
X01335Y001
Y0003
X0137764
X01265
X01195
X01105
X01035
X01405
X01475
X01545
Y001
X0151852Y001347
X0150357
X0147496Y0011946
X014474Y0014232
X0142Y0013491
X0140538Y0011946
X01405Y0017
X0144Y0019024
X01475Y0017
X0151097Y0018042
X01545Y0017
X0157771Y001474
X01615Y0017
X016299Y0013491
X01615Y001
X01685
X017Y001474
X01685Y0017
Y0003
X01615
X0157771Y002109
X0158672Y0024
Y002617
X01545Y0024
X0150357
Y0022315
X0147123Y002369
X0144Y002603
Y00275
X014474Y0028146
Y0030996
X0144Y0034485
X01405Y0038
X01475
X0151111Y0036305
X0150346Y0033215
X0151852Y003314
X0151837Y0029337
X01545Y0031
X0158672Y003346
X01615Y003026
X01685Y0031
Y0024
Y0038
X01615
Y0045
X01685
Y0052
X01615
X01545
X0150357Y0049792
X01475Y0052
X01433Y0052011
X01405Y0052
X0140491Y0047001
X0147496Y0046998
X01545Y0045
X0156Y0041664
X0151814
X01545Y0038
X01545Y006
X01475
X01405
X01615
X01685
X0143259Y0021745
X0140665Y0022964
X0137099Y0024325
X01363Y0025154
X0136903Y0026771
X0136141Y0029313
X0137781Y0029413
X0137645Y0031013
X01335Y0031
X0130115Y0032624
Y0027186
X0126529Y0024759
X0126456Y0030306
X01195Y0031
Y0024
X01105
Y0031
Y0038
X01035
Y0045
X01105
Y0052
X01035
Y006
X01105
X01195
X01265
X01335
X0137764
X01335Y0052
X01265
X01195
X0121Y0049792
X01195Y0045
Y0038
X01265
X01335
X0136962
X0136163Y0034485
X0133621Y0024
X0135Y0021986
X01335Y0045
X01265
X0100672Y003346
X01035Y003026
X0100672Y002617
Y0024
X0099771Y002109
X00965Y0024
X0092357
Y0022315
X0089123Y002369
X0086Y002603
Y00275
X0086741Y0028146
Y0030996
X0086Y0034485
X00825Y0038
X0078962
X00755
X0078163Y0034485
X0079645Y0031013
X0079781Y0029413
X0078141Y0029313
X0078903Y0026771
X00783Y0025154
X0079099Y0024325
X0075621Y0024
X0077Y0021986
X0082665Y0022964
X0085259Y0021745
X0093837Y0029337
X0093852Y003314
X0092346Y0033215
X0093111Y0036305
X00965Y0038
X0098Y0041664
X0093814
X00965Y0045
Y0052
X0092357Y0049792
X00895Y0052
X00853Y0052011
X00825Y0052
X0082491Y0047001
X0089496Y0046998
X00895Y0038
X00965Y0031
X00755
X0072115Y0032624
Y0027186
X0068529Y0024759
X0068456Y0030306
X00615Y0031
Y0024
Y0038
Y0045
X0063Y0049792
X00615Y0052
X00685
X00755
Y0045
X00685
Y0038
Y006
X00755
X0079764
X00825
X00895
X00965
X00615
X00525Y006
X00455
X00385
X00315
X00245
X0021764
X00245Y0052
X00273Y0052011
X00315Y0052
X0031496Y0046998
X0034357Y0049792
X00385Y0052
Y0045
X004Y0041664
X0035814
X0035111Y0036305
X0034346Y0033215
X0035852Y003314
X0035837Y0029337
X00385Y0031
X0042672Y003346
X00455Y003026
X0042672Y002617
Y0024
X0041771Y002109
X00385Y0024
X0034357
Y0022315
X0031123Y002369
X0028Y002603
Y00275
X002874Y0028146
Y0030996
X0028Y0034485
X00245Y0038
X0020962
X0021645Y0031013
X0021781Y0029413
X0020903Y0026771
X0021099Y0024325
X0024665Y0022964
X002726Y0021745
X00315Y0038
X00385
X00455
X00525
Y0045
X00455
Y0052
X00525
Y0031
Y0024
X0024491Y0047001
X00175Y0045
Y0038
X0020163Y0034485
X0020141Y0029313
X00203Y0025154
X0017621Y0024
X0019Y0021986
X0014115Y0027186
Y0032624
X00175Y0031
X0010456Y0030306
X0010529Y0024759
X00035Y0024
Y0031
Y0038
Y0045
X0005Y0049792
X00035Y0052
X00105
X00175
Y006
X00105
X00035
X00105Y0045
Y0038
Y0067
X0012Y0071232
X00105Y0074
X00175
X0019Y0078986
X0017621Y0081
X00203Y0082154
X0020141Y0086313
X00175Y0088
X0014115Y0089624
Y0084186
X0010529Y0081759
X0010456Y0087306
X00035Y0088
Y0081
Y0074
Y0067
X00175
X00203Y0068966
X0020163Y0091485
X00175Y0095
X00105
X00035
X0020962
X00245
X00315
X0035111Y0093305
X0034346Y0090215
X0035852Y009014
X0035837Y0086337
X00385Y0088
X0042672Y009046
X00455Y008726
X0042672Y008317
Y0081
X0041771Y007809
X00385Y0081
X0034357
Y0079315
X0031123Y008069
X0028Y008303
Y00845
X002874Y0085146
Y0087996
X0028Y0091485
X0021645Y0088013
X0021781Y0086413
X0020903Y0083771
X0021099Y0081325
X0024665Y0079964
X002726Y0078745
X0028Y0076024
X00245Y0074
X0021082Y0075042
X0026Y0070492
X0024538Y0068946
X002874Y0071232
X0031496Y0068946
X0034357Y007047
X0035852
X0035097Y0075042
X00385Y0074
X0041771Y007174
X00455Y0074
X004699Y0070492
X00455Y0067
X00525
X0054Y007174
X00525Y0074
Y0081
Y0088
Y0095
X00455
X00385
X004Y0098664
X0035814
X00315Y0074
X00385Y0067
X00615Y0067
Y0074
Y0081
Y0088
Y0095
X00685
X00755
X0078962
X00825
X00895
X0093111Y0093305
X0092346Y0090215
X0093852Y009014
X0093837Y0086337
X00965Y0088
Y0081
X0092357
Y0079315
X0089123Y008069
X0086Y008303
Y00845
X0086741Y0085146
Y0087996
X0086Y0091485
X0078163
X0079645Y0088013
X0079781Y0086413
X0078141Y0086313
X0078903Y0083771
X00783Y0082154
X0079099Y0081325
X0075621Y0081
X0077Y0078986
X0079082Y0075042
X00825Y0074
X0084Y0070491
X0082538Y0068946
X00783Y0068966
X00755Y0067
X00685
X007Y0071232
X00685Y0074
X00755
X0086Y0076024
X0085259Y0078745
X0082665Y0079964
X00895Y0074
X0093097Y0075042
X00965Y0074
X0099771Y007174
Y007809
X0093852Y007047
X0092357
X0089496Y0068946
X0086741Y0071232
X00965Y0067
Y0095
X0098Y0098664
X0093814
X00755Y0088
X0072115Y0089624
Y0084186
X0068529Y0081759
X0068456Y0087306
X01035Y008726
X0100672Y009046
Y008317
Y0081
X01105
Y0088
Y0095
X01035
X01195
Y0088
Y0081
Y0074
Y0067
X01265
X0128Y0071232
X01265Y0074
X01335
X0137082Y0075042
X0135Y0078986
X0133621Y0081
X0137099Y0081325
X01363Y0082154
X0136903Y0083771
X0136141Y0086313
X0137781Y0086413
X0137645Y0088013
X01335Y0088
X0130115Y0089624
Y0084186
X0126529Y0081759
X0126456Y0087306
X01265Y0095
X01335
X0136962
X0136163Y0091485
X01363Y0068966
X01335Y0067
X01105
X0112Y007174
X01105Y0074
X01035
X010499Y0070491
X01035Y0067
X0140538Y0068946
X0142Y0070491
X014474Y0071232
X0147496Y0068946
X0150357Y007047
X0151852
X0151097Y0075042
X01545Y0074
X0157771Y007174
X01615Y0074
X016299Y0070491
X01615Y0067
X01685
X017Y007174
X01685Y0074
Y0081
Y0088
Y0095
X01615
X01545
X0151111Y0093305
X0150346Y0090215
X0151852Y009014
X0151837Y0086337
X01545Y0088
X0158672Y009046
X01615Y008726
X0158672Y008317
Y0081
X0157771Y007809
X01545Y0081
X0150357
Y0079315
X0147123Y008069
X0144Y008303
Y00845
X014474Y0085146
Y0087996
X0144Y0091485
X01405Y0095
X01475
X0151814Y0098664
X0156
X014326Y0078745
X0144Y0076024
X01405Y0074
X0140665Y0079964
X01475Y0074
X01545Y0067
Y0102
Y0109
X0150357Y0106792
X01475Y0109
X01433Y0109011
X01405Y0109
X0140491Y0104001
X0147496Y0103998
X01475Y0117
X01405
X0140538Y0125946
X0142Y0127492
X014474Y0128232
X0147496Y0125946
X0150357Y012747
X0151852
X0151097Y0132042
X01545Y0131
X0157771Y012874
X01615Y0131
X016299Y0127492
X01615Y0124
X01685
X017Y012874
X01685Y0131
Y0138
X0158672
X0157771Y013509
X01545Y0138
X0150357
Y0136315
X0147123Y013769
X014326Y0135745
X0144Y0133024
X01405Y0131
X0140665Y0136964
X01475Y0131
X01545Y0124
Y0117
X01615
X01685
X01685Y0109
X01615
Y0102
X01685
X01335
X01265
X01195
X0121Y0106792
X01195Y0109
X01265
X01335
X01335Y0117
X0137764
X01363Y0125966
X01335Y0124
X01265
X0128Y0128232
X01265Y0131
X01335
X0137082Y0132042
X0135Y0135986
X0133621Y0138
X0137099Y0138325
X01363Y0139154
X0126529Y0138759
X01195Y0138
Y0131
Y0124
Y0117
X01265
X01105
X01035
Y0124
X010499Y0127492
X01035Y0131
X01105
X0112Y012874
X01105Y0124
Y0138
X0100672
X01035Y0109
X01105
Y0102
X01035
X00965
Y0109
X0092357Y0106792
X00895Y0109
X00853Y0109011
X00825Y0109
X0082491Y0104001
X0089496Y0103998
X00895Y0117
X00825
X0079764
X00755
X00685
Y0124
X007Y0128232
X00685Y0131
X00755
X0079082Y0132042
X00825Y0131
X0084Y0127492
X0082538Y0125946
X00783Y0125966
X00755Y0124
X0077Y0135986
X0075621Y0138
X0079099Y0138325
X00783Y0139154
X0082665Y0136964
X0085259Y0135745
X0086Y0133024
X00895Y0131
X0093097Y0132042
X00965Y0131
X0099771Y012874
Y013509
X00965Y0138
X0092357
Y0136315
X0089123Y013769
X0086741Y0128232
X0089496Y0125946
X0092357Y012747
X0093852
X00965Y0124
Y0117
X00755Y0109
X00685
X00615
X0063Y0106792
X00615Y0102
X00685
X00755
X00615Y0117
Y0124
Y0131
Y0138
X0068529Y0138759
X00525Y0138
Y0131
X0054Y012874
X00525Y0124
X00455
X004699Y0127492
X00455Y0131
X0041771Y012874
X00385Y0131
X0035097Y0132042
X00315Y0131
X0031496Y0125946
X0034357Y012747
X0035852
X00385Y0124
Y0117
X00315
X00245
X0021764
X00245Y0109
X00273Y0109011
X00315Y0109
X0031496Y0103998
X0034357Y0106792
X00385Y0109
Y0102
X00455
X00525
Y0109
X00455
Y0117
X00525
X0041771Y013509
X0042672Y0138
X00385
X0034357
Y0136315
X0031123Y013769
X002726Y0135745
X0028Y0133024
X00245Y0131
X0021082Y0132042
X0021099Y0138325
X0024665Y0136964
X0026Y0127492
X0024538Y0125946
X002874Y0128232
X0024491Y0104001
X00175Y0102
X00105
X00035
X0005Y0106792
X00035Y0109
X00105
X00175
Y0117
X00105
Y0124
X0012Y0128232
X00105Y0131
X00175
X0019Y0135986
X0017621Y0138
X00203Y0139154
X0010529Y0138759
X00035Y0138
Y0131
Y0124
Y0117
X00175Y0124
X00203Y0125966
X0020141Y0143313
X00175Y0145
X0014115Y0146624
Y0141186
X0010456Y0144306
X00035Y0145
Y0152
Y0159
X0005Y0163792
X00035Y0166
X00105
X00175
Y0159
Y0152
X0020163Y0148485
X00105Y0152
Y0159
X0024491Y0161001
X00245Y0166
X00273Y0166011
X00315Y0166
X0031496Y0160998
X0034357Y0163792
X00385Y0166
Y0159
X004Y0155664
X0035814
X0035111Y0150305
X0034346Y0147215
X0035852Y014714
X0035837Y0143337
X00385Y0145
X0042672Y014746
X00455Y014426
X0042672Y014017
X00525Y0145
Y0152
X00455
Y0159
X00525
Y0166
X00455
X00385Y0152
X00315
X00245
X0020962
X0021645Y0145013
X0021781Y0143413
X0020903Y0140771
X0028Y01415
X002874Y0142146
Y0144996
X0028Y0148485
Y014003
X00615Y0145
Y0152
Y0159
X0063Y0163792
X00615Y0166
X00685
X00755
Y0159
Y0152
X0078962
X00825
X00895
X0093111Y0150305
X0092346Y0147215
X0093852Y014714
X0093837Y0143337
X00965Y0145
Y0152
X0098Y0155664
X0093814
X00965Y0159
Y0166
X0092357Y0163792
X00895Y0166
X00853Y0166011
X00825Y0166
X0082491Y0161001
X0089496Y0160998
X0086Y0148485
X0086741Y0144996
Y0142146
X0086Y01415
Y014003
X0078903Y0140771
X0078141Y0143313
X0079781Y0143413
X0079645Y0145013
X00755Y0145
X0072115Y0146624
Y0141186
X0068456Y0144306
X00685Y0152
Y0159
X0078163Y0148485
X0100672Y014746
X01035Y014426
X0100672Y014017
X01105Y0145
Y0152
X01035
Y0159
X01105
Y0166
X01035
X01195
X0121Y0163792
X01195Y0159
Y0152
Y0145
X0126456Y0144306
X0130115Y0146624
X01335Y0145
X0137645Y0145013
X0137781Y0143413
X0136141Y0143313
X0136903Y0140771
X0130115Y0141186
X0136163Y0148485
X0136962Y0152
X01335
X01265
Y0159
X01335
Y0166
X01265
X01405
X01433Y0166011
X01475Y0166
X0147496Y0160998
X0150357Y0163792
X01545Y0166
Y0159
X0156Y0155664
X0151814
X0151111Y0150305
X0150346Y0147215
X0151852Y014714
X0151837Y0143337
X01545Y0145
X0158672Y014746
X01615Y014426
X0158672Y014017
X01685Y0145
Y0152
X01615
Y0159
X01685
Y0166
X01615
X01545Y0152
X01475
X01405
X0144Y0148485
X014474Y0144996
Y0142146
X0144Y01415
Y014003
X0140491Y0161001
M30
