%TF.GenerationSoftware,Altium Limited,Altium Designer,21.6.1 (37)*%
G04 Layer_Color=8388736*
%FSLAX43Y43*%
%MOMM*%
%TF.SameCoordinates,8D5B277E-474B-43DD-86F4-B2073A371E15*%
%TF.FilePolarity,Negative*%
%TF.FileFunction,Soldermask,Top*%
%TF.Part,CustomerPanel*%
G01*
G75*
%TA.AperFunction,SMDPad,CuDef*%
%ADD10R,1.500X2.600*%
%TA.AperFunction,ViaPad*%
%ADD13C,0.800*%
D10*
X149000Y124000D02*
D03*
X146000D02*
D03*
X118000Y166000D02*
D03*
X121000D02*
D03*
X128000D02*
D03*
X125000D02*
D03*
X132000D02*
D03*
X135000D02*
D03*
X142000D02*
D03*
X139000D02*
D03*
X146000D02*
D03*
X149000D02*
D03*
X156000D02*
D03*
X153000D02*
D03*
X160000D02*
D03*
X163000D02*
D03*
X170000D02*
D03*
X167000D02*
D03*
X118000Y159000D02*
D03*
X121000D02*
D03*
X128000D02*
D03*
X125000D02*
D03*
X132000D02*
D03*
X135000D02*
D03*
X142000D02*
D03*
X139000D02*
D03*
X146000D02*
D03*
X149000D02*
D03*
X156000D02*
D03*
X153000D02*
D03*
X160000D02*
D03*
X163000D02*
D03*
X170000D02*
D03*
X167000D02*
D03*
X118000Y152000D02*
D03*
X121000D02*
D03*
X128000D02*
D03*
X125000D02*
D03*
X132000D02*
D03*
X135000D02*
D03*
X142000D02*
D03*
X139000D02*
D03*
X146000D02*
D03*
X149000D02*
D03*
X156000D02*
D03*
X153000D02*
D03*
X160000D02*
D03*
X163000D02*
D03*
X170000D02*
D03*
X167000D02*
D03*
X118000Y145000D02*
D03*
X121000D02*
D03*
X128000D02*
D03*
X125000D02*
D03*
X132000D02*
D03*
X135000D02*
D03*
X142000D02*
D03*
X139000D02*
D03*
X146000D02*
D03*
X149000D02*
D03*
X156000D02*
D03*
X153000D02*
D03*
X160000D02*
D03*
X163000D02*
D03*
X170000D02*
D03*
X167000D02*
D03*
X118000Y138000D02*
D03*
X121000D02*
D03*
X128000D02*
D03*
X125000D02*
D03*
X132000D02*
D03*
X135000D02*
D03*
X142000D02*
D03*
X139000D02*
D03*
X146000D02*
D03*
X149000D02*
D03*
X156000D02*
D03*
X153000D02*
D03*
X160000D02*
D03*
X163000D02*
D03*
X170000D02*
D03*
X167000D02*
D03*
X118000Y131000D02*
D03*
X121000D02*
D03*
X128000D02*
D03*
X125000D02*
D03*
X132030Y131021D02*
D03*
X135030D02*
D03*
X142000Y131000D02*
D03*
X139000D02*
D03*
X146000D02*
D03*
X149000D02*
D03*
X156000D02*
D03*
X153000D02*
D03*
X160000D02*
D03*
X163000D02*
D03*
X170000D02*
D03*
X167000D02*
D03*
X118000Y124000D02*
D03*
X121000D02*
D03*
X128000D02*
D03*
X125000D02*
D03*
X132000D02*
D03*
X135000D02*
D03*
X142000D02*
D03*
X139000D02*
D03*
X156000D02*
D03*
X153000D02*
D03*
X160000D02*
D03*
X163000D02*
D03*
X170000D02*
D03*
X167000D02*
D03*
X118000Y117000D02*
D03*
X121000D02*
D03*
X128000D02*
D03*
X125000D02*
D03*
X132000D02*
D03*
X135000D02*
D03*
X142000D02*
D03*
X139000D02*
D03*
X146000D02*
D03*
X149000D02*
D03*
X156000D02*
D03*
X153000D02*
D03*
X160000D02*
D03*
X163000D02*
D03*
X170000D02*
D03*
X167000D02*
D03*
X149000Y67000D02*
D03*
X146000D02*
D03*
X118000Y109000D02*
D03*
X121000D02*
D03*
X128000D02*
D03*
X125000D02*
D03*
X132000D02*
D03*
X135000D02*
D03*
X142000D02*
D03*
X139000D02*
D03*
X146000D02*
D03*
X149000D02*
D03*
X156000D02*
D03*
X153000D02*
D03*
X160000D02*
D03*
X163000D02*
D03*
X170000D02*
D03*
X167000D02*
D03*
X118000Y102000D02*
D03*
X121000D02*
D03*
X128000D02*
D03*
X125000D02*
D03*
X132000D02*
D03*
X135000D02*
D03*
X142000D02*
D03*
X139000D02*
D03*
X146000D02*
D03*
X149000D02*
D03*
X156000D02*
D03*
X153000D02*
D03*
X160000D02*
D03*
X163000D02*
D03*
X170000D02*
D03*
X167000D02*
D03*
X118000Y95000D02*
D03*
X121000D02*
D03*
X128000D02*
D03*
X125000D02*
D03*
X132000D02*
D03*
X135000D02*
D03*
X142000D02*
D03*
X139000D02*
D03*
X146000D02*
D03*
X149000D02*
D03*
X156000D02*
D03*
X153000D02*
D03*
X160000D02*
D03*
X163000D02*
D03*
X170000D02*
D03*
X167000D02*
D03*
X118000Y88000D02*
D03*
X121000D02*
D03*
X128000D02*
D03*
X125000D02*
D03*
X132000D02*
D03*
X135000D02*
D03*
X142000D02*
D03*
X139000D02*
D03*
X146000D02*
D03*
X149000D02*
D03*
X156000D02*
D03*
X153000D02*
D03*
X160000D02*
D03*
X163000D02*
D03*
X170000D02*
D03*
X167000D02*
D03*
X118000Y81000D02*
D03*
X121000D02*
D03*
X128000D02*
D03*
X125000D02*
D03*
X132000D02*
D03*
X135000D02*
D03*
X142000D02*
D03*
X139000D02*
D03*
X146000D02*
D03*
X149000D02*
D03*
X156000D02*
D03*
X153000D02*
D03*
X160000D02*
D03*
X163000D02*
D03*
X170000D02*
D03*
X167000D02*
D03*
X118000Y74000D02*
D03*
X121000D02*
D03*
X128000D02*
D03*
X125000D02*
D03*
X132030Y74021D02*
D03*
X135030D02*
D03*
X142000Y74000D02*
D03*
X139000D02*
D03*
X146000D02*
D03*
X149000D02*
D03*
X156000D02*
D03*
X153000D02*
D03*
X160000D02*
D03*
X163000D02*
D03*
X170000D02*
D03*
X167000D02*
D03*
X118000Y67000D02*
D03*
X121000D02*
D03*
X128000D02*
D03*
X125000D02*
D03*
X132000D02*
D03*
X135000D02*
D03*
X142000D02*
D03*
X139000D02*
D03*
X156000D02*
D03*
X153000D02*
D03*
X160000D02*
D03*
X163000D02*
D03*
X170000D02*
D03*
X167000D02*
D03*
X118000Y60000D02*
D03*
X121000D02*
D03*
X128000D02*
D03*
X125000D02*
D03*
X132000D02*
D03*
X135000D02*
D03*
X142000D02*
D03*
X139000D02*
D03*
X146000D02*
D03*
X149000D02*
D03*
X156000D02*
D03*
X153000D02*
D03*
X160000D02*
D03*
X163000D02*
D03*
X170000D02*
D03*
X167000D02*
D03*
X149000Y10000D02*
D03*
X146000D02*
D03*
X118000Y52000D02*
D03*
X121000D02*
D03*
X128000D02*
D03*
X125000D02*
D03*
X132000D02*
D03*
X135000D02*
D03*
X142000D02*
D03*
X139000D02*
D03*
X146000D02*
D03*
X149000D02*
D03*
X156000D02*
D03*
X153000D02*
D03*
X160000D02*
D03*
X163000D02*
D03*
X170000D02*
D03*
X167000D02*
D03*
X118000Y45000D02*
D03*
X121000D02*
D03*
X128000D02*
D03*
X125000D02*
D03*
X132000D02*
D03*
X135000D02*
D03*
X142000D02*
D03*
X139000D02*
D03*
X146000D02*
D03*
X149000D02*
D03*
X156000D02*
D03*
X153000D02*
D03*
X160000D02*
D03*
X163000D02*
D03*
X170000D02*
D03*
X167000D02*
D03*
X118000Y38000D02*
D03*
X121000D02*
D03*
X128000D02*
D03*
X125000D02*
D03*
X132000D02*
D03*
X135000D02*
D03*
X142000D02*
D03*
X139000D02*
D03*
X146000D02*
D03*
X149000D02*
D03*
X156000D02*
D03*
X153000D02*
D03*
X160000D02*
D03*
X163000D02*
D03*
X170000D02*
D03*
X167000D02*
D03*
X118000Y31000D02*
D03*
X121000D02*
D03*
X128000D02*
D03*
X125000D02*
D03*
X132000D02*
D03*
X135000D02*
D03*
X142000D02*
D03*
X139000D02*
D03*
X146000D02*
D03*
X149000D02*
D03*
X156000D02*
D03*
X153000D02*
D03*
X160000D02*
D03*
X163000D02*
D03*
X170000D02*
D03*
X167000D02*
D03*
X118000Y24000D02*
D03*
X121000D02*
D03*
X128000D02*
D03*
X125000D02*
D03*
X132000D02*
D03*
X135000D02*
D03*
X142000D02*
D03*
X139000D02*
D03*
X146000D02*
D03*
X149000D02*
D03*
X156000D02*
D03*
X153000D02*
D03*
X160000D02*
D03*
X163000D02*
D03*
X170000D02*
D03*
X167000D02*
D03*
X118000Y17000D02*
D03*
X121000D02*
D03*
X128000D02*
D03*
X125000D02*
D03*
X132030Y17021D02*
D03*
X135030D02*
D03*
X142000Y17000D02*
D03*
X139000D02*
D03*
X146000D02*
D03*
X149000D02*
D03*
X156000D02*
D03*
X153000D02*
D03*
X160000D02*
D03*
X163000D02*
D03*
X170000D02*
D03*
X167000D02*
D03*
X118000Y10000D02*
D03*
X121000D02*
D03*
X128000D02*
D03*
X125000D02*
D03*
X132000D02*
D03*
X135000D02*
D03*
X142000D02*
D03*
X139000D02*
D03*
X156000D02*
D03*
X153000D02*
D03*
X160000D02*
D03*
X163000D02*
D03*
X170000D02*
D03*
X167000D02*
D03*
X118000Y3000D02*
D03*
X121000D02*
D03*
X128000D02*
D03*
X125000D02*
D03*
X132000D02*
D03*
X135000D02*
D03*
X142000D02*
D03*
X139000D02*
D03*
X146000D02*
D03*
X149000D02*
D03*
X156000D02*
D03*
X153000D02*
D03*
X160000D02*
D03*
X163000D02*
D03*
X170000D02*
D03*
X167000D02*
D03*
X91000Y124000D02*
D03*
X88000D02*
D03*
X60000Y166000D02*
D03*
X63000D02*
D03*
X70000D02*
D03*
X67000D02*
D03*
X74000D02*
D03*
X77000D02*
D03*
X84000D02*
D03*
X81000D02*
D03*
X88000D02*
D03*
X91000D02*
D03*
X98000D02*
D03*
X95000D02*
D03*
X102000D02*
D03*
X105000D02*
D03*
X112000D02*
D03*
X109000D02*
D03*
X60000Y159000D02*
D03*
X63000D02*
D03*
X70000D02*
D03*
X67000D02*
D03*
X74000D02*
D03*
X77000D02*
D03*
X84000D02*
D03*
X81000D02*
D03*
X88000D02*
D03*
X91000D02*
D03*
X98000D02*
D03*
X95000D02*
D03*
X102000D02*
D03*
X105000D02*
D03*
X112000D02*
D03*
X109000D02*
D03*
X60000Y152000D02*
D03*
X63000D02*
D03*
X70000D02*
D03*
X67000D02*
D03*
X74000D02*
D03*
X77000D02*
D03*
X84000D02*
D03*
X81000D02*
D03*
X88000D02*
D03*
X91000D02*
D03*
X98000D02*
D03*
X95000D02*
D03*
X102000D02*
D03*
X105000D02*
D03*
X112000D02*
D03*
X109000D02*
D03*
X60000Y145000D02*
D03*
X63000D02*
D03*
X70000D02*
D03*
X67000D02*
D03*
X74000D02*
D03*
X77000D02*
D03*
X84000D02*
D03*
X81000D02*
D03*
X88000D02*
D03*
X91000D02*
D03*
X98000D02*
D03*
X95000D02*
D03*
X102000D02*
D03*
X105000D02*
D03*
X112000D02*
D03*
X109000D02*
D03*
X60000Y138000D02*
D03*
X63000D02*
D03*
X70000D02*
D03*
X67000D02*
D03*
X74000D02*
D03*
X77000D02*
D03*
X84000D02*
D03*
X81000D02*
D03*
X88000D02*
D03*
X91000D02*
D03*
X98000D02*
D03*
X95000D02*
D03*
X102000D02*
D03*
X105000D02*
D03*
X112000D02*
D03*
X109000D02*
D03*
X60000Y131000D02*
D03*
X63000D02*
D03*
X70000D02*
D03*
X67000D02*
D03*
X74030Y131021D02*
D03*
X77030D02*
D03*
X84000Y131000D02*
D03*
X81000D02*
D03*
X88000D02*
D03*
X91000D02*
D03*
X98000D02*
D03*
X95000D02*
D03*
X102000D02*
D03*
X105000D02*
D03*
X112000D02*
D03*
X109000D02*
D03*
X60000Y124000D02*
D03*
X63000D02*
D03*
X70000D02*
D03*
X67000D02*
D03*
X74000D02*
D03*
X77000D02*
D03*
X84000D02*
D03*
X81000D02*
D03*
X98000D02*
D03*
X95000D02*
D03*
X102000D02*
D03*
X105000D02*
D03*
X112000D02*
D03*
X109000D02*
D03*
X60000Y117000D02*
D03*
X63000D02*
D03*
X70000D02*
D03*
X67000D02*
D03*
X74000D02*
D03*
X77000D02*
D03*
X84000D02*
D03*
X81000D02*
D03*
X88000D02*
D03*
X91000D02*
D03*
X98000D02*
D03*
X95000D02*
D03*
X102000D02*
D03*
X105000D02*
D03*
X112000D02*
D03*
X109000D02*
D03*
X91000Y67000D02*
D03*
X88000D02*
D03*
X60000Y109000D02*
D03*
X63000D02*
D03*
X70000D02*
D03*
X67000D02*
D03*
X74000D02*
D03*
X77000D02*
D03*
X84000D02*
D03*
X81000D02*
D03*
X88000D02*
D03*
X91000D02*
D03*
X98000D02*
D03*
X95000D02*
D03*
X102000D02*
D03*
X105000D02*
D03*
X112000D02*
D03*
X109000D02*
D03*
X60000Y102000D02*
D03*
X63000D02*
D03*
X70000D02*
D03*
X67000D02*
D03*
X74000D02*
D03*
X77000D02*
D03*
X84000D02*
D03*
X81000D02*
D03*
X88000D02*
D03*
X91000D02*
D03*
X98000D02*
D03*
X95000D02*
D03*
X102000D02*
D03*
X105000D02*
D03*
X112000D02*
D03*
X109000D02*
D03*
X60000Y95000D02*
D03*
X63000D02*
D03*
X70000D02*
D03*
X67000D02*
D03*
X74000D02*
D03*
X77000D02*
D03*
X84000D02*
D03*
X81000D02*
D03*
X88000D02*
D03*
X91000D02*
D03*
X98000D02*
D03*
X95000D02*
D03*
X102000D02*
D03*
X105000D02*
D03*
X112000D02*
D03*
X109000D02*
D03*
X60000Y88000D02*
D03*
X63000D02*
D03*
X70000D02*
D03*
X67000D02*
D03*
X74000D02*
D03*
X77000D02*
D03*
X84000D02*
D03*
X81000D02*
D03*
X88000D02*
D03*
X91000D02*
D03*
X98000D02*
D03*
X95000D02*
D03*
X102000D02*
D03*
X105000D02*
D03*
X112000D02*
D03*
X109000D02*
D03*
X60000Y81000D02*
D03*
X63000D02*
D03*
X70000D02*
D03*
X67000D02*
D03*
X74000D02*
D03*
X77000D02*
D03*
X84000D02*
D03*
X81000D02*
D03*
X88000D02*
D03*
X91000D02*
D03*
X98000D02*
D03*
X95000D02*
D03*
X102000D02*
D03*
X105000D02*
D03*
X112000D02*
D03*
X109000D02*
D03*
X60000Y74000D02*
D03*
X63000D02*
D03*
X70000D02*
D03*
X67000D02*
D03*
X74030Y74021D02*
D03*
X77030D02*
D03*
X84000Y74000D02*
D03*
X81000D02*
D03*
X88000D02*
D03*
X91000D02*
D03*
X98000D02*
D03*
X95000D02*
D03*
X102000D02*
D03*
X105000D02*
D03*
X112000D02*
D03*
X109000D02*
D03*
X60000Y67000D02*
D03*
X63000D02*
D03*
X70000D02*
D03*
X67000D02*
D03*
X74000D02*
D03*
X77000D02*
D03*
X84000D02*
D03*
X81000D02*
D03*
X98000D02*
D03*
X95000D02*
D03*
X102000D02*
D03*
X105000D02*
D03*
X112000D02*
D03*
X109000D02*
D03*
X60000Y60000D02*
D03*
X63000D02*
D03*
X70000D02*
D03*
X67000D02*
D03*
X74000D02*
D03*
X77000D02*
D03*
X84000D02*
D03*
X81000D02*
D03*
X88000D02*
D03*
X91000D02*
D03*
X98000D02*
D03*
X95000D02*
D03*
X102000D02*
D03*
X105000D02*
D03*
X112000D02*
D03*
X109000D02*
D03*
X91000Y10000D02*
D03*
X88000D02*
D03*
X60000Y52000D02*
D03*
X63000D02*
D03*
X70000D02*
D03*
X67000D02*
D03*
X74000D02*
D03*
X77000D02*
D03*
X84000D02*
D03*
X81000D02*
D03*
X88000D02*
D03*
X91000D02*
D03*
X98000D02*
D03*
X95000D02*
D03*
X102000D02*
D03*
X105000D02*
D03*
X112000D02*
D03*
X109000D02*
D03*
X60000Y45000D02*
D03*
X63000D02*
D03*
X70000D02*
D03*
X67000D02*
D03*
X74000D02*
D03*
X77000D02*
D03*
X84000D02*
D03*
X81000D02*
D03*
X88000D02*
D03*
X91000D02*
D03*
X98000D02*
D03*
X95000D02*
D03*
X102000D02*
D03*
X105000D02*
D03*
X112000D02*
D03*
X109000D02*
D03*
X60000Y38000D02*
D03*
X63000D02*
D03*
X70000D02*
D03*
X67000D02*
D03*
X74000D02*
D03*
X77000D02*
D03*
X84000D02*
D03*
X81000D02*
D03*
X88000D02*
D03*
X91000D02*
D03*
X98000D02*
D03*
X95000D02*
D03*
X102000D02*
D03*
X105000D02*
D03*
X112000D02*
D03*
X109000D02*
D03*
X60000Y31000D02*
D03*
X63000D02*
D03*
X70000D02*
D03*
X67000D02*
D03*
X74000D02*
D03*
X77000D02*
D03*
X84000D02*
D03*
X81000D02*
D03*
X88000D02*
D03*
X91000D02*
D03*
X98000D02*
D03*
X95000D02*
D03*
X102000D02*
D03*
X105000D02*
D03*
X112000D02*
D03*
X109000D02*
D03*
X60000Y24000D02*
D03*
X63000D02*
D03*
X70000D02*
D03*
X67000D02*
D03*
X74000D02*
D03*
X77000D02*
D03*
X84000D02*
D03*
X81000D02*
D03*
X88000D02*
D03*
X91000D02*
D03*
X98000D02*
D03*
X95000D02*
D03*
X102000D02*
D03*
X105000D02*
D03*
X112000D02*
D03*
X109000D02*
D03*
X60000Y17000D02*
D03*
X63000D02*
D03*
X70000D02*
D03*
X67000D02*
D03*
X74030Y17021D02*
D03*
X77030D02*
D03*
X84000Y17000D02*
D03*
X81000D02*
D03*
X88000D02*
D03*
X91000D02*
D03*
X98000D02*
D03*
X95000D02*
D03*
X102000D02*
D03*
X105000D02*
D03*
X112000D02*
D03*
X109000D02*
D03*
X60000Y10000D02*
D03*
X63000D02*
D03*
X70000D02*
D03*
X67000D02*
D03*
X74000D02*
D03*
X77000D02*
D03*
X84000D02*
D03*
X81000D02*
D03*
X98000D02*
D03*
X95000D02*
D03*
X102000D02*
D03*
X105000D02*
D03*
X112000D02*
D03*
X109000D02*
D03*
X60000Y3000D02*
D03*
X63000D02*
D03*
X70000D02*
D03*
X67000D02*
D03*
X74000D02*
D03*
X77000D02*
D03*
X84000D02*
D03*
X81000D02*
D03*
X88000D02*
D03*
X91000D02*
D03*
X98000D02*
D03*
X95000D02*
D03*
X102000D02*
D03*
X105000D02*
D03*
X112000D02*
D03*
X109000D02*
D03*
X33000Y124000D02*
D03*
X30000D02*
D03*
X2000Y166000D02*
D03*
X5000D02*
D03*
X12000D02*
D03*
X9000D02*
D03*
X16000D02*
D03*
X19000D02*
D03*
X26000D02*
D03*
X23000D02*
D03*
X30000D02*
D03*
X33000D02*
D03*
X40000D02*
D03*
X37000D02*
D03*
X44000D02*
D03*
X47000D02*
D03*
X54000D02*
D03*
X51000D02*
D03*
X2000Y159000D02*
D03*
X5000D02*
D03*
X12000D02*
D03*
X9000D02*
D03*
X16000D02*
D03*
X19000D02*
D03*
X26000D02*
D03*
X23000D02*
D03*
X30000D02*
D03*
X33000D02*
D03*
X40000D02*
D03*
X37000D02*
D03*
X44000D02*
D03*
X47000D02*
D03*
X54000D02*
D03*
X51000D02*
D03*
X2000Y152000D02*
D03*
X5000D02*
D03*
X12000D02*
D03*
X9000D02*
D03*
X16000D02*
D03*
X19000D02*
D03*
X26000D02*
D03*
X23000D02*
D03*
X30000D02*
D03*
X33000D02*
D03*
X40000D02*
D03*
X37000D02*
D03*
X44000D02*
D03*
X47000D02*
D03*
X54000D02*
D03*
X51000D02*
D03*
X2000Y145000D02*
D03*
X5000D02*
D03*
X12000D02*
D03*
X9000D02*
D03*
X16000D02*
D03*
X19000D02*
D03*
X26000D02*
D03*
X23000D02*
D03*
X30000D02*
D03*
X33000D02*
D03*
X40000D02*
D03*
X37000D02*
D03*
X44000D02*
D03*
X47000D02*
D03*
X54000D02*
D03*
X51000D02*
D03*
X2000Y138000D02*
D03*
X5000D02*
D03*
X12000D02*
D03*
X9000D02*
D03*
X16000D02*
D03*
X19000D02*
D03*
X26000D02*
D03*
X23000D02*
D03*
X30000D02*
D03*
X33000D02*
D03*
X40000D02*
D03*
X37000D02*
D03*
X44000D02*
D03*
X47000D02*
D03*
X54000D02*
D03*
X51000D02*
D03*
X2000Y131000D02*
D03*
X5000D02*
D03*
X12000D02*
D03*
X9000D02*
D03*
X16030Y131021D02*
D03*
X19030D02*
D03*
X26000Y131000D02*
D03*
X23000D02*
D03*
X30000D02*
D03*
X33000D02*
D03*
X40000D02*
D03*
X37000D02*
D03*
X44000D02*
D03*
X47000D02*
D03*
X54000D02*
D03*
X51000D02*
D03*
X2000Y124000D02*
D03*
X5000D02*
D03*
X12000D02*
D03*
X9000D02*
D03*
X16000D02*
D03*
X19000D02*
D03*
X26000D02*
D03*
X23000D02*
D03*
X40000D02*
D03*
X37000D02*
D03*
X44000D02*
D03*
X47000D02*
D03*
X54000D02*
D03*
X51000D02*
D03*
X2000Y117000D02*
D03*
X5000D02*
D03*
X12000D02*
D03*
X9000D02*
D03*
X16000D02*
D03*
X19000D02*
D03*
X26000D02*
D03*
X23000D02*
D03*
X30000D02*
D03*
X33000D02*
D03*
X40000D02*
D03*
X37000D02*
D03*
X44000D02*
D03*
X47000D02*
D03*
X54000D02*
D03*
X51000D02*
D03*
X33000Y67000D02*
D03*
X30000D02*
D03*
X2000Y109000D02*
D03*
X5000D02*
D03*
X12000D02*
D03*
X9000D02*
D03*
X16000D02*
D03*
X19000D02*
D03*
X26000D02*
D03*
X23000D02*
D03*
X30000D02*
D03*
X33000D02*
D03*
X40000D02*
D03*
X37000D02*
D03*
X44000D02*
D03*
X47000D02*
D03*
X54000D02*
D03*
X51000D02*
D03*
X2000Y102000D02*
D03*
X5000D02*
D03*
X12000D02*
D03*
X9000D02*
D03*
X16000D02*
D03*
X19000D02*
D03*
X26000D02*
D03*
X23000D02*
D03*
X30000D02*
D03*
X33000D02*
D03*
X40000D02*
D03*
X37000D02*
D03*
X44000D02*
D03*
X47000D02*
D03*
X54000D02*
D03*
X51000D02*
D03*
X2000Y95000D02*
D03*
X5000D02*
D03*
X12000D02*
D03*
X9000D02*
D03*
X16000D02*
D03*
X19000D02*
D03*
X26000D02*
D03*
X23000D02*
D03*
X30000D02*
D03*
X33000D02*
D03*
X40000D02*
D03*
X37000D02*
D03*
X44000D02*
D03*
X47000D02*
D03*
X54000D02*
D03*
X51000D02*
D03*
X2000Y88000D02*
D03*
X5000D02*
D03*
X12000D02*
D03*
X9000D02*
D03*
X16000D02*
D03*
X19000D02*
D03*
X26000D02*
D03*
X23000D02*
D03*
X30000D02*
D03*
X33000D02*
D03*
X40000D02*
D03*
X37000D02*
D03*
X44000D02*
D03*
X47000D02*
D03*
X54000D02*
D03*
X51000D02*
D03*
X2000Y81000D02*
D03*
X5000D02*
D03*
X12000D02*
D03*
X9000D02*
D03*
X16000D02*
D03*
X19000D02*
D03*
X26000D02*
D03*
X23000D02*
D03*
X30000D02*
D03*
X33000D02*
D03*
X40000D02*
D03*
X37000D02*
D03*
X44000D02*
D03*
X47000D02*
D03*
X54000D02*
D03*
X51000D02*
D03*
X2000Y74000D02*
D03*
X5000D02*
D03*
X12000D02*
D03*
X9000D02*
D03*
X16030Y74021D02*
D03*
X19030D02*
D03*
X26000Y74000D02*
D03*
X23000D02*
D03*
X30000D02*
D03*
X33000D02*
D03*
X40000D02*
D03*
X37000D02*
D03*
X44000D02*
D03*
X47000D02*
D03*
X54000D02*
D03*
X51000D02*
D03*
X2000Y67000D02*
D03*
X5000D02*
D03*
X12000D02*
D03*
X9000D02*
D03*
X16000D02*
D03*
X19000D02*
D03*
X26000D02*
D03*
X23000D02*
D03*
X40000D02*
D03*
X37000D02*
D03*
X44000D02*
D03*
X47000D02*
D03*
X54000D02*
D03*
X51000D02*
D03*
X2000Y60000D02*
D03*
X5000D02*
D03*
X12000D02*
D03*
X9000D02*
D03*
X16000D02*
D03*
X19000D02*
D03*
X26000D02*
D03*
X23000D02*
D03*
X30000D02*
D03*
X33000D02*
D03*
X40000D02*
D03*
X37000D02*
D03*
X44000D02*
D03*
X47000D02*
D03*
X54000D02*
D03*
X51000D02*
D03*
X33000Y10000D02*
D03*
X30000D02*
D03*
X2000Y52000D02*
D03*
X5000D02*
D03*
X12000D02*
D03*
X9000D02*
D03*
X16000D02*
D03*
X19000D02*
D03*
X26000D02*
D03*
X23000D02*
D03*
X30000D02*
D03*
X33000D02*
D03*
X40000D02*
D03*
X37000D02*
D03*
X44000D02*
D03*
X47000D02*
D03*
X54000D02*
D03*
X51000D02*
D03*
X2000Y45000D02*
D03*
X5000D02*
D03*
X12000D02*
D03*
X9000D02*
D03*
X16000D02*
D03*
X19000D02*
D03*
X26000D02*
D03*
X23000D02*
D03*
X30000D02*
D03*
X33000D02*
D03*
X40000D02*
D03*
X37000D02*
D03*
X44000D02*
D03*
X47000D02*
D03*
X54000D02*
D03*
X51000D02*
D03*
X2000Y38000D02*
D03*
X5000D02*
D03*
X12000D02*
D03*
X9000D02*
D03*
X16000D02*
D03*
X19000D02*
D03*
X26000D02*
D03*
X23000D02*
D03*
X30000D02*
D03*
X33000D02*
D03*
X40000D02*
D03*
X37000D02*
D03*
X44000D02*
D03*
X47000D02*
D03*
X54000D02*
D03*
X51000D02*
D03*
X2000Y31000D02*
D03*
X5000D02*
D03*
X12000D02*
D03*
X9000D02*
D03*
X16000D02*
D03*
X19000D02*
D03*
X26000D02*
D03*
X23000D02*
D03*
X30000D02*
D03*
X33000D02*
D03*
X40000D02*
D03*
X37000D02*
D03*
X44000D02*
D03*
X47000D02*
D03*
X54000D02*
D03*
X51000D02*
D03*
X2000Y24000D02*
D03*
X5000D02*
D03*
X12000D02*
D03*
X9000D02*
D03*
X16000D02*
D03*
X19000D02*
D03*
X26000D02*
D03*
X23000D02*
D03*
X30000D02*
D03*
X33000D02*
D03*
X40000D02*
D03*
X37000D02*
D03*
X44000D02*
D03*
X47000D02*
D03*
X54000D02*
D03*
X51000D02*
D03*
X2000Y17000D02*
D03*
X5000D02*
D03*
X12000D02*
D03*
X9000D02*
D03*
X16030Y17021D02*
D03*
X19030D02*
D03*
X26000Y17000D02*
D03*
X23000D02*
D03*
X30000D02*
D03*
X33000D02*
D03*
X40000D02*
D03*
X37000D02*
D03*
X44000D02*
D03*
X47000D02*
D03*
X54000D02*
D03*
X51000D02*
D03*
X2000Y10000D02*
D03*
X5000D02*
D03*
X12000D02*
D03*
X9000D02*
D03*
X16000D02*
D03*
X19000D02*
D03*
X26000D02*
D03*
X23000D02*
D03*
X40000D02*
D03*
X37000D02*
D03*
X44000D02*
D03*
X47000D02*
D03*
X54000D02*
D03*
X51000D02*
D03*
X2000Y3000D02*
D03*
X5000D02*
D03*
X12000D02*
D03*
X9000D02*
D03*
X16000D02*
D03*
X19000D02*
D03*
X26000D02*
D03*
X23000D02*
D03*
X30000D02*
D03*
X33000D02*
D03*
X40000D02*
D03*
X37000D02*
D03*
X44000D02*
D03*
X47000D02*
D03*
X54000D02*
D03*
X51000D02*
D03*
D13*
X135000Y135986D02*
D03*
X133621Y138000D02*
D03*
X144000Y133024D02*
D03*
X133500Y145000D02*
D03*
X136962Y152000D02*
D03*
X136141Y143313D02*
D03*
X137781Y143413D02*
D03*
X137645Y145013D02*
D03*
X136163Y148485D02*
D03*
X136903Y140771D02*
D03*
X170000Y128740D02*
D03*
X157771D02*
D03*
Y135090D02*
D03*
X147123Y137690D02*
D03*
X151097Y132042D02*
D03*
X154500Y138000D02*
D03*
X150357Y136315D02*
D03*
X143260Y135745D02*
D03*
X158672Y140170D02*
D03*
Y138000D02*
D03*
X151837Y143337D02*
D03*
X150357Y138000D02*
D03*
X162990Y127492D02*
D03*
X154500Y131000D02*
D03*
X151852Y127470D02*
D03*
X150346Y147215D02*
D03*
X151852Y147140D02*
D03*
X154500Y152000D02*
D03*
Y159000D02*
D03*
Y166000D02*
D03*
X156000Y155664D02*
D03*
X151814D02*
D03*
X151111Y150305D02*
D03*
X142000Y127492D02*
D03*
X150357Y127470D02*
D03*
X140665Y136964D02*
D03*
X137099Y138325D02*
D03*
X136300Y139154D02*
D03*
X128000Y128232D02*
D03*
X144740D02*
D03*
Y142146D02*
D03*
Y144996D02*
D03*
X144000Y148485D02*
D03*
X161500Y152000D02*
D03*
X158672Y147460D02*
D03*
X147500Y152000D02*
D03*
X147496Y160998D02*
D03*
X121000Y163792D02*
D03*
X150357D02*
D03*
X137764Y117000D02*
D03*
X144000Y141500D02*
D03*
X136300Y125966D02*
D03*
X144000Y140030D02*
D03*
X119500Y145000D02*
D03*
X130115Y141186D02*
D03*
X143300Y166011D02*
D03*
X147500Y131000D02*
D03*
X137082Y132042D02*
D03*
X140500Y131000D02*
D03*
X130115Y146624D02*
D03*
X168500Y138000D02*
D03*
X154500Y145000D02*
D03*
X140491Y161001D02*
D03*
X140538Y125946D02*
D03*
X147496D02*
D03*
X126456Y144306D02*
D03*
X126529Y138759D02*
D03*
X161500Y144260D02*
D03*
X119500Y166000D02*
D03*
Y159000D02*
D03*
Y152000D02*
D03*
Y138000D02*
D03*
Y131000D02*
D03*
Y124000D02*
D03*
X168500D02*
D03*
X154500D02*
D03*
X133500D02*
D03*
X126500D02*
D03*
X161500D02*
D03*
X168500Y117000D02*
D03*
X154500D02*
D03*
X147500D02*
D03*
X140500D02*
D03*
X133500D02*
D03*
X126500D02*
D03*
X119500D02*
D03*
X161500D02*
D03*
X168500Y131000D02*
D03*
X133500D02*
D03*
X126500D02*
D03*
X161500D02*
D03*
X168500Y145000D02*
D03*
Y152000D02*
D03*
X140500D02*
D03*
X133500D02*
D03*
X126500D02*
D03*
X161500Y159000D02*
D03*
X126500D02*
D03*
X133500D02*
D03*
X168500D02*
D03*
Y166000D02*
D03*
X161500D02*
D03*
X147500D02*
D03*
X140500D02*
D03*
X133500D02*
D03*
X126500D02*
D03*
X135000Y78986D02*
D03*
X133621Y81000D02*
D03*
X144000Y76024D02*
D03*
X133500Y88000D02*
D03*
X136962Y95000D02*
D03*
X136141Y86313D02*
D03*
X137781Y86413D02*
D03*
X137645Y88013D02*
D03*
X136163Y91485D02*
D03*
X136903Y83771D02*
D03*
X170000Y71740D02*
D03*
X157771D02*
D03*
Y78090D02*
D03*
X147123Y80690D02*
D03*
X151097Y75042D02*
D03*
X154500Y81000D02*
D03*
X150357Y79315D02*
D03*
X143260Y78745D02*
D03*
X158672Y83170D02*
D03*
Y81000D02*
D03*
X151837Y86337D02*
D03*
X150357Y81000D02*
D03*
X162990Y70491D02*
D03*
X154500Y74000D02*
D03*
X151852Y70470D02*
D03*
X150346Y90215D02*
D03*
X151852Y90140D02*
D03*
X154500Y95000D02*
D03*
Y102000D02*
D03*
Y109000D02*
D03*
X156000Y98664D02*
D03*
X151814D02*
D03*
X151111Y93305D02*
D03*
X142000Y70491D02*
D03*
X150357Y70470D02*
D03*
X140665Y79964D02*
D03*
X137099Y81325D02*
D03*
X136300Y82154D02*
D03*
X128000Y71232D02*
D03*
X144740D02*
D03*
Y85146D02*
D03*
Y87996D02*
D03*
X144000Y91485D02*
D03*
X161500Y95000D02*
D03*
X158672Y90460D02*
D03*
X147500Y95000D02*
D03*
X147496Y103998D02*
D03*
X121000Y106792D02*
D03*
X150357D02*
D03*
X137764Y60000D02*
D03*
X144000Y84500D02*
D03*
X136300Y68966D02*
D03*
X144000Y83030D02*
D03*
X119500Y88000D02*
D03*
X130115Y84186D02*
D03*
X143300Y109011D02*
D03*
X147500Y74000D02*
D03*
X137082Y75042D02*
D03*
X140500Y74000D02*
D03*
X130115Y89624D02*
D03*
X168500Y81000D02*
D03*
X154500Y88000D02*
D03*
X140491Y104001D02*
D03*
X140538Y68946D02*
D03*
X147496D02*
D03*
X126456Y87306D02*
D03*
X126529Y81759D02*
D03*
X161500Y87260D02*
D03*
X119500Y109000D02*
D03*
Y102000D02*
D03*
Y95000D02*
D03*
Y81000D02*
D03*
Y74000D02*
D03*
Y67000D02*
D03*
X168500D02*
D03*
X154500D02*
D03*
X133500D02*
D03*
X126500D02*
D03*
X161500D02*
D03*
X168500Y60000D02*
D03*
X154500D02*
D03*
X147500D02*
D03*
X140500D02*
D03*
X133500D02*
D03*
X126500D02*
D03*
X119500D02*
D03*
X161500D02*
D03*
X168500Y74000D02*
D03*
X133500D02*
D03*
X126500D02*
D03*
X161500D02*
D03*
X168500Y88000D02*
D03*
Y95000D02*
D03*
X140500D02*
D03*
X133500D02*
D03*
X126500D02*
D03*
X161500Y102000D02*
D03*
X126500D02*
D03*
X133500D02*
D03*
X168500D02*
D03*
Y109000D02*
D03*
X161500D02*
D03*
X147500D02*
D03*
X140500D02*
D03*
X133500D02*
D03*
X126500D02*
D03*
X135000Y21986D02*
D03*
X133621Y24000D02*
D03*
X144000Y19024D02*
D03*
X133500Y31000D02*
D03*
X136962Y38000D02*
D03*
X136141Y29313D02*
D03*
X137781Y29413D02*
D03*
X137645Y31013D02*
D03*
X136163Y34485D02*
D03*
X136903Y26771D02*
D03*
X170000Y14740D02*
D03*
X157771D02*
D03*
Y21090D02*
D03*
X147123Y23690D02*
D03*
X151097Y18042D02*
D03*
X154500Y24000D02*
D03*
X150357Y22315D02*
D03*
X143259Y21745D02*
D03*
X158672Y26170D02*
D03*
Y24000D02*
D03*
X151837Y29337D02*
D03*
X150357Y24000D02*
D03*
X162990Y13491D02*
D03*
X154500Y17000D02*
D03*
X151852Y13470D02*
D03*
X150346Y33215D02*
D03*
X151852Y33140D02*
D03*
X154500Y38000D02*
D03*
Y45000D02*
D03*
Y52000D02*
D03*
X156000Y41664D02*
D03*
X151814D02*
D03*
X151111Y36305D02*
D03*
X142000Y13491D02*
D03*
X150357Y13470D02*
D03*
X140665Y22964D02*
D03*
X137099Y24325D02*
D03*
X136300Y25154D02*
D03*
X128000Y14232D02*
D03*
X144740D02*
D03*
Y28146D02*
D03*
Y30996D02*
D03*
X144000Y34485D02*
D03*
X161500Y38000D02*
D03*
X158672Y33460D02*
D03*
X147500Y38000D02*
D03*
X147496Y46998D02*
D03*
X121000Y49792D02*
D03*
X150357D02*
D03*
X137764Y3000D02*
D03*
X144000Y27500D02*
D03*
X136300Y11966D02*
D03*
X144000Y26030D02*
D03*
X119500Y31000D02*
D03*
X130115Y27186D02*
D03*
X143300Y52011D02*
D03*
X147500Y17000D02*
D03*
X137082Y18042D02*
D03*
X140500Y17000D02*
D03*
X130115Y32624D02*
D03*
X168500Y24000D02*
D03*
X154500Y31000D02*
D03*
X140491Y47001D02*
D03*
X140538Y11946D02*
D03*
X147496D02*
D03*
X126456Y30306D02*
D03*
X126529Y24759D02*
D03*
X161500Y30260D02*
D03*
X119500Y52000D02*
D03*
Y45000D02*
D03*
Y38000D02*
D03*
Y24000D02*
D03*
Y17000D02*
D03*
Y10000D02*
D03*
X168500D02*
D03*
X154500D02*
D03*
X133500D02*
D03*
X126500D02*
D03*
X161500D02*
D03*
X168500Y3000D02*
D03*
X154500D02*
D03*
X147500D02*
D03*
X140500D02*
D03*
X133500D02*
D03*
X126500D02*
D03*
X119500D02*
D03*
X161500D02*
D03*
X168500Y17000D02*
D03*
X133500D02*
D03*
X126500D02*
D03*
X161500D02*
D03*
X168500Y31000D02*
D03*
Y38000D02*
D03*
X140500D02*
D03*
X133500D02*
D03*
X126500D02*
D03*
X161500Y45000D02*
D03*
X126500D02*
D03*
X133500D02*
D03*
X168500D02*
D03*
Y52000D02*
D03*
X161500D02*
D03*
X147500D02*
D03*
X140500D02*
D03*
X133500D02*
D03*
X126500D02*
D03*
X77000Y135986D02*
D03*
X75621Y138000D02*
D03*
X86000Y133024D02*
D03*
X75500Y145000D02*
D03*
X78962Y152000D02*
D03*
X78141Y143313D02*
D03*
X79781Y143413D02*
D03*
X79645Y145013D02*
D03*
X78163Y148485D02*
D03*
X78903Y140771D02*
D03*
X112000Y128740D02*
D03*
X99771D02*
D03*
Y135090D02*
D03*
X89123Y137690D02*
D03*
X93097Y132042D02*
D03*
X96500Y138000D02*
D03*
X92357Y136315D02*
D03*
X85259Y135745D02*
D03*
X100672Y140170D02*
D03*
Y138000D02*
D03*
X93837Y143337D02*
D03*
X92357Y138000D02*
D03*
X104990Y127492D02*
D03*
X96500Y131000D02*
D03*
X93852Y127470D02*
D03*
X92346Y147215D02*
D03*
X93852Y147140D02*
D03*
X96500Y152000D02*
D03*
Y159000D02*
D03*
Y166000D02*
D03*
X98000Y155664D02*
D03*
X93814D02*
D03*
X93111Y150305D02*
D03*
X84000Y127492D02*
D03*
X92357Y127470D02*
D03*
X82665Y136964D02*
D03*
X79099Y138325D02*
D03*
X78300Y139154D02*
D03*
X70000Y128232D02*
D03*
X86741D02*
D03*
Y142146D02*
D03*
Y144996D02*
D03*
X86000Y148485D02*
D03*
X103500Y152000D02*
D03*
X100672Y147460D02*
D03*
X89500Y152000D02*
D03*
X89496Y160998D02*
D03*
X63000Y163792D02*
D03*
X92357D02*
D03*
X79764Y117000D02*
D03*
X86000Y141500D02*
D03*
X78300Y125966D02*
D03*
X86000Y140030D02*
D03*
X61500Y145000D02*
D03*
X72115Y141186D02*
D03*
X85300Y166011D02*
D03*
X89500Y131000D02*
D03*
X79082Y132042D02*
D03*
X82500Y131000D02*
D03*
X72115Y146624D02*
D03*
X110500Y138000D02*
D03*
X96500Y145000D02*
D03*
X82491Y161001D02*
D03*
X82538Y125946D02*
D03*
X89496D02*
D03*
X68456Y144306D02*
D03*
X68529Y138759D02*
D03*
X103500Y144260D02*
D03*
X61500Y166000D02*
D03*
Y159000D02*
D03*
Y152000D02*
D03*
Y138000D02*
D03*
Y131000D02*
D03*
Y124000D02*
D03*
X110500D02*
D03*
X96500D02*
D03*
X75500D02*
D03*
X68500D02*
D03*
X103500D02*
D03*
X110500Y117000D02*
D03*
X96500D02*
D03*
X89500D02*
D03*
X82500D02*
D03*
X75500D02*
D03*
X68500D02*
D03*
X61500D02*
D03*
X103500D02*
D03*
X110500Y131000D02*
D03*
X75500D02*
D03*
X68500D02*
D03*
X103500D02*
D03*
X110500Y145000D02*
D03*
Y152000D02*
D03*
X82500D02*
D03*
X75500D02*
D03*
X68500D02*
D03*
X103500Y159000D02*
D03*
X68500D02*
D03*
X75500D02*
D03*
X110500D02*
D03*
Y166000D02*
D03*
X103500D02*
D03*
X89500D02*
D03*
X82500D02*
D03*
X75500D02*
D03*
X68500D02*
D03*
X77000Y78986D02*
D03*
X75621Y81000D02*
D03*
X86000Y76024D02*
D03*
X75500Y88000D02*
D03*
X78962Y95000D02*
D03*
X78141Y86313D02*
D03*
X79781Y86413D02*
D03*
X79645Y88013D02*
D03*
X78163Y91485D02*
D03*
X78903Y83771D02*
D03*
X112000Y71740D02*
D03*
X99771D02*
D03*
Y78090D02*
D03*
X89123Y80690D02*
D03*
X93097Y75042D02*
D03*
X96500Y81000D02*
D03*
X92357Y79315D02*
D03*
X85259Y78745D02*
D03*
X100672Y83170D02*
D03*
Y81000D02*
D03*
X93837Y86337D02*
D03*
X92357Y81000D02*
D03*
X104990Y70491D02*
D03*
X96500Y74000D02*
D03*
X93852Y70470D02*
D03*
X92346Y90215D02*
D03*
X93852Y90140D02*
D03*
X96500Y95000D02*
D03*
Y102000D02*
D03*
Y109000D02*
D03*
X98000Y98664D02*
D03*
X93814D02*
D03*
X93111Y93305D02*
D03*
X84000Y70491D02*
D03*
X92357Y70470D02*
D03*
X82665Y79964D02*
D03*
X79099Y81325D02*
D03*
X78300Y82154D02*
D03*
X70000Y71232D02*
D03*
X86741D02*
D03*
Y85146D02*
D03*
Y87996D02*
D03*
X86000Y91485D02*
D03*
X103500Y95000D02*
D03*
X100672Y90460D02*
D03*
X89500Y95000D02*
D03*
X89496Y103998D02*
D03*
X63000Y106792D02*
D03*
X92357D02*
D03*
X79764Y60000D02*
D03*
X86000Y84500D02*
D03*
X78300Y68966D02*
D03*
X86000Y83030D02*
D03*
X61500Y88000D02*
D03*
X72115Y84186D02*
D03*
X85300Y109011D02*
D03*
X89500Y74000D02*
D03*
X79082Y75042D02*
D03*
X82500Y74000D02*
D03*
X72115Y89624D02*
D03*
X110500Y81000D02*
D03*
X96500Y88000D02*
D03*
X82491Y104001D02*
D03*
X82538Y68946D02*
D03*
X89496D02*
D03*
X68456Y87306D02*
D03*
X68529Y81759D02*
D03*
X103500Y87260D02*
D03*
X61500Y109000D02*
D03*
Y102000D02*
D03*
Y95000D02*
D03*
Y81000D02*
D03*
Y74000D02*
D03*
Y67000D02*
D03*
X110500D02*
D03*
X96500D02*
D03*
X75500D02*
D03*
X68500D02*
D03*
X103500D02*
D03*
X110500Y60000D02*
D03*
X96500D02*
D03*
X89500D02*
D03*
X82500D02*
D03*
X75500D02*
D03*
X68500D02*
D03*
X61500D02*
D03*
X103500D02*
D03*
X110500Y74000D02*
D03*
X75500D02*
D03*
X68500D02*
D03*
X103500D02*
D03*
X110500Y88000D02*
D03*
Y95000D02*
D03*
X82500D02*
D03*
X75500D02*
D03*
X68500D02*
D03*
X103500Y102000D02*
D03*
X68500D02*
D03*
X75500D02*
D03*
X110500D02*
D03*
Y109000D02*
D03*
X103500D02*
D03*
X89500D02*
D03*
X82500D02*
D03*
X75500D02*
D03*
X68500D02*
D03*
X77000Y21986D02*
D03*
X75621Y24000D02*
D03*
X86000Y19024D02*
D03*
X75500Y31000D02*
D03*
X78962Y38000D02*
D03*
X78141Y29313D02*
D03*
X79781Y29413D02*
D03*
X79645Y31013D02*
D03*
X78163Y34485D02*
D03*
X78903Y26771D02*
D03*
X112000Y14740D02*
D03*
X99771D02*
D03*
Y21090D02*
D03*
X89123Y23690D02*
D03*
X93097Y18042D02*
D03*
X96500Y24000D02*
D03*
X92357Y22315D02*
D03*
X85259Y21745D02*
D03*
X100672Y26170D02*
D03*
Y24000D02*
D03*
X93837Y29337D02*
D03*
X92357Y24000D02*
D03*
X104990Y13491D02*
D03*
X96500Y17000D02*
D03*
X93852Y13470D02*
D03*
X92346Y33215D02*
D03*
X93852Y33140D02*
D03*
X96500Y38000D02*
D03*
Y45000D02*
D03*
Y52000D02*
D03*
X98000Y41664D02*
D03*
X93814D02*
D03*
X93111Y36305D02*
D03*
X84000Y13491D02*
D03*
X92357Y13470D02*
D03*
X82665Y22964D02*
D03*
X79099Y24325D02*
D03*
X78300Y25154D02*
D03*
X70000Y14232D02*
D03*
X86741D02*
D03*
Y28146D02*
D03*
Y30996D02*
D03*
X86000Y34485D02*
D03*
X103500Y38000D02*
D03*
X100672Y33460D02*
D03*
X89500Y38000D02*
D03*
X89496Y46998D02*
D03*
X63000Y49792D02*
D03*
X92357D02*
D03*
X79764Y3000D02*
D03*
X86000Y27500D02*
D03*
X78300Y11966D02*
D03*
X86000Y26030D02*
D03*
X61500Y31000D02*
D03*
X72115Y27186D02*
D03*
X85300Y52011D02*
D03*
X89500Y17000D02*
D03*
X79082Y18042D02*
D03*
X82500Y17000D02*
D03*
X72115Y32624D02*
D03*
X110500Y24000D02*
D03*
X96500Y31000D02*
D03*
X82491Y47001D02*
D03*
X82538Y11946D02*
D03*
X89496D02*
D03*
X68456Y30306D02*
D03*
X68529Y24759D02*
D03*
X103500Y30260D02*
D03*
X61500Y52000D02*
D03*
Y45000D02*
D03*
Y38000D02*
D03*
Y24000D02*
D03*
Y17000D02*
D03*
Y10000D02*
D03*
X110500D02*
D03*
X96500D02*
D03*
X75500D02*
D03*
X68500D02*
D03*
X103500D02*
D03*
X110500Y3000D02*
D03*
X96500D02*
D03*
X89500D02*
D03*
X82500D02*
D03*
X75500D02*
D03*
X68500D02*
D03*
X61500D02*
D03*
X103500D02*
D03*
X110500Y17000D02*
D03*
X75500D02*
D03*
X68500D02*
D03*
X103500D02*
D03*
X110500Y31000D02*
D03*
Y38000D02*
D03*
X82500D02*
D03*
X75500D02*
D03*
X68500D02*
D03*
X103500Y45000D02*
D03*
X68500D02*
D03*
X75500D02*
D03*
X110500D02*
D03*
Y52000D02*
D03*
X103500D02*
D03*
X89500D02*
D03*
X82500D02*
D03*
X75500D02*
D03*
X68500D02*
D03*
X19000Y135986D02*
D03*
X17621Y138000D02*
D03*
X28000Y133024D02*
D03*
X17500Y145000D02*
D03*
X20962Y152000D02*
D03*
X20141Y143313D02*
D03*
X21781Y143413D02*
D03*
X21645Y145013D02*
D03*
X20163Y148485D02*
D03*
X20903Y140771D02*
D03*
X54000Y128740D02*
D03*
X41771D02*
D03*
Y135090D02*
D03*
X31123Y137690D02*
D03*
X35097Y132042D02*
D03*
X38500Y138000D02*
D03*
X34357Y136315D02*
D03*
X27260Y135745D02*
D03*
X42672Y140170D02*
D03*
Y138000D02*
D03*
X35837Y143337D02*
D03*
X34357Y138000D02*
D03*
X46990Y127492D02*
D03*
X38500Y131000D02*
D03*
X35852Y127470D02*
D03*
X34346Y147215D02*
D03*
X35852Y147140D02*
D03*
X38500Y152000D02*
D03*
Y159000D02*
D03*
Y166000D02*
D03*
X40000Y155664D02*
D03*
X35814D02*
D03*
X35111Y150305D02*
D03*
X26000Y127492D02*
D03*
X34357Y127470D02*
D03*
X24665Y136964D02*
D03*
X21099Y138325D02*
D03*
X20300Y139154D02*
D03*
X12000Y128232D02*
D03*
X28740D02*
D03*
Y142146D02*
D03*
Y144996D02*
D03*
X28000Y148485D02*
D03*
X45500Y152000D02*
D03*
X42672Y147460D02*
D03*
X31500Y152000D02*
D03*
X31496Y160998D02*
D03*
X5000Y163792D02*
D03*
X34357D02*
D03*
X21764Y117000D02*
D03*
X28000Y141500D02*
D03*
X20300Y125966D02*
D03*
X28000Y140030D02*
D03*
X3500Y145000D02*
D03*
X14115Y141186D02*
D03*
X27300Y166011D02*
D03*
X31500Y131000D02*
D03*
X21082Y132042D02*
D03*
X24500Y131000D02*
D03*
X14115Y146624D02*
D03*
X52500Y138000D02*
D03*
X38500Y145000D02*
D03*
X24491Y161001D02*
D03*
X24538Y125946D02*
D03*
X31496D02*
D03*
X10456Y144306D02*
D03*
X10529Y138759D02*
D03*
X45500Y144260D02*
D03*
X3500Y166000D02*
D03*
Y159000D02*
D03*
Y152000D02*
D03*
Y138000D02*
D03*
Y131000D02*
D03*
Y124000D02*
D03*
X52500D02*
D03*
X38500D02*
D03*
X17500D02*
D03*
X10500D02*
D03*
X45500D02*
D03*
X52500Y117000D02*
D03*
X38500D02*
D03*
X31500D02*
D03*
X24500D02*
D03*
X17500D02*
D03*
X10500D02*
D03*
X3500D02*
D03*
X45500D02*
D03*
X52500Y131000D02*
D03*
X17500D02*
D03*
X10500D02*
D03*
X45500D02*
D03*
X52500Y145000D02*
D03*
Y152000D02*
D03*
X24500D02*
D03*
X17500D02*
D03*
X10500D02*
D03*
X45500Y159000D02*
D03*
X10500D02*
D03*
X17500D02*
D03*
X52500D02*
D03*
Y166000D02*
D03*
X45500D02*
D03*
X31500D02*
D03*
X24500D02*
D03*
X17500D02*
D03*
X10500D02*
D03*
X19000Y78986D02*
D03*
X17621Y81000D02*
D03*
X28000Y76024D02*
D03*
X17500Y88000D02*
D03*
X20962Y95000D02*
D03*
X20141Y86313D02*
D03*
X21781Y86413D02*
D03*
X21645Y88013D02*
D03*
X20163Y91485D02*
D03*
X20903Y83771D02*
D03*
X54000Y71740D02*
D03*
X41771D02*
D03*
Y78090D02*
D03*
X31123Y80690D02*
D03*
X35097Y75042D02*
D03*
X38500Y81000D02*
D03*
X34357Y79315D02*
D03*
X27260Y78745D02*
D03*
X42672Y83170D02*
D03*
Y81000D02*
D03*
X35837Y86337D02*
D03*
X34357Y81000D02*
D03*
X46990Y70492D02*
D03*
X38500Y74000D02*
D03*
X35852Y70470D02*
D03*
X34346Y90215D02*
D03*
X35852Y90140D02*
D03*
X38500Y95000D02*
D03*
Y102000D02*
D03*
Y109000D02*
D03*
X40000Y98664D02*
D03*
X35814D02*
D03*
X35111Y93305D02*
D03*
X26000Y70492D02*
D03*
X34357Y70470D02*
D03*
X24665Y79964D02*
D03*
X21099Y81325D02*
D03*
X20300Y82154D02*
D03*
X12000Y71232D02*
D03*
X28740D02*
D03*
Y85146D02*
D03*
Y87996D02*
D03*
X28000Y91485D02*
D03*
X45500Y95000D02*
D03*
X42672Y90460D02*
D03*
X31500Y95000D02*
D03*
X31496Y103998D02*
D03*
X5000Y106792D02*
D03*
X34357D02*
D03*
X21764Y60000D02*
D03*
X28000Y84500D02*
D03*
X20300Y68966D02*
D03*
X28000Y83030D02*
D03*
X3500Y88000D02*
D03*
X14115Y84186D02*
D03*
X27300Y109011D02*
D03*
X31500Y74000D02*
D03*
X21082Y75042D02*
D03*
X24500Y74000D02*
D03*
X14115Y89624D02*
D03*
X52500Y81000D02*
D03*
X38500Y88000D02*
D03*
X24491Y104001D02*
D03*
X24538Y68946D02*
D03*
X31496D02*
D03*
X10456Y87306D02*
D03*
X10529Y81759D02*
D03*
X45500Y87260D02*
D03*
X3500Y109000D02*
D03*
Y102000D02*
D03*
Y95000D02*
D03*
Y81000D02*
D03*
Y74000D02*
D03*
Y67000D02*
D03*
X52500D02*
D03*
X38500D02*
D03*
X17500D02*
D03*
X10500D02*
D03*
X45500D02*
D03*
X52500Y60000D02*
D03*
X38500D02*
D03*
X31500D02*
D03*
X24500D02*
D03*
X17500D02*
D03*
X10500D02*
D03*
X3500D02*
D03*
X45500D02*
D03*
X52500Y74000D02*
D03*
X17500D02*
D03*
X10500D02*
D03*
X45500D02*
D03*
X52500Y88000D02*
D03*
Y95000D02*
D03*
X24500D02*
D03*
X17500D02*
D03*
X10500D02*
D03*
X45500Y102000D02*
D03*
X10500D02*
D03*
X17500D02*
D03*
X52500D02*
D03*
Y109000D02*
D03*
X45500D02*
D03*
X31500D02*
D03*
X24500D02*
D03*
X17500D02*
D03*
X10500D02*
D03*
X19000Y21986D02*
D03*
X17621Y24000D02*
D03*
X28000Y19024D02*
D03*
X17500Y31000D02*
D03*
X20962Y38000D02*
D03*
X20141Y29313D02*
D03*
X21781Y29413D02*
D03*
X21645Y31013D02*
D03*
X20163Y34485D02*
D03*
X20903Y26771D02*
D03*
X54000Y14740D02*
D03*
X41771D02*
D03*
Y21090D02*
D03*
X31123Y23690D02*
D03*
X35097Y18042D02*
D03*
X38500Y24000D02*
D03*
X34357Y22315D02*
D03*
X27260Y21745D02*
D03*
X42672Y26170D02*
D03*
Y24000D02*
D03*
X35837Y29337D02*
D03*
X34357Y24000D02*
D03*
X46990Y13491D02*
D03*
X38500Y17000D02*
D03*
X35852Y13470D02*
D03*
X34346Y33215D02*
D03*
X35852Y33140D02*
D03*
X38500Y38000D02*
D03*
Y45000D02*
D03*
Y52000D02*
D03*
X40000Y41664D02*
D03*
X35814D02*
D03*
X35111Y36305D02*
D03*
X26000Y13491D02*
D03*
X34357Y13470D02*
D03*
X24665Y22964D02*
D03*
X21099Y24325D02*
D03*
X20300Y25154D02*
D03*
X12000Y14232D02*
D03*
X28740D02*
D03*
Y28146D02*
D03*
Y30996D02*
D03*
X28000Y34485D02*
D03*
X45500Y38000D02*
D03*
X42672Y33460D02*
D03*
X31500Y38000D02*
D03*
X31496Y46998D02*
D03*
X5000Y49792D02*
D03*
X34357D02*
D03*
X21764Y3000D02*
D03*
X28000Y27500D02*
D03*
X20300Y11966D02*
D03*
X28000Y26030D02*
D03*
X3500Y31000D02*
D03*
X14115Y27186D02*
D03*
X27300Y52011D02*
D03*
X31500Y17000D02*
D03*
X21082Y18042D02*
D03*
X24500Y17000D02*
D03*
X14115Y32624D02*
D03*
X52500Y24000D02*
D03*
X38500Y31000D02*
D03*
X24491Y47001D02*
D03*
X24538Y11946D02*
D03*
X31496D02*
D03*
X10456Y30306D02*
D03*
X10529Y24759D02*
D03*
X45500Y30260D02*
D03*
X3500Y52000D02*
D03*
Y45000D02*
D03*
Y38000D02*
D03*
Y24000D02*
D03*
Y17000D02*
D03*
Y10000D02*
D03*
X52500D02*
D03*
X38500D02*
D03*
X17500D02*
D03*
X10500D02*
D03*
X45500D02*
D03*
X52500Y3000D02*
D03*
X38500D02*
D03*
X31500D02*
D03*
X24500D02*
D03*
X17500D02*
D03*
X10500D02*
D03*
X3500D02*
D03*
X45500D02*
D03*
X52500Y17000D02*
D03*
X17500D02*
D03*
X10500D02*
D03*
X45500D02*
D03*
X52500Y31000D02*
D03*
Y38000D02*
D03*
X24500D02*
D03*
X17500D02*
D03*
X10500D02*
D03*
X45500Y45000D02*
D03*
X10500D02*
D03*
X17500D02*
D03*
X52500D02*
D03*
Y52000D02*
D03*
X45500D02*
D03*
X31500D02*
D03*
X24500D02*
D03*
X17500D02*
D03*
X10500D02*
D03*
%TF.MD5,d9ee43abdd0cce17fc75bb3d0833deb9*%
M02*
