%TF.GenerationSoftware,Altium Limited,Altium Designer,21.6.1 (37)*%
G04 Layer_Color=32896*
%FSLAX43Y43*%
%MOMM*%
%TF.SameCoordinates,8D5B277E-474B-43DD-86F4-B2073A371E15*%
%TF.FilePolarity,Positive*%
%TF.FileFunction,Legend,Bot*%
%TF.Part,CustomerPanel*%
G01*
G75*
%TA.AperFunction,NonConductor*%
%ADD22C,0.200*%
%ADD23C,0.250*%
%ADD24C,0.500*%
%ADD25C,0.254*%
%ADD26C,0.152*%
D22*
X138420Y168610D02*
X149580D01*
X138420Y160450D02*
X149580D01*
Y168610D01*
X138420Y160450D02*
Y168610D01*
X116390Y135920D02*
X124550D01*
X116390Y147080D02*
X124550D01*
Y135920D02*
Y147080D01*
X116390Y135920D02*
Y147080D01*
X171024Y138010D02*
X171575D01*
X171024Y137370D02*
X171575D01*
X171024D02*
Y138010D01*
Y140550D02*
X171575D01*
X171024Y139910D02*
X171575D01*
X171024D02*
Y140550D01*
Y143090D02*
X171575D01*
X171024Y142450D02*
X171575D01*
X171024D02*
Y143090D01*
Y145630D02*
X171575D01*
X171024Y144990D02*
X171575D01*
X171024D02*
Y145630D01*
X167425Y146730D02*
X171575D01*
Y136270D02*
Y146730D01*
X167425Y136270D02*
X171575D01*
X167425D02*
Y146730D01*
X138770Y118575D02*
X149230D01*
X138770Y114425D02*
Y118575D01*
Y114425D02*
X149230D01*
Y118575D01*
X147490Y114976D02*
X148130D01*
X147490Y114425D02*
Y114976D01*
X148130Y114425D02*
Y114976D01*
X144950D02*
X145590D01*
X144950Y114425D02*
Y114976D01*
X145590Y114425D02*
Y114976D01*
X142410D02*
X143050D01*
X142410Y114425D02*
Y114976D01*
X143050Y114425D02*
Y114976D01*
X139870D02*
X140510D01*
X139870Y114425D02*
Y114976D01*
X140510Y114425D02*
Y114976D01*
X141121Y133800D02*
X146879D01*
Y149200D01*
X141121D02*
X146879D01*
X141121Y133800D02*
Y149200D01*
X138420Y111610D02*
X149580D01*
X138420Y103450D02*
X149580D01*
Y111610D01*
X138420Y103450D02*
Y111610D01*
X116390Y78920D02*
X124550D01*
X116390Y90080D02*
X124550D01*
Y78920D02*
Y90080D01*
X116390Y78920D02*
Y90080D01*
X171024Y81010D02*
X171575D01*
X171024Y80370D02*
X171575D01*
X171024D02*
Y81010D01*
Y83550D02*
X171575D01*
X171024Y82910D02*
X171575D01*
X171024D02*
Y83550D01*
Y86090D02*
X171575D01*
X171024Y85450D02*
X171575D01*
X171024D02*
Y86090D01*
Y88630D02*
X171575D01*
X171024Y87990D02*
X171575D01*
X171024D02*
Y88630D01*
X167425Y89730D02*
X171575D01*
Y79270D02*
Y89730D01*
X167425Y79270D02*
X171575D01*
X167425D02*
Y89730D01*
X138770Y61575D02*
X149230D01*
X138770Y57425D02*
Y61575D01*
Y57425D02*
X149230D01*
Y61575D01*
X147490Y57976D02*
X148130D01*
X147490Y57425D02*
Y57976D01*
X148130Y57425D02*
Y57976D01*
X144950D02*
X145590D01*
X144950Y57425D02*
Y57976D01*
X145590Y57425D02*
Y57976D01*
X142410D02*
X143050D01*
X142410Y57425D02*
Y57976D01*
X143050Y57425D02*
Y57976D01*
X139870D02*
X140510D01*
X139870Y57425D02*
Y57976D01*
X140510Y57425D02*
Y57976D01*
X141121Y76800D02*
X146879D01*
Y92200D01*
X141121D02*
X146879D01*
X141121Y76800D02*
Y92200D01*
X138420Y54610D02*
X149580D01*
X138420Y46450D02*
X149580D01*
Y54610D01*
X138420Y46450D02*
Y54610D01*
X116390Y21920D02*
X124550D01*
X116390Y33080D02*
X124550D01*
Y21920D02*
Y33080D01*
X116390Y21920D02*
Y33080D01*
X171024Y24010D02*
X171575D01*
X171024Y23370D02*
X171575D01*
X171024D02*
Y24010D01*
Y26550D02*
X171575D01*
X171024Y25910D02*
X171575D01*
X171024D02*
Y26550D01*
Y29090D02*
X171575D01*
X171024Y28450D02*
X171575D01*
X171024D02*
Y29090D01*
Y31630D02*
X171575D01*
X171024Y30990D02*
X171575D01*
X171024D02*
Y31630D01*
X167425Y32730D02*
X171575D01*
Y22270D02*
Y32730D01*
X167425Y22270D02*
X171575D01*
X167425D02*
Y32730D01*
X138770Y4575D02*
X149230D01*
X138770Y425D02*
Y4575D01*
Y425D02*
X149230D01*
Y4575D01*
X147490Y976D02*
X148130D01*
X147490Y425D02*
Y976D01*
X148130Y425D02*
Y976D01*
X144950D02*
X145590D01*
X144950Y425D02*
Y976D01*
X145590Y425D02*
Y976D01*
X142410D02*
X143050D01*
X142410Y425D02*
Y976D01*
X143050Y425D02*
Y976D01*
X139870D02*
X140510D01*
X139870Y425D02*
Y976D01*
X140510Y425D02*
Y976D01*
X141121Y19800D02*
X146879D01*
Y35200D01*
X141121D02*
X146879D01*
X141121Y19800D02*
Y35200D01*
X80420Y168610D02*
X91580D01*
X80420Y160450D02*
X91580D01*
Y168610D01*
X80420Y160450D02*
Y168610D01*
X58390Y135920D02*
X66550D01*
X58390Y147080D02*
X66550D01*
Y135920D02*
Y147080D01*
X58390Y135920D02*
Y147080D01*
X113024Y138010D02*
X113575D01*
X113024Y137370D02*
X113575D01*
X113024D02*
Y138010D01*
Y140550D02*
X113575D01*
X113024Y139910D02*
X113575D01*
X113024D02*
Y140550D01*
Y143090D02*
X113575D01*
X113024Y142450D02*
X113575D01*
X113024D02*
Y143090D01*
Y145630D02*
X113575D01*
X113024Y144990D02*
X113575D01*
X113024D02*
Y145630D01*
X109425Y146730D02*
X113575D01*
Y136270D02*
Y146730D01*
X109425Y136270D02*
X113575D01*
X109425D02*
Y146730D01*
X80770Y118575D02*
X91230D01*
X80770Y114425D02*
Y118575D01*
Y114425D02*
X91230D01*
Y118575D01*
X89490Y114976D02*
X90130D01*
X89490Y114425D02*
Y114976D01*
X90130Y114425D02*
Y114976D01*
X86950D02*
X87590D01*
X86950Y114425D02*
Y114976D01*
X87590Y114425D02*
Y114976D01*
X84410D02*
X85050D01*
X84410Y114425D02*
Y114976D01*
X85050Y114425D02*
Y114976D01*
X81870D02*
X82510D01*
X81870Y114425D02*
Y114976D01*
X82510Y114425D02*
Y114976D01*
X83121Y133800D02*
X88879D01*
Y149200D01*
X83121D02*
X88879D01*
X83121Y133800D02*
Y149200D01*
X80420Y111610D02*
X91580D01*
X80420Y103450D02*
X91580D01*
Y111610D01*
X80420Y103450D02*
Y111610D01*
X58390Y78920D02*
X66550D01*
X58390Y90080D02*
X66550D01*
Y78920D02*
Y90080D01*
X58390Y78920D02*
Y90080D01*
X113024Y81010D02*
X113575D01*
X113024Y80370D02*
X113575D01*
X113024D02*
Y81010D01*
Y83550D02*
X113575D01*
X113024Y82910D02*
X113575D01*
X113024D02*
Y83550D01*
Y86090D02*
X113575D01*
X113024Y85450D02*
X113575D01*
X113024D02*
Y86090D01*
Y88630D02*
X113575D01*
X113024Y87990D02*
X113575D01*
X113024D02*
Y88630D01*
X109425Y89730D02*
X113575D01*
Y79270D02*
Y89730D01*
X109425Y79270D02*
X113575D01*
X109425D02*
Y89730D01*
X80770Y61575D02*
X91230D01*
X80770Y57425D02*
Y61575D01*
Y57425D02*
X91230D01*
Y61575D01*
X89490Y57976D02*
X90130D01*
X89490Y57425D02*
Y57976D01*
X90130Y57425D02*
Y57976D01*
X86950D02*
X87590D01*
X86950Y57425D02*
Y57976D01*
X87590Y57425D02*
Y57976D01*
X84410D02*
X85050D01*
X84410Y57425D02*
Y57976D01*
X85050Y57425D02*
Y57976D01*
X81870D02*
X82510D01*
X81870Y57425D02*
Y57976D01*
X82510Y57425D02*
Y57976D01*
X83121Y76800D02*
X88879D01*
Y92200D01*
X83121D02*
X88879D01*
X83121Y76800D02*
Y92200D01*
X80420Y54610D02*
X91580D01*
X80420Y46450D02*
X91580D01*
Y54610D01*
X80420Y46450D02*
Y54610D01*
X58390Y21920D02*
X66550D01*
X58390Y33080D02*
X66550D01*
Y21920D02*
Y33080D01*
X58390Y21920D02*
Y33080D01*
X113024Y24010D02*
X113575D01*
X113024Y23370D02*
X113575D01*
X113024D02*
Y24010D01*
Y26550D02*
X113575D01*
X113024Y25910D02*
X113575D01*
X113024D02*
Y26550D01*
Y29090D02*
X113575D01*
X113024Y28450D02*
X113575D01*
X113024D02*
Y29090D01*
Y31630D02*
X113575D01*
X113024Y30990D02*
X113575D01*
X113024D02*
Y31630D01*
X109425Y32730D02*
X113575D01*
Y22270D02*
Y32730D01*
X109425Y22270D02*
X113575D01*
X109425D02*
Y32730D01*
X80770Y4575D02*
X91230D01*
X80770Y425D02*
Y4575D01*
Y425D02*
X91230D01*
Y4575D01*
X89490Y976D02*
X90130D01*
X89490Y425D02*
Y976D01*
X90130Y425D02*
Y976D01*
X86950D02*
X87590D01*
X86950Y425D02*
Y976D01*
X87590Y425D02*
Y976D01*
X84410D02*
X85050D01*
X84410Y425D02*
Y976D01*
X85050Y425D02*
Y976D01*
X81870D02*
X82510D01*
X81870Y425D02*
Y976D01*
X82510Y425D02*
Y976D01*
X83121Y19800D02*
X88879D01*
Y35200D01*
X83121D02*
X88879D01*
X83121Y19800D02*
Y35200D01*
X22420Y168610D02*
X33580D01*
X22420Y160450D02*
X33580D01*
Y168610D01*
X22420Y160450D02*
Y168610D01*
X390Y135920D02*
X8550D01*
X390Y147080D02*
X8550D01*
Y135920D02*
Y147080D01*
X390Y135920D02*
Y147080D01*
X55024Y138010D02*
X55575D01*
X55024Y137370D02*
X55575D01*
X55024D02*
Y138010D01*
Y140550D02*
X55575D01*
X55024Y139910D02*
X55575D01*
X55024D02*
Y140550D01*
Y143090D02*
X55575D01*
X55024Y142450D02*
X55575D01*
X55024D02*
Y143090D01*
Y145630D02*
X55575D01*
X55024Y144990D02*
X55575D01*
X55024D02*
Y145630D01*
X51425Y146730D02*
X55575D01*
Y136270D02*
Y146730D01*
X51425Y136270D02*
X55575D01*
X51425D02*
Y146730D01*
X22770Y118575D02*
X33230D01*
X22770Y114425D02*
Y118575D01*
Y114425D02*
X33230D01*
Y118575D01*
X31490Y114976D02*
X32130D01*
X31490Y114425D02*
Y114976D01*
X32130Y114425D02*
Y114976D01*
X28950D02*
X29590D01*
X28950Y114425D02*
Y114976D01*
X29590Y114425D02*
Y114976D01*
X26410D02*
X27050D01*
X26410Y114425D02*
Y114976D01*
X27050Y114425D02*
Y114976D01*
X23870D02*
X24510D01*
X23870Y114425D02*
Y114976D01*
X24510Y114425D02*
Y114976D01*
X25121Y133800D02*
X30879D01*
Y149200D01*
X25121D02*
X30879D01*
X25121Y133800D02*
Y149200D01*
X22420Y111610D02*
X33580D01*
X22420Y103450D02*
X33580D01*
Y111610D01*
X22420Y103450D02*
Y111610D01*
X390Y78920D02*
X8550D01*
X390Y90080D02*
X8550D01*
Y78920D02*
Y90080D01*
X390Y78920D02*
Y90080D01*
X55024Y81010D02*
X55575D01*
X55024Y80370D02*
X55575D01*
X55024D02*
Y81010D01*
Y83550D02*
X55575D01*
X55024Y82910D02*
X55575D01*
X55024D02*
Y83550D01*
Y86090D02*
X55575D01*
X55024Y85450D02*
X55575D01*
X55024D02*
Y86090D01*
Y88630D02*
X55575D01*
X55024Y87990D02*
X55575D01*
X55024D02*
Y88630D01*
X51425Y89730D02*
X55575D01*
Y79270D02*
Y89730D01*
X51425Y79270D02*
X55575D01*
X51425D02*
Y89730D01*
X22770Y61575D02*
X33230D01*
X22770Y57425D02*
Y61575D01*
Y57425D02*
X33230D01*
Y61575D01*
X31490Y57976D02*
X32130D01*
X31490Y57425D02*
Y57976D01*
X32130Y57425D02*
Y57976D01*
X28950D02*
X29590D01*
X28950Y57425D02*
Y57976D01*
X29590Y57425D02*
Y57976D01*
X26410D02*
X27050D01*
X26410Y57425D02*
Y57976D01*
X27050Y57425D02*
Y57976D01*
X23870D02*
X24510D01*
X23870Y57425D02*
Y57976D01*
X24510Y57425D02*
Y57976D01*
X25121Y76800D02*
X30879D01*
Y92200D01*
X25121D02*
X30879D01*
X25121Y76800D02*
Y92200D01*
X22420Y54610D02*
X33580D01*
X22420Y46450D02*
X33580D01*
Y54610D01*
X22420Y46450D02*
Y54610D01*
X390Y21920D02*
X8550D01*
X390Y33080D02*
X8550D01*
Y21920D02*
Y33080D01*
X390Y21920D02*
Y33080D01*
X55024Y24010D02*
X55575D01*
X55024Y23370D02*
X55575D01*
X55024D02*
Y24010D01*
Y26550D02*
X55575D01*
X55024Y25910D02*
X55575D01*
X55024D02*
Y26550D01*
Y29090D02*
X55575D01*
X55024Y28450D02*
X55575D01*
X55024D02*
Y29090D01*
Y31630D02*
X55575D01*
X55024Y30990D02*
X55575D01*
X55024D02*
Y31630D01*
X51425Y32730D02*
X55575D01*
Y22270D02*
Y32730D01*
X51425Y22270D02*
X55575D01*
X51425D02*
Y32730D01*
X22770Y4575D02*
X33230D01*
X22770Y425D02*
Y4575D01*
Y425D02*
X33230D01*
Y4575D01*
X31490Y976D02*
X32130D01*
X31490Y425D02*
Y976D01*
X32130Y425D02*
Y976D01*
X28950D02*
X29590D01*
X28950Y425D02*
Y976D01*
X29590Y425D02*
Y976D01*
X26410D02*
X27050D01*
X26410Y425D02*
Y976D01*
X27050Y425D02*
Y976D01*
X23870D02*
X24510D01*
X23870Y425D02*
Y976D01*
X24510Y425D02*
Y976D01*
X25121Y19800D02*
X30879D01*
Y35200D01*
X25121D02*
X30879D01*
X25121Y19800D02*
Y35200D01*
D23*
X137948Y134515D02*
G03*
X137948Y134515I-125J0D01*
G01*
X137948Y77515D02*
G03*
X137948Y77515I-125J0D01*
G01*
X137948Y20515D02*
G03*
X137948Y20515I-125J0D01*
G01*
X79948Y134515D02*
G03*
X79948Y134515I-125J0D01*
G01*
Y77515D02*
G03*
X79948Y77515I-125J0D01*
G01*
Y20515D02*
G03*
X79948Y20515I-125J0D01*
G01*
X21948Y134515D02*
G03*
X21948Y134515I-125J0D01*
G01*
Y77515D02*
G03*
X21948Y77515I-125J0D01*
G01*
Y20515D02*
G03*
X21948Y20515I-125J0D01*
G01*
D24*
X142121Y134550D02*
G03*
X142121Y134550I-250J0D01*
G01*
X142121Y77550D02*
G03*
X142121Y77550I-250J0D01*
G01*
X142121Y20550D02*
G03*
X142121Y20550I-250J0D01*
G01*
X84121Y134550D02*
G03*
X84121Y134550I-250J0D01*
G01*
Y77550D02*
G03*
X84121Y77550I-250J0D01*
G01*
Y20550D02*
G03*
X84121Y20550I-250J0D01*
G01*
X26121Y134550D02*
G03*
X26121Y134550I-250J0D01*
G01*
Y77550D02*
G03*
X26121Y77550I-250J0D01*
G01*
Y20550D02*
G03*
X26121Y20550I-250J0D01*
G01*
D25*
X161204Y135336D02*
X165621D01*
X170179Y167365D02*
X170856D01*
X170179Y168042D01*
Y168212D01*
X170348Y168381D01*
X170687D01*
X170856Y168212D01*
X169840Y167365D02*
X169502D01*
X169671D01*
Y168381D01*
X169840Y168212D01*
X168317Y167365D02*
X168994D01*
X168317Y168042D01*
Y168212D01*
X168486Y168381D01*
X168825D01*
X168994Y168212D01*
X167301Y168381D02*
X167640Y168212D01*
X167978Y167873D01*
Y167535D01*
X167809Y167365D01*
X167470D01*
X167301Y167535D01*
Y167704D01*
X167470Y167873D01*
X167978D01*
X166963Y167196D02*
X166285D01*
X165947Y167365D02*
X165608D01*
X165778D01*
Y168381D01*
X165947Y168212D01*
X165101Y167196D02*
X164423D01*
X164085Y168381D02*
Y167365D01*
X163577D01*
X163408Y167535D01*
Y167704D01*
X163577Y167873D01*
X164085D01*
X163577D01*
X163408Y168042D01*
Y168212D01*
X163577Y168381D01*
X164085D01*
X163069Y167196D02*
X162392D01*
X162054Y167365D02*
Y168381D01*
X161546D01*
X161376Y168212D01*
Y167873D01*
X161546Y167704D01*
X162054D01*
X161715D02*
X161376Y167365D01*
X160361Y168212D02*
X160530Y168381D01*
X160869D01*
X161038Y168212D01*
Y167535D01*
X160869Y167365D01*
X160530D01*
X160361Y167535D01*
X138270Y122262D02*
X137254Y120738D01*
Y122262D02*
X138270Y120738D01*
X135984D02*
Y122262D01*
X136746Y121500D01*
X135730D01*
X165006Y134828D02*
X163990Y133304D01*
Y134828D02*
X165006Y133304D01*
X163482Y134574D02*
X163228Y134828D01*
X162720D01*
X162466Y134574D01*
Y134320D01*
X162720Y134066D01*
X162974D01*
X162720D01*
X162466Y133812D01*
Y133558D01*
X162720Y133304D01*
X163228D01*
X163482Y133558D01*
X129470Y149262D02*
X128454Y147738D01*
Y149262D02*
X129470Y147738D01*
X126930D02*
X127946D01*
X126930Y148754D01*
Y149008D01*
X127184Y149262D01*
X127692D01*
X127946Y149008D01*
X153016Y157562D02*
X152000Y156038D01*
Y157562D02*
X153016Y156038D01*
X151492D02*
X150984D01*
X151238D01*
Y157562D01*
X151492Y157308D01*
X144702Y151600D02*
Y150330D01*
X144448Y150076D01*
X143940D01*
X143686Y150330D01*
Y151600D01*
X143178Y150076D02*
X142670D01*
X142924D01*
Y151600D01*
X143178Y151346D01*
X155001Y144424D02*
Y145947D01*
X154239D01*
X153986Y145694D01*
Y145186D01*
X154239Y144932D01*
X155001D01*
X154493D02*
X153986Y144424D01*
X153478D02*
X152970D01*
X153224D01*
Y145947D01*
X153478Y145694D01*
X144000Y130010D02*
X144254Y130264D01*
X144762D01*
X145016Y130010D01*
Y128994D01*
X144762Y128740D01*
X144254D01*
X144000Y128994D01*
X143492Y128740D02*
X142984D01*
X143238D01*
Y130264D01*
X143492Y130010D01*
X161204Y78336D02*
X165621D01*
X170179Y110365D02*
X170856D01*
X170179Y111042D01*
Y111212D01*
X170348Y111381D01*
X170687D01*
X170856Y111212D01*
X169840Y110365D02*
X169502D01*
X169671D01*
Y111381D01*
X169840Y111212D01*
X168317Y110365D02*
X168994D01*
X168317Y111042D01*
Y111212D01*
X168486Y111381D01*
X168825D01*
X168994Y111212D01*
X167301Y111381D02*
X167640Y111212D01*
X167978Y110873D01*
Y110535D01*
X167809Y110365D01*
X167470D01*
X167301Y110535D01*
Y110704D01*
X167470Y110873D01*
X167978D01*
X166963Y110196D02*
X166285D01*
X165947Y110365D02*
X165608D01*
X165778D01*
Y111381D01*
X165947Y111212D01*
X165101Y110196D02*
X164423D01*
X164085Y111381D02*
Y110365D01*
X163577D01*
X163408Y110535D01*
Y110704D01*
X163577Y110873D01*
X164085D01*
X163577D01*
X163408Y111042D01*
Y111212D01*
X163577Y111381D01*
X164085D01*
X163069Y110196D02*
X162392D01*
X162053Y110365D02*
Y111381D01*
X161546D01*
X161376Y111212D01*
Y110873D01*
X161546Y110704D01*
X162053D01*
X161715D02*
X161376Y110365D01*
X160361Y111212D02*
X160530Y111381D01*
X160869D01*
X161038Y111212D01*
Y110535D01*
X160869Y110365D01*
X160530D01*
X160361Y110535D01*
X138270Y65262D02*
X137254Y63738D01*
Y65262D02*
X138270Y63738D01*
X135984D02*
Y65262D01*
X136746Y64500D01*
X135730D01*
X165006Y77828D02*
X163990Y76304D01*
Y77828D02*
X165006Y76304D01*
X163482Y77574D02*
X163228Y77828D01*
X162720D01*
X162466Y77574D01*
Y77320D01*
X162720Y77066D01*
X162974D01*
X162720D01*
X162466Y76812D01*
Y76558D01*
X162720Y76304D01*
X163228D01*
X163482Y76558D01*
X129470Y92262D02*
X128454Y90738D01*
Y92262D02*
X129470Y90738D01*
X126930D02*
X127946D01*
X126930Y91754D01*
Y92008D01*
X127184Y92262D01*
X127692D01*
X127946Y92008D01*
X153016Y100562D02*
X152000Y99038D01*
Y100562D02*
X153016Y99038D01*
X151492D02*
X150984D01*
X151238D01*
Y100562D01*
X151492Y100308D01*
X144702Y94600D02*
Y93330D01*
X144448Y93076D01*
X143940D01*
X143686Y93330D01*
Y94600D01*
X143178Y93076D02*
X142670D01*
X142924D01*
Y94600D01*
X143178Y94346D01*
X155001Y87424D02*
Y88948D01*
X154239D01*
X153986Y88694D01*
Y88186D01*
X154239Y87932D01*
X155001D01*
X154493D02*
X153986Y87424D01*
X153478D02*
X152970D01*
X153224D01*
Y88948D01*
X153478Y88694D01*
X144000Y73010D02*
X144254Y73264D01*
X144762D01*
X145016Y73010D01*
Y71994D01*
X144762Y71740D01*
X144254D01*
X144000Y71994D01*
X143492Y71740D02*
X142984D01*
X143238D01*
Y73264D01*
X143492Y73010D01*
X161204Y21336D02*
X165621D01*
X170179Y53365D02*
X170856D01*
X170179Y54042D01*
Y54212D01*
X170348Y54381D01*
X170687D01*
X170856Y54212D01*
X169840Y53365D02*
X169502D01*
X169671D01*
Y54381D01*
X169840Y54212D01*
X168317Y53365D02*
X168994D01*
X168317Y54042D01*
Y54212D01*
X168486Y54381D01*
X168825D01*
X168994Y54212D01*
X167301Y54381D02*
X167640Y54212D01*
X167978Y53873D01*
Y53535D01*
X167809Y53365D01*
X167470D01*
X167301Y53535D01*
Y53704D01*
X167470Y53873D01*
X167978D01*
X166963Y53196D02*
X166285D01*
X165947Y53365D02*
X165608D01*
X165778D01*
Y54381D01*
X165947Y54212D01*
X165101Y53196D02*
X164423D01*
X164085Y54381D02*
Y53365D01*
X163577D01*
X163408Y53535D01*
Y53704D01*
X163577Y53873D01*
X164085D01*
X163577D01*
X163408Y54042D01*
Y54212D01*
X163577Y54381D01*
X164085D01*
X163069Y53196D02*
X162392D01*
X162053Y53365D02*
Y54381D01*
X161546D01*
X161376Y54212D01*
Y53873D01*
X161546Y53704D01*
X162053D01*
X161715D02*
X161376Y53365D01*
X160361Y54212D02*
X160530Y54381D01*
X160869D01*
X161038Y54212D01*
Y53535D01*
X160869Y53365D01*
X160530D01*
X160361Y53535D01*
X138270Y8262D02*
X137254Y6738D01*
Y8262D02*
X138270Y6738D01*
X135984D02*
Y8262D01*
X136746Y7500D01*
X135730D01*
X165006Y20828D02*
X163990Y19304D01*
Y20828D02*
X165006Y19304D01*
X163482Y20574D02*
X163228Y20828D01*
X162720D01*
X162466Y20574D01*
Y20320D01*
X162720Y20066D01*
X162974D01*
X162720D01*
X162466Y19812D01*
Y19558D01*
X162720Y19304D01*
X163228D01*
X163482Y19558D01*
X129470Y35262D02*
X128454Y33738D01*
Y35262D02*
X129470Y33738D01*
X126930D02*
X127946D01*
X126930Y34754D01*
Y35008D01*
X127184Y35262D01*
X127692D01*
X127946Y35008D01*
X153016Y43562D02*
X152000Y42038D01*
Y43562D02*
X153016Y42038D01*
X151492D02*
X150984D01*
X151238D01*
Y43562D01*
X151492Y43308D01*
X144702Y37600D02*
Y36330D01*
X144448Y36076D01*
X143940D01*
X143686Y36330D01*
Y37600D01*
X143178Y36076D02*
X142670D01*
X142924D01*
Y37600D01*
X143178Y37346D01*
X155001Y30424D02*
Y31948D01*
X154239D01*
X153986Y31694D01*
Y31186D01*
X154239Y30932D01*
X155001D01*
X154493D02*
X153986Y30424D01*
X153478D02*
X152970D01*
X153224D01*
Y31948D01*
X153478Y31694D01*
X144000Y16010D02*
X144254Y16264D01*
X144762D01*
X145016Y16010D01*
Y14994D01*
X144762Y14740D01*
X144254D01*
X144000Y14994D01*
X143492Y14740D02*
X142984D01*
X143238D01*
Y16264D01*
X143492Y16010D01*
X103204Y135336D02*
X107621D01*
X112179Y167365D02*
X112856D01*
X112179Y168042D01*
Y168212D01*
X112348Y168381D01*
X112687D01*
X112856Y168212D01*
X111840Y167365D02*
X111502D01*
X111671D01*
Y168381D01*
X111840Y168212D01*
X110317Y167365D02*
X110994D01*
X110317Y168042D01*
Y168212D01*
X110486Y168381D01*
X110825D01*
X110994Y168212D01*
X109301Y168381D02*
X109640Y168212D01*
X109978Y167873D01*
Y167535D01*
X109809Y167365D01*
X109470D01*
X109301Y167535D01*
Y167704D01*
X109470Y167873D01*
X109978D01*
X108963Y167196D02*
X108285D01*
X107947Y167365D02*
X107608D01*
X107778D01*
Y168381D01*
X107947Y168212D01*
X107101Y167196D02*
X106423D01*
X106085Y168381D02*
Y167365D01*
X105577D01*
X105408Y167535D01*
Y167704D01*
X105577Y167873D01*
X106085D01*
X105577D01*
X105408Y168042D01*
Y168212D01*
X105577Y168381D01*
X106085D01*
X105069Y167196D02*
X104392D01*
X104053Y167365D02*
Y168381D01*
X103546D01*
X103376Y168212D01*
Y167873D01*
X103546Y167704D01*
X104053D01*
X103715D02*
X103376Y167365D01*
X102361Y168212D02*
X102530Y168381D01*
X102869D01*
X103038Y168212D01*
Y167535D01*
X102869Y167365D01*
X102530D01*
X102361Y167535D01*
X80270Y122262D02*
X79254Y120738D01*
Y122262D02*
X80270Y120738D01*
X77984D02*
Y122262D01*
X78746Y121500D01*
X77730D01*
X107006Y134828D02*
X105990Y133304D01*
Y134828D02*
X107006Y133304D01*
X105482Y134574D02*
X105228Y134828D01*
X104720D01*
X104466Y134574D01*
Y134320D01*
X104720Y134066D01*
X104974D01*
X104720D01*
X104466Y133812D01*
Y133558D01*
X104720Y133304D01*
X105228D01*
X105482Y133558D01*
X71470Y149262D02*
X70454Y147738D01*
Y149262D02*
X71470Y147738D01*
X68930D02*
X69946D01*
X68930Y148754D01*
Y149008D01*
X69184Y149262D01*
X69692D01*
X69946Y149008D01*
X95016Y157562D02*
X94000Y156038D01*
Y157562D02*
X95016Y156038D01*
X93492D02*
X92984D01*
X93238D01*
Y157562D01*
X93492Y157308D01*
X86702Y151600D02*
Y150330D01*
X86448Y150076D01*
X85940D01*
X85686Y150330D01*
Y151600D01*
X85178Y150076D02*
X84670D01*
X84924D01*
Y151600D01*
X85178Y151346D01*
X97001Y144424D02*
Y145947D01*
X96239D01*
X95986Y145694D01*
Y145186D01*
X96239Y144932D01*
X97001D01*
X96493D02*
X95986Y144424D01*
X95478D02*
X94970D01*
X95224D01*
Y145947D01*
X95478Y145694D01*
X86000Y130010D02*
X86254Y130264D01*
X86762D01*
X87016Y130010D01*
Y128994D01*
X86762Y128740D01*
X86254D01*
X86000Y128994D01*
X85492Y128740D02*
X84984D01*
X85238D01*
Y130264D01*
X85492Y130010D01*
X103204Y78336D02*
X107621D01*
X112179Y110365D02*
X112856D01*
X112179Y111042D01*
Y111212D01*
X112348Y111381D01*
X112687D01*
X112856Y111212D01*
X111840Y110365D02*
X111502D01*
X111671D01*
Y111381D01*
X111840Y111212D01*
X110317Y110365D02*
X110994D01*
X110317Y111042D01*
Y111212D01*
X110486Y111381D01*
X110825D01*
X110994Y111212D01*
X109301Y111381D02*
X109640Y111212D01*
X109978Y110873D01*
Y110535D01*
X109809Y110365D01*
X109470D01*
X109301Y110535D01*
Y110704D01*
X109470Y110873D01*
X109978D01*
X108963Y110196D02*
X108285D01*
X107947Y110365D02*
X107608D01*
X107778D01*
Y111381D01*
X107947Y111212D01*
X107101Y110196D02*
X106423D01*
X106085Y111381D02*
Y110365D01*
X105577D01*
X105408Y110535D01*
Y110704D01*
X105577Y110873D01*
X106085D01*
X105577D01*
X105408Y111042D01*
Y111212D01*
X105577Y111381D01*
X106085D01*
X105069Y110196D02*
X104392D01*
X104053Y110365D02*
Y111381D01*
X103546D01*
X103376Y111212D01*
Y110873D01*
X103546Y110704D01*
X104053D01*
X103715D02*
X103376Y110365D01*
X102361Y111212D02*
X102530Y111381D01*
X102869D01*
X103038Y111212D01*
Y110535D01*
X102869Y110365D01*
X102530D01*
X102361Y110535D01*
X80270Y65262D02*
X79254Y63738D01*
Y65262D02*
X80270Y63738D01*
X77984D02*
Y65262D01*
X78746Y64500D01*
X77730D01*
X107006Y77828D02*
X105990Y76304D01*
Y77828D02*
X107006Y76304D01*
X105482Y77574D02*
X105228Y77828D01*
X104720D01*
X104466Y77574D01*
Y77320D01*
X104720Y77066D01*
X104974D01*
X104720D01*
X104466Y76812D01*
Y76558D01*
X104720Y76304D01*
X105228D01*
X105482Y76558D01*
X71470Y92262D02*
X70454Y90738D01*
Y92262D02*
X71470Y90738D01*
X68930D02*
X69946D01*
X68930Y91754D01*
Y92008D01*
X69184Y92262D01*
X69692D01*
X69946Y92008D01*
X95016Y100562D02*
X94000Y99038D01*
Y100562D02*
X95016Y99038D01*
X93492D02*
X92984D01*
X93238D01*
Y100562D01*
X93492Y100308D01*
X86702Y94600D02*
Y93330D01*
X86448Y93076D01*
X85940D01*
X85686Y93330D01*
Y94600D01*
X85178Y93076D02*
X84670D01*
X84924D01*
Y94600D01*
X85178Y94346D01*
X97001Y87424D02*
Y88948D01*
X96239D01*
X95986Y88694D01*
Y88186D01*
X96239Y87932D01*
X97001D01*
X96493D02*
X95986Y87424D01*
X95478D02*
X94970D01*
X95224D01*
Y88948D01*
X95478Y88694D01*
X86000Y73010D02*
X86254Y73264D01*
X86762D01*
X87016Y73010D01*
Y71994D01*
X86762Y71740D01*
X86254D01*
X86000Y71994D01*
X85492Y71740D02*
X84984D01*
X85238D01*
Y73264D01*
X85492Y73010D01*
X103204Y21336D02*
X107621D01*
X112179Y53365D02*
X112856D01*
X112179Y54042D01*
Y54212D01*
X112348Y54381D01*
X112687D01*
X112856Y54212D01*
X111840Y53365D02*
X111502D01*
X111671D01*
Y54381D01*
X111840Y54212D01*
X110317Y53365D02*
X110994D01*
X110317Y54042D01*
Y54212D01*
X110486Y54381D01*
X110825D01*
X110994Y54212D01*
X109301Y54381D02*
X109640Y54212D01*
X109978Y53873D01*
Y53535D01*
X109809Y53365D01*
X109470D01*
X109301Y53535D01*
Y53704D01*
X109470Y53873D01*
X109978D01*
X108963Y53196D02*
X108285D01*
X107947Y53365D02*
X107608D01*
X107778D01*
Y54381D01*
X107947Y54212D01*
X107101Y53196D02*
X106423D01*
X106085Y54381D02*
Y53365D01*
X105577D01*
X105408Y53535D01*
Y53704D01*
X105577Y53873D01*
X106085D01*
X105577D01*
X105408Y54042D01*
Y54212D01*
X105577Y54381D01*
X106085D01*
X105069Y53196D02*
X104392D01*
X104053Y53365D02*
Y54381D01*
X103546D01*
X103376Y54212D01*
Y53873D01*
X103546Y53704D01*
X104053D01*
X103715D02*
X103376Y53365D01*
X102361Y54212D02*
X102530Y54381D01*
X102869D01*
X103038Y54212D01*
Y53535D01*
X102869Y53365D01*
X102530D01*
X102361Y53535D01*
X80270Y8262D02*
X79254Y6738D01*
Y8262D02*
X80270Y6738D01*
X77984D02*
Y8262D01*
X78746Y7500D01*
X77730D01*
X107006Y20828D02*
X105990Y19304D01*
Y20828D02*
X107006Y19304D01*
X105482Y20574D02*
X105228Y20828D01*
X104720D01*
X104466Y20574D01*
Y20320D01*
X104720Y20066D01*
X104974D01*
X104720D01*
X104466Y19812D01*
Y19558D01*
X104720Y19304D01*
X105228D01*
X105482Y19558D01*
X71470Y35262D02*
X70454Y33738D01*
Y35262D02*
X71470Y33738D01*
X68930D02*
X69946D01*
X68930Y34754D01*
Y35008D01*
X69184Y35262D01*
X69692D01*
X69946Y35008D01*
X95016Y43562D02*
X94000Y42038D01*
Y43562D02*
X95016Y42038D01*
X93492D02*
X92984D01*
X93238D01*
Y43562D01*
X93492Y43308D01*
X86702Y37600D02*
Y36330D01*
X86448Y36076D01*
X85940D01*
X85686Y36330D01*
Y37600D01*
X85178Y36076D02*
X84670D01*
X84924D01*
Y37600D01*
X85178Y37346D01*
X97001Y30424D02*
Y31948D01*
X96239D01*
X95986Y31694D01*
Y31186D01*
X96239Y30932D01*
X97001D01*
X96493D02*
X95986Y30424D01*
X95478D02*
X94970D01*
X95224D01*
Y31948D01*
X95478Y31694D01*
X86000Y16010D02*
X86254Y16264D01*
X86762D01*
X87016Y16010D01*
Y14994D01*
X86762Y14740D01*
X86254D01*
X86000Y14994D01*
X85492Y14740D02*
X84984D01*
X85238D01*
Y16264D01*
X85492Y16010D01*
X45204Y135336D02*
X49621D01*
X54179Y167365D02*
X54856D01*
X54179Y168042D01*
Y168212D01*
X54348Y168381D01*
X54687D01*
X54856Y168212D01*
X53840Y167365D02*
X53502D01*
X53671D01*
Y168381D01*
X53840Y168212D01*
X52317Y167365D02*
X52994D01*
X52317Y168042D01*
Y168212D01*
X52486Y168381D01*
X52825D01*
X52994Y168212D01*
X51301Y168381D02*
X51640Y168212D01*
X51978Y167873D01*
Y167535D01*
X51809Y167365D01*
X51470D01*
X51301Y167535D01*
Y167704D01*
X51470Y167873D01*
X51978D01*
X50963Y167196D02*
X50285D01*
X49947Y167365D02*
X49608D01*
X49778D01*
Y168381D01*
X49947Y168212D01*
X49101Y167196D02*
X48423D01*
X48085Y168381D02*
Y167365D01*
X47577D01*
X47408Y167535D01*
Y167704D01*
X47577Y167873D01*
X48085D01*
X47577D01*
X47408Y168042D01*
Y168212D01*
X47577Y168381D01*
X48085D01*
X47069Y167196D02*
X46392D01*
X46054Y167365D02*
Y168381D01*
X45546D01*
X45376Y168212D01*
Y167873D01*
X45546Y167704D01*
X46054D01*
X45715D02*
X45376Y167365D01*
X44361Y168212D02*
X44530Y168381D01*
X44869D01*
X45038Y168212D01*
Y167535D01*
X44869Y167365D01*
X44530D01*
X44361Y167535D01*
X22270Y122262D02*
X21254Y120738D01*
Y122262D02*
X22270Y120738D01*
X19984D02*
Y122262D01*
X20746Y121500D01*
X19730D01*
X49006Y134828D02*
X47990Y133304D01*
Y134828D02*
X49006Y133304D01*
X47482Y134574D02*
X47228Y134828D01*
X46720D01*
X46466Y134574D01*
Y134320D01*
X46720Y134066D01*
X46974D01*
X46720D01*
X46466Y133812D01*
Y133558D01*
X46720Y133304D01*
X47228D01*
X47482Y133558D01*
X13470Y149262D02*
X12454Y147738D01*
Y149262D02*
X13470Y147738D01*
X10930D02*
X11946D01*
X10930Y148754D01*
Y149008D01*
X11184Y149262D01*
X11692D01*
X11946Y149008D01*
X37016Y157562D02*
X36000Y156038D01*
Y157562D02*
X37016Y156038D01*
X35492D02*
X34984D01*
X35238D01*
Y157562D01*
X35492Y157308D01*
X28702Y151600D02*
Y150330D01*
X28448Y150076D01*
X27940D01*
X27686Y150330D01*
Y151600D01*
X27178Y150076D02*
X26670D01*
X26924D01*
Y151600D01*
X27178Y151346D01*
X39001Y144424D02*
Y145948D01*
X38239D01*
X37986Y145694D01*
Y145186D01*
X38239Y144932D01*
X39001D01*
X38493D02*
X37986Y144424D01*
X37478D02*
X36970D01*
X37224D01*
Y145948D01*
X37478Y145694D01*
X28000Y130010D02*
X28254Y130264D01*
X28762D01*
X29016Y130010D01*
Y128994D01*
X28762Y128740D01*
X28254D01*
X28000Y128994D01*
X27492Y128740D02*
X26984D01*
X27238D01*
Y130264D01*
X27492Y130010D01*
X45204Y78336D02*
X49621D01*
X54179Y110365D02*
X54856D01*
X54179Y111042D01*
Y111212D01*
X54348Y111381D01*
X54687D01*
X54856Y111212D01*
X53840Y110365D02*
X53502D01*
X53671D01*
Y111381D01*
X53840Y111212D01*
X52317Y110365D02*
X52994D01*
X52317Y111042D01*
Y111212D01*
X52486Y111381D01*
X52825D01*
X52994Y111212D01*
X51301Y111381D02*
X51640Y111212D01*
X51978Y110873D01*
Y110535D01*
X51809Y110365D01*
X51470D01*
X51301Y110535D01*
Y110704D01*
X51470Y110873D01*
X51978D01*
X50963Y110196D02*
X50285D01*
X49947Y110365D02*
X49608D01*
X49778D01*
Y111381D01*
X49947Y111212D01*
X49101Y110196D02*
X48423D01*
X48085Y111381D02*
Y110365D01*
X47577D01*
X47408Y110535D01*
Y110704D01*
X47577Y110873D01*
X48085D01*
X47577D01*
X47408Y111042D01*
Y111212D01*
X47577Y111381D01*
X48085D01*
X47069Y110196D02*
X46392D01*
X46054Y110365D02*
Y111381D01*
X45546D01*
X45376Y111212D01*
Y110873D01*
X45546Y110704D01*
X46054D01*
X45715D02*
X45376Y110365D01*
X44361Y111212D02*
X44530Y111381D01*
X44869D01*
X45038Y111212D01*
Y110535D01*
X44869Y110365D01*
X44530D01*
X44361Y110535D01*
X22270Y65262D02*
X21254Y63738D01*
Y65262D02*
X22270Y63738D01*
X19984D02*
Y65262D01*
X20746Y64500D01*
X19730D01*
X49006Y77828D02*
X47990Y76304D01*
Y77828D02*
X49006Y76304D01*
X47482Y77574D02*
X47228Y77828D01*
X46720D01*
X46466Y77574D01*
Y77320D01*
X46720Y77066D01*
X46974D01*
X46720D01*
X46466Y76812D01*
Y76558D01*
X46720Y76304D01*
X47228D01*
X47482Y76558D01*
X13470Y92262D02*
X12454Y90738D01*
Y92262D02*
X13470Y90738D01*
X10930D02*
X11946D01*
X10930Y91754D01*
Y92008D01*
X11184Y92262D01*
X11692D01*
X11946Y92008D01*
X37016Y100562D02*
X36000Y99038D01*
Y100562D02*
X37016Y99038D01*
X35492D02*
X34984D01*
X35238D01*
Y100562D01*
X35492Y100308D01*
X28702Y94600D02*
Y93330D01*
X28448Y93076D01*
X27940D01*
X27686Y93330D01*
Y94600D01*
X27178Y93076D02*
X26670D01*
X26924D01*
Y94600D01*
X27178Y94346D01*
X39001Y87424D02*
Y88948D01*
X38239D01*
X37986Y88694D01*
Y88186D01*
X38239Y87932D01*
X39001D01*
X38493D02*
X37986Y87424D01*
X37478D02*
X36970D01*
X37224D01*
Y88948D01*
X37478Y88694D01*
X28000Y73010D02*
X28254Y73264D01*
X28762D01*
X29016Y73010D01*
Y71994D01*
X28762Y71740D01*
X28254D01*
X28000Y71994D01*
X27492Y71740D02*
X26984D01*
X27238D01*
Y73264D01*
X27492Y73010D01*
X45204Y21336D02*
X49621D01*
X54179Y53365D02*
X54856D01*
X54179Y54042D01*
Y54212D01*
X54348Y54381D01*
X54687D01*
X54856Y54212D01*
X53840Y53365D02*
X53502D01*
X53671D01*
Y54381D01*
X53840Y54212D01*
X52317Y53365D02*
X52994D01*
X52317Y54042D01*
Y54212D01*
X52486Y54381D01*
X52825D01*
X52994Y54212D01*
X51301Y54381D02*
X51640Y54212D01*
X51978Y53873D01*
Y53535D01*
X51809Y53365D01*
X51470D01*
X51301Y53535D01*
Y53704D01*
X51470Y53873D01*
X51978D01*
X50963Y53196D02*
X50285D01*
X49947Y53365D02*
X49608D01*
X49778D01*
Y54381D01*
X49947Y54212D01*
X49101Y53196D02*
X48423D01*
X48085Y54381D02*
Y53365D01*
X47577D01*
X47408Y53535D01*
Y53704D01*
X47577Y53873D01*
X48085D01*
X47577D01*
X47408Y54042D01*
Y54212D01*
X47577Y54381D01*
X48085D01*
X47069Y53196D02*
X46392D01*
X46054Y53365D02*
Y54381D01*
X45546D01*
X45376Y54212D01*
Y53873D01*
X45546Y53704D01*
X46054D01*
X45715D02*
X45376Y53365D01*
X44361Y54212D02*
X44530Y54381D01*
X44869D01*
X45038Y54212D01*
Y53535D01*
X44869Y53365D01*
X44530D01*
X44361Y53535D01*
X22270Y8262D02*
X21254Y6738D01*
Y8262D02*
X22270Y6738D01*
X19984D02*
Y8262D01*
X20746Y7500D01*
X19730D01*
X49006Y20828D02*
X47990Y19304D01*
Y20828D02*
X49006Y19304D01*
X47482Y20574D02*
X47228Y20828D01*
X46720D01*
X46466Y20574D01*
Y20320D01*
X46720Y20066D01*
X46974D01*
X46720D01*
X46466Y19812D01*
Y19558D01*
X46720Y19304D01*
X47228D01*
X47482Y19558D01*
X13470Y35262D02*
X12454Y33738D01*
Y35262D02*
X13470Y33738D01*
X10930D02*
X11946D01*
X10930Y34754D01*
Y35008D01*
X11184Y35262D01*
X11692D01*
X11946Y35008D01*
X37016Y43562D02*
X36000Y42038D01*
Y43562D02*
X37016Y42038D01*
X35492D02*
X34984D01*
X35238D01*
Y43562D01*
X35492Y43308D01*
X28702Y37600D02*
Y36330D01*
X28448Y36076D01*
X27940D01*
X27686Y36330D01*
Y37600D01*
X27178Y36076D02*
X26670D01*
X26924D01*
Y37600D01*
X27178Y37346D01*
X39001Y30424D02*
Y31948D01*
X38239D01*
X37986Y31694D01*
Y31186D01*
X38239Y30932D01*
X39001D01*
X38493D02*
X37986Y30424D01*
X37478D02*
X36970D01*
X37224D01*
Y31948D01*
X37478Y31694D01*
X28000Y16010D02*
X28254Y16264D01*
X28762D01*
X29016Y16010D01*
Y14994D01*
X28762Y14740D01*
X28254D01*
X28000Y14994D01*
X27492Y14740D02*
X26984D01*
X27238D01*
Y16264D01*
X27492Y16010D01*
D26*
X138930Y158500D02*
X139269D01*
X139099D01*
Y157484D01*
X138930Y157654D01*
X139307Y155400D02*
X138630D01*
X139307Y154723D01*
Y154554D01*
X139138Y154384D01*
X138799D01*
X138630Y154554D01*
X148670Y157484D02*
X149347D01*
Y157654D01*
X148670Y158331D01*
Y158500D01*
Y154554D02*
X148839Y154384D01*
X149178D01*
X149347Y154554D01*
Y154723D01*
X149178Y154892D01*
X149347Y155061D01*
Y155231D01*
X149178Y155400D01*
X148839D01*
X148670Y155231D01*
Y155061D01*
X148839Y154892D01*
X148670Y154723D01*
Y154554D01*
X148839Y154892D02*
X149178D01*
X130446Y146170D02*
X130616Y146339D01*
Y146678D01*
X130446Y146847D01*
X130277D01*
X130108Y146678D01*
X129939Y146847D01*
X129769D01*
X129600Y146678D01*
Y146339D01*
X129769Y146170D01*
X129939D01*
X130108Y146339D01*
X130277Y146170D01*
X130446D01*
X130108Y146339D02*
Y146678D01*
X127516Y146170D02*
Y146847D01*
X127346D01*
X126669Y146170D01*
X126500D01*
X129600Y136807D02*
Y136130D01*
X130277Y136807D01*
X130446D01*
X130616Y136638D01*
Y136299D01*
X130446Y136130D01*
X126500Y136430D02*
Y136769D01*
Y136599D01*
X127516D01*
X127346Y136430D01*
X162500Y135953D02*
Y136630D01*
X161823Y135953D01*
X161654D01*
X161484Y136122D01*
Y136461D01*
X161654Y136630D01*
X166200D02*
Y136291D01*
Y136461D01*
X165184D01*
X165354Y136630D01*
X161654Y146970D02*
X161484Y146801D01*
Y146462D01*
X161654Y146293D01*
X161823D01*
X161992Y146462D01*
X162161Y146293D01*
X162331D01*
X162500Y146462D01*
Y146801D01*
X162331Y146970D01*
X162161D01*
X161992Y146801D01*
X161823Y146970D01*
X161654D01*
X161992Y146801D02*
Y146462D01*
X165184Y146970D02*
Y146293D01*
X165354D01*
X166031Y146970D01*
X166200D01*
X149470Y120816D02*
X148793D01*
Y120646D01*
X149470Y119969D01*
Y119800D01*
Y124346D02*
X149301Y124516D01*
X148962D01*
X148793Y124346D01*
Y124177D01*
X148962Y124008D01*
X148793Y123839D01*
Y123669D01*
X148962Y123500D01*
X149301D01*
X149470Y123669D01*
Y123839D01*
X149301Y124008D01*
X149470Y124177D01*
Y124346D01*
X149301Y124008D02*
X148962D01*
X139130Y119800D02*
X138791D01*
X138961D01*
Y120816D01*
X139130Y120646D01*
X138453Y123500D02*
X139130D01*
X138453Y124177D01*
Y124346D01*
X138622Y124516D01*
X138961D01*
X139130Y124346D01*
X138930Y101500D02*
X139269D01*
X139099D01*
Y100484D01*
X138930Y100654D01*
X139307Y98400D02*
X138630D01*
X139307Y97723D01*
Y97554D01*
X139138Y97384D01*
X138799D01*
X138630Y97554D01*
X148670Y100484D02*
X149347D01*
Y100654D01*
X148670Y101331D01*
Y101500D01*
Y97554D02*
X148839Y97384D01*
X149178D01*
X149347Y97554D01*
Y97723D01*
X149178Y97892D01*
X149347Y98061D01*
Y98231D01*
X149178Y98400D01*
X148839D01*
X148670Y98231D01*
Y98061D01*
X148839Y97892D01*
X148670Y97723D01*
Y97554D01*
X148839Y97892D02*
X149178D01*
X130446Y89170D02*
X130616Y89339D01*
Y89678D01*
X130446Y89847D01*
X130277D01*
X130108Y89678D01*
X129939Y89847D01*
X129769D01*
X129600Y89678D01*
Y89339D01*
X129769Y89170D01*
X129939D01*
X130108Y89339D01*
X130277Y89170D01*
X130446D01*
X130108Y89339D02*
Y89678D01*
X127516Y89170D02*
Y89847D01*
X127346D01*
X126669Y89170D01*
X126500D01*
X129600Y79807D02*
Y79130D01*
X130277Y79807D01*
X130446D01*
X130616Y79638D01*
Y79299D01*
X130446Y79130D01*
X126500Y79430D02*
Y79769D01*
Y79599D01*
X127516D01*
X127346Y79430D01*
X162500Y78953D02*
Y79630D01*
X161823Y78953D01*
X161654D01*
X161484Y79122D01*
Y79461D01*
X161654Y79630D01*
X166200D02*
Y79291D01*
Y79461D01*
X165184D01*
X165354Y79630D01*
X161654Y89970D02*
X161484Y89801D01*
Y89462D01*
X161654Y89293D01*
X161823D01*
X161992Y89462D01*
X162161Y89293D01*
X162331D01*
X162500Y89462D01*
Y89801D01*
X162331Y89970D01*
X162161D01*
X161992Y89801D01*
X161823Y89970D01*
X161654D01*
X161992Y89801D02*
Y89462D01*
X165184Y89970D02*
Y89293D01*
X165354D01*
X166031Y89970D01*
X166200D01*
X149470Y63816D02*
X148793D01*
Y63646D01*
X149470Y62969D01*
Y62800D01*
Y67346D02*
X149301Y67516D01*
X148962D01*
X148793Y67346D01*
Y67177D01*
X148962Y67008D01*
X148793Y66839D01*
Y66669D01*
X148962Y66500D01*
X149301D01*
X149470Y66669D01*
Y66839D01*
X149301Y67008D01*
X149470Y67177D01*
Y67346D01*
X149301Y67008D02*
X148962D01*
X139130Y62800D02*
X138791D01*
X138961D01*
Y63816D01*
X139130Y63646D01*
X138453Y66500D02*
X139130D01*
X138453Y67177D01*
Y67346D01*
X138622Y67516D01*
X138961D01*
X139130Y67346D01*
X138930Y44500D02*
X139269D01*
X139099D01*
Y43484D01*
X138930Y43654D01*
X139307Y41400D02*
X138630D01*
X139307Y40723D01*
Y40554D01*
X139138Y40384D01*
X138799D01*
X138630Y40554D01*
X148670Y43484D02*
X149347D01*
Y43654D01*
X148670Y44331D01*
Y44500D01*
Y40554D02*
X148839Y40384D01*
X149178D01*
X149347Y40554D01*
Y40723D01*
X149178Y40892D01*
X149347Y41061D01*
Y41231D01*
X149178Y41400D01*
X148839D01*
X148670Y41231D01*
Y41061D01*
X148839Y40892D01*
X148670Y40723D01*
Y40554D01*
X148839Y40892D02*
X149178D01*
X130446Y32170D02*
X130616Y32339D01*
Y32678D01*
X130446Y32847D01*
X130277D01*
X130108Y32678D01*
X129939Y32847D01*
X129769D01*
X129600Y32678D01*
Y32339D01*
X129769Y32170D01*
X129939D01*
X130108Y32339D01*
X130277Y32170D01*
X130446D01*
X130108Y32339D02*
Y32678D01*
X127516Y32170D02*
Y32847D01*
X127346D01*
X126669Y32170D01*
X126500D01*
X129600Y22807D02*
Y22130D01*
X130277Y22807D01*
X130446D01*
X130616Y22638D01*
Y22299D01*
X130446Y22130D01*
X126500Y22430D02*
Y22769D01*
Y22599D01*
X127516D01*
X127346Y22430D01*
X162500Y21953D02*
Y22630D01*
X161823Y21953D01*
X161654D01*
X161484Y22122D01*
Y22461D01*
X161654Y22630D01*
X166200D02*
Y22291D01*
Y22461D01*
X165184D01*
X165354Y22630D01*
X161654Y32970D02*
X161484Y32801D01*
Y32462D01*
X161654Y32293D01*
X161823D01*
X161992Y32462D01*
X162161Y32293D01*
X162331D01*
X162500Y32462D01*
Y32801D01*
X162331Y32970D01*
X162161D01*
X161992Y32801D01*
X161823Y32970D01*
X161654D01*
X161992Y32801D02*
Y32462D01*
X165184Y32970D02*
Y32293D01*
X165354D01*
X166031Y32970D01*
X166200D01*
X149470Y6816D02*
X148793D01*
Y6646D01*
X149470Y5969D01*
Y5800D01*
Y10346D02*
X149301Y10516D01*
X148962D01*
X148793Y10346D01*
Y10177D01*
X148962Y10008D01*
X148793Y9839D01*
Y9669D01*
X148962Y9500D01*
X149301D01*
X149470Y9669D01*
Y9839D01*
X149301Y10008D01*
X149470Y10177D01*
Y10346D01*
X149301Y10008D02*
X148962D01*
X139130Y5800D02*
X138791D01*
X138961D01*
Y6816D01*
X139130Y6646D01*
X138453Y9500D02*
X139130D01*
X138453Y10177D01*
Y10346D01*
X138622Y10516D01*
X138961D01*
X139130Y10346D01*
X80930Y158500D02*
X81269D01*
X81099D01*
Y157484D01*
X80930Y157654D01*
X81307Y155400D02*
X80630D01*
X81307Y154723D01*
Y154554D01*
X81138Y154384D01*
X80799D01*
X80630Y154554D01*
X90670Y157484D02*
X91347D01*
Y157654D01*
X90670Y158331D01*
Y158500D01*
Y154554D02*
X90839Y154384D01*
X91178D01*
X91347Y154554D01*
Y154723D01*
X91178Y154892D01*
X91347Y155061D01*
Y155231D01*
X91178Y155400D01*
X90839D01*
X90670Y155231D01*
Y155061D01*
X90839Y154892D01*
X90670Y154723D01*
Y154554D01*
X90839Y154892D02*
X91178D01*
X72446Y146170D02*
X72616Y146339D01*
Y146678D01*
X72446Y146847D01*
X72277D01*
X72108Y146678D01*
X71939Y146847D01*
X71769D01*
X71600Y146678D01*
Y146339D01*
X71769Y146170D01*
X71939D01*
X72108Y146339D01*
X72277Y146170D01*
X72446D01*
X72108Y146339D02*
Y146678D01*
X69516Y146170D02*
Y146847D01*
X69346D01*
X68669Y146170D01*
X68500D01*
X71600Y136807D02*
Y136130D01*
X72277Y136807D01*
X72446D01*
X72616Y136638D01*
Y136299D01*
X72446Y136130D01*
X68500Y136430D02*
Y136769D01*
Y136599D01*
X69516D01*
X69346Y136430D01*
X104500Y135953D02*
Y136630D01*
X103823Y135953D01*
X103654D01*
X103484Y136122D01*
Y136461D01*
X103654Y136630D01*
X108200D02*
Y136291D01*
Y136461D01*
X107184D01*
X107354Y136630D01*
X103654Y146970D02*
X103484Y146801D01*
Y146462D01*
X103654Y146293D01*
X103823D01*
X103992Y146462D01*
X104161Y146293D01*
X104331D01*
X104500Y146462D01*
Y146801D01*
X104331Y146970D01*
X104161D01*
X103992Y146801D01*
X103823Y146970D01*
X103654D01*
X103992Y146801D02*
Y146462D01*
X107184Y146970D02*
Y146293D01*
X107354D01*
X108031Y146970D01*
X108200D01*
X91470Y120816D02*
X90793D01*
Y120646D01*
X91470Y119969D01*
Y119800D01*
Y124346D02*
X91301Y124516D01*
X90962D01*
X90793Y124346D01*
Y124177D01*
X90962Y124008D01*
X90793Y123839D01*
Y123669D01*
X90962Y123500D01*
X91301D01*
X91470Y123669D01*
Y123839D01*
X91301Y124008D01*
X91470Y124177D01*
Y124346D01*
X91301Y124008D02*
X90962D01*
X81130Y119800D02*
X80791D01*
X80961D01*
Y120816D01*
X81130Y120646D01*
X80453Y123500D02*
X81130D01*
X80453Y124177D01*
Y124346D01*
X80622Y124516D01*
X80961D01*
X81130Y124346D01*
X80930Y101500D02*
X81269D01*
X81099D01*
Y100484D01*
X80930Y100654D01*
X81307Y98400D02*
X80630D01*
X81307Y97723D01*
Y97554D01*
X81138Y97384D01*
X80799D01*
X80630Y97554D01*
X90670Y100484D02*
X91347D01*
Y100654D01*
X90670Y101331D01*
Y101500D01*
Y97554D02*
X90839Y97384D01*
X91178D01*
X91347Y97554D01*
Y97723D01*
X91178Y97892D01*
X91347Y98061D01*
Y98231D01*
X91178Y98400D01*
X90839D01*
X90670Y98231D01*
Y98061D01*
X90839Y97892D01*
X90670Y97723D01*
Y97554D01*
X90839Y97892D02*
X91178D01*
X72446Y89170D02*
X72616Y89339D01*
Y89678D01*
X72446Y89847D01*
X72277D01*
X72108Y89678D01*
X71939Y89847D01*
X71769D01*
X71600Y89678D01*
Y89339D01*
X71769Y89170D01*
X71939D01*
X72108Y89339D01*
X72277Y89170D01*
X72446D01*
X72108Y89339D02*
Y89678D01*
X69516Y89170D02*
Y89847D01*
X69346D01*
X68669Y89170D01*
X68500D01*
X71600Y79807D02*
Y79130D01*
X72277Y79807D01*
X72446D01*
X72616Y79638D01*
Y79299D01*
X72446Y79130D01*
X68500Y79430D02*
Y79769D01*
Y79599D01*
X69516D01*
X69346Y79430D01*
X104500Y78953D02*
Y79630D01*
X103823Y78953D01*
X103654D01*
X103484Y79122D01*
Y79461D01*
X103654Y79630D01*
X108200D02*
Y79291D01*
Y79461D01*
X107184D01*
X107354Y79630D01*
X103654Y89970D02*
X103484Y89801D01*
Y89462D01*
X103654Y89293D01*
X103823D01*
X103992Y89462D01*
X104161Y89293D01*
X104331D01*
X104500Y89462D01*
Y89801D01*
X104331Y89970D01*
X104161D01*
X103992Y89801D01*
X103823Y89970D01*
X103654D01*
X103992Y89801D02*
Y89462D01*
X107184Y89970D02*
Y89293D01*
X107354D01*
X108031Y89970D01*
X108200D01*
X91470Y63816D02*
X90793D01*
Y63646D01*
X91470Y62969D01*
Y62800D01*
Y67346D02*
X91301Y67516D01*
X90962D01*
X90793Y67346D01*
Y67177D01*
X90962Y67008D01*
X90793Y66839D01*
Y66669D01*
X90962Y66500D01*
X91301D01*
X91470Y66669D01*
Y66839D01*
X91301Y67008D01*
X91470Y67177D01*
Y67346D01*
X91301Y67008D02*
X90962D01*
X81130Y62800D02*
X80791D01*
X80961D01*
Y63816D01*
X81130Y63646D01*
X80453Y66500D02*
X81130D01*
X80453Y67177D01*
Y67346D01*
X80622Y67516D01*
X80961D01*
X81130Y67346D01*
X80930Y44500D02*
X81269D01*
X81099D01*
Y43484D01*
X80930Y43654D01*
X81307Y41400D02*
X80630D01*
X81307Y40723D01*
Y40554D01*
X81138Y40384D01*
X80799D01*
X80630Y40554D01*
X90670Y43484D02*
X91347D01*
Y43654D01*
X90670Y44331D01*
Y44500D01*
Y40554D02*
X90839Y40384D01*
X91178D01*
X91347Y40554D01*
Y40723D01*
X91178Y40892D01*
X91347Y41061D01*
Y41231D01*
X91178Y41400D01*
X90839D01*
X90670Y41231D01*
Y41061D01*
X90839Y40892D01*
X90670Y40723D01*
Y40554D01*
X90839Y40892D02*
X91178D01*
X72446Y32170D02*
X72616Y32339D01*
Y32678D01*
X72446Y32847D01*
X72277D01*
X72108Y32678D01*
X71939Y32847D01*
X71769D01*
X71600Y32678D01*
Y32339D01*
X71769Y32170D01*
X71939D01*
X72108Y32339D01*
X72277Y32170D01*
X72446D01*
X72108Y32339D02*
Y32678D01*
X69516Y32170D02*
Y32847D01*
X69346D01*
X68669Y32170D01*
X68500D01*
X71600Y22807D02*
Y22130D01*
X72277Y22807D01*
X72446D01*
X72616Y22638D01*
Y22299D01*
X72446Y22130D01*
X68500Y22430D02*
Y22769D01*
Y22599D01*
X69516D01*
X69346Y22430D01*
X104500Y21953D02*
Y22630D01*
X103823Y21953D01*
X103654D01*
X103484Y22122D01*
Y22461D01*
X103654Y22630D01*
X108200D02*
Y22291D01*
Y22461D01*
X107184D01*
X107354Y22630D01*
X103654Y32970D02*
X103484Y32801D01*
Y32462D01*
X103654Y32293D01*
X103823D01*
X103992Y32462D01*
X104161Y32293D01*
X104331D01*
X104500Y32462D01*
Y32801D01*
X104331Y32970D01*
X104161D01*
X103992Y32801D01*
X103823Y32970D01*
X103654D01*
X103992Y32801D02*
Y32462D01*
X107184Y32970D02*
Y32293D01*
X107354D01*
X108031Y32970D01*
X108200D01*
X91470Y6816D02*
X90793D01*
Y6646D01*
X91470Y5969D01*
Y5800D01*
Y10346D02*
X91301Y10516D01*
X90962D01*
X90793Y10346D01*
Y10177D01*
X90962Y10008D01*
X90793Y9839D01*
Y9669D01*
X90962Y9500D01*
X91301D01*
X91470Y9669D01*
Y9839D01*
X91301Y10008D01*
X91470Y10177D01*
Y10346D01*
X91301Y10008D02*
X90962D01*
X81130Y5800D02*
X80791D01*
X80961D01*
Y6816D01*
X81130Y6646D01*
X80453Y9500D02*
X81130D01*
X80453Y10177D01*
Y10346D01*
X80622Y10516D01*
X80961D01*
X81130Y10346D01*
X22930Y158500D02*
X23269D01*
X23099D01*
Y157484D01*
X22930Y157654D01*
X23307Y155400D02*
X22630D01*
X23307Y154723D01*
Y154554D01*
X23138Y154384D01*
X22799D01*
X22630Y154554D01*
X32670Y157484D02*
X33347D01*
Y157654D01*
X32670Y158331D01*
Y158500D01*
Y154554D02*
X32839Y154384D01*
X33178D01*
X33347Y154554D01*
Y154723D01*
X33178Y154892D01*
X33347Y155061D01*
Y155231D01*
X33178Y155400D01*
X32839D01*
X32670Y155231D01*
Y155061D01*
X32839Y154892D01*
X32670Y154723D01*
Y154554D01*
X32839Y154892D02*
X33178D01*
X14446Y146170D02*
X14616Y146339D01*
Y146678D01*
X14446Y146847D01*
X14277D01*
X14108Y146678D01*
X13939Y146847D01*
X13769D01*
X13600Y146678D01*
Y146339D01*
X13769Y146170D01*
X13939D01*
X14108Y146339D01*
X14277Y146170D01*
X14446D01*
X14108Y146339D02*
Y146678D01*
X11516Y146170D02*
Y146847D01*
X11346D01*
X10669Y146170D01*
X10500D01*
X13600Y136807D02*
Y136130D01*
X14277Y136807D01*
X14446D01*
X14616Y136638D01*
Y136299D01*
X14446Y136130D01*
X10500Y136430D02*
Y136769D01*
Y136599D01*
X11516D01*
X11346Y136430D01*
X46500Y135953D02*
Y136630D01*
X45823Y135953D01*
X45654D01*
X45484Y136122D01*
Y136461D01*
X45654Y136630D01*
X50200D02*
Y136291D01*
Y136461D01*
X49184D01*
X49354Y136630D01*
X45654Y146970D02*
X45484Y146801D01*
Y146462D01*
X45654Y146293D01*
X45823D01*
X45992Y146462D01*
X46161Y146293D01*
X46331D01*
X46500Y146462D01*
Y146801D01*
X46331Y146970D01*
X46161D01*
X45992Y146801D01*
X45823Y146970D01*
X45654D01*
X45992Y146801D02*
Y146462D01*
X49184Y146970D02*
Y146293D01*
X49354D01*
X50031Y146970D01*
X50200D01*
X33470Y120816D02*
X32793D01*
Y120646D01*
X33470Y119969D01*
Y119800D01*
Y124346D02*
X33301Y124516D01*
X32962D01*
X32793Y124346D01*
Y124177D01*
X32962Y124008D01*
X32793Y123839D01*
Y123669D01*
X32962Y123500D01*
X33301D01*
X33470Y123669D01*
Y123839D01*
X33301Y124008D01*
X33470Y124177D01*
Y124346D01*
X33301Y124008D02*
X32962D01*
X23130Y119800D02*
X22791D01*
X22961D01*
Y120816D01*
X23130Y120646D01*
X22453Y123500D02*
X23130D01*
X22453Y124177D01*
Y124346D01*
X22622Y124516D01*
X22961D01*
X23130Y124346D01*
X22930Y101500D02*
X23269D01*
X23099D01*
Y100484D01*
X22930Y100654D01*
X23307Y98400D02*
X22630D01*
X23307Y97723D01*
Y97554D01*
X23138Y97384D01*
X22799D01*
X22630Y97554D01*
X32670Y100484D02*
X33347D01*
Y100654D01*
X32670Y101331D01*
Y101500D01*
Y97554D02*
X32839Y97384D01*
X33178D01*
X33347Y97554D01*
Y97723D01*
X33178Y97892D01*
X33347Y98061D01*
Y98231D01*
X33178Y98400D01*
X32839D01*
X32670Y98231D01*
Y98061D01*
X32839Y97892D01*
X32670Y97723D01*
Y97554D01*
X32839Y97892D02*
X33178D01*
X14446Y89170D02*
X14616Y89339D01*
Y89678D01*
X14446Y89847D01*
X14277D01*
X14108Y89678D01*
X13939Y89847D01*
X13769D01*
X13600Y89678D01*
Y89339D01*
X13769Y89170D01*
X13939D01*
X14108Y89339D01*
X14277Y89170D01*
X14446D01*
X14108Y89339D02*
Y89678D01*
X11516Y89170D02*
Y89847D01*
X11346D01*
X10669Y89170D01*
X10500D01*
X13600Y79807D02*
Y79130D01*
X14277Y79807D01*
X14446D01*
X14616Y79638D01*
Y79299D01*
X14446Y79130D01*
X10500Y79430D02*
Y79769D01*
Y79599D01*
X11516D01*
X11346Y79430D01*
X46500Y78953D02*
Y79630D01*
X45823Y78953D01*
X45654D01*
X45484Y79122D01*
Y79461D01*
X45654Y79630D01*
X50200D02*
Y79291D01*
Y79461D01*
X49184D01*
X49354Y79630D01*
X45654Y89970D02*
X45484Y89801D01*
Y89462D01*
X45654Y89293D01*
X45823D01*
X45992Y89462D01*
X46161Y89293D01*
X46331D01*
X46500Y89462D01*
Y89801D01*
X46331Y89970D01*
X46161D01*
X45992Y89801D01*
X45823Y89970D01*
X45654D01*
X45992Y89801D02*
Y89462D01*
X49184Y89970D02*
Y89293D01*
X49354D01*
X50031Y89970D01*
X50200D01*
X33470Y63816D02*
X32793D01*
Y63646D01*
X33470Y62969D01*
Y62800D01*
Y67346D02*
X33301Y67516D01*
X32962D01*
X32793Y67346D01*
Y67177D01*
X32962Y67008D01*
X32793Y66839D01*
Y66669D01*
X32962Y66500D01*
X33301D01*
X33470Y66669D01*
Y66839D01*
X33301Y67008D01*
X33470Y67177D01*
Y67346D01*
X33301Y67008D02*
X32962D01*
X23130Y62800D02*
X22791D01*
X22961D01*
Y63816D01*
X23130Y63646D01*
X22453Y66500D02*
X23130D01*
X22453Y67177D01*
Y67346D01*
X22622Y67516D01*
X22961D01*
X23130Y67346D01*
X22930Y44500D02*
X23269D01*
X23099D01*
Y43484D01*
X22930Y43654D01*
X23307Y41400D02*
X22630D01*
X23307Y40723D01*
Y40554D01*
X23138Y40384D01*
X22799D01*
X22630Y40554D01*
X32670Y43484D02*
X33347D01*
Y43654D01*
X32670Y44331D01*
Y44500D01*
Y40554D02*
X32839Y40384D01*
X33178D01*
X33347Y40554D01*
Y40723D01*
X33178Y40892D01*
X33347Y41061D01*
Y41231D01*
X33178Y41400D01*
X32839D01*
X32670Y41231D01*
Y41061D01*
X32839Y40892D01*
X32670Y40723D01*
Y40554D01*
X32839Y40892D02*
X33178D01*
X14446Y32170D02*
X14616Y32339D01*
Y32678D01*
X14446Y32847D01*
X14277D01*
X14108Y32678D01*
X13939Y32847D01*
X13769D01*
X13600Y32678D01*
Y32339D01*
X13769Y32170D01*
X13939D01*
X14108Y32339D01*
X14277Y32170D01*
X14446D01*
X14108Y32339D02*
Y32678D01*
X11516Y32170D02*
Y32847D01*
X11346D01*
X10669Y32170D01*
X10500D01*
X13600Y22807D02*
Y22130D01*
X14277Y22807D01*
X14446D01*
X14616Y22638D01*
Y22299D01*
X14446Y22130D01*
X10500Y22430D02*
Y22769D01*
Y22599D01*
X11516D01*
X11346Y22430D01*
X46500Y21953D02*
Y22630D01*
X45823Y21953D01*
X45654D01*
X45484Y22122D01*
Y22461D01*
X45654Y22630D01*
X50200D02*
Y22291D01*
Y22461D01*
X49184D01*
X49354Y22630D01*
X45654Y32970D02*
X45484Y32801D01*
Y32462D01*
X45654Y32293D01*
X45823D01*
X45992Y32462D01*
X46161Y32293D01*
X46331D01*
X46500Y32462D01*
Y32801D01*
X46331Y32970D01*
X46161D01*
X45992Y32801D01*
X45823Y32970D01*
X45654D01*
X45992Y32801D02*
Y32462D01*
X49184Y32970D02*
Y32293D01*
X49354D01*
X50031Y32970D01*
X50200D01*
X33470Y6816D02*
X32793D01*
Y6646D01*
X33470Y5969D01*
Y5800D01*
Y10346D02*
X33301Y10516D01*
X32962D01*
X32793Y10346D01*
Y10177D01*
X32962Y10008D01*
X32793Y9839D01*
Y9669D01*
X32962Y9500D01*
X33301D01*
X33470Y9669D01*
Y9839D01*
X33301Y10008D01*
X33470Y10177D01*
Y10346D01*
X33301Y10008D02*
X32962D01*
X23130Y5800D02*
X22791D01*
X22961D01*
Y6816D01*
X23130Y6646D01*
X22453Y9500D02*
X23130D01*
X22453Y10177D01*
Y10346D01*
X22622Y10516D01*
X22961D01*
X23130Y10346D01*
%TF.MD5,5f1504cddb7758847f44abfe212b3978*%
M02*
