%TF.GenerationSoftware,Altium Limited,Altium Designer,21.6.1 (37)*%
G04 Layer_Physical_Order=1*
G04 Layer_Color=255*
%FSLAX43Y43*%
%MOMM*%
%TF.SameCoordinates,8D5B277E-474B-43DD-86F4-B2073A371E15*%
%TF.FilePolarity,Positive*%
%TF.FileFunction,Copper,L1,Top,Signal*%
%TF.Part,CustomerPanel*%
G01*
G75*
%TA.AperFunction,SMDPad,CuDef*%
%ADD10R,1.500X2.600*%
%TA.AperFunction,Conductor*%
%ADD11C,0.508*%
%ADD12C,0.381*%
%TA.AperFunction,ViaPad*%
%ADD13C,0.800*%
D10*
X149000Y124000D02*
D03*
X146000D02*
D03*
X118000Y166000D02*
D03*
X121000D02*
D03*
X128000D02*
D03*
X125000D02*
D03*
X132000D02*
D03*
X135000D02*
D03*
X142000D02*
D03*
X139000D02*
D03*
X146000D02*
D03*
X149000D02*
D03*
X156000D02*
D03*
X153000D02*
D03*
X160000D02*
D03*
X163000D02*
D03*
X170000D02*
D03*
X167000D02*
D03*
X118000Y159000D02*
D03*
X121000D02*
D03*
X128000D02*
D03*
X125000D02*
D03*
X132000D02*
D03*
X135000D02*
D03*
X142000D02*
D03*
X139000D02*
D03*
X146000D02*
D03*
X149000D02*
D03*
X156000D02*
D03*
X153000D02*
D03*
X160000D02*
D03*
X163000D02*
D03*
X170000D02*
D03*
X167000D02*
D03*
X118000Y152000D02*
D03*
X121000D02*
D03*
X128000D02*
D03*
X125000D02*
D03*
X132000D02*
D03*
X135000D02*
D03*
X142000D02*
D03*
X139000D02*
D03*
X146000D02*
D03*
X149000D02*
D03*
X156000D02*
D03*
X153000D02*
D03*
X160000D02*
D03*
X163000D02*
D03*
X170000D02*
D03*
X167000D02*
D03*
X118000Y145000D02*
D03*
X121000D02*
D03*
X128000D02*
D03*
X125000D02*
D03*
X132000D02*
D03*
X135000D02*
D03*
X142000D02*
D03*
X139000D02*
D03*
X146000D02*
D03*
X149000D02*
D03*
X156000D02*
D03*
X153000D02*
D03*
X160000D02*
D03*
X163000D02*
D03*
X170000D02*
D03*
X167000D02*
D03*
X118000Y138000D02*
D03*
X121000D02*
D03*
X128000D02*
D03*
X125000D02*
D03*
X132000D02*
D03*
X135000D02*
D03*
X142000D02*
D03*
X139000D02*
D03*
X146000D02*
D03*
X149000D02*
D03*
X156000D02*
D03*
X153000D02*
D03*
X160000D02*
D03*
X163000D02*
D03*
X170000D02*
D03*
X167000D02*
D03*
X118000Y131000D02*
D03*
X121000D02*
D03*
X128000D02*
D03*
X125000D02*
D03*
X132030Y131021D02*
D03*
X135030D02*
D03*
X142000Y131000D02*
D03*
X139000D02*
D03*
X146000D02*
D03*
X149000D02*
D03*
X156000D02*
D03*
X153000D02*
D03*
X160000D02*
D03*
X163000D02*
D03*
X170000D02*
D03*
X167000D02*
D03*
X118000Y124000D02*
D03*
X121000D02*
D03*
X128000D02*
D03*
X125000D02*
D03*
X132000D02*
D03*
X135000D02*
D03*
X142000D02*
D03*
X139000D02*
D03*
X156000D02*
D03*
X153000D02*
D03*
X160000D02*
D03*
X163000D02*
D03*
X170000D02*
D03*
X167000D02*
D03*
X118000Y117000D02*
D03*
X121000D02*
D03*
X128000D02*
D03*
X125000D02*
D03*
X132000D02*
D03*
X135000D02*
D03*
X142000D02*
D03*
X139000D02*
D03*
X146000D02*
D03*
X149000D02*
D03*
X156000D02*
D03*
X153000D02*
D03*
X160000D02*
D03*
X163000D02*
D03*
X170000D02*
D03*
X167000D02*
D03*
X149000Y67000D02*
D03*
X146000D02*
D03*
X118000Y109000D02*
D03*
X121000D02*
D03*
X128000D02*
D03*
X125000D02*
D03*
X132000D02*
D03*
X135000D02*
D03*
X142000D02*
D03*
X139000D02*
D03*
X146000D02*
D03*
X149000D02*
D03*
X156000D02*
D03*
X153000D02*
D03*
X160000D02*
D03*
X163000D02*
D03*
X170000D02*
D03*
X167000D02*
D03*
X118000Y102000D02*
D03*
X121000D02*
D03*
X128000D02*
D03*
X125000D02*
D03*
X132000D02*
D03*
X135000D02*
D03*
X142000D02*
D03*
X139000D02*
D03*
X146000D02*
D03*
X149000D02*
D03*
X156000D02*
D03*
X153000D02*
D03*
X160000D02*
D03*
X163000D02*
D03*
X170000D02*
D03*
X167000D02*
D03*
X118000Y95000D02*
D03*
X121000D02*
D03*
X128000D02*
D03*
X125000D02*
D03*
X132000D02*
D03*
X135000D02*
D03*
X142000D02*
D03*
X139000D02*
D03*
X146000D02*
D03*
X149000D02*
D03*
X156000D02*
D03*
X153000D02*
D03*
X160000D02*
D03*
X163000D02*
D03*
X170000D02*
D03*
X167000D02*
D03*
X118000Y88000D02*
D03*
X121000D02*
D03*
X128000D02*
D03*
X125000D02*
D03*
X132000D02*
D03*
X135000D02*
D03*
X142000D02*
D03*
X139000D02*
D03*
X146000D02*
D03*
X149000D02*
D03*
X156000D02*
D03*
X153000D02*
D03*
X160000D02*
D03*
X163000D02*
D03*
X170000D02*
D03*
X167000D02*
D03*
X118000Y81000D02*
D03*
X121000D02*
D03*
X128000D02*
D03*
X125000D02*
D03*
X132000D02*
D03*
X135000D02*
D03*
X142000D02*
D03*
X139000D02*
D03*
X146000D02*
D03*
X149000D02*
D03*
X156000D02*
D03*
X153000D02*
D03*
X160000D02*
D03*
X163000D02*
D03*
X170000D02*
D03*
X167000D02*
D03*
X118000Y74000D02*
D03*
X121000D02*
D03*
X128000D02*
D03*
X125000D02*
D03*
X132030Y74021D02*
D03*
X135030D02*
D03*
X142000Y74000D02*
D03*
X139000D02*
D03*
X146000D02*
D03*
X149000D02*
D03*
X156000D02*
D03*
X153000D02*
D03*
X160000D02*
D03*
X163000D02*
D03*
X170000D02*
D03*
X167000D02*
D03*
X118000Y67000D02*
D03*
X121000D02*
D03*
X128000D02*
D03*
X125000D02*
D03*
X132000D02*
D03*
X135000D02*
D03*
X142000D02*
D03*
X139000D02*
D03*
X156000D02*
D03*
X153000D02*
D03*
X160000D02*
D03*
X163000D02*
D03*
X170000D02*
D03*
X167000D02*
D03*
X118000Y60000D02*
D03*
X121000D02*
D03*
X128000D02*
D03*
X125000D02*
D03*
X132000D02*
D03*
X135000D02*
D03*
X142000D02*
D03*
X139000D02*
D03*
X146000D02*
D03*
X149000D02*
D03*
X156000D02*
D03*
X153000D02*
D03*
X160000D02*
D03*
X163000D02*
D03*
X170000D02*
D03*
X167000D02*
D03*
X149000Y10000D02*
D03*
X146000D02*
D03*
X118000Y52000D02*
D03*
X121000D02*
D03*
X128000D02*
D03*
X125000D02*
D03*
X132000D02*
D03*
X135000D02*
D03*
X142000D02*
D03*
X139000D02*
D03*
X146000D02*
D03*
X149000D02*
D03*
X156000D02*
D03*
X153000D02*
D03*
X160000D02*
D03*
X163000D02*
D03*
X170000D02*
D03*
X167000D02*
D03*
X118000Y45000D02*
D03*
X121000D02*
D03*
X128000D02*
D03*
X125000D02*
D03*
X132000D02*
D03*
X135000D02*
D03*
X142000D02*
D03*
X139000D02*
D03*
X146000D02*
D03*
X149000D02*
D03*
X156000D02*
D03*
X153000D02*
D03*
X160000D02*
D03*
X163000D02*
D03*
X170000D02*
D03*
X167000D02*
D03*
X118000Y38000D02*
D03*
X121000D02*
D03*
X128000D02*
D03*
X125000D02*
D03*
X132000D02*
D03*
X135000D02*
D03*
X142000D02*
D03*
X139000D02*
D03*
X146000D02*
D03*
X149000D02*
D03*
X156000D02*
D03*
X153000D02*
D03*
X160000D02*
D03*
X163000D02*
D03*
X170000D02*
D03*
X167000D02*
D03*
X118000Y31000D02*
D03*
X121000D02*
D03*
X128000D02*
D03*
X125000D02*
D03*
X132000D02*
D03*
X135000D02*
D03*
X142000D02*
D03*
X139000D02*
D03*
X146000D02*
D03*
X149000D02*
D03*
X156000D02*
D03*
X153000D02*
D03*
X160000D02*
D03*
X163000D02*
D03*
X170000D02*
D03*
X167000D02*
D03*
X118000Y24000D02*
D03*
X121000D02*
D03*
X128000D02*
D03*
X125000D02*
D03*
X132000D02*
D03*
X135000D02*
D03*
X142000D02*
D03*
X139000D02*
D03*
X146000D02*
D03*
X149000D02*
D03*
X156000D02*
D03*
X153000D02*
D03*
X160000D02*
D03*
X163000D02*
D03*
X170000D02*
D03*
X167000D02*
D03*
X118000Y17000D02*
D03*
X121000D02*
D03*
X128000D02*
D03*
X125000D02*
D03*
X132030Y17021D02*
D03*
X135030D02*
D03*
X142000Y17000D02*
D03*
X139000D02*
D03*
X146000D02*
D03*
X149000D02*
D03*
X156000D02*
D03*
X153000D02*
D03*
X160000D02*
D03*
X163000D02*
D03*
X170000D02*
D03*
X167000D02*
D03*
X118000Y10000D02*
D03*
X121000D02*
D03*
X128000D02*
D03*
X125000D02*
D03*
X132000D02*
D03*
X135000D02*
D03*
X142000D02*
D03*
X139000D02*
D03*
X156000D02*
D03*
X153000D02*
D03*
X160000D02*
D03*
X163000D02*
D03*
X170000D02*
D03*
X167000D02*
D03*
X118000Y3000D02*
D03*
X121000D02*
D03*
X128000D02*
D03*
X125000D02*
D03*
X132000D02*
D03*
X135000D02*
D03*
X142000D02*
D03*
X139000D02*
D03*
X146000D02*
D03*
X149000D02*
D03*
X156000D02*
D03*
X153000D02*
D03*
X160000D02*
D03*
X163000D02*
D03*
X170000D02*
D03*
X167000D02*
D03*
X91000Y124000D02*
D03*
X88000D02*
D03*
X60000Y166000D02*
D03*
X63000D02*
D03*
X70000D02*
D03*
X67000D02*
D03*
X74000D02*
D03*
X77000D02*
D03*
X84000D02*
D03*
X81000D02*
D03*
X88000D02*
D03*
X91000D02*
D03*
X98000D02*
D03*
X95000D02*
D03*
X102000D02*
D03*
X105000D02*
D03*
X112000D02*
D03*
X109000D02*
D03*
X60000Y159000D02*
D03*
X63000D02*
D03*
X70000D02*
D03*
X67000D02*
D03*
X74000D02*
D03*
X77000D02*
D03*
X84000D02*
D03*
X81000D02*
D03*
X88000D02*
D03*
X91000D02*
D03*
X98000D02*
D03*
X95000D02*
D03*
X102000D02*
D03*
X105000D02*
D03*
X112000D02*
D03*
X109000D02*
D03*
X60000Y152000D02*
D03*
X63000D02*
D03*
X70000D02*
D03*
X67000D02*
D03*
X74000D02*
D03*
X77000D02*
D03*
X84000D02*
D03*
X81000D02*
D03*
X88000D02*
D03*
X91000D02*
D03*
X98000D02*
D03*
X95000D02*
D03*
X102000D02*
D03*
X105000D02*
D03*
X112000D02*
D03*
X109000D02*
D03*
X60000Y145000D02*
D03*
X63000D02*
D03*
X70000D02*
D03*
X67000D02*
D03*
X74000D02*
D03*
X77000D02*
D03*
X84000D02*
D03*
X81000D02*
D03*
X88000D02*
D03*
X91000D02*
D03*
X98000D02*
D03*
X95000D02*
D03*
X102000D02*
D03*
X105000D02*
D03*
X112000D02*
D03*
X109000D02*
D03*
X60000Y138000D02*
D03*
X63000D02*
D03*
X70000D02*
D03*
X67000D02*
D03*
X74000D02*
D03*
X77000D02*
D03*
X84000D02*
D03*
X81000D02*
D03*
X88000D02*
D03*
X91000D02*
D03*
X98000D02*
D03*
X95000D02*
D03*
X102000D02*
D03*
X105000D02*
D03*
X112000D02*
D03*
X109000D02*
D03*
X60000Y131000D02*
D03*
X63000D02*
D03*
X70000D02*
D03*
X67000D02*
D03*
X74030Y131021D02*
D03*
X77030D02*
D03*
X84000Y131000D02*
D03*
X81000D02*
D03*
X88000D02*
D03*
X91000D02*
D03*
X98000D02*
D03*
X95000D02*
D03*
X102000D02*
D03*
X105000D02*
D03*
X112000D02*
D03*
X109000D02*
D03*
X60000Y124000D02*
D03*
X63000D02*
D03*
X70000D02*
D03*
X67000D02*
D03*
X74000D02*
D03*
X77000D02*
D03*
X84000D02*
D03*
X81000D02*
D03*
X98000D02*
D03*
X95000D02*
D03*
X102000D02*
D03*
X105000D02*
D03*
X112000D02*
D03*
X109000D02*
D03*
X60000Y117000D02*
D03*
X63000D02*
D03*
X70000D02*
D03*
X67000D02*
D03*
X74000D02*
D03*
X77000D02*
D03*
X84000D02*
D03*
X81000D02*
D03*
X88000D02*
D03*
X91000D02*
D03*
X98000D02*
D03*
X95000D02*
D03*
X102000D02*
D03*
X105000D02*
D03*
X112000D02*
D03*
X109000D02*
D03*
X91000Y67000D02*
D03*
X88000D02*
D03*
X60000Y109000D02*
D03*
X63000D02*
D03*
X70000D02*
D03*
X67000D02*
D03*
X74000D02*
D03*
X77000D02*
D03*
X84000D02*
D03*
X81000D02*
D03*
X88000D02*
D03*
X91000D02*
D03*
X98000D02*
D03*
X95000D02*
D03*
X102000D02*
D03*
X105000D02*
D03*
X112000D02*
D03*
X109000D02*
D03*
X60000Y102000D02*
D03*
X63000D02*
D03*
X70000D02*
D03*
X67000D02*
D03*
X74000D02*
D03*
X77000D02*
D03*
X84000D02*
D03*
X81000D02*
D03*
X88000D02*
D03*
X91000D02*
D03*
X98000D02*
D03*
X95000D02*
D03*
X102000D02*
D03*
X105000D02*
D03*
X112000D02*
D03*
X109000D02*
D03*
X60000Y95000D02*
D03*
X63000D02*
D03*
X70000D02*
D03*
X67000D02*
D03*
X74000D02*
D03*
X77000D02*
D03*
X84000D02*
D03*
X81000D02*
D03*
X88000D02*
D03*
X91000D02*
D03*
X98000D02*
D03*
X95000D02*
D03*
X102000D02*
D03*
X105000D02*
D03*
X112000D02*
D03*
X109000D02*
D03*
X60000Y88000D02*
D03*
X63000D02*
D03*
X70000D02*
D03*
X67000D02*
D03*
X74000D02*
D03*
X77000D02*
D03*
X84000D02*
D03*
X81000D02*
D03*
X88000D02*
D03*
X91000D02*
D03*
X98000D02*
D03*
X95000D02*
D03*
X102000D02*
D03*
X105000D02*
D03*
X112000D02*
D03*
X109000D02*
D03*
X60000Y81000D02*
D03*
X63000D02*
D03*
X70000D02*
D03*
X67000D02*
D03*
X74000D02*
D03*
X77000D02*
D03*
X84000D02*
D03*
X81000D02*
D03*
X88000D02*
D03*
X91000D02*
D03*
X98000D02*
D03*
X95000D02*
D03*
X102000D02*
D03*
X105000D02*
D03*
X112000D02*
D03*
X109000D02*
D03*
X60000Y74000D02*
D03*
X63000D02*
D03*
X70000D02*
D03*
X67000D02*
D03*
X74030Y74021D02*
D03*
X77030D02*
D03*
X84000Y74000D02*
D03*
X81000D02*
D03*
X88000D02*
D03*
X91000D02*
D03*
X98000D02*
D03*
X95000D02*
D03*
X102000D02*
D03*
X105000D02*
D03*
X112000D02*
D03*
X109000D02*
D03*
X60000Y67000D02*
D03*
X63000D02*
D03*
X70000D02*
D03*
X67000D02*
D03*
X74000D02*
D03*
X77000D02*
D03*
X84000D02*
D03*
X81000D02*
D03*
X98000D02*
D03*
X95000D02*
D03*
X102000D02*
D03*
X105000D02*
D03*
X112000D02*
D03*
X109000D02*
D03*
X60000Y60000D02*
D03*
X63000D02*
D03*
X70000D02*
D03*
X67000D02*
D03*
X74000D02*
D03*
X77000D02*
D03*
X84000D02*
D03*
X81000D02*
D03*
X88000D02*
D03*
X91000D02*
D03*
X98000D02*
D03*
X95000D02*
D03*
X102000D02*
D03*
X105000D02*
D03*
X112000D02*
D03*
X109000D02*
D03*
X91000Y10000D02*
D03*
X88000D02*
D03*
X60000Y52000D02*
D03*
X63000D02*
D03*
X70000D02*
D03*
X67000D02*
D03*
X74000D02*
D03*
X77000D02*
D03*
X84000D02*
D03*
X81000D02*
D03*
X88000D02*
D03*
X91000D02*
D03*
X98000D02*
D03*
X95000D02*
D03*
X102000D02*
D03*
X105000D02*
D03*
X112000D02*
D03*
X109000D02*
D03*
X60000Y45000D02*
D03*
X63000D02*
D03*
X70000D02*
D03*
X67000D02*
D03*
X74000D02*
D03*
X77000D02*
D03*
X84000D02*
D03*
X81000D02*
D03*
X88000D02*
D03*
X91000D02*
D03*
X98000D02*
D03*
X95000D02*
D03*
X102000D02*
D03*
X105000D02*
D03*
X112000D02*
D03*
X109000D02*
D03*
X60000Y38000D02*
D03*
X63000D02*
D03*
X70000D02*
D03*
X67000D02*
D03*
X74000D02*
D03*
X77000D02*
D03*
X84000D02*
D03*
X81000D02*
D03*
X88000D02*
D03*
X91000D02*
D03*
X98000D02*
D03*
X95000D02*
D03*
X102000D02*
D03*
X105000D02*
D03*
X112000D02*
D03*
X109000D02*
D03*
X60000Y31000D02*
D03*
X63000D02*
D03*
X70000D02*
D03*
X67000D02*
D03*
X74000D02*
D03*
X77000D02*
D03*
X84000D02*
D03*
X81000D02*
D03*
X88000D02*
D03*
X91000D02*
D03*
X98000D02*
D03*
X95000D02*
D03*
X102000D02*
D03*
X105000D02*
D03*
X112000D02*
D03*
X109000D02*
D03*
X60000Y24000D02*
D03*
X63000D02*
D03*
X70000D02*
D03*
X67000D02*
D03*
X74000D02*
D03*
X77000D02*
D03*
X84000D02*
D03*
X81000D02*
D03*
X88000D02*
D03*
X91000D02*
D03*
X98000D02*
D03*
X95000D02*
D03*
X102000D02*
D03*
X105000D02*
D03*
X112000D02*
D03*
X109000D02*
D03*
X60000Y17000D02*
D03*
X63000D02*
D03*
X70000D02*
D03*
X67000D02*
D03*
X74030Y17021D02*
D03*
X77030D02*
D03*
X84000Y17000D02*
D03*
X81000D02*
D03*
X88000D02*
D03*
X91000D02*
D03*
X98000D02*
D03*
X95000D02*
D03*
X102000D02*
D03*
X105000D02*
D03*
X112000D02*
D03*
X109000D02*
D03*
X60000Y10000D02*
D03*
X63000D02*
D03*
X70000D02*
D03*
X67000D02*
D03*
X74000D02*
D03*
X77000D02*
D03*
X84000D02*
D03*
X81000D02*
D03*
X98000D02*
D03*
X95000D02*
D03*
X102000D02*
D03*
X105000D02*
D03*
X112000D02*
D03*
X109000D02*
D03*
X60000Y3000D02*
D03*
X63000D02*
D03*
X70000D02*
D03*
X67000D02*
D03*
X74000D02*
D03*
X77000D02*
D03*
X84000D02*
D03*
X81000D02*
D03*
X88000D02*
D03*
X91000D02*
D03*
X98000D02*
D03*
X95000D02*
D03*
X102000D02*
D03*
X105000D02*
D03*
X112000D02*
D03*
X109000D02*
D03*
X33000Y124000D02*
D03*
X30000D02*
D03*
X2000Y166000D02*
D03*
X5000D02*
D03*
X12000D02*
D03*
X9000D02*
D03*
X16000D02*
D03*
X19000D02*
D03*
X26000D02*
D03*
X23000D02*
D03*
X30000D02*
D03*
X33000D02*
D03*
X40000D02*
D03*
X37000D02*
D03*
X44000D02*
D03*
X47000D02*
D03*
X54000D02*
D03*
X51000D02*
D03*
X2000Y159000D02*
D03*
X5000D02*
D03*
X12000D02*
D03*
X9000D02*
D03*
X16000D02*
D03*
X19000D02*
D03*
X26000D02*
D03*
X23000D02*
D03*
X30000D02*
D03*
X33000D02*
D03*
X40000D02*
D03*
X37000D02*
D03*
X44000D02*
D03*
X47000D02*
D03*
X54000D02*
D03*
X51000D02*
D03*
X2000Y152000D02*
D03*
X5000D02*
D03*
X12000D02*
D03*
X9000D02*
D03*
X16000D02*
D03*
X19000D02*
D03*
X26000D02*
D03*
X23000D02*
D03*
X30000D02*
D03*
X33000D02*
D03*
X40000D02*
D03*
X37000D02*
D03*
X44000D02*
D03*
X47000D02*
D03*
X54000D02*
D03*
X51000D02*
D03*
X2000Y145000D02*
D03*
X5000D02*
D03*
X12000D02*
D03*
X9000D02*
D03*
X16000D02*
D03*
X19000D02*
D03*
X26000D02*
D03*
X23000D02*
D03*
X30000D02*
D03*
X33000D02*
D03*
X40000D02*
D03*
X37000D02*
D03*
X44000D02*
D03*
X47000D02*
D03*
X54000D02*
D03*
X51000D02*
D03*
X2000Y138000D02*
D03*
X5000D02*
D03*
X12000D02*
D03*
X9000D02*
D03*
X16000D02*
D03*
X19000D02*
D03*
X26000D02*
D03*
X23000D02*
D03*
X30000D02*
D03*
X33000D02*
D03*
X40000D02*
D03*
X37000D02*
D03*
X44000D02*
D03*
X47000D02*
D03*
X54000D02*
D03*
X51000D02*
D03*
X2000Y131000D02*
D03*
X5000D02*
D03*
X12000D02*
D03*
X9000D02*
D03*
X16030Y131021D02*
D03*
X19030D02*
D03*
X26000Y131000D02*
D03*
X23000D02*
D03*
X30000D02*
D03*
X33000D02*
D03*
X40000D02*
D03*
X37000D02*
D03*
X44000D02*
D03*
X47000D02*
D03*
X54000D02*
D03*
X51000D02*
D03*
X2000Y124000D02*
D03*
X5000D02*
D03*
X12000D02*
D03*
X9000D02*
D03*
X16000D02*
D03*
X19000D02*
D03*
X26000D02*
D03*
X23000D02*
D03*
X40000D02*
D03*
X37000D02*
D03*
X44000D02*
D03*
X47000D02*
D03*
X54000D02*
D03*
X51000D02*
D03*
X2000Y117000D02*
D03*
X5000D02*
D03*
X12000D02*
D03*
X9000D02*
D03*
X16000D02*
D03*
X19000D02*
D03*
X26000D02*
D03*
X23000D02*
D03*
X30000D02*
D03*
X33000D02*
D03*
X40000D02*
D03*
X37000D02*
D03*
X44000D02*
D03*
X47000D02*
D03*
X54000D02*
D03*
X51000D02*
D03*
X33000Y67000D02*
D03*
X30000D02*
D03*
X2000Y109000D02*
D03*
X5000D02*
D03*
X12000D02*
D03*
X9000D02*
D03*
X16000D02*
D03*
X19000D02*
D03*
X26000D02*
D03*
X23000D02*
D03*
X30000D02*
D03*
X33000D02*
D03*
X40000D02*
D03*
X37000D02*
D03*
X44000D02*
D03*
X47000D02*
D03*
X54000D02*
D03*
X51000D02*
D03*
X2000Y102000D02*
D03*
X5000D02*
D03*
X12000D02*
D03*
X9000D02*
D03*
X16000D02*
D03*
X19000D02*
D03*
X26000D02*
D03*
X23000D02*
D03*
X30000D02*
D03*
X33000D02*
D03*
X40000D02*
D03*
X37000D02*
D03*
X44000D02*
D03*
X47000D02*
D03*
X54000D02*
D03*
X51000D02*
D03*
X2000Y95000D02*
D03*
X5000D02*
D03*
X12000D02*
D03*
X9000D02*
D03*
X16000D02*
D03*
X19000D02*
D03*
X26000D02*
D03*
X23000D02*
D03*
X30000D02*
D03*
X33000D02*
D03*
X40000D02*
D03*
X37000D02*
D03*
X44000D02*
D03*
X47000D02*
D03*
X54000D02*
D03*
X51000D02*
D03*
X2000Y88000D02*
D03*
X5000D02*
D03*
X12000D02*
D03*
X9000D02*
D03*
X16000D02*
D03*
X19000D02*
D03*
X26000D02*
D03*
X23000D02*
D03*
X30000D02*
D03*
X33000D02*
D03*
X40000D02*
D03*
X37000D02*
D03*
X44000D02*
D03*
X47000D02*
D03*
X54000D02*
D03*
X51000D02*
D03*
X2000Y81000D02*
D03*
X5000D02*
D03*
X12000D02*
D03*
X9000D02*
D03*
X16000D02*
D03*
X19000D02*
D03*
X26000D02*
D03*
X23000D02*
D03*
X30000D02*
D03*
X33000D02*
D03*
X40000D02*
D03*
X37000D02*
D03*
X44000D02*
D03*
X47000D02*
D03*
X54000D02*
D03*
X51000D02*
D03*
X2000Y74000D02*
D03*
X5000D02*
D03*
X12000D02*
D03*
X9000D02*
D03*
X16030Y74021D02*
D03*
X19030D02*
D03*
X26000Y74000D02*
D03*
X23000D02*
D03*
X30000D02*
D03*
X33000D02*
D03*
X40000D02*
D03*
X37000D02*
D03*
X44000D02*
D03*
X47000D02*
D03*
X54000D02*
D03*
X51000D02*
D03*
X2000Y67000D02*
D03*
X5000D02*
D03*
X12000D02*
D03*
X9000D02*
D03*
X16000D02*
D03*
X19000D02*
D03*
X26000D02*
D03*
X23000D02*
D03*
X40000D02*
D03*
X37000D02*
D03*
X44000D02*
D03*
X47000D02*
D03*
X54000D02*
D03*
X51000D02*
D03*
X2000Y60000D02*
D03*
X5000D02*
D03*
X12000D02*
D03*
X9000D02*
D03*
X16000D02*
D03*
X19000D02*
D03*
X26000D02*
D03*
X23000D02*
D03*
X30000D02*
D03*
X33000D02*
D03*
X40000D02*
D03*
X37000D02*
D03*
X44000D02*
D03*
X47000D02*
D03*
X54000D02*
D03*
X51000D02*
D03*
X33000Y10000D02*
D03*
X30000D02*
D03*
X2000Y52000D02*
D03*
X5000D02*
D03*
X12000D02*
D03*
X9000D02*
D03*
X16000D02*
D03*
X19000D02*
D03*
X26000D02*
D03*
X23000D02*
D03*
X30000D02*
D03*
X33000D02*
D03*
X40000D02*
D03*
X37000D02*
D03*
X44000D02*
D03*
X47000D02*
D03*
X54000D02*
D03*
X51000D02*
D03*
X2000Y45000D02*
D03*
X5000D02*
D03*
X12000D02*
D03*
X9000D02*
D03*
X16000D02*
D03*
X19000D02*
D03*
X26000D02*
D03*
X23000D02*
D03*
X30000D02*
D03*
X33000D02*
D03*
X40000D02*
D03*
X37000D02*
D03*
X44000D02*
D03*
X47000D02*
D03*
X54000D02*
D03*
X51000D02*
D03*
X2000Y38000D02*
D03*
X5000D02*
D03*
X12000D02*
D03*
X9000D02*
D03*
X16000D02*
D03*
X19000D02*
D03*
X26000D02*
D03*
X23000D02*
D03*
X30000D02*
D03*
X33000D02*
D03*
X40000D02*
D03*
X37000D02*
D03*
X44000D02*
D03*
X47000D02*
D03*
X54000D02*
D03*
X51000D02*
D03*
X2000Y31000D02*
D03*
X5000D02*
D03*
X12000D02*
D03*
X9000D02*
D03*
X16000D02*
D03*
X19000D02*
D03*
X26000D02*
D03*
X23000D02*
D03*
X30000D02*
D03*
X33000D02*
D03*
X40000D02*
D03*
X37000D02*
D03*
X44000D02*
D03*
X47000D02*
D03*
X54000D02*
D03*
X51000D02*
D03*
X2000Y24000D02*
D03*
X5000D02*
D03*
X12000D02*
D03*
X9000D02*
D03*
X16000D02*
D03*
X19000D02*
D03*
X26000D02*
D03*
X23000D02*
D03*
X30000D02*
D03*
X33000D02*
D03*
X40000D02*
D03*
X37000D02*
D03*
X44000D02*
D03*
X47000D02*
D03*
X54000D02*
D03*
X51000D02*
D03*
X2000Y17000D02*
D03*
X5000D02*
D03*
X12000D02*
D03*
X9000D02*
D03*
X16030Y17021D02*
D03*
X19030D02*
D03*
X26000Y17000D02*
D03*
X23000D02*
D03*
X30000D02*
D03*
X33000D02*
D03*
X40000D02*
D03*
X37000D02*
D03*
X44000D02*
D03*
X47000D02*
D03*
X54000D02*
D03*
X51000D02*
D03*
X2000Y10000D02*
D03*
X5000D02*
D03*
X12000D02*
D03*
X9000D02*
D03*
X16000D02*
D03*
X19000D02*
D03*
X26000D02*
D03*
X23000D02*
D03*
X40000D02*
D03*
X37000D02*
D03*
X44000D02*
D03*
X47000D02*
D03*
X54000D02*
D03*
X51000D02*
D03*
X2000Y3000D02*
D03*
X5000D02*
D03*
X12000D02*
D03*
X9000D02*
D03*
X16000D02*
D03*
X19000D02*
D03*
X26000D02*
D03*
X23000D02*
D03*
X30000D02*
D03*
X33000D02*
D03*
X40000D02*
D03*
X37000D02*
D03*
X44000D02*
D03*
X47000D02*
D03*
X54000D02*
D03*
X51000D02*
D03*
D11*
X135000Y124000D02*
Y135986D01*
Y138000D01*
X132000D02*
X133621D01*
X137645Y145013D02*
X138987D01*
X139000Y145000D01*
X170000Y128740D02*
Y131000D01*
Y124000D02*
Y128740D01*
X146000Y138000D02*
X146310Y137690D01*
X147123D01*
X153000Y138000D02*
X154500D01*
X149000Y131000D02*
Y138000D01*
Y124000D02*
Y131000D01*
X142000D02*
Y138000D01*
Y152000D01*
Y127492D02*
Y131000D01*
X158672Y138000D02*
X160000D01*
X163000Y124000D02*
Y131000D01*
X153000D02*
X154500D01*
X153000Y152000D02*
X154500D01*
X153000Y159000D02*
X154500D01*
X153000Y166000D02*
X154500D01*
X163000Y152000D02*
Y159000D01*
Y166000D01*
X156000Y155664D02*
Y159000D01*
Y152000D02*
Y155664D01*
X142000Y124000D02*
Y127492D01*
X140609Y137020D02*
X140665Y136964D01*
X140609Y137020D02*
Y137659D01*
X140268Y138000D02*
X140609Y137659D01*
X137091Y132051D02*
Y138316D01*
X137099Y138325D01*
X137082Y132042D02*
X137091Y132051D01*
X128000Y128232D02*
Y131000D01*
Y124000D02*
Y128232D01*
X144740Y144996D02*
X145996D01*
X146000Y145000D01*
X160000Y152000D02*
X161500D01*
X149000D02*
Y159000D01*
Y145000D02*
Y152000D01*
Y138000D02*
Y145000D01*
X146000Y152000D02*
X147500D01*
X147496Y159298D02*
Y160998D01*
X121000Y163792D02*
Y166000D01*
Y159000D02*
Y163792D01*
X132000Y145000D02*
X133500D01*
X121000Y138000D02*
Y145000D01*
Y131000D02*
Y138000D01*
X146000Y131000D02*
X147500D01*
X139000D02*
X140500D01*
X142000Y152000D02*
Y159000D01*
X167000Y138000D02*
X168500D01*
X153000Y145000D02*
X154500D01*
X140130Y158966D02*
X140491Y159327D01*
Y161001D01*
X139034Y158966D02*
X140130D01*
X139000Y159000D02*
X139034Y158966D01*
X146000Y159000D02*
X147198D01*
X147496Y159298D01*
X140533Y124298D02*
Y125961D01*
X147496Y124298D02*
Y125946D01*
X146000Y124000D02*
X147198D01*
X147496Y124298D01*
X139000Y124000D02*
X140235D01*
X140533Y124298D01*
Y125961D02*
X140538Y125966D01*
X125496Y144306D02*
X126456D01*
X121000Y145000D02*
Y152000D01*
Y159000D01*
Y124000D02*
Y131000D01*
Y117000D02*
Y124000D01*
X163000Y138000D02*
Y145000D01*
X142000Y159000D02*
Y166000D01*
X163000Y131000D02*
Y138000D01*
X170000Y152000D02*
Y159000D01*
X163000Y145000D02*
Y152000D01*
X170000Y159000D02*
Y166000D01*
X156000Y117000D02*
Y124000D01*
X128000Y117000D02*
Y124000D01*
X160000Y144756D02*
X160496Y144260D01*
X125000Y117000D02*
X126500D01*
X118000Y124000D02*
X119500D01*
X167000D02*
X168500D01*
X160000D02*
X161500D01*
X125000Y138000D02*
Y138263D01*
X118000Y159000D02*
X119500D01*
X132051Y131000D02*
X133500D01*
X132000Y159000D02*
X133500D01*
X125000Y144802D02*
X125496Y144306D01*
X139000Y152000D02*
X140500D01*
X125000Y159000D02*
X126500D01*
X170000Y131000D02*
Y138000D01*
X142000Y117000D02*
Y124000D01*
X135000Y117000D02*
Y124000D01*
X163000Y117000D02*
Y124000D01*
X128000Y138000D02*
Y145000D01*
X170000Y117000D02*
Y124000D01*
X128000Y145000D02*
Y152000D01*
Y131000D02*
Y138000D01*
X149000Y117000D02*
Y124000D01*
X132000Y117000D02*
X133500D01*
X139000D02*
X140500D01*
X125496Y138759D02*
X126529D01*
X125000Y138263D02*
X125496Y138759D01*
X160000Y144756D02*
Y145000D01*
X125000Y144802D02*
Y145000D01*
X156000Y131000D02*
Y138000D01*
X149000Y159000D02*
Y166000D01*
X128000Y159000D02*
Y166000D01*
X135000Y138000D02*
Y145000D01*
X128000Y152000D02*
Y159000D01*
X135000Y152000D02*
Y159000D01*
Y166000D01*
X156000Y124000D02*
Y131000D01*
X135000Y145000D02*
Y152000D01*
X118000Y117000D02*
X119500D01*
X160496Y144260D02*
X161500D01*
X125000Y131000D02*
X126500D01*
X153000Y124000D02*
X154500D01*
X167000Y131000D02*
X168500D01*
X118000D02*
X119500D01*
X118000Y138000D02*
X119500D01*
X125000Y124000D02*
X126500D01*
X132030Y131021D02*
X132051Y131000D01*
X125000Y152000D02*
X126500D01*
X167000Y145000D02*
X168500D01*
X160000Y159000D02*
X161500D01*
X167000Y152000D02*
X168500D01*
X132000D02*
X133500D01*
X118000D02*
X119500D01*
X132000Y124000D02*
X133500D01*
X160000Y131000D02*
X161500D01*
X118000Y145000D02*
X119500D01*
X167000Y159000D02*
X168500D01*
X170000Y138000D02*
Y145000D01*
X156000Y159000D02*
Y166000D01*
X170000Y145000D02*
Y152000D01*
X156000Y138000D02*
Y145000D01*
Y152000D01*
X139000Y138000D02*
X140268D01*
X125000Y166000D02*
X126500D01*
X139000D02*
X140500D01*
X132000D02*
X133500D01*
X146000D02*
X147500D01*
X167000D02*
X168500D01*
X160000D02*
X161500D01*
X118000D02*
X119500D01*
X146000Y117000D02*
X147500D01*
X167000D02*
X168500D01*
X153000D02*
X154500D01*
X160000D02*
X161500D01*
X135000Y67000D02*
Y78986D01*
Y81000D01*
X132000D02*
X133621D01*
X137645Y88013D02*
X138987D01*
X139000Y88000D01*
X170000Y71740D02*
Y74000D01*
Y67000D02*
Y71740D01*
X146000Y81000D02*
X146310Y80690D01*
X147123D01*
X153000Y81000D02*
X154500D01*
X149000Y74000D02*
Y81000D01*
Y67000D02*
Y74000D01*
X142000D02*
Y81000D01*
Y95000D01*
Y70491D02*
Y74000D01*
X158672Y81000D02*
X160000D01*
X163000Y67000D02*
Y74000D01*
X153000D02*
X154500D01*
X153000Y95000D02*
X154500D01*
X153000Y102000D02*
X154500D01*
X153000Y109000D02*
X154500D01*
X163000Y95000D02*
Y102000D01*
Y109000D01*
X156000Y98664D02*
Y102000D01*
Y95000D02*
Y98664D01*
X142000Y67000D02*
Y70491D01*
X140609Y80020D02*
X140665Y79964D01*
X140609Y80020D02*
Y80659D01*
X140268Y81000D02*
X140609Y80659D01*
X137091Y75051D02*
Y81316D01*
X137099Y81325D01*
X137082Y75042D02*
X137091Y75051D01*
X128000Y71232D02*
Y74000D01*
Y67000D02*
Y71232D01*
X144740Y87996D02*
X145996D01*
X146000Y88000D01*
X160000Y95000D02*
X161500D01*
X149000D02*
Y102000D01*
Y88000D02*
Y95000D01*
Y81000D02*
Y88000D01*
X146000Y95000D02*
X147500D01*
X147496Y102298D02*
Y103998D01*
X121000Y106792D02*
Y109000D01*
Y102000D02*
Y106792D01*
X132000Y88000D02*
X133500D01*
X121000Y81000D02*
Y88000D01*
Y74000D02*
Y81000D01*
X146000Y74000D02*
X147500D01*
X139000D02*
X140500D01*
X142000Y95000D02*
Y102000D01*
X167000Y81000D02*
X168500D01*
X153000Y88000D02*
X154500D01*
X140130Y101966D02*
X140491Y102327D01*
Y104001D01*
X139034Y101966D02*
X140130D01*
X139000Y102000D02*
X139034Y101966D01*
X146000Y102000D02*
X147198D01*
X147496Y102298D01*
X140533Y67298D02*
Y68961D01*
X147496Y67298D02*
Y68946D01*
X146000Y67000D02*
X147198D01*
X147496Y67298D01*
X139000Y67000D02*
X140235D01*
X140533Y67298D01*
Y68961D02*
X140538Y68966D01*
X125496Y87306D02*
X126456D01*
X121000Y88000D02*
Y95000D01*
Y102000D01*
Y67000D02*
Y74000D01*
Y60000D02*
Y67000D01*
X163000Y81000D02*
Y88000D01*
X142000Y102000D02*
Y109000D01*
X163000Y74000D02*
Y81000D01*
X170000Y95000D02*
Y102000D01*
X163000Y88000D02*
Y95000D01*
X170000Y102000D02*
Y109000D01*
X156000Y60000D02*
Y67000D01*
X128000Y60000D02*
Y67000D01*
X160000Y87756D02*
X160496Y87260D01*
X125000Y60000D02*
X126500D01*
X118000Y67000D02*
X119500D01*
X167000D02*
X168500D01*
X160000D02*
X161500D01*
X125000Y81000D02*
Y81263D01*
X118000Y102000D02*
X119500D01*
X132051Y74000D02*
X133500D01*
X132000Y102000D02*
X133500D01*
X125000Y87802D02*
X125496Y87306D01*
X139000Y95000D02*
X140500D01*
X125000Y102000D02*
X126500D01*
X170000Y74000D02*
Y81000D01*
X142000Y60000D02*
Y67000D01*
X135000Y60000D02*
Y67000D01*
X163000Y60000D02*
Y67000D01*
X128000Y81000D02*
Y88000D01*
X170000Y60000D02*
Y67000D01*
X128000Y88000D02*
Y95000D01*
Y74000D02*
Y81000D01*
X149000Y60000D02*
Y67000D01*
X132000Y60000D02*
X133500D01*
X139000D02*
X140500D01*
X125496Y81759D02*
X126529D01*
X125000Y81263D02*
X125496Y81759D01*
X160000Y87756D02*
Y88000D01*
X125000Y87802D02*
Y88000D01*
X156000Y74000D02*
Y81000D01*
X149000Y102000D02*
Y109000D01*
X128000Y102000D02*
Y109000D01*
X135000Y81000D02*
Y88000D01*
X128000Y95000D02*
Y102000D01*
X135000Y95000D02*
Y102000D01*
Y109000D01*
X156000Y67000D02*
Y74000D01*
X135000Y88000D02*
Y95000D01*
X118000Y60000D02*
X119500D01*
X160496Y87260D02*
X161500D01*
X125000Y74000D02*
X126500D01*
X153000Y67000D02*
X154500D01*
X167000Y74000D02*
X168500D01*
X118000D02*
X119500D01*
X118000Y81000D02*
X119500D01*
X125000Y67000D02*
X126500D01*
X132030Y74021D02*
X132051Y74000D01*
X125000Y95000D02*
X126500D01*
X167000Y88000D02*
X168500D01*
X160000Y102000D02*
X161500D01*
X167000Y95000D02*
X168500D01*
X132000D02*
X133500D01*
X118000D02*
X119500D01*
X132000Y67000D02*
X133500D01*
X160000Y74000D02*
X161500D01*
X118000Y88000D02*
X119500D01*
X167000Y102000D02*
X168500D01*
X170000Y81000D02*
Y88000D01*
X156000Y102000D02*
Y109000D01*
X170000Y88000D02*
Y95000D01*
X156000Y81000D02*
Y88000D01*
Y95000D01*
X139000Y81000D02*
X140268D01*
X125000Y109000D02*
X126500D01*
X139000D02*
X140500D01*
X132000D02*
X133500D01*
X146000D02*
X147500D01*
X167000D02*
X168500D01*
X160000D02*
X161500D01*
X118000D02*
X119500D01*
X146000Y60000D02*
X147500D01*
X167000D02*
X168500D01*
X153000D02*
X154500D01*
X160000D02*
X161500D01*
X135000Y10000D02*
Y21986D01*
Y24000D01*
X132000D02*
X133621D01*
X137645Y31013D02*
X138987D01*
X139000Y31000D01*
X170000Y14740D02*
Y17000D01*
Y10000D02*
Y14740D01*
X146000Y24000D02*
X146310Y23690D01*
X147123D01*
X153000Y24000D02*
X154500D01*
X149000Y17000D02*
Y24000D01*
Y10000D02*
Y17000D01*
X142000D02*
Y24000D01*
Y38000D01*
Y13491D02*
Y17000D01*
X158672Y24000D02*
X160000D01*
X163000Y10000D02*
Y17000D01*
X153000D02*
X154500D01*
X153000Y38000D02*
X154500D01*
X153000Y45000D02*
X154500D01*
X153000Y52000D02*
X154500D01*
X163000Y38000D02*
Y45000D01*
Y52000D01*
X156000Y41664D02*
Y45000D01*
Y38000D02*
Y41664D01*
X142000Y10000D02*
Y13491D01*
X140609Y23020D02*
X140665Y22964D01*
X140609Y23020D02*
Y23659D01*
X140268Y24000D02*
X140609Y23659D01*
X137091Y18051D02*
Y24316D01*
X137099Y24325D01*
X137082Y18042D02*
X137091Y18051D01*
X128000Y14232D02*
Y17000D01*
Y10000D02*
Y14232D01*
X144740Y30996D02*
X145996D01*
X146000Y31000D01*
X160000Y38000D02*
X161500D01*
X149000D02*
Y45000D01*
Y31000D02*
Y38000D01*
Y24000D02*
Y31000D01*
X146000Y38000D02*
X147500D01*
X147496Y45298D02*
Y46998D01*
X121000Y49792D02*
Y52000D01*
Y45000D02*
Y49792D01*
X132000Y31000D02*
X133500D01*
X121000Y24000D02*
Y31000D01*
Y17000D02*
Y24000D01*
X146000Y17000D02*
X147500D01*
X139000D02*
X140500D01*
X142000Y38000D02*
Y45000D01*
X167000Y24000D02*
X168500D01*
X153000Y31000D02*
X154500D01*
X140130Y44966D02*
X140491Y45327D01*
Y47001D01*
X139034Y44966D02*
X140130D01*
X139000Y45000D02*
X139034Y44966D01*
X146000Y45000D02*
X147198D01*
X147496Y45298D01*
X140533Y10298D02*
Y11961D01*
X147496Y10298D02*
Y11946D01*
X146000Y10000D02*
X147198D01*
X147496Y10298D01*
X139000Y10000D02*
X140235D01*
X140533Y10298D01*
Y11961D02*
X140538Y11966D01*
X125496Y30306D02*
X126456D01*
X121000Y31000D02*
Y38000D01*
Y45000D01*
Y10000D02*
Y17000D01*
Y3000D02*
Y10000D01*
X163000Y24000D02*
Y31000D01*
X142000Y45000D02*
Y52000D01*
X163000Y17000D02*
Y24000D01*
X170000Y38000D02*
Y45000D01*
X163000Y31000D02*
Y38000D01*
X170000Y45000D02*
Y52000D01*
X156000Y3000D02*
Y10000D01*
X128000Y3000D02*
Y10000D01*
X160000Y30756D02*
X160496Y30260D01*
X125000Y3000D02*
X126500D01*
X118000Y10000D02*
X119500D01*
X167000D02*
X168500D01*
X160000D02*
X161500D01*
X125000Y24000D02*
Y24263D01*
X118000Y45000D02*
X119500D01*
X132051Y17000D02*
X133500D01*
X132000Y45000D02*
X133500D01*
X125000Y30802D02*
X125496Y30306D01*
X139000Y38000D02*
X140500D01*
X125000Y45000D02*
X126500D01*
X170000Y17000D02*
Y24000D01*
X142000Y3000D02*
Y10000D01*
X135000Y3000D02*
Y10000D01*
X163000Y3000D02*
Y10000D01*
X128000Y24000D02*
Y31000D01*
X170000Y3000D02*
Y10000D01*
X128000Y31000D02*
Y38000D01*
Y17000D02*
Y24000D01*
X149000Y3000D02*
Y10000D01*
X132000Y3000D02*
X133500D01*
X139000D02*
X140500D01*
X125496Y24759D02*
X126529D01*
X125000Y24263D02*
X125496Y24759D01*
X160000Y30756D02*
Y31000D01*
X125000Y30802D02*
Y31000D01*
X156000Y17000D02*
Y24000D01*
X149000Y45000D02*
Y52000D01*
X128000Y45000D02*
Y52000D01*
X135000Y24000D02*
Y31000D01*
X128000Y38000D02*
Y45000D01*
X135000Y38000D02*
Y45000D01*
Y52000D01*
X156000Y10000D02*
Y17000D01*
X135000Y31000D02*
Y38000D01*
X118000Y3000D02*
X119500D01*
X160496Y30260D02*
X161500D01*
X125000Y17000D02*
X126500D01*
X153000Y10000D02*
X154500D01*
X167000Y17000D02*
X168500D01*
X118000D02*
X119500D01*
X118000Y24000D02*
X119500D01*
X125000Y10000D02*
X126500D01*
X132030Y17021D02*
X132051Y17000D01*
X125000Y38000D02*
X126500D01*
X167000Y31000D02*
X168500D01*
X160000Y45000D02*
X161500D01*
X167000Y38000D02*
X168500D01*
X132000D02*
X133500D01*
X118000D02*
X119500D01*
X132000Y10000D02*
X133500D01*
X160000Y17000D02*
X161500D01*
X118000Y31000D02*
X119500D01*
X167000Y45000D02*
X168500D01*
X170000Y24000D02*
Y31000D01*
X156000Y45000D02*
Y52000D01*
X170000Y31000D02*
Y38000D01*
X156000Y24000D02*
Y31000D01*
Y38000D01*
X139000Y24000D02*
X140268D01*
X125000Y52000D02*
X126500D01*
X139000D02*
X140500D01*
X132000D02*
X133500D01*
X146000D02*
X147500D01*
X167000D02*
X168500D01*
X160000D02*
X161500D01*
X118000D02*
X119500D01*
X146000Y3000D02*
X147500D01*
X167000D02*
X168500D01*
X153000D02*
X154500D01*
X160000D02*
X161500D01*
X77000Y124000D02*
Y135986D01*
Y138000D01*
X74000D02*
X75621D01*
X79645Y145013D02*
X80987D01*
X81000Y145000D01*
X112000Y128740D02*
Y131000D01*
Y124000D02*
Y128740D01*
X88000Y138000D02*
X88310Y137690D01*
X89123D01*
X95000Y138000D02*
X96500D01*
X91000Y131000D02*
Y138000D01*
Y124000D02*
Y131000D01*
X84000D02*
Y138000D01*
Y152000D01*
Y127492D02*
Y131000D01*
X100672Y138000D02*
X102000D01*
X105000Y124000D02*
Y131000D01*
X95000D02*
X96500D01*
X95000Y152000D02*
X96500D01*
X95000Y159000D02*
X96500D01*
X95000Y166000D02*
X96500D01*
X105000Y152000D02*
Y159000D01*
Y166000D01*
X98000Y155664D02*
Y159000D01*
Y152000D02*
Y155664D01*
X84000Y124000D02*
Y127492D01*
X82609Y137020D02*
X82665Y136964D01*
X82609Y137020D02*
Y137659D01*
X82268Y138000D02*
X82609Y137659D01*
X79091Y132051D02*
Y138316D01*
X79099Y138325D01*
X79082Y132042D02*
X79091Y132051D01*
X70000Y128232D02*
Y131000D01*
Y124000D02*
Y128232D01*
X86741Y144996D02*
X87996D01*
X88000Y145000D01*
X102000Y152000D02*
X103500D01*
X91000D02*
Y159000D01*
Y145000D02*
Y152000D01*
Y138000D02*
Y145000D01*
X88000Y152000D02*
X89500D01*
X89496Y159298D02*
Y160998D01*
X63000Y163792D02*
Y166000D01*
Y159000D02*
Y163792D01*
X74000Y145000D02*
X75500D01*
X63000Y138000D02*
Y145000D01*
Y131000D02*
Y138000D01*
X88000Y131000D02*
X89500D01*
X81000D02*
X82500D01*
X84000Y152000D02*
Y159000D01*
X109000Y138000D02*
X110500D01*
X95000Y145000D02*
X96500D01*
X82130Y158966D02*
X82491Y159327D01*
Y161001D01*
X81034Y158966D02*
X82130D01*
X81000Y159000D02*
X81034Y158966D01*
X88000Y159000D02*
X89198D01*
X89496Y159298D01*
X82533Y124298D02*
Y125961D01*
X89496Y124298D02*
Y125946D01*
X88000Y124000D02*
X89198D01*
X89496Y124298D01*
X81000Y124000D02*
X82235D01*
X82533Y124298D01*
Y125961D02*
X82538Y125966D01*
X67496Y144306D02*
X68456D01*
X63000Y145000D02*
Y152000D01*
Y159000D01*
Y124000D02*
Y131000D01*
Y117000D02*
Y124000D01*
X105000Y138000D02*
Y145000D01*
X84000Y159000D02*
Y166000D01*
X105000Y131000D02*
Y138000D01*
X112000Y152000D02*
Y159000D01*
X105000Y145000D02*
Y152000D01*
X112000Y159000D02*
Y166000D01*
X98000Y117000D02*
Y124000D01*
X70000Y117000D02*
Y124000D01*
X102000Y144756D02*
X102496Y144260D01*
X67000Y117000D02*
X68500D01*
X60000Y124000D02*
X61500D01*
X109000D02*
X110500D01*
X102000D02*
X103500D01*
X67000Y138000D02*
Y138263D01*
X60000Y159000D02*
X61500D01*
X74051Y131000D02*
X75500D01*
X74000Y159000D02*
X75500D01*
X67000Y144802D02*
X67496Y144306D01*
X81000Y152000D02*
X82500D01*
X67000Y159000D02*
X68500D01*
X112000Y131000D02*
Y138000D01*
X84000Y117000D02*
Y124000D01*
X77000Y117000D02*
Y124000D01*
X105000Y117000D02*
Y124000D01*
X70000Y138000D02*
Y145000D01*
X112000Y117000D02*
Y124000D01*
X70000Y145000D02*
Y152000D01*
Y131000D02*
Y138000D01*
X91000Y117000D02*
Y124000D01*
X74000Y117000D02*
X75500D01*
X81000D02*
X82500D01*
X67496Y138759D02*
X68529D01*
X67000Y138263D02*
X67496Y138759D01*
X102000Y144756D02*
Y145000D01*
X67000Y144802D02*
Y145000D01*
X98000Y131000D02*
Y138000D01*
X91000Y159000D02*
Y166000D01*
X70000Y159000D02*
Y166000D01*
X77000Y138000D02*
Y145000D01*
X70000Y152000D02*
Y159000D01*
X77000Y152000D02*
Y159000D01*
Y166000D01*
X98000Y124000D02*
Y131000D01*
X77000Y145000D02*
Y152000D01*
X60000Y117000D02*
X61500D01*
X102496Y144260D02*
X103500D01*
X67000Y131000D02*
X68500D01*
X95000Y124000D02*
X96500D01*
X109000Y131000D02*
X110500D01*
X60000D02*
X61500D01*
X60000Y138000D02*
X61500D01*
X67000Y124000D02*
X68500D01*
X74030Y131021D02*
X74051Y131000D01*
X67000Y152000D02*
X68500D01*
X109000Y145000D02*
X110500D01*
X102000Y159000D02*
X103500D01*
X109000Y152000D02*
X110500D01*
X74000D02*
X75500D01*
X60000D02*
X61500D01*
X74000Y124000D02*
X75500D01*
X102000Y131000D02*
X103500D01*
X60000Y145000D02*
X61500D01*
X109000Y159000D02*
X110500D01*
X112000Y138000D02*
Y145000D01*
X98000Y159000D02*
Y166000D01*
X112000Y145000D02*
Y152000D01*
X98000Y138000D02*
Y145000D01*
Y152000D01*
X81000Y138000D02*
X82268D01*
X67000Y166000D02*
X68500D01*
X81000D02*
X82500D01*
X74000D02*
X75500D01*
X88000D02*
X89500D01*
X109000D02*
X110500D01*
X102000D02*
X103500D01*
X60000D02*
X61500D01*
X88000Y117000D02*
X89500D01*
X109000D02*
X110500D01*
X95000D02*
X96500D01*
X102000D02*
X103500D01*
X77000Y67000D02*
Y78986D01*
Y81000D01*
X74000D02*
X75621D01*
X79645Y88013D02*
X80987D01*
X81000Y88000D01*
X112000Y71740D02*
Y74000D01*
Y67000D02*
Y71740D01*
X88000Y81000D02*
X88310Y80690D01*
X89123D01*
X95000Y81000D02*
X96500D01*
X91000Y74000D02*
Y81000D01*
Y67000D02*
Y74000D01*
X84000D02*
Y81000D01*
Y95000D01*
Y70491D02*
Y74000D01*
X100672Y81000D02*
X102000D01*
X105000Y67000D02*
Y74000D01*
X95000D02*
X96500D01*
X95000Y95000D02*
X96500D01*
X95000Y102000D02*
X96500D01*
X95000Y109000D02*
X96500D01*
X105000Y95000D02*
Y102000D01*
Y109000D01*
X98000Y98664D02*
Y102000D01*
Y95000D02*
Y98664D01*
X84000Y67000D02*
Y70491D01*
X82609Y80020D02*
X82665Y79964D01*
X82609Y80020D02*
Y80659D01*
X82268Y81000D02*
X82609Y80659D01*
X79091Y75051D02*
Y81316D01*
X79099Y81325D01*
X79082Y75042D02*
X79091Y75051D01*
X70000Y71232D02*
Y74000D01*
Y67000D02*
Y71232D01*
X86741Y87996D02*
X87996D01*
X88000Y88000D01*
X102000Y95000D02*
X103500D01*
X91000D02*
Y102000D01*
Y88000D02*
Y95000D01*
Y81000D02*
Y88000D01*
X88000Y95000D02*
X89500D01*
X89496Y102298D02*
Y103998D01*
X63000Y106792D02*
Y109000D01*
Y102000D02*
Y106792D01*
X74000Y88000D02*
X75500D01*
X63000Y81000D02*
Y88000D01*
Y74000D02*
Y81000D01*
X88000Y74000D02*
X89500D01*
X81000D02*
X82500D01*
X84000Y95000D02*
Y102000D01*
X109000Y81000D02*
X110500D01*
X95000Y88000D02*
X96500D01*
X82130Y101966D02*
X82491Y102327D01*
Y104001D01*
X81034Y101966D02*
X82130D01*
X81000Y102000D02*
X81034Y101966D01*
X88000Y102000D02*
X89198D01*
X89496Y102298D01*
X82533Y67298D02*
Y68961D01*
X89496Y67298D02*
Y68946D01*
X88000Y67000D02*
X89198D01*
X89496Y67298D01*
X81000Y67000D02*
X82235D01*
X82533Y67298D01*
Y68961D02*
X82538Y68966D01*
X67496Y87306D02*
X68456D01*
X63000Y88000D02*
Y95000D01*
Y102000D01*
Y67000D02*
Y74000D01*
Y60000D02*
Y67000D01*
X105000Y81000D02*
Y88000D01*
X84000Y102000D02*
Y109000D01*
X105000Y74000D02*
Y81000D01*
X112000Y95000D02*
Y102000D01*
X105000Y88000D02*
Y95000D01*
X112000Y102000D02*
Y109000D01*
X98000Y60000D02*
Y67000D01*
X70000Y60000D02*
Y67000D01*
X102000Y87756D02*
X102496Y87260D01*
X67000Y60000D02*
X68500D01*
X60000Y67000D02*
X61500D01*
X109000D02*
X110500D01*
X102000D02*
X103500D01*
X67000Y81000D02*
Y81263D01*
X60000Y102000D02*
X61500D01*
X74051Y74000D02*
X75500D01*
X74000Y102000D02*
X75500D01*
X67000Y87802D02*
X67496Y87306D01*
X81000Y95000D02*
X82500D01*
X67000Y102000D02*
X68500D01*
X112000Y74000D02*
Y81000D01*
X84000Y60000D02*
Y67000D01*
X77000Y60000D02*
Y67000D01*
X105000Y60000D02*
Y67000D01*
X70000Y81000D02*
Y88000D01*
X112000Y60000D02*
Y67000D01*
X70000Y88000D02*
Y95000D01*
Y74000D02*
Y81000D01*
X91000Y60000D02*
Y67000D01*
X74000Y60000D02*
X75500D01*
X81000D02*
X82500D01*
X67496Y81759D02*
X68529D01*
X67000Y81263D02*
X67496Y81759D01*
X102000Y87756D02*
Y88000D01*
X67000Y87802D02*
Y88000D01*
X98000Y74000D02*
Y81000D01*
X91000Y102000D02*
Y109000D01*
X70000Y102000D02*
Y109000D01*
X77000Y81000D02*
Y88000D01*
X70000Y95000D02*
Y102000D01*
X77000Y95000D02*
Y102000D01*
Y109000D01*
X98000Y67000D02*
Y74000D01*
X77000Y88000D02*
Y95000D01*
X60000Y60000D02*
X61500D01*
X102496Y87260D02*
X103500D01*
X67000Y74000D02*
X68500D01*
X95000Y67000D02*
X96500D01*
X109000Y74000D02*
X110500D01*
X60000D02*
X61500D01*
X60000Y81000D02*
X61500D01*
X67000Y67000D02*
X68500D01*
X74030Y74021D02*
X74051Y74000D01*
X67000Y95000D02*
X68500D01*
X109000Y88000D02*
X110500D01*
X102000Y102000D02*
X103500D01*
X109000Y95000D02*
X110500D01*
X74000D02*
X75500D01*
X60000D02*
X61500D01*
X74000Y67000D02*
X75500D01*
X102000Y74000D02*
X103500D01*
X60000Y88000D02*
X61500D01*
X109000Y102000D02*
X110500D01*
X112000Y81000D02*
Y88000D01*
X98000Y102000D02*
Y109000D01*
X112000Y88000D02*
Y95000D01*
X98000Y81000D02*
Y88000D01*
Y95000D01*
X81000Y81000D02*
X82268D01*
X67000Y109000D02*
X68500D01*
X81000D02*
X82500D01*
X74000D02*
X75500D01*
X88000D02*
X89500D01*
X109000D02*
X110500D01*
X102000D02*
X103500D01*
X60000D02*
X61500D01*
X88000Y60000D02*
X89500D01*
X109000D02*
X110500D01*
X95000D02*
X96500D01*
X102000D02*
X103500D01*
X77000Y10000D02*
Y21986D01*
Y24000D01*
X74000D02*
X75621D01*
X79645Y31013D02*
X80987D01*
X81000Y31000D01*
X112000Y14740D02*
Y17000D01*
Y10000D02*
Y14740D01*
X88000Y24000D02*
X88310Y23690D01*
X89123D01*
X95000Y24000D02*
X96500D01*
X91000Y17000D02*
Y24000D01*
Y10000D02*
Y17000D01*
X84000D02*
Y24000D01*
Y38000D01*
Y13491D02*
Y17000D01*
X100672Y24000D02*
X102000D01*
X105000Y10000D02*
Y17000D01*
X95000D02*
X96500D01*
X95000Y38000D02*
X96500D01*
X95000Y45000D02*
X96500D01*
X95000Y52000D02*
X96500D01*
X105000Y38000D02*
Y45000D01*
Y52000D01*
X98000Y41664D02*
Y45000D01*
Y38000D02*
Y41664D01*
X84000Y10000D02*
Y13491D01*
X82609Y23020D02*
X82665Y22964D01*
X82609Y23020D02*
Y23659D01*
X82268Y24000D02*
X82609Y23659D01*
X79091Y18051D02*
Y24316D01*
X79099Y24325D01*
X79082Y18042D02*
X79091Y18051D01*
X70000Y14232D02*
Y17000D01*
Y10000D02*
Y14232D01*
X86741Y30996D02*
X87996D01*
X88000Y31000D01*
X102000Y38000D02*
X103500D01*
X91000D02*
Y45000D01*
Y31000D02*
Y38000D01*
Y24000D02*
Y31000D01*
X88000Y38000D02*
X89500D01*
X89496Y45298D02*
Y46998D01*
X63000Y49792D02*
Y52000D01*
Y45000D02*
Y49792D01*
X74000Y31000D02*
X75500D01*
X63000Y24000D02*
Y31000D01*
Y17000D02*
Y24000D01*
X88000Y17000D02*
X89500D01*
X81000D02*
X82500D01*
X84000Y38000D02*
Y45000D01*
X109000Y24000D02*
X110500D01*
X95000Y31000D02*
X96500D01*
X82130Y44966D02*
X82491Y45327D01*
Y47001D01*
X81034Y44966D02*
X82130D01*
X81000Y45000D02*
X81034Y44966D01*
X88000Y45000D02*
X89198D01*
X89496Y45298D01*
X82533Y10298D02*
Y11961D01*
X89496Y10298D02*
Y11946D01*
X88000Y10000D02*
X89198D01*
X89496Y10298D01*
X81000Y10000D02*
X82235D01*
X82533Y10298D01*
Y11961D02*
X82538Y11966D01*
X67496Y30306D02*
X68456D01*
X63000Y31000D02*
Y38000D01*
Y45000D01*
Y10000D02*
Y17000D01*
Y3000D02*
Y10000D01*
X105000Y24000D02*
Y31000D01*
X84000Y45000D02*
Y52000D01*
X105000Y17000D02*
Y24000D01*
X112000Y38000D02*
Y45000D01*
X105000Y31000D02*
Y38000D01*
X112000Y45000D02*
Y52000D01*
X98000Y3000D02*
Y10000D01*
X70000Y3000D02*
Y10000D01*
X102000Y30756D02*
X102496Y30260D01*
X67000Y3000D02*
X68500D01*
X60000Y10000D02*
X61500D01*
X109000D02*
X110500D01*
X102000D02*
X103500D01*
X67000Y24000D02*
Y24263D01*
X60000Y45000D02*
X61500D01*
X74051Y17000D02*
X75500D01*
X74000Y45000D02*
X75500D01*
X67000Y30802D02*
X67496Y30306D01*
X81000Y38000D02*
X82500D01*
X67000Y45000D02*
X68500D01*
X112000Y17000D02*
Y24000D01*
X84000Y3000D02*
Y10000D01*
X77000Y3000D02*
Y10000D01*
X105000Y3000D02*
Y10000D01*
X70000Y24000D02*
Y31000D01*
X112000Y3000D02*
Y10000D01*
X70000Y31000D02*
Y38000D01*
Y17000D02*
Y24000D01*
X91000Y3000D02*
Y10000D01*
X74000Y3000D02*
X75500D01*
X81000D02*
X82500D01*
X67496Y24759D02*
X68529D01*
X67000Y24263D02*
X67496Y24759D01*
X102000Y30756D02*
Y31000D01*
X67000Y30802D02*
Y31000D01*
X98000Y17000D02*
Y24000D01*
X91000Y45000D02*
Y52000D01*
X70000Y45000D02*
Y52000D01*
X77000Y24000D02*
Y31000D01*
X70000Y38000D02*
Y45000D01*
X77000Y38000D02*
Y45000D01*
Y52000D01*
X98000Y10000D02*
Y17000D01*
X77000Y31000D02*
Y38000D01*
X60000Y3000D02*
X61500D01*
X102496Y30260D02*
X103500D01*
X67000Y17000D02*
X68500D01*
X95000Y10000D02*
X96500D01*
X109000Y17000D02*
X110500D01*
X60000D02*
X61500D01*
X60000Y24000D02*
X61500D01*
X67000Y10000D02*
X68500D01*
X74030Y17021D02*
X74051Y17000D01*
X67000Y38000D02*
X68500D01*
X109000Y31000D02*
X110500D01*
X102000Y45000D02*
X103500D01*
X109000Y38000D02*
X110500D01*
X74000D02*
X75500D01*
X60000D02*
X61500D01*
X74000Y10000D02*
X75500D01*
X102000Y17000D02*
X103500D01*
X60000Y31000D02*
X61500D01*
X109000Y45000D02*
X110500D01*
X112000Y24000D02*
Y31000D01*
X98000Y45000D02*
Y52000D01*
X112000Y31000D02*
Y38000D01*
X98000Y24000D02*
Y31000D01*
Y38000D01*
X81000Y24000D02*
X82268D01*
X67000Y52000D02*
X68500D01*
X81000D02*
X82500D01*
X74000D02*
X75500D01*
X88000D02*
X89500D01*
X109000D02*
X110500D01*
X102000D02*
X103500D01*
X60000D02*
X61500D01*
X88000Y3000D02*
X89500D01*
X109000D02*
X110500D01*
X95000D02*
X96500D01*
X102000D02*
X103500D01*
X19000Y124000D02*
Y135986D01*
Y138000D01*
X16000D02*
X17621D01*
X21645Y145013D02*
X22987D01*
X23000Y145000D01*
X54000Y128740D02*
Y131000D01*
Y124000D02*
Y128740D01*
X30000Y138000D02*
X30310Y137690D01*
X31123D01*
X37000Y138000D02*
X38500D01*
X33000Y131000D02*
Y138000D01*
Y124000D02*
Y131000D01*
X26000D02*
Y138000D01*
Y152000D01*
Y127492D02*
Y131000D01*
X42672Y138000D02*
X44000D01*
X47000Y124000D02*
Y131000D01*
X37000D02*
X38500D01*
X37000Y152000D02*
X38500D01*
X37000Y159000D02*
X38500D01*
X37000Y166000D02*
X38500D01*
X47000Y152000D02*
Y159000D01*
Y166000D01*
X40000Y155664D02*
Y159000D01*
Y152000D02*
Y155664D01*
X26000Y124000D02*
Y127492D01*
X24609Y137020D02*
X24665Y136964D01*
X24609Y137020D02*
Y137659D01*
X24268Y138000D02*
X24609Y137659D01*
X21091Y132051D02*
Y138316D01*
X21099Y138325D01*
X21082Y132042D02*
X21091Y132051D01*
X12000Y128232D02*
Y131000D01*
Y124000D02*
Y128232D01*
X28740Y144996D02*
X29996D01*
X30000Y145000D01*
X44000Y152000D02*
X45500D01*
X33000D02*
Y159000D01*
Y145000D02*
Y152000D01*
Y138000D02*
Y145000D01*
X30000Y152000D02*
X31500D01*
X31496Y159298D02*
Y160998D01*
X5000Y163792D02*
Y166000D01*
Y159000D02*
Y163792D01*
X16000Y145000D02*
X17500D01*
X5000Y138000D02*
Y145000D01*
Y131000D02*
Y138000D01*
X30000Y131000D02*
X31500D01*
X23000D02*
X24500D01*
X26000Y152000D02*
Y159000D01*
X51000Y138000D02*
X52500D01*
X37000Y145000D02*
X38500D01*
X24130Y158966D02*
X24491Y159327D01*
Y161001D01*
X23034Y158966D02*
X24130D01*
X23000Y159000D02*
X23034Y158966D01*
X30000Y159000D02*
X31198D01*
X31496Y159298D01*
X24533Y124298D02*
Y125961D01*
X31496Y124298D02*
Y125946D01*
X30000Y124000D02*
X31198D01*
X31496Y124298D01*
X23000Y124000D02*
X24235D01*
X24533Y124298D01*
Y125961D02*
X24538Y125966D01*
X9496Y144306D02*
X10456D01*
X5000Y145000D02*
Y152000D01*
Y159000D01*
Y124000D02*
Y131000D01*
Y117000D02*
Y124000D01*
X47000Y138000D02*
Y145000D01*
X26000Y159000D02*
Y166000D01*
X47000Y131000D02*
Y138000D01*
X54000Y152000D02*
Y159000D01*
X47000Y145000D02*
Y152000D01*
X54000Y159000D02*
Y166000D01*
X40000Y117000D02*
Y124000D01*
X12000Y117000D02*
Y124000D01*
X44000Y144756D02*
X44496Y144260D01*
X9000Y117000D02*
X10500D01*
X2000Y124000D02*
X3500D01*
X51000D02*
X52500D01*
X44000D02*
X45500D01*
X9000Y138000D02*
Y138263D01*
X2000Y159000D02*
X3500D01*
X16051Y131000D02*
X17500D01*
X16000Y159000D02*
X17500D01*
X9000Y144802D02*
X9496Y144306D01*
X23000Y152000D02*
X24500D01*
X9000Y159000D02*
X10500D01*
X54000Y131000D02*
Y138000D01*
X26000Y117000D02*
Y124000D01*
X19000Y117000D02*
Y124000D01*
X47000Y117000D02*
Y124000D01*
X12000Y138000D02*
Y145000D01*
X54000Y117000D02*
Y124000D01*
X12000Y145000D02*
Y152000D01*
Y131000D02*
Y138000D01*
X33000Y117000D02*
Y124000D01*
X16000Y117000D02*
X17500D01*
X23000D02*
X24500D01*
X9496Y138759D02*
X10529D01*
X9000Y138263D02*
X9496Y138759D01*
X44000Y144756D02*
Y145000D01*
X9000Y144802D02*
Y145000D01*
X40000Y131000D02*
Y138000D01*
X33000Y159000D02*
Y166000D01*
X12000Y159000D02*
Y166000D01*
X19000Y138000D02*
Y145000D01*
X12000Y152000D02*
Y159000D01*
X19000Y152000D02*
Y159000D01*
Y166000D01*
X40000Y124000D02*
Y131000D01*
X19000Y145000D02*
Y152000D01*
X2000Y117000D02*
X3500D01*
X44496Y144260D02*
X45500D01*
X9000Y131000D02*
X10500D01*
X37000Y124000D02*
X38500D01*
X51000Y131000D02*
X52500D01*
X2000D02*
X3500D01*
X2000Y138000D02*
X3500D01*
X9000Y124000D02*
X10500D01*
X16030Y131021D02*
X16051Y131000D01*
X9000Y152000D02*
X10500D01*
X51000Y145000D02*
X52500D01*
X44000Y159000D02*
X45500D01*
X51000Y152000D02*
X52500D01*
X16000D02*
X17500D01*
X2000D02*
X3500D01*
X16000Y124000D02*
X17500D01*
X44000Y131000D02*
X45500D01*
X2000Y145000D02*
X3500D01*
X51000Y159000D02*
X52500D01*
X54000Y138000D02*
Y145000D01*
X40000Y159000D02*
Y166000D01*
X54000Y145000D02*
Y152000D01*
X40000Y138000D02*
Y145000D01*
Y152000D01*
X23000Y138000D02*
X24268D01*
X9000Y166000D02*
X10500D01*
X23000D02*
X24500D01*
X16000D02*
X17500D01*
X30000D02*
X31500D01*
X51000D02*
X52500D01*
X44000D02*
X45500D01*
X2000D02*
X3500D01*
X30000Y117000D02*
X31500D01*
X51000D02*
X52500D01*
X37000D02*
X38500D01*
X44000D02*
X45500D01*
X19000Y67000D02*
Y78986D01*
Y81000D01*
X16000D02*
X17621D01*
X21645Y88013D02*
X22987D01*
X23000Y88000D01*
X54000Y71740D02*
Y74000D01*
Y67000D02*
Y71740D01*
X30000Y81000D02*
X30310Y80690D01*
X31123D01*
X37000Y81000D02*
X38500D01*
X33000Y74000D02*
Y81000D01*
Y67000D02*
Y74000D01*
X26000D02*
Y81000D01*
Y95000D01*
Y70492D02*
Y74000D01*
X42672Y81000D02*
X44000D01*
X47000Y67000D02*
Y74000D01*
X37000D02*
X38500D01*
X37000Y95000D02*
X38500D01*
X37000Y102000D02*
X38500D01*
X37000Y109000D02*
X38500D01*
X47000Y95000D02*
Y102000D01*
Y109000D01*
X40000Y98664D02*
Y102000D01*
Y95000D02*
Y98664D01*
X26000Y67000D02*
Y70492D01*
X24609Y80020D02*
X24665Y79964D01*
X24609Y80020D02*
Y80659D01*
X24268Y81000D02*
X24609Y80659D01*
X21091Y75051D02*
Y81316D01*
X21099Y81325D01*
X21082Y75042D02*
X21091Y75051D01*
X12000Y71232D02*
Y74000D01*
Y67000D02*
Y71232D01*
X28740Y87996D02*
X29996D01*
X30000Y88000D01*
X44000Y95000D02*
X45500D01*
X33000D02*
Y102000D01*
Y88000D02*
Y95000D01*
Y81000D02*
Y88000D01*
X30000Y95000D02*
X31500D01*
X31496Y102298D02*
Y103998D01*
X5000Y106792D02*
Y109000D01*
Y102000D02*
Y106792D01*
X16000Y88000D02*
X17500D01*
X5000Y81000D02*
Y88000D01*
Y74000D02*
Y81000D01*
X30000Y74000D02*
X31500D01*
X23000D02*
X24500D01*
X26000Y95000D02*
Y102000D01*
X51000Y81000D02*
X52500D01*
X37000Y88000D02*
X38500D01*
X24130Y101966D02*
X24491Y102327D01*
Y104001D01*
X23034Y101966D02*
X24130D01*
X23000Y102000D02*
X23034Y101966D01*
X30000Y102000D02*
X31198D01*
X31496Y102298D01*
X24533Y67298D02*
Y68961D01*
X31496Y67298D02*
Y68946D01*
X30000Y67000D02*
X31198D01*
X31496Y67298D01*
X23000Y67000D02*
X24235D01*
X24533Y67298D01*
Y68961D02*
X24538Y68966D01*
X9496Y87306D02*
X10456D01*
X5000Y88000D02*
Y95000D01*
Y102000D01*
Y67000D02*
Y74000D01*
Y60000D02*
Y67000D01*
X47000Y81000D02*
Y88000D01*
X26000Y102000D02*
Y109000D01*
X47000Y74000D02*
Y81000D01*
X54000Y95000D02*
Y102000D01*
X47000Y88000D02*
Y95000D01*
X54000Y102000D02*
Y109000D01*
X40000Y60000D02*
Y67000D01*
X12000Y60000D02*
Y67000D01*
X44000Y87756D02*
X44496Y87260D01*
X9000Y60000D02*
X10500D01*
X2000Y67000D02*
X3500D01*
X51000D02*
X52500D01*
X44000D02*
X45500D01*
X9000Y81000D02*
Y81263D01*
X2000Y102000D02*
X3500D01*
X16051Y74000D02*
X17500D01*
X16000Y102000D02*
X17500D01*
X9000Y87802D02*
X9496Y87306D01*
X23000Y95000D02*
X24500D01*
X9000Y102000D02*
X10500D01*
X54000Y74000D02*
Y81000D01*
X26000Y60000D02*
Y67000D01*
X19000Y60000D02*
Y67000D01*
X47000Y60000D02*
Y67000D01*
X12000Y81000D02*
Y88000D01*
X54000Y60000D02*
Y67000D01*
X12000Y88000D02*
Y95000D01*
Y74000D02*
Y81000D01*
X33000Y60000D02*
Y67000D01*
X16000Y60000D02*
X17500D01*
X23000D02*
X24500D01*
X9496Y81759D02*
X10529D01*
X9000Y81263D02*
X9496Y81759D01*
X44000Y87756D02*
Y88000D01*
X9000Y87802D02*
Y88000D01*
X40000Y74000D02*
Y81000D01*
X33000Y102000D02*
Y109000D01*
X12000Y102000D02*
Y109000D01*
X19000Y81000D02*
Y88000D01*
X12000Y95000D02*
Y102000D01*
X19000Y95000D02*
Y102000D01*
Y109000D01*
X40000Y67000D02*
Y74000D01*
X19000Y88000D02*
Y95000D01*
X2000Y60000D02*
X3500D01*
X44496Y87260D02*
X45500D01*
X9000Y74000D02*
X10500D01*
X37000Y67000D02*
X38500D01*
X51000Y74000D02*
X52500D01*
X2000D02*
X3500D01*
X2000Y81000D02*
X3500D01*
X9000Y67000D02*
X10500D01*
X16030Y74021D02*
X16051Y74000D01*
X9000Y95000D02*
X10500D01*
X51000Y88000D02*
X52500D01*
X44000Y102000D02*
X45500D01*
X51000Y95000D02*
X52500D01*
X16000D02*
X17500D01*
X2000D02*
X3500D01*
X16000Y67000D02*
X17500D01*
X44000Y74000D02*
X45500D01*
X2000Y88000D02*
X3500D01*
X51000Y102000D02*
X52500D01*
X54000Y81000D02*
Y88000D01*
X40000Y102000D02*
Y109000D01*
X54000Y88000D02*
Y95000D01*
X40000Y81000D02*
Y88000D01*
Y95000D01*
X23000Y81000D02*
X24268D01*
X9000Y109000D02*
X10500D01*
X23000D02*
X24500D01*
X16000D02*
X17500D01*
X30000D02*
X31500D01*
X51000D02*
X52500D01*
X44000D02*
X45500D01*
X2000D02*
X3500D01*
X30000Y60000D02*
X31500D01*
X51000D02*
X52500D01*
X37000D02*
X38500D01*
X44000D02*
X45500D01*
X19000Y10000D02*
Y21986D01*
Y24000D01*
X16000D02*
X17621D01*
X21645Y31013D02*
X22987D01*
X23000Y31000D01*
X54000Y14740D02*
Y17000D01*
Y10000D02*
Y14740D01*
X30000Y24000D02*
X30310Y23690D01*
X31123D01*
X37000Y24000D02*
X38500D01*
X33000Y17000D02*
Y24000D01*
Y10000D02*
Y17000D01*
X26000D02*
Y24000D01*
Y38000D01*
Y13491D02*
Y17000D01*
X42672Y24000D02*
X44000D01*
X47000Y10000D02*
Y17000D01*
X37000D02*
X38500D01*
X37000Y38000D02*
X38500D01*
X37000Y45000D02*
X38500D01*
X37000Y52000D02*
X38500D01*
X47000Y38000D02*
Y45000D01*
Y52000D01*
X40000Y41664D02*
Y45000D01*
Y38000D02*
Y41664D01*
X26000Y10000D02*
Y13491D01*
X24609Y23020D02*
X24665Y22964D01*
X24609Y23020D02*
Y23659D01*
X24268Y24000D02*
X24609Y23659D01*
X21091Y18051D02*
Y24316D01*
X21099Y24325D01*
X21082Y18042D02*
X21091Y18051D01*
X12000Y14232D02*
Y17000D01*
Y10000D02*
Y14232D01*
X28740Y30996D02*
X29996D01*
X30000Y31000D01*
X44000Y38000D02*
X45500D01*
X33000D02*
Y45000D01*
Y31000D02*
Y38000D01*
Y24000D02*
Y31000D01*
X30000Y38000D02*
X31500D01*
X31496Y45298D02*
Y46998D01*
X5000Y49792D02*
Y52000D01*
Y45000D02*
Y49792D01*
X16000Y31000D02*
X17500D01*
X5000Y24000D02*
Y31000D01*
Y17000D02*
Y24000D01*
X30000Y17000D02*
X31500D01*
X23000D02*
X24500D01*
X26000Y38000D02*
Y45000D01*
X51000Y24000D02*
X52500D01*
X37000Y31000D02*
X38500D01*
X24130Y44966D02*
X24491Y45327D01*
Y47001D01*
X23034Y44966D02*
X24130D01*
X23000Y45000D02*
X23034Y44966D01*
X30000Y45000D02*
X31198D01*
X31496Y45298D01*
X24533Y10298D02*
Y11961D01*
X31496Y10298D02*
Y11946D01*
X30000Y10000D02*
X31198D01*
X31496Y10298D01*
X23000Y10000D02*
X24235D01*
X24533Y10298D01*
Y11961D02*
X24538Y11966D01*
X9496Y30306D02*
X10456D01*
X5000Y31000D02*
Y38000D01*
Y45000D01*
Y10000D02*
Y17000D01*
Y3000D02*
Y10000D01*
X47000Y24000D02*
Y31000D01*
X26000Y45000D02*
Y52000D01*
X47000Y17000D02*
Y24000D01*
X54000Y38000D02*
Y45000D01*
X47000Y31000D02*
Y38000D01*
X54000Y45000D02*
Y52000D01*
X40000Y3000D02*
Y10000D01*
X12000Y3000D02*
Y10000D01*
X44000Y30756D02*
X44496Y30260D01*
X9000Y3000D02*
X10500D01*
X2000Y10000D02*
X3500D01*
X51000D02*
X52500D01*
X44000D02*
X45500D01*
X9000Y24000D02*
Y24263D01*
X2000Y45000D02*
X3500D01*
X16051Y17000D02*
X17500D01*
X16000Y45000D02*
X17500D01*
X9000Y30802D02*
X9496Y30306D01*
X23000Y38000D02*
X24500D01*
X9000Y45000D02*
X10500D01*
X54000Y17000D02*
Y24000D01*
X26000Y3000D02*
Y10000D01*
X19000Y3000D02*
Y10000D01*
X47000Y3000D02*
Y10000D01*
X12000Y24000D02*
Y31000D01*
X54000Y3000D02*
Y10000D01*
X12000Y31000D02*
Y38000D01*
Y17000D02*
Y24000D01*
X33000Y3000D02*
Y10000D01*
X16000Y3000D02*
X17500D01*
X23000D02*
X24500D01*
X9496Y24759D02*
X10529D01*
X9000Y24263D02*
X9496Y24759D01*
X44000Y30756D02*
Y31000D01*
X9000Y30802D02*
Y31000D01*
X40000Y17000D02*
Y24000D01*
X33000Y45000D02*
Y52000D01*
X12000Y45000D02*
Y52000D01*
X19000Y24000D02*
Y31000D01*
X12000Y38000D02*
Y45000D01*
X19000Y38000D02*
Y45000D01*
Y52000D01*
X40000Y10000D02*
Y17000D01*
X19000Y31000D02*
Y38000D01*
X2000Y3000D02*
X3500D01*
X44496Y30260D02*
X45500D01*
X9000Y17000D02*
X10500D01*
X37000Y10000D02*
X38500D01*
X51000Y17000D02*
X52500D01*
X2000D02*
X3500D01*
X2000Y24000D02*
X3500D01*
X9000Y10000D02*
X10500D01*
X16030Y17021D02*
X16051Y17000D01*
X9000Y38000D02*
X10500D01*
X51000Y31000D02*
X52500D01*
X44000Y45000D02*
X45500D01*
X51000Y38000D02*
X52500D01*
X16000D02*
X17500D01*
X2000D02*
X3500D01*
X16000Y10000D02*
X17500D01*
X44000Y17000D02*
X45500D01*
X2000Y31000D02*
X3500D01*
X51000Y45000D02*
X52500D01*
X54000Y24000D02*
Y31000D01*
X40000Y45000D02*
Y52000D01*
X54000Y31000D02*
Y38000D01*
X40000Y24000D02*
Y31000D01*
Y38000D01*
X23000Y24000D02*
X24268D01*
X9000Y52000D02*
X10500D01*
X23000D02*
X24500D01*
X16000D02*
X17500D01*
X30000D02*
X31500D01*
X51000D02*
X52500D01*
X44000D02*
X45500D01*
X2000D02*
X3500D01*
X30000Y3000D02*
X31500D01*
X51000D02*
X52500D01*
X37000D02*
X38500D01*
X44000D02*
X45500D01*
D12*
X144000Y133024D02*
Y140030D01*
X144740Y128232D02*
Y142146D01*
X136903Y140771D02*
Y151941D01*
X136962Y152000D01*
X136163Y143335D02*
Y148485D01*
X136141Y143313D02*
X136163Y143335D01*
X137781Y143413D02*
X137844Y143350D01*
Y117080D02*
Y143350D01*
X137764Y117000D02*
X137844Y117080D01*
X157771Y128740D02*
Y135090D01*
X150356Y130796D02*
Y133928D01*
X150357Y133929D01*
Y127470D02*
Y130795D01*
X151097Y132042D02*
X151098Y132043D01*
X150356Y130796D02*
X150357Y130795D01*
X151098Y132043D02*
Y141175D01*
X151837Y127485D02*
Y143337D01*
X150357Y133929D02*
Y136315D01*
X143260Y135745D02*
Y165970D01*
X158672Y140170D02*
Y147460D01*
X149000Y138000D02*
X150357D01*
X151087Y141186D02*
Y150281D01*
Y141186D02*
X151098Y141175D01*
X150352Y163787D02*
X150357Y163792D01*
X150352Y147220D02*
Y163787D01*
X150346Y147215D02*
X150352Y147220D01*
X151852Y147140D02*
Y155626D01*
X151814Y155664D02*
X151852Y155626D01*
X136300Y125966D02*
Y139154D01*
X144000Y141500D02*
Y148485D01*
X143260Y165970D02*
X143300Y166011D01*
X130115Y141186D02*
Y146624D01*
X144000Y76024D02*
Y83030D01*
X144740Y71232D02*
Y85146D01*
X136903Y83771D02*
Y94941D01*
X136962Y95000D01*
X136163Y86335D02*
Y91485D01*
X136141Y86313D02*
X136163Y86335D01*
X137781Y86413D02*
X137844Y86350D01*
Y60080D02*
Y86350D01*
X137764Y60000D02*
X137844Y60080D01*
X157771Y71740D02*
Y78090D01*
X150356Y73796D02*
Y76928D01*
X150357Y76929D01*
Y70470D02*
Y73795D01*
X151097Y75042D02*
X151098Y75043D01*
X150356Y73796D02*
X150357Y73795D01*
X151098Y75043D02*
Y84175D01*
X151837Y70485D02*
Y86337D01*
X150357Y76929D02*
Y79315D01*
X143260Y78745D02*
Y108970D01*
X158672Y83170D02*
Y90460D01*
X149000Y81000D02*
X150357D01*
X151087Y84186D02*
Y93281D01*
Y84186D02*
X151098Y84175D01*
X150352Y106787D02*
X150357Y106792D01*
X150352Y90220D02*
Y106787D01*
X150346Y90215D02*
X150352Y90220D01*
X151852Y90140D02*
Y98626D01*
X151814Y98664D02*
X151852Y98626D01*
X136300Y68966D02*
Y82154D01*
X144000Y84500D02*
Y91485D01*
X143260Y108970D02*
X143300Y109011D01*
X130115Y84186D02*
Y89624D01*
X144000Y19024D02*
Y26030D01*
X144740Y14232D02*
Y28146D01*
X136903Y26771D02*
Y37941D01*
X136962Y38000D01*
X136163Y29335D02*
Y34485D01*
X136141Y29313D02*
X136163Y29335D01*
X137781Y29413D02*
X137844Y29350D01*
Y3080D02*
Y29350D01*
X137764Y3000D02*
X137844Y3080D01*
X157771Y14740D02*
Y21090D01*
X150356Y16796D02*
Y19928D01*
X150357Y19929D01*
Y13470D02*
Y16795D01*
X151097Y18042D02*
X151098Y18043D01*
X150356Y16796D02*
X150357Y16795D01*
X151098Y18043D02*
Y27175D01*
X151837Y13485D02*
Y29337D01*
X150357Y19929D02*
Y22315D01*
X143259Y21745D02*
Y51970D01*
X158672Y26170D02*
Y33460D01*
X149000Y24000D02*
X150357D01*
X151087Y27186D02*
Y36281D01*
Y27186D02*
X151098Y27175D01*
X150352Y49787D02*
X150357Y49792D01*
X150352Y33220D02*
Y49787D01*
X150346Y33215D02*
X150352Y33220D01*
X151852Y33140D02*
Y41626D01*
X151814Y41664D02*
X151852Y41626D01*
X136300Y11966D02*
Y25154D01*
X144000Y27500D02*
Y34485D01*
X143259Y51970D02*
X143300Y52011D01*
X130115Y27186D02*
Y32624D01*
X86000Y133024D02*
Y140030D01*
X86741Y128232D02*
Y142146D01*
X78903Y140771D02*
Y151941D01*
X78962Y152000D01*
X78163Y143335D02*
Y148485D01*
X78141Y143313D02*
X78163Y143335D01*
X79781Y143413D02*
X79844Y143350D01*
Y117080D02*
Y143350D01*
X79764Y117000D02*
X79844Y117080D01*
X99771Y128740D02*
Y135090D01*
X92356Y130796D02*
Y133928D01*
X92357Y133929D01*
Y127470D02*
Y130795D01*
X93097Y132042D02*
X93098Y132043D01*
X92356Y130796D02*
X92357Y130795D01*
X93098Y132043D02*
Y141175D01*
X93837Y127485D02*
Y143337D01*
X92357Y133929D02*
Y136315D01*
X85259Y135745D02*
Y165970D01*
X100672Y140170D02*
Y147460D01*
X91000Y138000D02*
X92357D01*
X93087Y141186D02*
Y150281D01*
Y141186D02*
X93098Y141175D01*
X92352Y163787D02*
X92357Y163792D01*
X92352Y147220D02*
Y163787D01*
X92346Y147215D02*
X92352Y147220D01*
X93852Y147140D02*
Y155626D01*
X93814Y155664D02*
X93852Y155626D01*
X78300Y125966D02*
Y139154D01*
X86000Y141500D02*
Y148485D01*
X85259Y165970D02*
X85300Y166011D01*
X72115Y141186D02*
Y146624D01*
X86000Y76024D02*
Y83030D01*
X86741Y71232D02*
Y85146D01*
X78903Y83771D02*
Y94941D01*
X78962Y95000D01*
X78163Y86335D02*
Y91485D01*
X78141Y86313D02*
X78163Y86335D01*
X79781Y86413D02*
X79844Y86350D01*
Y60080D02*
Y86350D01*
X79764Y60000D02*
X79844Y60080D01*
X99771Y71740D02*
Y78090D01*
X92356Y73796D02*
Y76928D01*
X92357Y76929D01*
Y70470D02*
Y73795D01*
X93097Y75042D02*
X93098Y75043D01*
X92356Y73796D02*
X92357Y73795D01*
X93098Y75043D02*
Y84175D01*
X93837Y70485D02*
Y86337D01*
X92357Y76929D02*
Y79315D01*
X85259Y78745D02*
Y108970D01*
X100672Y83170D02*
Y90460D01*
X91000Y81000D02*
X92357D01*
X93087Y84186D02*
Y93281D01*
Y84186D02*
X93098Y84175D01*
X92352Y106787D02*
X92357Y106792D01*
X92352Y90220D02*
Y106787D01*
X92346Y90215D02*
X92352Y90220D01*
X93852Y90140D02*
Y98626D01*
X93814Y98664D02*
X93852Y98626D01*
X78300Y68966D02*
Y82154D01*
X86000Y84500D02*
Y91485D01*
X85259Y108970D02*
X85300Y109011D01*
X72115Y84186D02*
Y89624D01*
X86000Y19024D02*
Y26030D01*
X86741Y14232D02*
Y28146D01*
X78903Y26771D02*
Y37941D01*
X78962Y38000D01*
X78163Y29335D02*
Y34485D01*
X78141Y29313D02*
X78163Y29335D01*
X79781Y29413D02*
X79844Y29350D01*
Y3080D02*
Y29350D01*
X79764Y3000D02*
X79844Y3080D01*
X99771Y14740D02*
Y21090D01*
X92356Y16796D02*
Y19928D01*
X92357Y19929D01*
Y13470D02*
Y16795D01*
X93097Y18042D02*
X93098Y18043D01*
X92356Y16796D02*
X92357Y16795D01*
X93098Y18043D02*
Y27175D01*
X93837Y13485D02*
Y29337D01*
X92357Y19929D02*
Y22315D01*
X85259Y21745D02*
Y51970D01*
X100672Y26170D02*
Y33460D01*
X91000Y24000D02*
X92357D01*
X93087Y27186D02*
Y36281D01*
Y27186D02*
X93098Y27175D01*
X92352Y49787D02*
X92357Y49792D01*
X92352Y33220D02*
Y49787D01*
X92346Y33215D02*
X92352Y33220D01*
X93852Y33140D02*
Y41626D01*
X93814Y41664D02*
X93852Y41626D01*
X78300Y11966D02*
Y25154D01*
X86000Y27500D02*
Y34485D01*
X85259Y51970D02*
X85300Y52011D01*
X72115Y27186D02*
Y32624D01*
X28000Y133024D02*
Y140030D01*
X28740Y128232D02*
Y142146D01*
X20903Y140771D02*
Y151941D01*
X20962Y152000D01*
X20163Y143335D02*
Y148485D01*
X20141Y143313D02*
X20163Y143335D01*
X21781Y143413D02*
X21844Y143350D01*
Y117080D02*
Y143350D01*
X21764Y117000D02*
X21844Y117080D01*
X41771Y128740D02*
Y135090D01*
X34356Y130796D02*
Y133928D01*
X34357Y133929D01*
Y127470D02*
Y130795D01*
X35097Y132042D02*
X35097Y132043D01*
X34356Y130796D02*
X34357Y130795D01*
X35097Y132043D02*
Y141175D01*
X35837Y127485D02*
Y143337D01*
X34357Y133929D02*
Y136315D01*
X27260Y135745D02*
Y165970D01*
X42672Y140170D02*
Y147460D01*
X33000Y138000D02*
X34357D01*
X35087Y141186D02*
Y150281D01*
Y141186D02*
X35097Y141175D01*
X34352Y163787D02*
X34357Y163792D01*
X34352Y147220D02*
Y163787D01*
X34346Y147215D02*
X34352Y147220D01*
X35852Y147140D02*
Y155626D01*
X35814Y155664D02*
X35852Y155626D01*
X20300Y125966D02*
Y139154D01*
X28000Y141500D02*
Y148485D01*
X27260Y165970D02*
X27300Y166011D01*
X14115Y141186D02*
Y146624D01*
X28000Y76024D02*
Y83030D01*
X28740Y71232D02*
Y85146D01*
X20903Y83771D02*
Y94941D01*
X20962Y95000D01*
X20163Y86335D02*
Y91485D01*
X20141Y86313D02*
X20163Y86335D01*
X21781Y86413D02*
X21844Y86350D01*
Y60080D02*
Y86350D01*
X21764Y60000D02*
X21844Y60080D01*
X41771Y71740D02*
Y78090D01*
X34356Y73796D02*
Y76928D01*
X34357Y76929D01*
Y70470D02*
Y73795D01*
X35097Y75042D02*
X35097Y75043D01*
X34356Y73796D02*
X34357Y73795D01*
X35097Y75043D02*
Y84175D01*
X35837Y70485D02*
Y86337D01*
X34357Y76929D02*
Y79315D01*
X27260Y78745D02*
Y108970D01*
X42672Y83170D02*
Y90460D01*
X33000Y81000D02*
X34357D01*
X35087Y84186D02*
Y93281D01*
Y84186D02*
X35097Y84175D01*
X34352Y106787D02*
X34357Y106792D01*
X34352Y90220D02*
Y106787D01*
X34346Y90215D02*
X34352Y90220D01*
X35852Y90140D02*
Y98626D01*
X35814Y98664D02*
X35852Y98626D01*
X20300Y68966D02*
Y82154D01*
X28000Y84500D02*
Y91485D01*
X27260Y108970D02*
X27300Y109011D01*
X14115Y84186D02*
Y89624D01*
X28000Y19024D02*
Y26030D01*
X28740Y14232D02*
Y28146D01*
X20903Y26771D02*
Y37941D01*
X20962Y38000D01*
X20163Y29335D02*
Y34485D01*
X20141Y29313D02*
X20163Y29335D01*
X21781Y29413D02*
X21844Y29350D01*
Y3080D02*
Y29350D01*
X21764Y3000D02*
X21844Y3080D01*
X41771Y14740D02*
Y21090D01*
X34356Y16796D02*
Y19928D01*
X34357Y19929D01*
Y13470D02*
Y16795D01*
X35097Y18042D02*
X35097Y18043D01*
X34356Y16796D02*
X34357Y16795D01*
X35097Y18043D02*
Y27175D01*
X35837Y13485D02*
Y29337D01*
X34357Y19929D02*
Y22315D01*
X27260Y21745D02*
Y51970D01*
X42672Y26170D02*
Y33460D01*
X33000Y24000D02*
X34357D01*
X35087Y27186D02*
Y36281D01*
Y27186D02*
X35097Y27175D01*
X34352Y49787D02*
X34357Y49792D01*
X34352Y33220D02*
Y49787D01*
X34346Y33215D02*
X34352Y33220D01*
X35852Y33140D02*
Y41626D01*
X35814Y41664D02*
X35852Y41626D01*
X20300Y11966D02*
Y25154D01*
X28000Y27500D02*
Y34485D01*
X27260Y51970D02*
X27300Y52011D01*
X14115Y27186D02*
Y32624D01*
D13*
X135000Y135986D02*
D03*
X133621Y138000D02*
D03*
X144000Y133024D02*
D03*
X133500Y145000D02*
D03*
X136962Y152000D02*
D03*
X136141Y143313D02*
D03*
X137781Y143413D02*
D03*
X137645Y145013D02*
D03*
X136163Y148485D02*
D03*
X136903Y140771D02*
D03*
X170000Y128740D02*
D03*
X157771D02*
D03*
Y135090D02*
D03*
X147123Y137690D02*
D03*
X151097Y132042D02*
D03*
X154500Y138000D02*
D03*
X150357Y136315D02*
D03*
X143260Y135745D02*
D03*
X158672Y140170D02*
D03*
Y138000D02*
D03*
X151837Y143337D02*
D03*
X150357Y138000D02*
D03*
X162990Y127492D02*
D03*
X154500Y131000D02*
D03*
X151852Y127470D02*
D03*
X150346Y147215D02*
D03*
X151852Y147140D02*
D03*
X154500Y152000D02*
D03*
Y159000D02*
D03*
Y166000D02*
D03*
X156000Y155664D02*
D03*
X151814D02*
D03*
X151111Y150305D02*
D03*
X142000Y127492D02*
D03*
X150357Y127470D02*
D03*
X140665Y136964D02*
D03*
X137099Y138325D02*
D03*
X136300Y139154D02*
D03*
X128000Y128232D02*
D03*
X144740D02*
D03*
Y142146D02*
D03*
Y144996D02*
D03*
X144000Y148485D02*
D03*
X161500Y152000D02*
D03*
X158672Y147460D02*
D03*
X147500Y152000D02*
D03*
X147496Y160998D02*
D03*
X121000Y163792D02*
D03*
X150357D02*
D03*
X137764Y117000D02*
D03*
X144000Y141500D02*
D03*
X136300Y125966D02*
D03*
X144000Y140030D02*
D03*
X119500Y145000D02*
D03*
X130115Y141186D02*
D03*
X143300Y166011D02*
D03*
X147500Y131000D02*
D03*
X137082Y132042D02*
D03*
X140500Y131000D02*
D03*
X130115Y146624D02*
D03*
X168500Y138000D02*
D03*
X154500Y145000D02*
D03*
X140491Y161001D02*
D03*
X140538Y125946D02*
D03*
X147496D02*
D03*
X126456Y144306D02*
D03*
X126529Y138759D02*
D03*
X161500Y144260D02*
D03*
X119500Y166000D02*
D03*
Y159000D02*
D03*
Y152000D02*
D03*
Y138000D02*
D03*
Y131000D02*
D03*
Y124000D02*
D03*
X168500D02*
D03*
X154500D02*
D03*
X133500D02*
D03*
X126500D02*
D03*
X161500D02*
D03*
X168500Y117000D02*
D03*
X154500D02*
D03*
X147500D02*
D03*
X140500D02*
D03*
X133500D02*
D03*
X126500D02*
D03*
X119500D02*
D03*
X161500D02*
D03*
X168500Y131000D02*
D03*
X133500D02*
D03*
X126500D02*
D03*
X161500D02*
D03*
X168500Y145000D02*
D03*
Y152000D02*
D03*
X140500D02*
D03*
X133500D02*
D03*
X126500D02*
D03*
X161500Y159000D02*
D03*
X126500D02*
D03*
X133500D02*
D03*
X168500D02*
D03*
Y166000D02*
D03*
X161500D02*
D03*
X147500D02*
D03*
X140500D02*
D03*
X133500D02*
D03*
X126500D02*
D03*
X135000Y78986D02*
D03*
X133621Y81000D02*
D03*
X144000Y76024D02*
D03*
X133500Y88000D02*
D03*
X136962Y95000D02*
D03*
X136141Y86313D02*
D03*
X137781Y86413D02*
D03*
X137645Y88013D02*
D03*
X136163Y91485D02*
D03*
X136903Y83771D02*
D03*
X170000Y71740D02*
D03*
X157771D02*
D03*
Y78090D02*
D03*
X147123Y80690D02*
D03*
X151097Y75042D02*
D03*
X154500Y81000D02*
D03*
X150357Y79315D02*
D03*
X143260Y78745D02*
D03*
X158672Y83170D02*
D03*
Y81000D02*
D03*
X151837Y86337D02*
D03*
X150357Y81000D02*
D03*
X162990Y70491D02*
D03*
X154500Y74000D02*
D03*
X151852Y70470D02*
D03*
X150346Y90215D02*
D03*
X151852Y90140D02*
D03*
X154500Y95000D02*
D03*
Y102000D02*
D03*
Y109000D02*
D03*
X156000Y98664D02*
D03*
X151814D02*
D03*
X151111Y93305D02*
D03*
X142000Y70491D02*
D03*
X150357Y70470D02*
D03*
X140665Y79964D02*
D03*
X137099Y81325D02*
D03*
X136300Y82154D02*
D03*
X128000Y71232D02*
D03*
X144740D02*
D03*
Y85146D02*
D03*
Y87996D02*
D03*
X144000Y91485D02*
D03*
X161500Y95000D02*
D03*
X158672Y90460D02*
D03*
X147500Y95000D02*
D03*
X147496Y103998D02*
D03*
X121000Y106792D02*
D03*
X150357D02*
D03*
X137764Y60000D02*
D03*
X144000Y84500D02*
D03*
X136300Y68966D02*
D03*
X144000Y83030D02*
D03*
X119500Y88000D02*
D03*
X130115Y84186D02*
D03*
X143300Y109011D02*
D03*
X147500Y74000D02*
D03*
X137082Y75042D02*
D03*
X140500Y74000D02*
D03*
X130115Y89624D02*
D03*
X168500Y81000D02*
D03*
X154500Y88000D02*
D03*
X140491Y104001D02*
D03*
X140538Y68946D02*
D03*
X147496D02*
D03*
X126456Y87306D02*
D03*
X126529Y81759D02*
D03*
X161500Y87260D02*
D03*
X119500Y109000D02*
D03*
Y102000D02*
D03*
Y95000D02*
D03*
Y81000D02*
D03*
Y74000D02*
D03*
Y67000D02*
D03*
X168500D02*
D03*
X154500D02*
D03*
X133500D02*
D03*
X126500D02*
D03*
X161500D02*
D03*
X168500Y60000D02*
D03*
X154500D02*
D03*
X147500D02*
D03*
X140500D02*
D03*
X133500D02*
D03*
X126500D02*
D03*
X119500D02*
D03*
X161500D02*
D03*
X168500Y74000D02*
D03*
X133500D02*
D03*
X126500D02*
D03*
X161500D02*
D03*
X168500Y88000D02*
D03*
Y95000D02*
D03*
X140500D02*
D03*
X133500D02*
D03*
X126500D02*
D03*
X161500Y102000D02*
D03*
X126500D02*
D03*
X133500D02*
D03*
X168500D02*
D03*
Y109000D02*
D03*
X161500D02*
D03*
X147500D02*
D03*
X140500D02*
D03*
X133500D02*
D03*
X126500D02*
D03*
X135000Y21986D02*
D03*
X133621Y24000D02*
D03*
X144000Y19024D02*
D03*
X133500Y31000D02*
D03*
X136962Y38000D02*
D03*
X136141Y29313D02*
D03*
X137781Y29413D02*
D03*
X137645Y31013D02*
D03*
X136163Y34485D02*
D03*
X136903Y26771D02*
D03*
X170000Y14740D02*
D03*
X157771D02*
D03*
Y21090D02*
D03*
X147123Y23690D02*
D03*
X151097Y18042D02*
D03*
X154500Y24000D02*
D03*
X150357Y22315D02*
D03*
X143259Y21745D02*
D03*
X158672Y26170D02*
D03*
Y24000D02*
D03*
X151837Y29337D02*
D03*
X150357Y24000D02*
D03*
X162990Y13491D02*
D03*
X154500Y17000D02*
D03*
X151852Y13470D02*
D03*
X150346Y33215D02*
D03*
X151852Y33140D02*
D03*
X154500Y38000D02*
D03*
Y45000D02*
D03*
Y52000D02*
D03*
X156000Y41664D02*
D03*
X151814D02*
D03*
X151111Y36305D02*
D03*
X142000Y13491D02*
D03*
X150357Y13470D02*
D03*
X140665Y22964D02*
D03*
X137099Y24325D02*
D03*
X136300Y25154D02*
D03*
X128000Y14232D02*
D03*
X144740D02*
D03*
Y28146D02*
D03*
Y30996D02*
D03*
X144000Y34485D02*
D03*
X161500Y38000D02*
D03*
X158672Y33460D02*
D03*
X147500Y38000D02*
D03*
X147496Y46998D02*
D03*
X121000Y49792D02*
D03*
X150357D02*
D03*
X137764Y3000D02*
D03*
X144000Y27500D02*
D03*
X136300Y11966D02*
D03*
X144000Y26030D02*
D03*
X119500Y31000D02*
D03*
X130115Y27186D02*
D03*
X143300Y52011D02*
D03*
X147500Y17000D02*
D03*
X137082Y18042D02*
D03*
X140500Y17000D02*
D03*
X130115Y32624D02*
D03*
X168500Y24000D02*
D03*
X154500Y31000D02*
D03*
X140491Y47001D02*
D03*
X140538Y11946D02*
D03*
X147496D02*
D03*
X126456Y30306D02*
D03*
X126529Y24759D02*
D03*
X161500Y30260D02*
D03*
X119500Y52000D02*
D03*
Y45000D02*
D03*
Y38000D02*
D03*
Y24000D02*
D03*
Y17000D02*
D03*
Y10000D02*
D03*
X168500D02*
D03*
X154500D02*
D03*
X133500D02*
D03*
X126500D02*
D03*
X161500D02*
D03*
X168500Y3000D02*
D03*
X154500D02*
D03*
X147500D02*
D03*
X140500D02*
D03*
X133500D02*
D03*
X126500D02*
D03*
X119500D02*
D03*
X161500D02*
D03*
X168500Y17000D02*
D03*
X133500D02*
D03*
X126500D02*
D03*
X161500D02*
D03*
X168500Y31000D02*
D03*
Y38000D02*
D03*
X140500D02*
D03*
X133500D02*
D03*
X126500D02*
D03*
X161500Y45000D02*
D03*
X126500D02*
D03*
X133500D02*
D03*
X168500D02*
D03*
Y52000D02*
D03*
X161500D02*
D03*
X147500D02*
D03*
X140500D02*
D03*
X133500D02*
D03*
X126500D02*
D03*
X77000Y135986D02*
D03*
X75621Y138000D02*
D03*
X86000Y133024D02*
D03*
X75500Y145000D02*
D03*
X78962Y152000D02*
D03*
X78141Y143313D02*
D03*
X79781Y143413D02*
D03*
X79645Y145013D02*
D03*
X78163Y148485D02*
D03*
X78903Y140771D02*
D03*
X112000Y128740D02*
D03*
X99771D02*
D03*
Y135090D02*
D03*
X89123Y137690D02*
D03*
X93097Y132042D02*
D03*
X96500Y138000D02*
D03*
X92357Y136315D02*
D03*
X85259Y135745D02*
D03*
X100672Y140170D02*
D03*
Y138000D02*
D03*
X93837Y143337D02*
D03*
X92357Y138000D02*
D03*
X104990Y127492D02*
D03*
X96500Y131000D02*
D03*
X93852Y127470D02*
D03*
X92346Y147215D02*
D03*
X93852Y147140D02*
D03*
X96500Y152000D02*
D03*
Y159000D02*
D03*
Y166000D02*
D03*
X98000Y155664D02*
D03*
X93814D02*
D03*
X93111Y150305D02*
D03*
X84000Y127492D02*
D03*
X92357Y127470D02*
D03*
X82665Y136964D02*
D03*
X79099Y138325D02*
D03*
X78300Y139154D02*
D03*
X70000Y128232D02*
D03*
X86741D02*
D03*
Y142146D02*
D03*
Y144996D02*
D03*
X86000Y148485D02*
D03*
X103500Y152000D02*
D03*
X100672Y147460D02*
D03*
X89500Y152000D02*
D03*
X89496Y160998D02*
D03*
X63000Y163792D02*
D03*
X92357D02*
D03*
X79764Y117000D02*
D03*
X86000Y141500D02*
D03*
X78300Y125966D02*
D03*
X86000Y140030D02*
D03*
X61500Y145000D02*
D03*
X72115Y141186D02*
D03*
X85300Y166011D02*
D03*
X89500Y131000D02*
D03*
X79082Y132042D02*
D03*
X82500Y131000D02*
D03*
X72115Y146624D02*
D03*
X110500Y138000D02*
D03*
X96500Y145000D02*
D03*
X82491Y161001D02*
D03*
X82538Y125946D02*
D03*
X89496D02*
D03*
X68456Y144306D02*
D03*
X68529Y138759D02*
D03*
X103500Y144260D02*
D03*
X61500Y166000D02*
D03*
Y159000D02*
D03*
Y152000D02*
D03*
Y138000D02*
D03*
Y131000D02*
D03*
Y124000D02*
D03*
X110500D02*
D03*
X96500D02*
D03*
X75500D02*
D03*
X68500D02*
D03*
X103500D02*
D03*
X110500Y117000D02*
D03*
X96500D02*
D03*
X89500D02*
D03*
X82500D02*
D03*
X75500D02*
D03*
X68500D02*
D03*
X61500D02*
D03*
X103500D02*
D03*
X110500Y131000D02*
D03*
X75500D02*
D03*
X68500D02*
D03*
X103500D02*
D03*
X110500Y145000D02*
D03*
Y152000D02*
D03*
X82500D02*
D03*
X75500D02*
D03*
X68500D02*
D03*
X103500Y159000D02*
D03*
X68500D02*
D03*
X75500D02*
D03*
X110500D02*
D03*
Y166000D02*
D03*
X103500D02*
D03*
X89500D02*
D03*
X82500D02*
D03*
X75500D02*
D03*
X68500D02*
D03*
X77000Y78986D02*
D03*
X75621Y81000D02*
D03*
X86000Y76024D02*
D03*
X75500Y88000D02*
D03*
X78962Y95000D02*
D03*
X78141Y86313D02*
D03*
X79781Y86413D02*
D03*
X79645Y88013D02*
D03*
X78163Y91485D02*
D03*
X78903Y83771D02*
D03*
X112000Y71740D02*
D03*
X99771D02*
D03*
Y78090D02*
D03*
X89123Y80690D02*
D03*
X93097Y75042D02*
D03*
X96500Y81000D02*
D03*
X92357Y79315D02*
D03*
X85259Y78745D02*
D03*
X100672Y83170D02*
D03*
Y81000D02*
D03*
X93837Y86337D02*
D03*
X92357Y81000D02*
D03*
X104990Y70491D02*
D03*
X96500Y74000D02*
D03*
X93852Y70470D02*
D03*
X92346Y90215D02*
D03*
X93852Y90140D02*
D03*
X96500Y95000D02*
D03*
Y102000D02*
D03*
Y109000D02*
D03*
X98000Y98664D02*
D03*
X93814D02*
D03*
X93111Y93305D02*
D03*
X84000Y70491D02*
D03*
X92357Y70470D02*
D03*
X82665Y79964D02*
D03*
X79099Y81325D02*
D03*
X78300Y82154D02*
D03*
X70000Y71232D02*
D03*
X86741D02*
D03*
Y85146D02*
D03*
Y87996D02*
D03*
X86000Y91485D02*
D03*
X103500Y95000D02*
D03*
X100672Y90460D02*
D03*
X89500Y95000D02*
D03*
X89496Y103998D02*
D03*
X63000Y106792D02*
D03*
X92357D02*
D03*
X79764Y60000D02*
D03*
X86000Y84500D02*
D03*
X78300Y68966D02*
D03*
X86000Y83030D02*
D03*
X61500Y88000D02*
D03*
X72115Y84186D02*
D03*
X85300Y109011D02*
D03*
X89500Y74000D02*
D03*
X79082Y75042D02*
D03*
X82500Y74000D02*
D03*
X72115Y89624D02*
D03*
X110500Y81000D02*
D03*
X96500Y88000D02*
D03*
X82491Y104001D02*
D03*
X82538Y68946D02*
D03*
X89496D02*
D03*
X68456Y87306D02*
D03*
X68529Y81759D02*
D03*
X103500Y87260D02*
D03*
X61500Y109000D02*
D03*
Y102000D02*
D03*
Y95000D02*
D03*
Y81000D02*
D03*
Y74000D02*
D03*
Y67000D02*
D03*
X110500D02*
D03*
X96500D02*
D03*
X75500D02*
D03*
X68500D02*
D03*
X103500D02*
D03*
X110500Y60000D02*
D03*
X96500D02*
D03*
X89500D02*
D03*
X82500D02*
D03*
X75500D02*
D03*
X68500D02*
D03*
X61500D02*
D03*
X103500D02*
D03*
X110500Y74000D02*
D03*
X75500D02*
D03*
X68500D02*
D03*
X103500D02*
D03*
X110500Y88000D02*
D03*
Y95000D02*
D03*
X82500D02*
D03*
X75500D02*
D03*
X68500D02*
D03*
X103500Y102000D02*
D03*
X68500D02*
D03*
X75500D02*
D03*
X110500D02*
D03*
Y109000D02*
D03*
X103500D02*
D03*
X89500D02*
D03*
X82500D02*
D03*
X75500D02*
D03*
X68500D02*
D03*
X77000Y21986D02*
D03*
X75621Y24000D02*
D03*
X86000Y19024D02*
D03*
X75500Y31000D02*
D03*
X78962Y38000D02*
D03*
X78141Y29313D02*
D03*
X79781Y29413D02*
D03*
X79645Y31013D02*
D03*
X78163Y34485D02*
D03*
X78903Y26771D02*
D03*
X112000Y14740D02*
D03*
X99771D02*
D03*
Y21090D02*
D03*
X89123Y23690D02*
D03*
X93097Y18042D02*
D03*
X96500Y24000D02*
D03*
X92357Y22315D02*
D03*
X85259Y21745D02*
D03*
X100672Y26170D02*
D03*
Y24000D02*
D03*
X93837Y29337D02*
D03*
X92357Y24000D02*
D03*
X104990Y13491D02*
D03*
X96500Y17000D02*
D03*
X93852Y13470D02*
D03*
X92346Y33215D02*
D03*
X93852Y33140D02*
D03*
X96500Y38000D02*
D03*
Y45000D02*
D03*
Y52000D02*
D03*
X98000Y41664D02*
D03*
X93814D02*
D03*
X93111Y36305D02*
D03*
X84000Y13491D02*
D03*
X92357Y13470D02*
D03*
X82665Y22964D02*
D03*
X79099Y24325D02*
D03*
X78300Y25154D02*
D03*
X70000Y14232D02*
D03*
X86741D02*
D03*
Y28146D02*
D03*
Y30996D02*
D03*
X86000Y34485D02*
D03*
X103500Y38000D02*
D03*
X100672Y33460D02*
D03*
X89500Y38000D02*
D03*
X89496Y46998D02*
D03*
X63000Y49792D02*
D03*
X92357D02*
D03*
X79764Y3000D02*
D03*
X86000Y27500D02*
D03*
X78300Y11966D02*
D03*
X86000Y26030D02*
D03*
X61500Y31000D02*
D03*
X72115Y27186D02*
D03*
X85300Y52011D02*
D03*
X89500Y17000D02*
D03*
X79082Y18042D02*
D03*
X82500Y17000D02*
D03*
X72115Y32624D02*
D03*
X110500Y24000D02*
D03*
X96500Y31000D02*
D03*
X82491Y47001D02*
D03*
X82538Y11946D02*
D03*
X89496D02*
D03*
X68456Y30306D02*
D03*
X68529Y24759D02*
D03*
X103500Y30260D02*
D03*
X61500Y52000D02*
D03*
Y45000D02*
D03*
Y38000D02*
D03*
Y24000D02*
D03*
Y17000D02*
D03*
Y10000D02*
D03*
X110500D02*
D03*
X96500D02*
D03*
X75500D02*
D03*
X68500D02*
D03*
X103500D02*
D03*
X110500Y3000D02*
D03*
X96500D02*
D03*
X89500D02*
D03*
X82500D02*
D03*
X75500D02*
D03*
X68500D02*
D03*
X61500D02*
D03*
X103500D02*
D03*
X110500Y17000D02*
D03*
X75500D02*
D03*
X68500D02*
D03*
X103500D02*
D03*
X110500Y31000D02*
D03*
Y38000D02*
D03*
X82500D02*
D03*
X75500D02*
D03*
X68500D02*
D03*
X103500Y45000D02*
D03*
X68500D02*
D03*
X75500D02*
D03*
X110500D02*
D03*
Y52000D02*
D03*
X103500D02*
D03*
X89500D02*
D03*
X82500D02*
D03*
X75500D02*
D03*
X68500D02*
D03*
X19000Y135986D02*
D03*
X17621Y138000D02*
D03*
X28000Y133024D02*
D03*
X17500Y145000D02*
D03*
X20962Y152000D02*
D03*
X20141Y143313D02*
D03*
X21781Y143413D02*
D03*
X21645Y145013D02*
D03*
X20163Y148485D02*
D03*
X20903Y140771D02*
D03*
X54000Y128740D02*
D03*
X41771D02*
D03*
Y135090D02*
D03*
X31123Y137690D02*
D03*
X35097Y132042D02*
D03*
X38500Y138000D02*
D03*
X34357Y136315D02*
D03*
X27260Y135745D02*
D03*
X42672Y140170D02*
D03*
Y138000D02*
D03*
X35837Y143337D02*
D03*
X34357Y138000D02*
D03*
X46990Y127492D02*
D03*
X38500Y131000D02*
D03*
X35852Y127470D02*
D03*
X34346Y147215D02*
D03*
X35852Y147140D02*
D03*
X38500Y152000D02*
D03*
Y159000D02*
D03*
Y166000D02*
D03*
X40000Y155664D02*
D03*
X35814D02*
D03*
X35111Y150305D02*
D03*
X26000Y127492D02*
D03*
X34357Y127470D02*
D03*
X24665Y136964D02*
D03*
X21099Y138325D02*
D03*
X20300Y139154D02*
D03*
X12000Y128232D02*
D03*
X28740D02*
D03*
Y142146D02*
D03*
Y144996D02*
D03*
X28000Y148485D02*
D03*
X45500Y152000D02*
D03*
X42672Y147460D02*
D03*
X31500Y152000D02*
D03*
X31496Y160998D02*
D03*
X5000Y163792D02*
D03*
X34357D02*
D03*
X21764Y117000D02*
D03*
X28000Y141500D02*
D03*
X20300Y125966D02*
D03*
X28000Y140030D02*
D03*
X3500Y145000D02*
D03*
X14115Y141186D02*
D03*
X27300Y166011D02*
D03*
X31500Y131000D02*
D03*
X21082Y132042D02*
D03*
X24500Y131000D02*
D03*
X14115Y146624D02*
D03*
X52500Y138000D02*
D03*
X38500Y145000D02*
D03*
X24491Y161001D02*
D03*
X24538Y125946D02*
D03*
X31496D02*
D03*
X10456Y144306D02*
D03*
X10529Y138759D02*
D03*
X45500Y144260D02*
D03*
X3500Y166000D02*
D03*
Y159000D02*
D03*
Y152000D02*
D03*
Y138000D02*
D03*
Y131000D02*
D03*
Y124000D02*
D03*
X52500D02*
D03*
X38500D02*
D03*
X17500D02*
D03*
X10500D02*
D03*
X45500D02*
D03*
X52500Y117000D02*
D03*
X38500D02*
D03*
X31500D02*
D03*
X24500D02*
D03*
X17500D02*
D03*
X10500D02*
D03*
X3500D02*
D03*
X45500D02*
D03*
X52500Y131000D02*
D03*
X17500D02*
D03*
X10500D02*
D03*
X45500D02*
D03*
X52500Y145000D02*
D03*
Y152000D02*
D03*
X24500D02*
D03*
X17500D02*
D03*
X10500D02*
D03*
X45500Y159000D02*
D03*
X10500D02*
D03*
X17500D02*
D03*
X52500D02*
D03*
Y166000D02*
D03*
X45500D02*
D03*
X31500D02*
D03*
X24500D02*
D03*
X17500D02*
D03*
X10500D02*
D03*
X19000Y78986D02*
D03*
X17621Y81000D02*
D03*
X28000Y76024D02*
D03*
X17500Y88000D02*
D03*
X20962Y95000D02*
D03*
X20141Y86313D02*
D03*
X21781Y86413D02*
D03*
X21645Y88013D02*
D03*
X20163Y91485D02*
D03*
X20903Y83771D02*
D03*
X54000Y71740D02*
D03*
X41771D02*
D03*
Y78090D02*
D03*
X31123Y80690D02*
D03*
X35097Y75042D02*
D03*
X38500Y81000D02*
D03*
X34357Y79315D02*
D03*
X27260Y78745D02*
D03*
X42672Y83170D02*
D03*
Y81000D02*
D03*
X35837Y86337D02*
D03*
X34357Y81000D02*
D03*
X46990Y70492D02*
D03*
X38500Y74000D02*
D03*
X35852Y70470D02*
D03*
X34346Y90215D02*
D03*
X35852Y90140D02*
D03*
X38500Y95000D02*
D03*
Y102000D02*
D03*
Y109000D02*
D03*
X40000Y98664D02*
D03*
X35814D02*
D03*
X35111Y93305D02*
D03*
X26000Y70492D02*
D03*
X34357Y70470D02*
D03*
X24665Y79964D02*
D03*
X21099Y81325D02*
D03*
X20300Y82154D02*
D03*
X12000Y71232D02*
D03*
X28740D02*
D03*
Y85146D02*
D03*
Y87996D02*
D03*
X28000Y91485D02*
D03*
X45500Y95000D02*
D03*
X42672Y90460D02*
D03*
X31500Y95000D02*
D03*
X31496Y103998D02*
D03*
X5000Y106792D02*
D03*
X34357D02*
D03*
X21764Y60000D02*
D03*
X28000Y84500D02*
D03*
X20300Y68966D02*
D03*
X28000Y83030D02*
D03*
X3500Y88000D02*
D03*
X14115Y84186D02*
D03*
X27300Y109011D02*
D03*
X31500Y74000D02*
D03*
X21082Y75042D02*
D03*
X24500Y74000D02*
D03*
X14115Y89624D02*
D03*
X52500Y81000D02*
D03*
X38500Y88000D02*
D03*
X24491Y104001D02*
D03*
X24538Y68946D02*
D03*
X31496D02*
D03*
X10456Y87306D02*
D03*
X10529Y81759D02*
D03*
X45500Y87260D02*
D03*
X3500Y109000D02*
D03*
Y102000D02*
D03*
Y95000D02*
D03*
Y81000D02*
D03*
Y74000D02*
D03*
Y67000D02*
D03*
X52500D02*
D03*
X38500D02*
D03*
X17500D02*
D03*
X10500D02*
D03*
X45500D02*
D03*
X52500Y60000D02*
D03*
X38500D02*
D03*
X31500D02*
D03*
X24500D02*
D03*
X17500D02*
D03*
X10500D02*
D03*
X3500D02*
D03*
X45500D02*
D03*
X52500Y74000D02*
D03*
X17500D02*
D03*
X10500D02*
D03*
X45500D02*
D03*
X52500Y88000D02*
D03*
Y95000D02*
D03*
X24500D02*
D03*
X17500D02*
D03*
X10500D02*
D03*
X45500Y102000D02*
D03*
X10500D02*
D03*
X17500D02*
D03*
X52500D02*
D03*
Y109000D02*
D03*
X45500D02*
D03*
X31500D02*
D03*
X24500D02*
D03*
X17500D02*
D03*
X10500D02*
D03*
X19000Y21986D02*
D03*
X17621Y24000D02*
D03*
X28000Y19024D02*
D03*
X17500Y31000D02*
D03*
X20962Y38000D02*
D03*
X20141Y29313D02*
D03*
X21781Y29413D02*
D03*
X21645Y31013D02*
D03*
X20163Y34485D02*
D03*
X20903Y26771D02*
D03*
X54000Y14740D02*
D03*
X41771D02*
D03*
Y21090D02*
D03*
X31123Y23690D02*
D03*
X35097Y18042D02*
D03*
X38500Y24000D02*
D03*
X34357Y22315D02*
D03*
X27260Y21745D02*
D03*
X42672Y26170D02*
D03*
Y24000D02*
D03*
X35837Y29337D02*
D03*
X34357Y24000D02*
D03*
X46990Y13491D02*
D03*
X38500Y17000D02*
D03*
X35852Y13470D02*
D03*
X34346Y33215D02*
D03*
X35852Y33140D02*
D03*
X38500Y38000D02*
D03*
Y45000D02*
D03*
Y52000D02*
D03*
X40000Y41664D02*
D03*
X35814D02*
D03*
X35111Y36305D02*
D03*
X26000Y13491D02*
D03*
X34357Y13470D02*
D03*
X24665Y22964D02*
D03*
X21099Y24325D02*
D03*
X20300Y25154D02*
D03*
X12000Y14232D02*
D03*
X28740D02*
D03*
Y28146D02*
D03*
Y30996D02*
D03*
X28000Y34485D02*
D03*
X45500Y38000D02*
D03*
X42672Y33460D02*
D03*
X31500Y38000D02*
D03*
X31496Y46998D02*
D03*
X5000Y49792D02*
D03*
X34357D02*
D03*
X21764Y3000D02*
D03*
X28000Y27500D02*
D03*
X20300Y11966D02*
D03*
X28000Y26030D02*
D03*
X3500Y31000D02*
D03*
X14115Y27186D02*
D03*
X27300Y52011D02*
D03*
X31500Y17000D02*
D03*
X21082Y18042D02*
D03*
X24500Y17000D02*
D03*
X14115Y32624D02*
D03*
X52500Y24000D02*
D03*
X38500Y31000D02*
D03*
X24491Y47001D02*
D03*
X24538Y11946D02*
D03*
X31496D02*
D03*
X10456Y30306D02*
D03*
X10529Y24759D02*
D03*
X45500Y30260D02*
D03*
X3500Y52000D02*
D03*
Y45000D02*
D03*
Y38000D02*
D03*
Y24000D02*
D03*
Y17000D02*
D03*
Y10000D02*
D03*
X52500D02*
D03*
X38500D02*
D03*
X17500D02*
D03*
X10500D02*
D03*
X45500D02*
D03*
X52500Y3000D02*
D03*
X38500D02*
D03*
X31500D02*
D03*
X24500D02*
D03*
X17500D02*
D03*
X10500D02*
D03*
X3500D02*
D03*
X45500D02*
D03*
X52500Y17000D02*
D03*
X17500D02*
D03*
X10500D02*
D03*
X45500D02*
D03*
X52500Y31000D02*
D03*
Y38000D02*
D03*
X24500D02*
D03*
X17500D02*
D03*
X10500D02*
D03*
X45500Y45000D02*
D03*
X10500D02*
D03*
X17500D02*
D03*
X52500D02*
D03*
Y52000D02*
D03*
X45500D02*
D03*
X31500D02*
D03*
X24500D02*
D03*
X17500D02*
D03*
X10500D02*
D03*
%TF.MD5,5d2af6c2d3799ae337e68278e8d4f7b2*%
M02*
