%TF.GenerationSoftware,Altium Limited,Altium Designer,22.2.1 (43)*%
G04 Layer_Color=32768*
%FSLAX43Y43*%
%MOMM*%
%TF.SameCoordinates,AB736A1D-8950-4953-8E2C-7617CC14EE6A*%
%TF.FilePolarity,Positive*%
%TF.FileFunction,Other,Board_Outline_(ES)*%
%TF.Part,CustomerPanel*%
G01*
G75*
%TA.AperFunction,NonConductor*%
%ADD25C,0.254*%
D25*
X0Y0D02*
X128000D01*
X0Y183000D02*
X128000D01*
Y0D02*
Y183000D01*
X0Y0D02*
Y183000D01*
X65000Y121000D02*
X121000D01*
X65000Y176000D02*
X121000D01*
Y121000D02*
Y176000D01*
X65000Y121000D02*
Y176000D01*
Y64000D02*
X121000D01*
X65000Y119000D02*
X121000D01*
Y64000D02*
Y119000D01*
X65000Y64000D02*
Y119000D01*
Y7000D02*
X121000D01*
X65000Y62000D02*
X121000D01*
Y7000D02*
Y62000D01*
X65000Y7000D02*
Y62000D01*
X7000Y121000D02*
X63000D01*
X7000Y176000D02*
X63000D01*
Y121000D02*
Y176000D01*
X7000Y121000D02*
Y176000D01*
Y64000D02*
X63000D01*
X7000Y119000D02*
X63000D01*
Y64000D02*
Y119000D01*
X7000Y64000D02*
Y119000D01*
Y7000D02*
X63000D01*
X7000Y62000D02*
X63000D01*
Y7000D02*
Y62000D01*
X7000Y7000D02*
Y62000D01*
%TF.MD5,dc306545a52c576e70ad70991c0fdf10*%
M02*
