%TF.GenerationSoftware,Altium Limited,Altium Designer,21.6.1 (37)*%
G04 Layer_Color=255*
%FSLAX43Y43*%
%MOMM*%
%TF.SameCoordinates,8D5B277E-474B-43DD-86F4-B2073A371E15*%
%TF.FilePolarity,Positive*%
%TF.FileFunction,Pads,Bot*%
%TF.Part,CustomerPanel*%
G01*
G75*
%TA.AperFunction,SMDPad,CuDef*%
%ADD14R,0.800X2.500*%
%ADD15R,2.500X0.800*%
%ADD16R,2.500X1.000*%
%ADD17R,1.000X2.500*%
G04:AMPARAMS|DCode=18|XSize=2.298mm|YSize=0.567mm|CornerRadius=0.283mm|HoleSize=0mm|Usage=FLASHONLY|Rotation=0.000|XOffset=0mm|YOffset=0mm|HoleType=Round|Shape=RoundedRectangle|*
%AMROUNDEDRECTD18*
21,1,2.298,0.000,0,0,0.0*
21,1,1.731,0.567,0,0,0.0*
1,1,0.567,0.865,0.000*
1,1,0.567,-0.865,0.000*
1,1,0.567,-0.865,0.000*
1,1,0.567,0.865,0.000*
%
%ADD18ROUNDEDRECTD18*%
%ADD19R,2.298X0.567*%
%ADD20R,1.300X1.450*%
%ADD21R,1.450X1.350*%
D14*
X140190Y158040D02*
D03*
X142730D02*
D03*
X140190Y154210D02*
D03*
X142730D02*
D03*
X145270Y158040D02*
D03*
X147810D02*
D03*
X145270Y154210D02*
D03*
X147810D02*
D03*
X140190Y101040D02*
D03*
X142730D02*
D03*
X140190Y97210D02*
D03*
X142730D02*
D03*
X145270Y101040D02*
D03*
X147810D02*
D03*
X145270Y97210D02*
D03*
X147810D02*
D03*
X140190Y44040D02*
D03*
X142730D02*
D03*
X140190Y40210D02*
D03*
X142730D02*
D03*
X145270Y44040D02*
D03*
X147810D02*
D03*
X145270Y40210D02*
D03*
X147810D02*
D03*
X82190Y158040D02*
D03*
X84730D02*
D03*
X82190Y154210D02*
D03*
X84730D02*
D03*
X87270Y158040D02*
D03*
X89810D02*
D03*
X87270Y154210D02*
D03*
X89810D02*
D03*
X82190Y101040D02*
D03*
X84730D02*
D03*
X82190Y97210D02*
D03*
X84730D02*
D03*
X87270Y101040D02*
D03*
X89810D02*
D03*
X87270Y97210D02*
D03*
X89810D02*
D03*
X82190Y44040D02*
D03*
X84730D02*
D03*
X82190Y40210D02*
D03*
X84730D02*
D03*
X87270Y44040D02*
D03*
X89810D02*
D03*
X87270Y40210D02*
D03*
X89810D02*
D03*
X24190Y158040D02*
D03*
X26730D02*
D03*
X24190Y154210D02*
D03*
X26730D02*
D03*
X29270Y158040D02*
D03*
X31810D02*
D03*
X29270Y154210D02*
D03*
X31810D02*
D03*
X24190Y101040D02*
D03*
X26730D02*
D03*
X24190Y97210D02*
D03*
X26730D02*
D03*
X29270Y101040D02*
D03*
X31810D02*
D03*
X29270Y97210D02*
D03*
X31810D02*
D03*
X24190Y44040D02*
D03*
X26730D02*
D03*
X24190Y40210D02*
D03*
X26730D02*
D03*
X29270Y44040D02*
D03*
X31810D02*
D03*
X29270Y40210D02*
D03*
X31810D02*
D03*
D15*
X130790Y145310D02*
D03*
Y142770D02*
D03*
X126960Y145310D02*
D03*
Y142770D02*
D03*
X130790Y140230D02*
D03*
Y137690D02*
D03*
X126960Y140230D02*
D03*
Y137690D02*
D03*
X130790Y88310D02*
D03*
Y85770D02*
D03*
X126960Y88310D02*
D03*
Y85770D02*
D03*
X130790Y83230D02*
D03*
Y80690D02*
D03*
X126960Y83230D02*
D03*
Y80690D02*
D03*
X130790Y31310D02*
D03*
Y28770D02*
D03*
X126960Y31310D02*
D03*
Y28770D02*
D03*
X130790Y26230D02*
D03*
Y23690D02*
D03*
X126960Y26230D02*
D03*
Y23690D02*
D03*
X72790Y145310D02*
D03*
Y142770D02*
D03*
X68960Y145310D02*
D03*
Y142770D02*
D03*
X72790Y140230D02*
D03*
Y137690D02*
D03*
X68960Y140230D02*
D03*
Y137690D02*
D03*
X72790Y88310D02*
D03*
Y85770D02*
D03*
X68960Y88310D02*
D03*
Y85770D02*
D03*
X72790Y83230D02*
D03*
Y80690D02*
D03*
X68960Y83230D02*
D03*
Y80690D02*
D03*
X72790Y31310D02*
D03*
Y28770D02*
D03*
X68960Y31310D02*
D03*
Y28770D02*
D03*
X72790Y26230D02*
D03*
Y23690D02*
D03*
X68960Y26230D02*
D03*
Y23690D02*
D03*
X14790Y145310D02*
D03*
Y142770D02*
D03*
X10960Y145310D02*
D03*
Y142770D02*
D03*
X14790Y140230D02*
D03*
Y137690D02*
D03*
X10960Y140230D02*
D03*
Y137690D02*
D03*
X14790Y88310D02*
D03*
Y85770D02*
D03*
X10960Y88310D02*
D03*
Y85770D02*
D03*
X14790Y83230D02*
D03*
Y80690D02*
D03*
X10960Y83230D02*
D03*
Y80690D02*
D03*
X14790Y31310D02*
D03*
Y28770D02*
D03*
X10960Y31310D02*
D03*
Y28770D02*
D03*
X14790Y26230D02*
D03*
Y23690D02*
D03*
X10960Y26230D02*
D03*
Y23690D02*
D03*
D16*
X162080Y145310D02*
D03*
Y142770D02*
D03*
X165780Y145310D02*
D03*
Y142770D02*
D03*
Y137690D02*
D03*
X162080D02*
D03*
X165780Y140230D02*
D03*
X162080D02*
D03*
X162080Y88310D02*
D03*
Y85770D02*
D03*
X165780Y88310D02*
D03*
Y85770D02*
D03*
Y80690D02*
D03*
X162080D02*
D03*
X165780Y83230D02*
D03*
X162080D02*
D03*
X162080Y31310D02*
D03*
Y28770D02*
D03*
X165780Y31310D02*
D03*
Y28770D02*
D03*
Y23690D02*
D03*
X162080D02*
D03*
X165780Y26230D02*
D03*
X162080D02*
D03*
X104080Y145310D02*
D03*
Y142770D02*
D03*
X107780Y145310D02*
D03*
Y142770D02*
D03*
Y137690D02*
D03*
X104080D02*
D03*
X107780Y140230D02*
D03*
X104080D02*
D03*
Y88310D02*
D03*
Y85770D02*
D03*
X107780Y88310D02*
D03*
Y85770D02*
D03*
Y80690D02*
D03*
X104080D02*
D03*
X107780Y83230D02*
D03*
X104080D02*
D03*
Y31310D02*
D03*
Y28770D02*
D03*
X107780Y31310D02*
D03*
Y28770D02*
D03*
Y23690D02*
D03*
X104080D02*
D03*
X107780Y26230D02*
D03*
X104080D02*
D03*
X46080Y145310D02*
D03*
Y142770D02*
D03*
X49780Y145310D02*
D03*
Y142770D02*
D03*
Y137690D02*
D03*
X46080D02*
D03*
X49780Y140230D02*
D03*
X46080D02*
D03*
Y88310D02*
D03*
Y85770D02*
D03*
X49780Y88310D02*
D03*
Y85770D02*
D03*
Y80690D02*
D03*
X46080D02*
D03*
X49780Y83230D02*
D03*
X46080D02*
D03*
Y31310D02*
D03*
Y28770D02*
D03*
X49780Y31310D02*
D03*
Y28770D02*
D03*
Y23690D02*
D03*
X46080D02*
D03*
X49780Y26230D02*
D03*
X46080D02*
D03*
D17*
X142730Y123920D02*
D03*
Y120220D02*
D03*
X140190Y123920D02*
D03*
Y120220D02*
D03*
X145270D02*
D03*
X147810D02*
D03*
X145270Y123920D02*
D03*
X147810D02*
D03*
X142730Y66920D02*
D03*
Y63220D02*
D03*
X140190Y66920D02*
D03*
Y63220D02*
D03*
X145270D02*
D03*
X147810D02*
D03*
X145270Y66920D02*
D03*
X147810D02*
D03*
X142730Y9920D02*
D03*
Y6220D02*
D03*
X140190Y9920D02*
D03*
Y6220D02*
D03*
X145270D02*
D03*
X147810D02*
D03*
X145270Y9920D02*
D03*
X147810D02*
D03*
X84730Y123920D02*
D03*
Y120220D02*
D03*
X82190Y123920D02*
D03*
Y120220D02*
D03*
X87270D02*
D03*
X89810D02*
D03*
X87270Y123920D02*
D03*
X89810D02*
D03*
X84730Y66920D02*
D03*
Y63220D02*
D03*
X82190Y66920D02*
D03*
Y63220D02*
D03*
X87270D02*
D03*
X89810D02*
D03*
X87270Y66920D02*
D03*
X89810D02*
D03*
X84730Y9920D02*
D03*
Y6220D02*
D03*
X82190Y9920D02*
D03*
Y6220D02*
D03*
X87270D02*
D03*
X89810D02*
D03*
X87270Y9920D02*
D03*
X89810D02*
D03*
X26730Y123920D02*
D03*
Y120220D02*
D03*
X24190Y123920D02*
D03*
Y120220D02*
D03*
X29270D02*
D03*
X31810D02*
D03*
X29270Y123920D02*
D03*
X31810D02*
D03*
X26730Y66920D02*
D03*
Y63220D02*
D03*
X24190Y66920D02*
D03*
Y63220D02*
D03*
X29270D02*
D03*
X31810D02*
D03*
X29270Y66920D02*
D03*
X31810D02*
D03*
X26730Y9920D02*
D03*
Y6220D02*
D03*
X24190Y9920D02*
D03*
Y6220D02*
D03*
X29270D02*
D03*
X31810D02*
D03*
X29270Y9920D02*
D03*
X31810D02*
D03*
D18*
X148528Y134515D02*
D03*
Y135785D02*
D03*
Y137055D02*
D03*
Y138325D02*
D03*
Y139595D02*
D03*
Y140865D02*
D03*
Y142135D02*
D03*
Y143405D02*
D03*
Y144675D02*
D03*
Y145945D02*
D03*
Y147215D02*
D03*
Y148485D02*
D03*
X139472D02*
D03*
Y147215D02*
D03*
Y145945D02*
D03*
Y144675D02*
D03*
Y143405D02*
D03*
Y142135D02*
D03*
Y140865D02*
D03*
Y139595D02*
D03*
Y138325D02*
D03*
Y137055D02*
D03*
Y135785D02*
D03*
X148528Y77515D02*
D03*
Y78785D02*
D03*
Y80055D02*
D03*
Y81325D02*
D03*
Y82595D02*
D03*
Y83865D02*
D03*
Y85135D02*
D03*
Y86405D02*
D03*
Y87675D02*
D03*
Y88945D02*
D03*
Y90215D02*
D03*
Y91485D02*
D03*
X139472D02*
D03*
Y90215D02*
D03*
Y88945D02*
D03*
Y87675D02*
D03*
Y86405D02*
D03*
Y85135D02*
D03*
Y83865D02*
D03*
Y82595D02*
D03*
Y81325D02*
D03*
Y80055D02*
D03*
Y78785D02*
D03*
X148528Y20515D02*
D03*
Y21785D02*
D03*
Y23055D02*
D03*
Y24325D02*
D03*
Y25595D02*
D03*
Y26865D02*
D03*
Y28135D02*
D03*
Y29405D02*
D03*
Y30675D02*
D03*
Y31945D02*
D03*
Y33215D02*
D03*
Y34485D02*
D03*
X139472D02*
D03*
Y33215D02*
D03*
Y31945D02*
D03*
Y30675D02*
D03*
Y29405D02*
D03*
Y28135D02*
D03*
Y26865D02*
D03*
Y25595D02*
D03*
Y24325D02*
D03*
Y23055D02*
D03*
Y21785D02*
D03*
X90528Y134515D02*
D03*
Y135785D02*
D03*
Y137055D02*
D03*
Y138325D02*
D03*
Y139595D02*
D03*
Y140865D02*
D03*
Y142135D02*
D03*
Y143405D02*
D03*
Y144675D02*
D03*
Y145945D02*
D03*
Y147215D02*
D03*
Y148485D02*
D03*
X81472D02*
D03*
Y147215D02*
D03*
Y145945D02*
D03*
Y144675D02*
D03*
Y143405D02*
D03*
Y142135D02*
D03*
Y140865D02*
D03*
Y139595D02*
D03*
Y138325D02*
D03*
Y137055D02*
D03*
Y135785D02*
D03*
X90528Y77515D02*
D03*
Y78785D02*
D03*
Y80055D02*
D03*
Y81325D02*
D03*
Y82595D02*
D03*
Y83865D02*
D03*
Y85135D02*
D03*
Y86405D02*
D03*
Y87675D02*
D03*
Y88945D02*
D03*
Y90215D02*
D03*
Y91485D02*
D03*
X81472D02*
D03*
Y90215D02*
D03*
Y88945D02*
D03*
Y87675D02*
D03*
Y86405D02*
D03*
Y85135D02*
D03*
Y83865D02*
D03*
Y82595D02*
D03*
Y81325D02*
D03*
Y80055D02*
D03*
Y78785D02*
D03*
X90528Y20515D02*
D03*
Y21785D02*
D03*
Y23055D02*
D03*
Y24325D02*
D03*
Y25595D02*
D03*
Y26865D02*
D03*
Y28135D02*
D03*
Y29405D02*
D03*
Y30675D02*
D03*
Y31945D02*
D03*
Y33215D02*
D03*
Y34485D02*
D03*
X81472D02*
D03*
Y33215D02*
D03*
Y31945D02*
D03*
Y30675D02*
D03*
Y29405D02*
D03*
Y28135D02*
D03*
Y26865D02*
D03*
Y25595D02*
D03*
Y24325D02*
D03*
Y23055D02*
D03*
Y21785D02*
D03*
X32528Y134515D02*
D03*
Y135785D02*
D03*
Y137055D02*
D03*
Y138325D02*
D03*
Y139595D02*
D03*
Y140865D02*
D03*
Y142135D02*
D03*
Y143405D02*
D03*
Y144675D02*
D03*
Y145945D02*
D03*
Y147215D02*
D03*
Y148485D02*
D03*
X23472D02*
D03*
Y147215D02*
D03*
Y145945D02*
D03*
Y144675D02*
D03*
Y143405D02*
D03*
Y142135D02*
D03*
Y140865D02*
D03*
Y139595D02*
D03*
Y138325D02*
D03*
Y137055D02*
D03*
Y135785D02*
D03*
X32528Y77515D02*
D03*
Y78785D02*
D03*
Y80055D02*
D03*
Y81325D02*
D03*
Y82595D02*
D03*
Y83865D02*
D03*
Y85135D02*
D03*
Y86405D02*
D03*
Y87675D02*
D03*
Y88945D02*
D03*
Y90215D02*
D03*
Y91485D02*
D03*
X23472D02*
D03*
Y90215D02*
D03*
Y88945D02*
D03*
Y87675D02*
D03*
Y86405D02*
D03*
Y85135D02*
D03*
Y83865D02*
D03*
Y82595D02*
D03*
Y81325D02*
D03*
Y80055D02*
D03*
Y78785D02*
D03*
X32528Y20515D02*
D03*
Y21785D02*
D03*
Y23055D02*
D03*
Y24325D02*
D03*
Y25595D02*
D03*
Y26865D02*
D03*
Y28135D02*
D03*
Y29405D02*
D03*
Y30675D02*
D03*
Y31945D02*
D03*
Y33215D02*
D03*
Y34485D02*
D03*
X23472D02*
D03*
Y33215D02*
D03*
Y31945D02*
D03*
Y30675D02*
D03*
Y29405D02*
D03*
Y28135D02*
D03*
Y26865D02*
D03*
Y25595D02*
D03*
Y24325D02*
D03*
Y23055D02*
D03*
Y21785D02*
D03*
D19*
X139472Y134515D02*
D03*
X139472Y77515D02*
D03*
X139472Y20515D02*
D03*
X81472Y134515D02*
D03*
Y77515D02*
D03*
Y20515D02*
D03*
X23472Y134515D02*
D03*
Y77515D02*
D03*
Y20515D02*
D03*
D20*
X144825Y131500D02*
D03*
X143175D02*
D03*
X144825Y74500D02*
D03*
X143175D02*
D03*
X144825Y17500D02*
D03*
X143175D02*
D03*
X86825Y131500D02*
D03*
X85175D02*
D03*
X86825Y74500D02*
D03*
X85175D02*
D03*
X86825Y17500D02*
D03*
X85175D02*
D03*
X28825Y131500D02*
D03*
X27175D02*
D03*
X28825Y74500D02*
D03*
X27175D02*
D03*
X28825Y17500D02*
D03*
X27175D02*
D03*
D21*
X154000Y140500D02*
D03*
Y142450D02*
D03*
X154000Y83500D02*
D03*
Y85450D02*
D03*
X154000Y26500D02*
D03*
Y28450D02*
D03*
X96000Y140500D02*
D03*
Y142450D02*
D03*
Y83500D02*
D03*
Y85450D02*
D03*
Y26500D02*
D03*
Y28450D02*
D03*
X38000Y140500D02*
D03*
Y142450D02*
D03*
Y83500D02*
D03*
Y85450D02*
D03*
Y26500D02*
D03*
Y28450D02*
D03*
%TF.MD5,30d313a98e5fb49183e9222b3a1bbe06*%
M02*
